<svg id="Layer_1" data-name="Layer 1" xmlns="http://www.w3.org/2000/svg" viewBox="0 0 1011.66 545.77"><path d="M788.39,285.31C788.39,436,666.21,558.2,515.5,558.2c-147.45,0-267.59-117-272.72-263.15H283.6V273.47h-31v-60.2h-.36C283.82,97.52,389.73,12.43,515.5,12.43,666.21,12.43,788.39,134.6,788.39,285.31Z" transform="translate(3 -12.43)" style="fill:#fff"/><path d="M0,213.27v81.78H24.77V213.27Zm129.23,39.61c8-1.72,14-8.58,14-18.76,0-9.57-7.36-20.85-24.28-20.85H69.28v81.79h51.37c16.43,0,24.16-10.79,24.16-22.19C144.81,262.32,138.06,254.23,129.23,252.88ZM94,233.38h19.13a5,5,0,0,1,4.9,5,5.17,5.17,0,0,1-4.9,5.27H94Zm19.87,41.56H94V263.78h19.87a5.57,5.57,0,0,1,5.76,5.65A5.4,5.4,0,0,1,113.91,274.94Zm102.87-41.07v-20.6H154.73v81.78h62.05v-20.6H179.51V264h36.41v-20.6H179.51v-9.56Zm35.44-20.6H227.81v81.78h15q-.17-4.85-.17-9.74A273.39,273.39,0,0,1,252.22,213.27Z" transform="translate(3 -12.43)" style="fill:#d29229"/><polygon points="744.08 200.84 744.08 222.42 722.25 222.42 722.25 282.62 697.49 282.62 697.49 222.42 675.54 222.42 675.54 200.84 744.08 200.84" style="fill:#777;stroke:#777"/><path d="M649.73,213.27H618.59l-30.16,81.78h26.85l3.19-10.54h31.39L653,295.05h26.85Zm-24.89,50.64,9.32-28.81,9.32,28.81Z" transform="translate(3 -12.43)" style="fill:#777;stroke:#777"/><path d="M555,247.11V280a48.58,48.58,0,0,1-37.4,16.55c-24.76,0-45-16.18-45-42.3s20.22-42.31,45-42.31c19,0,30.28,9.56,35.92,20.11l-20.84,10.66a16.94,16.94,0,0,0-15.08-8.95c-11.9,0-19.87,9.07-19.87,20.47s8,20.48,19.87,20.48c5.27,0,10.18-1.35,13.36-3.68v-3.56H515.11V247.11Z" transform="translate(3 -12.43)" style="fill:#777;stroke:#777"/><polygon points="466.72 200.84 466.72 282.62 442.94 282.62 412.78 238.73 412.78 282.62 388.01 282.62 388.01 200.84 413.51 200.84 441.96 242.04 441.96 200.84 466.72 200.84" style="fill:#777;stroke:#777"/><path d="M331.43,211.92c-25.26,0-44.76,17.16-44.76,42.3s19.5,42.3,44.76,42.3,44.75-17.16,44.75-42.3S356.69,211.92,331.43,211.92Zm0,62.78c-11.9,0-19.62-9.08-19.62-20.48s7.72-20.47,19.62-20.47S351,242.82,351,254.22,343.32,274.7,331.43,274.7Z" transform="translate(3 -12.43)" style="fill:#777;stroke:#777"/><path d="M283.6,273.47v21.58H242.78q-.17-4.85-.17-9.74a273.39,273.39,0,0,1,9.61-72h.36v60.2Z" transform="translate(3 -12.43)" style="fill:#777;stroke:#777"/><path d="M60.83,377.65l-10.7,47H23.76L0,341.7H28.11l10.7,50.75L51.37,341.7h18.9l12.57,50.75L93.41,341.7h28.23l-23.76,83H71.51Z" transform="translate(3 -12.43)" style="stroke:#000;stroke-width:2px"/><path d="M161.08,398.05H152v26.62H126.88v-83h44.28c19.41,0,29.85,12.94,29.85,28.48,0,14.31-8.33,21.9-14.93,25.13l15,29.36H172.52Zm6.22-35.46H152v14.56h15.3c4.23,0,8.21-2.74,8.21-7.34S171.53,362.59,167.3,362.59Z" transform="translate(3 -12.43)" style="stroke:#000;stroke-width:2px"/><path d="M211.21,341.7h62.94v20.9H236.34v9.7h36.94v20.9H236.34v10.57h37.81v20.9H211.21Z" transform="translate(3 -12.43)" style="stroke:#000;stroke-width:2px"/><path d="M280.87,383.25c0-25.63,19.65-42.91,45-42.91,22.39,0,33.34,12.68,38.31,24.13l-21.65,10.07a17.75,17.75,0,0,0-16.67-12.06c-11.44,0-19.52,9.21-19.52,20.77S314.44,404,325.88,404A17.77,17.77,0,0,0,342.55,392l21.65,9.94c-4.85,11.07-15.92,24.26-38.31,24.26C300.52,426.16,280.87,408.74,280.87,383.25Z" transform="translate(3 -12.43)" style="stroke:#000;stroke-width:2px"/><path d="M401.77,395.44l-4.6,6.21v23H372v-83h25.13v31.1l21.76-31.1h30.72l-31.34,38.56L451,424.67h-30.6Z" transform="translate(3 -12.43)" style="stroke:#000;stroke-width:2px"/><path d="M455.51,341.7h25.12v83H455.51Z" transform="translate(3 -12.43)" style="stroke:#000;stroke-width:2px"/><path d="M519.19,380.13v44.54H494.07v-83h25.87l28.85,41.79V341.7h25.13v83H549.79Z" transform="translate(3 -12.43)" style="stroke:#000;stroke-width:2px"/><path d="M628.52,340.34c19.28,0,30.73,9.7,36.45,20.4l-21.14,10.82a17.18,17.18,0,0,0-15.31-9.08c-12.06,0-20.15,9.21-20.15,20.77S616.45,404,628.52,404c5.36,0,10.33-1.37,13.56-3.73v-3.61H626V376h40.43v33.33a49.28,49.28,0,0,1-37.94,16.8c-25.12,0-45.65-16.42-45.65-42.91S603.4,340.34,628.52,340.34Z" transform="translate(3 -12.43)" style="stroke:#000;stroke-width:2px"/><path d="M709.38,341.7h50.37c17.17,0,24.63,11.44,24.63,21.15,0,10.32-6.1,17.28-14.19,19,9,1.37,15.8,9.58,15.8,20.27,0,11.57-7.84,22.52-24.51,22.52H709.37v-83Zm44.53,30.85a5.25,5.25,0,0,0,5-5.35,5.1,5.1,0,0,0-5-5.1H734.5v10.45Zm.74,31.72a5.49,5.49,0,0,0,5.85-5.6,5.66,5.66,0,0,0-5.85-5.73H734.5v11.32h20.15Z" transform="translate(3 -12.43)" style="stroke:#000;stroke-width:2px"/><path d="M849.44,414H817.6l-3.23,10.7H787.13l30.6-83h31.59l30.6,83H852.68Zm-25.38-20.9H843l-9.45-29.23Z" transform="translate(3 -12.43)" style="stroke:#000;stroke-width:2px"/><path d="M884.39,341.7h25.13v61.07H941v21.9h-56.6v-83Z" transform="translate(3 -12.43)" style="stroke:#000;stroke-width:2px"/><path d="M951.06,341.7h25.13v61.07h31.47v21.9h-56.6Z" transform="translate(3 -12.43)" style="stroke:#000;stroke-width:2px"/><text transform="translate(4.51 163.21)" style="font-size:125.86702728271484px;fill:none;stroke:#000;stroke-width:3px;font-family:ProximaNova-Black, Proxima Nova;font-weight:800">WHY</text></svg>