<?xml version="1.0" encoding="utf-8"?>
<!-- Generator: Adobe Illustrator 24.1.0, SVG Export Plug-In . SVG Version: 6.00 Build 0)  -->
<svg version="1.1" id="svg2180" xmlns:svg="http://www.w3.org/2000/svg"
	 xmlns="http://www.w3.org/2000/svg" xmlns:xlink="http://www.w3.org/1999/xlink" x="0px" y="0px" viewBox="0 0 756.34 398.99"
	 style="enable-background:new 0 0 756.34 398.99;" xml:space="preserve">
<style type="text/css">
	.st0{opacity:0.15;}
	.st1{fill:none;stroke:#A9A9A9;stroke-width:0.5;}
	.st2{fill:none;stroke:#3F3F3F;stroke-width:0.5;}
</style>
<g id="layer1" class="st0">
	<g id="g8191">
		<path id="path1872" class="st1" d="M9.99,0v199.87"/>
		<g id="use8185" transform="translate(20,0)">
			<path id="path1872_1_" class="st1" d="M19.99,0v199.87"/>
		</g>
		<g id="use8187" transform="translate(40,0)">
			<path id="path1872_2_" class="st1" d="M29.98,0v199.87"/>
		</g>
		<g id="use8189" transform="translate(60,0)">
			<path id="path1872_3_" class="st1" d="M39.97,0v199.87"/>
		</g>
	</g>
	<g id="use8197" transform="translate(100,0)">
		<g id="g8191_1_">
			<path id="path1872_4_" class="st1" d="M59.96,0v199.87"/>
			<g id="use8185_1_" transform="translate(20,0)">
				<path id="path1872_5_" class="st1" d="M69.96,0v199.87"/>
			</g>
			<g id="use8187_1_" transform="translate(40,0)">
				<path id="path1872_6_" class="st1" d="M79.95,0v199.87"/>
			</g>
			<g id="use8189_1_" transform="translate(60,0)">
				<path id="path1872_7_" class="st1" d="M89.94,0v199.87"/>
			</g>
		</g>
	</g>
	<g id="use8199" transform="translate(200,0)">
		<g id="g8191_2_">
			<path id="path1872_8_" class="st1" d="M109.93,0v199.87"/>
			<g id="use8185_2_" transform="translate(20,0)">
				<path id="path1872_9_" class="st1" d="M119.92,0v199.87"/>
			</g>
			<g id="use8187_2_" transform="translate(40,0)">
				<path id="path1872_10_" class="st1" d="M129.92,0v199.87"/>
			</g>
			<g id="use8189_2_" transform="translate(60,0)">
				<path id="path1872_11_" class="st1" d="M139.91,0v199.87"/>
			</g>
		</g>
	</g>
	<g id="use8201" transform="translate(300,0)">
		<g id="g8191_3_">
			<path id="path1872_12_" class="st1" d="M159.9,0v199.87"/>
			<g id="use8185_3_" transform="translate(20,0)">
				<path id="path1872_13_" class="st1" d="M169.89,0v199.87"/>
			</g>
			<g id="use8187_3_" transform="translate(40,0)">
				<path id="path1872_14_" class="st1" d="M179.89,0v199.87"/>
			</g>
			<g id="use8189_3_" transform="translate(60,0)">
				<path id="path1872_15_" class="st1" d="M189.88,0v199.87"/>
			</g>
		</g>
	</g>
	<g id="use8203" transform="matrix(0,1,-1,0,400,0)">
		<g id="g8191_4_">
			<path id="path1872_16_" class="st1" d="M199.87,9.99H0"/>
			<g id="use8185_4_" transform="translate(20,0)">
				<path id="path1872_17_" class="st1" d="M199.87,19.99H0"/>
			</g>
			<g id="use8187_4_" transform="translate(40,0)">
				<path id="path1872_18_" class="st1" d="M199.87,29.98H0"/>
			</g>
			<g id="use8189_4_" transform="translate(60,0)">
				<path id="path1872_19_" class="st1" d="M199.87,39.97H0"/>
			</g>
		</g>
	</g>
	<g id="use8205" transform="translate(0,100)">
		<g id="use8203_1_" transform="matrix(0,1,-1,0,400,0)">
			<g id="g8191_5_">
				<path id="path1872_20_" class="st1" d="M199.87,59.96H0"/>
				<g id="use8185_5_" transform="translate(20,0)">
					<path id="path1872_21_" class="st1" d="M199.87,69.96H0"/>
				</g>
				<g id="use8187_5_" transform="translate(40,0)">
					<path id="path1872_22_" class="st1" d="M199.87,79.95H0"/>
				</g>
				<g id="use8189_5_" transform="translate(60,0)">
					<path id="path1872_23_" class="st1" d="M199.87,89.94H0"/>
				</g>
			</g>
		</g>
	</g>
	<g id="use8207" transform="translate(0,200)">
		<g id="use8203_2_" transform="matrix(0,1,-1,0,400,0)">
			<g id="g8191_6_">
				<path id="path1872_24_" class="st1" d="M199.87,109.93H0"/>
				<g id="use8185_6_" transform="translate(20,0)">
					<path id="path1872_25_" class="st1" d="M199.87,119.92H0"/>
				</g>
				<g id="use8187_6_" transform="translate(40,0)">
					<path id="path1872_26_" class="st1" d="M199.87,129.92H0"/>
				</g>
				<g id="use8189_6_" transform="translate(60,0)">
					<path id="path1872_27_" class="st1" d="M199.87,139.91H0"/>
				</g>
			</g>
		</g>
	</g>
	<g id="use8209" transform="translate(0,300)">
		<g id="use8203_3_" transform="matrix(0,1,-1,0,400,0)">
			<g id="g8191_7_">
				<path id="path1872_28_" class="st1" d="M199.87,159.9H0"/>
				<g id="use8185_7_" transform="translate(20,0)">
					<path id="path1872_29_" class="st1" d="M199.87,169.89H0"/>
				</g>
				<g id="use8187_7_" transform="translate(40,0)">
					<path id="path1872_30_" class="st1" d="M199.87,179.89H0"/>
				</g>
				<g id="use8189_7_" transform="translate(60,0)">
					<path id="path1872_31_" class="st1" d="M199.87,189.88H0"/>
				</g>
			</g>
		</g>
	</g>
</g>
<g id="layer2" class="st0">
	<g id="g8225">
		<path id="path8215" class="st2" d="M49.97,0v199.87"/>
		<g id="use8217" transform="translate(100,0)">
			<path id="path8215_1_" class="st2" d="M99.94,0v199.87"/>
		</g>
		<g id="use8219" transform="translate(200,0)">
			<path id="path8215_2_" class="st2" d="M149.91,0v199.87"/>
		</g>
	</g>
	<g id="use8232" transform="matrix(0,1,-1,0,400,0)">
		<g id="g8225_1_">
			<path id="path8215_3_" class="st2" d="M199.87,49.97H0"/>
			<g id="use8217_1_" transform="translate(100,0)">
				<path id="path8215_4_" class="st2" d="M199.87,99.94H0"/>
			</g>
			<g id="use8219_1_" transform="translate(200,0)">
				<path id="path8215_5_" class="st2" d="M199.87,149.91H0"/>
			</g>
		</g>
	</g>
</g>
<g id="layer3" class="st0">
	<rect id="rect10078" x="0.25" y="0.25" class="st2" width="199.38" height="199.38"/>
</g>
<g id="layer1_1_" class="st0">
	<g id="g8191_15_">
		<path id="path1872_63_" class="st1" d="M209.62,0v199.87"/>
		<g id="use8185_15_" transform="translate(20,0)">
			<path id="path1872_62_" class="st1" d="M219.61,0v199.87"/>
		</g>
		<g id="use8187_15_" transform="translate(40,0)">
			<path id="path1872_61_" class="st1" d="M229.61,0v199.87"/>
		</g>
		<g id="use8189_15_" transform="translate(60,0)">
			<path id="path1872_60_" class="st1" d="M239.6,0v199.87"/>
		</g>
	</g>
	<g id="use8197_1_" transform="translate(100,0)">
		<g id="g8191_14_">
			<path id="path1872_59_" class="st1" d="M259.59,0v199.87"/>
			<g id="use8185_14_" transform="translate(20,0)">
				<path id="path1872_58_" class="st1" d="M269.58,0v199.87"/>
			</g>
			<g id="use8187_14_" transform="translate(40,0)">
				<path id="path1872_57_" class="st1" d="M279.58,0v199.87"/>
			</g>
			<g id="use8189_14_" transform="translate(60,0)">
				<path id="path1872_56_" class="st1" d="M289.57,0v199.87"/>
			</g>
		</g>
	</g>
	<g id="use8199_1_" transform="translate(200,0)">
		<g id="g8191_13_">
			<path id="path1872_55_" class="st1" d="M309.56,0v199.87"/>
			<g id="use8185_13_" transform="translate(20,0)">
				<path id="path1872_54_" class="st1" d="M319.55,0v199.87"/>
			</g>
			<g id="use8187_13_" transform="translate(40,0)">
				<path id="path1872_53_" class="st1" d="M329.54,0v199.87"/>
			</g>
			<g id="use8189_13_" transform="translate(60,0)">
				<path id="path1872_52_" class="st1" d="M339.54,0v199.87"/>
			</g>
		</g>
	</g>
	<g id="use8201_1_" transform="translate(300,0)">
		<g id="g8191_12_">
			<path id="path1872_51_" class="st1" d="M359.53,0v199.87"/>
			<g id="use8185_12_" transform="translate(20,0)">
				<path id="path1872_50_" class="st1" d="M369.52,0v199.87"/>
			</g>
			<g id="use8187_12_" transform="translate(40,0)">
				<path id="path1872_49_" class="st1" d="M379.51,0v199.87"/>
			</g>
			<g id="use8189_12_" transform="translate(60,0)">
				<path id="path1872_48_" class="st1" d="M389.51,0v199.87"/>
			</g>
		</g>
	</g>
	<g id="use8203_7_" transform="matrix(0,1,-1,0,400,0)">
		<g id="g8191_11_">
			<path id="path1872_47_" class="st1" d="M399.5,9.99H199.63"/>
			<g id="use8185_11_" transform="translate(20,0)">
				<path id="path1872_46_" class="st1" d="M399.5,19.99H199.63"/>
			</g>
			<g id="use8187_11_" transform="translate(40,0)">
				<path id="path1872_45_" class="st1" d="M399.5,29.98H199.63"/>
			</g>
			<g id="use8189_11_" transform="translate(60,0)">
				<path id="path1872_44_" class="st1" d="M399.5,39.97H199.63"/>
			</g>
		</g>
	</g>
	<g id="use8205_1_" transform="translate(0,100)">
		<g id="use8203_6_" transform="matrix(0,1,-1,0,400,0)">
			<g id="g8191_10_">
				<path id="path1872_43_" class="st1" d="M399.5,59.96H199.63"/>
				<g id="use8185_10_" transform="translate(20,0)">
					<path id="path1872_42_" class="st1" d="M399.5,69.96H199.63"/>
				</g>
				<g id="use8187_10_" transform="translate(40,0)">
					<path id="path1872_41_" class="st1" d="M399.5,79.95H199.63"/>
				</g>
				<g id="use8189_10_" transform="translate(60,0)">
					<path id="path1872_40_" class="st1" d="M399.5,89.94H199.63"/>
				</g>
			</g>
		</g>
	</g>
	<g id="use8207_1_" transform="translate(0,200)">
		<g id="use8203_5_" transform="matrix(0,1,-1,0,400,0)">
			<g id="g8191_9_">
				<path id="path1872_39_" class="st1" d="M399.5,109.93H199.63"/>
				<g id="use8185_9_" transform="translate(20,0)">
					<path id="path1872_38_" class="st1" d="M399.5,119.92H199.63"/>
				</g>
				<g id="use8187_9_" transform="translate(40,0)">
					<path id="path1872_37_" class="st1" d="M399.5,129.92H199.63"/>
				</g>
				<g id="use8189_9_" transform="translate(60,0)">
					<path id="path1872_36_" class="st1" d="M399.5,139.91H199.63"/>
				</g>
			</g>
		</g>
	</g>
	<g id="use8209_1_" transform="translate(0,300)">
		<g id="use8203_4_" transform="matrix(0,1,-1,0,400,0)">
			<g id="g8191_8_">
				<path id="path1872_35_" class="st1" d="M399.5,159.9H199.63"/>
				<g id="use8185_8_" transform="translate(20,0)">
					<path id="path1872_34_" class="st1" d="M399.5,169.89H199.63"/>
				</g>
				<g id="use8187_8_" transform="translate(40,0)">
					<path id="path1872_33_" class="st1" d="M399.5,179.89H199.63"/>
				</g>
				<g id="use8189_8_" transform="translate(60,0)">
					<path id="path1872_32_" class="st1" d="M399.5,189.88H199.63"/>
				</g>
			</g>
		</g>
	</g>
</g>
<g id="layer2_1_" class="st0">
	<g id="g8225_3_">
		<path id="path8215_11_" class="st2" d="M249.59,0v199.87"/>
		<g id="use8217_3_" transform="translate(100,0)">
			<path id="path8215_10_" class="st2" d="M299.56,0v199.87"/>
		</g>
		<g id="use8219_3_" transform="translate(200,0)">
			<path id="path8215_9_" class="st2" d="M349.53,0v199.87"/>
		</g>
	</g>
	<g id="use8232_1_" transform="matrix(0,1,-1,0,400,0)">
		<g id="g8225_2_">
			<path id="path8215_8_" class="st2" d="M399.5,49.97H199.63"/>
			<g id="use8217_2_" transform="translate(100,0)">
				<path id="path8215_7_" class="st2" d="M399.5,99.94H199.63"/>
			</g>
			<g id="use8219_2_" transform="translate(200,0)">
				<path id="path8215_6_" class="st2" d="M399.5,149.91H199.63"/>
			</g>
		</g>
	</g>
</g>
<g id="layer3_1_" class="st0">
	<polyline id="rect10078_3_" class="st2" points="199.87,0.25 399.25,0.25 399.25,199.63 199.87,199.63 	"/>
</g>
<g id="layer1_2_" class="st0">
	<g id="g8191_23_">
		<path id="path1872_95_" class="st1" d="M9.99,199.36v199.87"/>
		<g id="use8185_23_" transform="translate(20,0)">
			<path id="path1872_94_" class="st1" d="M19.99,199.36v199.87"/>
		</g>
		<g id="use8187_23_" transform="translate(40,0)">
			<path id="path1872_93_" class="st1" d="M29.98,199.36v199.87"/>
		</g>
		<g id="use8189_23_" transform="translate(60,0)">
			<path id="path1872_92_" class="st1" d="M39.97,199.36v199.87"/>
		</g>
	</g>
	<g id="use8197_2_" transform="translate(100,0)">
		<g id="g8191_22_">
			<path id="path1872_91_" class="st1" d="M59.96,199.36v199.87"/>
			<g id="use8185_22_" transform="translate(20,0)">
				<path id="path1872_90_" class="st1" d="M69.96,199.36v199.87"/>
			</g>
			<g id="use8187_22_" transform="translate(40,0)">
				<path id="path1872_89_" class="st1" d="M79.95,199.36v199.87"/>
			</g>
			<g id="use8189_22_" transform="translate(60,0)">
				<path id="path1872_88_" class="st1" d="M89.94,199.36v199.87"/>
			</g>
		</g>
	</g>
	<g id="use8199_2_" transform="translate(200,0)">
		<g id="g8191_21_">
			<path id="path1872_87_" class="st1" d="M109.93,199.36v199.87"/>
			<g id="use8185_21_" transform="translate(20,0)">
				<path id="path1872_86_" class="st1" d="M119.92,199.36v199.87"/>
			</g>
			<g id="use8187_21_" transform="translate(40,0)">
				<path id="path1872_85_" class="st1" d="M129.92,199.36v199.87"/>
			</g>
			<g id="use8189_21_" transform="translate(60,0)">
				<path id="path1872_84_" class="st1" d="M139.91,199.36v199.87"/>
			</g>
		</g>
	</g>
	<g id="use8201_2_" transform="translate(300,0)">
		<g id="g8191_20_">
			<path id="path1872_83_" class="st1" d="M159.9,199.36v199.87"/>
			<g id="use8185_20_" transform="translate(20,0)">
				<path id="path1872_82_" class="st1" d="M169.89,199.36v199.87"/>
			</g>
			<g id="use8187_20_" transform="translate(40,0)">
				<path id="path1872_81_" class="st1" d="M179.89,199.36v199.87"/>
			</g>
			<g id="use8189_20_" transform="translate(60,0)">
				<path id="path1872_80_" class="st1" d="M189.88,199.36v199.87"/>
			</g>
		</g>
	</g>
	<g id="use8203_11_" transform="matrix(0,1,-1,0,400,0)">
		<g id="g8191_19_">
			<path id="path1872_79_" class="st1" d="M199.87,209.36H0"/>
			<g id="use8185_19_" transform="translate(20,0)">
				<path id="path1872_78_" class="st1" d="M199.87,219.35H0"/>
			</g>
			<g id="use8187_19_" transform="translate(40,0)">
				<path id="path1872_77_" class="st1" d="M199.87,229.34H0"/>
			</g>
			<g id="use8189_19_" transform="translate(60,0)">
				<path id="path1872_76_" class="st1" d="M199.87,239.34H0"/>
			</g>
		</g>
	</g>
	<g id="use8205_2_" transform="translate(0,100)">
		<g id="use8203_10_" transform="matrix(0,1,-1,0,400,0)">
			<g id="g8191_18_">
				<path id="path1872_75_" class="st1" d="M199.87,259.32H0"/>
				<g id="use8185_18_" transform="translate(20,0)">
					<path id="path1872_74_" class="st1" d="M199.87,269.32H0"/>
				</g>
				<g id="use8187_18_" transform="translate(40,0)">
					<path id="path1872_73_" class="st1" d="M199.87,279.31H0"/>
				</g>
				<g id="use8189_18_" transform="translate(60,0)">
					<path id="path1872_72_" class="st1" d="M199.87,289.31H0"/>
				</g>
			</g>
		</g>
	</g>
	<g id="use8207_2_" transform="translate(0,200)">
		<g id="use8203_9_" transform="matrix(0,1,-1,0,400,0)">
			<g id="g8191_17_">
				<path id="path1872_71_" class="st1" d="M199.87,309.29H0"/>
				<g id="use8185_17_" transform="translate(20,0)">
					<path id="path1872_70_" class="st1" d="M199.87,319.29H0"/>
				</g>
				<g id="use8187_17_" transform="translate(40,0)">
					<path id="path1872_69_" class="st1" d="M199.87,329.28H0"/>
				</g>
				<g id="use8189_17_" transform="translate(60,0)">
					<path id="path1872_68_" class="st1" d="M199.87,339.27H0"/>
				</g>
			</g>
		</g>
	</g>
	<g id="use8209_2_" transform="translate(0,300)">
		<g id="use8203_8_" transform="matrix(0,1,-1,0,400,0)">
			<g id="g8191_16_">
				<path id="path1872_67_" class="st1" d="M199.87,359.26H0"/>
				<g id="use8185_16_" transform="translate(20,0)">
					<path id="path1872_66_" class="st1" d="M199.87,369.26H0"/>
				</g>
				<g id="use8187_16_" transform="translate(40,0)">
					<path id="path1872_65_" class="st1" d="M199.87,379.25H0"/>
				</g>
				<g id="use8189_16_" transform="translate(60,0)">
					<path id="path1872_64_" class="st1" d="M199.87,389.24H0"/>
				</g>
			</g>
		</g>
	</g>
</g>
<g id="layer2_2_" class="st0">
	<g id="g8225_5_">
		<path id="path8215_17_" class="st2" d="M49.97,199.36v199.87"/>
		<g id="use8217_5_" transform="translate(100,0)">
			<path id="path8215_16_" class="st2" d="M99.94,199.36v199.87"/>
		</g>
		<g id="use8219_5_" transform="translate(200,0)">
			<path id="path8215_15_" class="st2" d="M149.91,199.36v199.87"/>
		</g>
	</g>
	<g id="use8232_2_" transform="matrix(0,1,-1,0,400,0)">
		<g id="g8225_4_">
			<path id="path8215_14_" class="st2" d="M199.87,249.33H0"/>
			<g id="use8217_4_" transform="translate(100,0)">
				<path id="path8215_13_" class="st2" d="M199.87,299.3H0"/>
			</g>
			<g id="use8219_4_" transform="translate(200,0)">
				<path id="path8215_12_" class="st2" d="M199.87,349.27H0"/>
			</g>
		</g>
	</g>
</g>
<g id="layer3_2_" class="st0">
	<polyline id="rect10078_1_" class="st2" points="199.63,199.61 199.63,398.99 0.25,398.99 0.25,199.61 	"/>
</g>
<g id="layer1_3_" class="st0">
	<g id="g8191_31_">
		<path id="path1872_127_" class="st1" d="M209.62,199.36v199.87"/>
		<g id="use8185_31_" transform="translate(20,0)">
			<path id="path1872_126_" class="st1" d="M219.61,199.36v199.87"/>
		</g>
		<g id="use8187_31_" transform="translate(40,0)">
			<path id="path1872_125_" class="st1" d="M229.61,199.36v199.87"/>
		</g>
		<g id="use8189_31_" transform="translate(60,0)">
			<path id="path1872_124_" class="st1" d="M239.6,199.36v199.87"/>
		</g>
	</g>
	<g id="use8197_3_" transform="translate(100,0)">
		<g id="g8191_30_">
			<path id="path1872_123_" class="st1" d="M259.59,199.36v199.87"/>
			<g id="use8185_30_" transform="translate(20,0)">
				<path id="path1872_122_" class="st1" d="M269.58,199.36v199.87"/>
			</g>
			<g id="use8187_30_" transform="translate(40,0)">
				<path id="path1872_121_" class="st1" d="M279.58,199.36v199.87"/>
			</g>
			<g id="use8189_30_" transform="translate(60,0)">
				<path id="path1872_120_" class="st1" d="M289.57,199.36v199.87"/>
			</g>
		</g>
	</g>
	<g id="use8199_3_" transform="translate(200,0)">
		<g id="g8191_29_">
			<path id="path1872_119_" class="st1" d="M309.56,199.36v199.87"/>
			<g id="use8185_29_" transform="translate(20,0)">
				<path id="path1872_118_" class="st1" d="M319.55,199.36v199.87"/>
			</g>
			<g id="use8187_29_" transform="translate(40,0)">
				<path id="path1872_117_" class="st1" d="M329.54,199.36v199.87"/>
			</g>
			<g id="use8189_29_" transform="translate(60,0)">
				<path id="path1872_116_" class="st1" d="M339.54,199.36v199.87"/>
			</g>
		</g>
	</g>
	<g id="use8201_3_" transform="translate(300,0)">
		<g id="g8191_28_">
			<path id="path1872_115_" class="st1" d="M359.53,199.36v199.87"/>
			<g id="use8185_28_" transform="translate(20,0)">
				<path id="path1872_114_" class="st1" d="M369.52,199.36v199.87"/>
			</g>
			<g id="use8187_28_" transform="translate(40,0)">
				<path id="path1872_113_" class="st1" d="M379.51,199.36v199.87"/>
			</g>
			<g id="use8189_28_" transform="translate(60,0)">
				<path id="path1872_112_" class="st1" d="M389.51,199.36v199.87"/>
			</g>
		</g>
	</g>
	<g id="use8203_15_" transform="matrix(0,1,-1,0,400,0)">
		<g id="g8191_27_">
			<path id="path1872_111_" class="st1" d="M399.5,209.36H199.63"/>
			<g id="use8185_27_" transform="translate(20,0)">
				<path id="path1872_110_" class="st1" d="M399.5,219.35H199.63"/>
			</g>
			<g id="use8187_27_" transform="translate(40,0)">
				<path id="path1872_109_" class="st1" d="M399.5,229.34H199.63"/>
			</g>
			<g id="use8189_27_" transform="translate(60,0)">
				<path id="path1872_108_" class="st1" d="M399.5,239.34H199.63"/>
			</g>
		</g>
	</g>
	<g id="use8205_3_" transform="translate(0,100)">
		<g id="use8203_14_" transform="matrix(0,1,-1,0,400,0)">
			<g id="g8191_26_">
				<path id="path1872_107_" class="st1" d="M399.5,259.32H199.63"/>
				<g id="use8185_26_" transform="translate(20,0)">
					<path id="path1872_106_" class="st1" d="M399.5,269.32H199.63"/>
				</g>
				<g id="use8187_26_" transform="translate(40,0)">
					<path id="path1872_105_" class="st1" d="M399.5,279.31H199.63"/>
				</g>
				<g id="use8189_26_" transform="translate(60,0)">
					<path id="path1872_104_" class="st1" d="M399.5,289.31H199.63"/>
				</g>
			</g>
		</g>
	</g>
	<g id="use8207_3_" transform="translate(0,200)">
		<g id="use8203_13_" transform="matrix(0,1,-1,0,400,0)">
			<g id="g8191_25_">
				<path id="path1872_103_" class="st1" d="M399.5,309.29H199.63"/>
				<g id="use8185_25_" transform="translate(20,0)">
					<path id="path1872_102_" class="st1" d="M399.5,319.29H199.63"/>
				</g>
				<g id="use8187_25_" transform="translate(40,0)">
					<path id="path1872_101_" class="st1" d="M399.5,329.28H199.63"/>
				</g>
				<g id="use8189_25_" transform="translate(60,0)">
					<path id="path1872_100_" class="st1" d="M399.5,339.27H199.63"/>
				</g>
			</g>
		</g>
	</g>
	<g id="use8209_3_" transform="translate(0,300)">
		<g id="use8203_12_" transform="matrix(0,1,-1,0,400,0)">
			<g id="g8191_24_">
				<path id="path1872_99_" class="st1" d="M399.5,359.26H199.63"/>
				<g id="use8185_24_" transform="translate(20,0)">
					<path id="path1872_98_" class="st1" d="M399.5,369.26H199.63"/>
				</g>
				<g id="use8187_24_" transform="translate(40,0)">
					<path id="path1872_97_" class="st1" d="M399.5,379.25H199.63"/>
				</g>
				<g id="use8189_24_" transform="translate(60,0)">
					<path id="path1872_96_" class="st1" d="M399.5,389.24H199.63"/>
				</g>
			</g>
		</g>
	</g>
</g>
<g id="layer2_3_" class="st0">
	<g id="g8225_7_">
		<path id="path8215_23_" class="st2" d="M249.59,199.36v199.87"/>
		<g id="use8217_7_" transform="translate(100,0)">
			<path id="path8215_22_" class="st2" d="M299.56,199.36v199.87"/>
		</g>
		<g id="use8219_7_" transform="translate(200,0)">
			<path id="path8215_21_" class="st2" d="M349.53,199.36v199.87"/>
		</g>
	</g>
	<g id="use8232_3_" transform="matrix(0,1,-1,0,400,0)">
		<g id="g8225_6_">
			<path id="path8215_20_" class="st2" d="M399.5,249.33H199.63"/>
			<g id="use8217_6_" transform="translate(100,0)">
				<path id="path8215_19_" class="st2" d="M399.5,299.3H199.63"/>
			</g>
			<g id="use8219_6_" transform="translate(200,0)">
				<path id="path8215_18_" class="st2" d="M399.5,349.27H199.63"/>
			</g>
		</g>
	</g>
</g>
<g id="layer1_7_" class="st0">
	<g id="g8191_63_">
		<path id="path1872_255_" class="st1" d="M409.45-0.01v199.87"/>
		<g id="use8185_63_" transform="translate(20,0)">
			<path id="path1872_254_" class="st1" d="M419.45-0.01v199.87"/>
		</g>
		<g id="use8187_63_" transform="translate(40,0)">
			<path id="path1872_253_" class="st1" d="M429.44-0.01v199.87"/>
		</g>
		<g id="use8189_63_" transform="translate(60,0)">
			<path id="path1872_252_" class="st1" d="M439.44-0.01v199.87"/>
		</g>
	</g>
	<g id="use8197_7_" transform="translate(100,0)">
		<g id="g8191_62_">
			<path id="path1872_251_" class="st1" d="M459.42-0.01v199.87"/>
			<g id="use8185_62_" transform="translate(20,0)">
				<path id="path1872_250_" class="st1" d="M469.42-0.01v199.87"/>
			</g>
			<g id="use8187_62_" transform="translate(40,0)">
				<path id="path1872_249_" class="st1" d="M479.41-0.01v199.87"/>
			</g>
			<g id="use8189_62_" transform="translate(60,0)">
				<path id="path1872_248_" class="st1" d="M489.4-0.01v199.87"/>
			</g>
		</g>
	</g>
	<g id="use8199_7_" transform="translate(200,0)">
		<g id="g8191_61_">
			<path id="path1872_247_" class="st1" d="M509.39-0.01v199.87"/>
			<g id="use8185_61_" transform="translate(20,0)">
				<path id="path1872_246_" class="st1" d="M519.39-0.01v199.87"/>
			</g>
			<g id="use8187_61_" transform="translate(40,0)">
				<path id="path1872_245_" class="st1" d="M529.38-0.01v199.87"/>
			</g>
			<g id="use8189_61_" transform="translate(60,0)">
				<path id="path1872_244_" class="st1" d="M539.37-0.01v199.87"/>
			</g>
		</g>
	</g>
	<g id="use8201_7_" transform="translate(300,0)">
		<g id="g8191_60_">
			<path id="path1872_243_" class="st1" d="M559.36-0.01v199.87"/>
			<g id="use8185_60_" transform="translate(20,0)">
				<path id="path1872_242_" class="st1" d="M569.35-0.01v199.87"/>
			</g>
			<g id="use8187_60_" transform="translate(40,0)">
				<path id="path1872_241_" class="st1" d="M579.35-0.01v199.87"/>
			</g>
			<g id="use8189_60_" transform="translate(60,0)">
				<path id="path1872_240_" class="st1" d="M589.34-0.01v199.87"/>
			</g>
		</g>
	</g>
	<g id="use8203_31_" transform="matrix(0,1,-1,0,400,0)">
		<g id="g8191_59_">
			<path id="path1872_239_" class="st1" d="M599.34,9.99H399.46"/>
			<g id="use8185_59_" transform="translate(20,0)">
				<path id="path1872_238_" class="st1" d="M599.34,19.98H399.46"/>
			</g>
			<g id="use8187_59_" transform="translate(40,0)">
				<path id="path1872_237_" class="st1" d="M599.34,29.97H399.46"/>
			</g>
			<g id="use8189_59_" transform="translate(60,0)">
				<path id="path1872_236_" class="st1" d="M599.34,39.97H399.46"/>
			</g>
		</g>
	</g>
	<g id="use8205_7_" transform="translate(0,100)">
		<g id="use8203_30_" transform="matrix(0,1,-1,0,400,0)">
			<g id="g8191_58_">
				<path id="path1872_235_" class="st1" d="M599.34,59.96H399.46"/>
				<g id="use8185_58_" transform="translate(20,0)">
					<path id="path1872_234_" class="st1" d="M599.34,69.95H399.46"/>
				</g>
				<g id="use8187_58_" transform="translate(40,0)">
					<path id="path1872_233_" class="st1" d="M599.34,79.94H399.46"/>
				</g>
				<g id="use8189_58_" transform="translate(60,0)">
					<path id="path1872_232_" class="st1" d="M599.34,89.94H399.46"/>
				</g>
			</g>
		</g>
	</g>
	<g id="use8207_7_" transform="translate(0,200)">
		<g id="use8203_29_" transform="matrix(0,1,-1,0,400,0)">
			<g id="g8191_57_">
				<path id="path1872_231_" class="st1" d="M599.34,109.92H399.46"/>
				<g id="use8185_57_" transform="translate(20,0)">
					<path id="path1872_230_" class="st1" d="M599.34,119.92H399.46"/>
				</g>
				<g id="use8187_57_" transform="translate(40,0)">
					<path id="path1872_229_" class="st1" d="M599.34,129.91H399.46"/>
				</g>
				<g id="use8189_57_" transform="translate(60,0)">
					<path id="path1872_228_" class="st1" d="M599.34,139.91H399.46"/>
				</g>
			</g>
		</g>
	</g>
	<g id="use8209_7_" transform="translate(0,300)">
		<g id="use8203_28_" transform="matrix(0,1,-1,0,400,0)">
			<g id="g8191_56_">
				<path id="path1872_227_" class="st1" d="M599.34,159.89H399.46"/>
				<g id="use8185_56_" transform="translate(20,0)">
					<path id="path1872_226_" class="st1" d="M599.34,169.89H399.46"/>
				</g>
				<g id="use8187_56_" transform="translate(40,0)">
					<path id="path1872_225_" class="st1" d="M599.34,179.88H399.46"/>
				</g>
				<g id="use8189_56_" transform="translate(60,0)">
					<path id="path1872_224_" class="st1" d="M599.34,189.87H399.46"/>
				</g>
			</g>
		</g>
	</g>
</g>
<g id="layer2_7_" class="st0">
	<g id="g8225_15_">
		<path id="path8215_47_" class="st2" d="M449.43-0.01v199.87"/>
		<g id="use8217_15_" transform="translate(100,0)">
			<path id="path8215_46_" class="st2" d="M499.4-0.01v199.87"/>
		</g>
		<g id="use8219_15_" transform="translate(200,0)">
			<path id="path8215_45_" class="st2" d="M549.37-0.01v199.87"/>
		</g>
	</g>
	<g id="use8232_7_" transform="matrix(0,1,-1,0,400,0)">
		<g id="g8225_14_">
			<path id="path8215_44_" class="st2" d="M599.34,49.96H399.46"/>
			<g id="use8217_14_" transform="translate(100,0)">
				<path id="path8215_43_" class="st2" d="M599.34,99.93H399.46"/>
			</g>
			<g id="use8219_14_" transform="translate(200,0)">
				<path id="path8215_42_" class="st2" d="M599.34,149.9H399.46"/>
			</g>
		</g>
	</g>
</g>
<g id="layer3_5_" class="st0">
	<polyline id="rect10078_6_" class="st2" points="399.71,0.24 599.09,0.24 599.09,199.62 399.71,199.62 	"/>
</g>
<g id="layer1_6_" class="st0">
	<g id="g8191_55_">
		<path id="path1872_223_" class="st1" d="M609.08-0.01v199.87"/>
		<g id="use8185_55_" transform="translate(20,0)">
			<path id="path1872_222_" class="st1" d="M619.07-0.01v199.87"/>
		</g>
		<g id="use8187_55_" transform="translate(40,0)">
			<path id="path1872_221_" class="st1" d="M629.07-0.01v199.87"/>
		</g>
		<g id="use8189_55_" transform="translate(60,0)">
			<path id="path1872_220_" class="st1" d="M639.06-0.01v199.87"/>
		</g>
	</g>
	<g id="use8197_6_" transform="translate(100,0)">
		<g id="g8191_54_">
			<path id="path1872_219_" class="st1" d="M659.05-0.01v199.87"/>
			<g id="use8185_54_" transform="translate(20,0)">
				<path id="path1872_218_" class="st1" d="M669.04-0.01v199.87"/>
			</g>
			<g id="use8187_54_" transform="translate(40,0)">
				<path id="path1872_217_" class="st1" d="M679.04-0.01v199.87"/>
			</g>
			<g id="use8189_54_" transform="translate(60,0)">
				<path id="path1872_216_" class="st1" d="M689.03-0.01v199.87"/>
			</g>
		</g>
	</g>
	<g id="use8199_6_" transform="translate(200,0)">
		<g id="g8191_53_">
			<path id="path1872_215_" class="st1" d="M709.02-0.01v199.87"/>
			<g id="use8185_53_" transform="translate(20,0)">
				<path id="path1872_214_" class="st1" d="M719.01-0.01v199.87"/>
			</g>
			<g id="use8187_53_" transform="translate(40,0)">
				<path id="path1872_213_" class="st1" d="M729-0.01v199.87"/>
			</g>
			<g id="use8189_53_" transform="translate(60,0)">
				<path id="path1872_212_" class="st1" d="M739-0.01v199.87"/>
			</g>
		</g>
	</g>
	<g id="use8201_6_" transform="translate(300,0)">
		<g id="g8191_52_">
			<path id="path1872_211_" class="st1" d="M758.99-0.01v199.87"/>
			<g id="use8185_52_" transform="translate(20,0)">
				<path id="path1872_210_" class="st1" d="M768.98-0.01v199.87"/>
			</g>
			<g id="use8187_52_" transform="translate(40,0)">
				<path id="path1872_209_" class="st1" d="M778.97-0.01v199.87"/>
			</g>
			<g id="use8189_52_" transform="translate(60,0)">
				<path id="path1872_208_" class="st1" d="M788.97-0.01v199.87"/>
			</g>
		</g>
	</g>
	<g id="use8203_27_" transform="matrix(0,1,-1,0,400,0)">
		<g id="g8191_51_">
			<path id="path1872_207_" class="st1" d="M798.96,9.99H599.09"/>
			<g id="use8185_51_" transform="translate(20,0)">
				<path id="path1872_206_" class="st1" d="M798.96,19.98H599.09"/>
			</g>
			<g id="use8187_51_" transform="translate(40,0)">
				<path id="path1872_205_" class="st1" d="M798.96,29.97H599.09"/>
			</g>
			<g id="use8189_51_" transform="translate(60,0)">
				<path id="path1872_204_" class="st1" d="M798.96,39.97H599.09"/>
			</g>
		</g>
	</g>
	<g id="use8205_6_" transform="translate(0,100)">
		<g id="use8203_26_" transform="matrix(0,1,-1,0,400,0)">
			<g id="g8191_50_">
				<path id="path1872_203_" class="st1" d="M798.96,59.96H599.09"/>
				<g id="use8185_50_" transform="translate(20,0)">
					<path id="path1872_202_" class="st1" d="M798.96,69.95H599.09"/>
				</g>
				<g id="use8187_50_" transform="translate(40,0)">
					<path id="path1872_201_" class="st1" d="M798.96,79.94H599.09"/>
				</g>
				<g id="use8189_50_" transform="translate(60,0)">
					<path id="path1872_200_" class="st1" d="M798.96,89.94H599.09"/>
				</g>
			</g>
		</g>
	</g>
	<g id="use8207_6_" transform="translate(0,200)">
		<g id="use8203_25_" transform="matrix(0,1,-1,0,400,0)">
			<g id="g8191_49_">
				<path id="path1872_199_" class="st1" d="M798.96,109.92H599.09"/>
				<g id="use8185_49_" transform="translate(20,0)">
					<path id="path1872_198_" class="st1" d="M798.96,119.92H599.09"/>
				</g>
				<g id="use8187_49_" transform="translate(40,0)">
					<path id="path1872_197_" class="st1" d="M798.96,129.91H599.09"/>
				</g>
				<g id="use8189_49_" transform="translate(60,0)">
					<path id="path1872_196_" class="st1" d="M798.96,139.91H599.09"/>
				</g>
			</g>
		</g>
	</g>
	<g id="use8209_6_" transform="translate(0,300)">
		<g id="use8203_24_" transform="matrix(0,1,-1,0,400,0)">
			<g id="g8191_48_">
				<path id="path1872_195_" class="st1" d="M798.96,159.89H599.09"/>
				<g id="use8185_48_" transform="translate(20,0)">
					<path id="path1872_194_" class="st1" d="M798.96,169.89H599.09"/>
				</g>
				<g id="use8187_48_" transform="translate(40,0)">
					<path id="path1872_193_" class="st1" d="M798.96,179.88H599.09"/>
				</g>
				<g id="use8189_48_" transform="translate(60,0)">
					<path id="path1872_192_" class="st1" d="M798.96,189.87H599.09"/>
				</g>
			</g>
		</g>
	</g>
</g>
<g id="layer2_6_" class="st0">
	<g id="g8225_13_">
		<path id="path8215_41_" class="st2" d="M649.05-0.01v199.87"/>
		<g id="use8217_13_" transform="translate(100,0)">
			<path id="path8215_40_" class="st2" d="M699.02-0.01v199.87"/>
		</g>
		<g id="use8219_13_" transform="translate(200,0)">
			<path id="path8215_39_" class="st2" d="M748.99-0.01v199.87"/>
		</g>
	</g>
	<g id="use8232_6_" transform="matrix(0,1,-1,0,400,0)">
		<g id="g8225_12_">
			<path id="path8215_38_" class="st2" d="M798.96,49.96H599.09"/>
			<g id="use8217_12_" transform="translate(100,0)">
				<path id="path8215_37_" class="st2" d="M798.96,99.93H599.09"/>
			</g>
			<g id="use8219_12_" transform="translate(200,0)">
				<path id="path8215_36_" class="st2" d="M798.96,149.9H599.09"/>
			</g>
		</g>
	</g>
</g>
<g id="layer3_4_" class="st0">
	<polyline id="rect10078_4_" class="st2" points="599.34,0.24 798.71,0.24 798.71,199.62 599.34,199.62 	"/>
</g>
<g id="layer1_5_" class="st0">
	<g id="g8191_47_">
		<path id="path1872_191_" class="st1" d="M409.45,199.36v199.87"/>
		<g id="use8185_47_" transform="translate(20,0)">
			<path id="path1872_190_" class="st1" d="M419.45,199.36v199.87"/>
		</g>
		<g id="use8187_47_" transform="translate(40,0)">
			<path id="path1872_189_" class="st1" d="M429.44,199.36v199.87"/>
		</g>
		<g id="use8189_47_" transform="translate(60,0)">
			<path id="path1872_188_" class="st1" d="M439.44,199.36v199.87"/>
		</g>
	</g>
	<g id="use8197_5_" transform="translate(100,0)">
		<g id="g8191_46_">
			<path id="path1872_187_" class="st1" d="M459.42,199.36v199.87"/>
			<g id="use8185_46_" transform="translate(20,0)">
				<path id="path1872_186_" class="st1" d="M469.42,199.36v199.87"/>
			</g>
			<g id="use8187_46_" transform="translate(40,0)">
				<path id="path1872_185_" class="st1" d="M479.41,199.36v199.87"/>
			</g>
			<g id="use8189_46_" transform="translate(60,0)">
				<path id="path1872_184_" class="st1" d="M489.4,199.36v199.87"/>
			</g>
		</g>
	</g>
	<g id="use8199_5_" transform="translate(200,0)">
		<g id="g8191_45_">
			<path id="path1872_183_" class="st1" d="M509.39,199.36v199.87"/>
			<g id="use8185_45_" transform="translate(20,0)">
				<path id="path1872_182_" class="st1" d="M519.39,199.36v199.87"/>
			</g>
			<g id="use8187_45_" transform="translate(40,0)">
				<path id="path1872_181_" class="st1" d="M529.38,199.36v199.87"/>
			</g>
			<g id="use8189_45_" transform="translate(60,0)">
				<path id="path1872_180_" class="st1" d="M539.37,199.36v199.87"/>
			</g>
		</g>
	</g>
	<g id="use8201_5_" transform="translate(300,0)">
		<g id="g8191_44_">
			<path id="path1872_179_" class="st1" d="M559.36,199.36v199.87"/>
			<g id="use8185_44_" transform="translate(20,0)">
				<path id="path1872_178_" class="st1" d="M569.35,199.36v199.87"/>
			</g>
			<g id="use8187_44_" transform="translate(40,0)">
				<path id="path1872_177_" class="st1" d="M579.35,199.36v199.87"/>
			</g>
			<g id="use8189_44_" transform="translate(60,0)">
				<path id="path1872_176_" class="st1" d="M589.34,199.36v199.87"/>
			</g>
		</g>
	</g>
	<g id="use8203_23_" transform="matrix(0,1,-1,0,400,0)">
		<g id="g8191_43_">
			<path id="path1872_175_" class="st1" d="M599.34,209.35H399.46"/>
			<g id="use8185_43_" transform="translate(20,0)">
				<path id="path1872_174_" class="st1" d="M599.34,219.34H399.46"/>
			</g>
			<g id="use8187_43_" transform="translate(40,0)">
				<path id="path1872_173_" class="st1" d="M599.34,229.34H399.46"/>
			</g>
			<g id="use8189_43_" transform="translate(60,0)">
				<path id="path1872_172_" class="st1" d="M599.34,239.33H399.46"/>
			</g>
		</g>
	</g>
	<g id="use8205_5_" transform="translate(0,100)">
		<g id="use8203_22_" transform="matrix(0,1,-1,0,400,0)">
			<g id="g8191_42_">
				<path id="path1872_171_" class="st1" d="M599.34,259.32H399.46"/>
				<g id="use8185_42_" transform="translate(20,0)">
					<path id="path1872_170_" class="st1" d="M599.34,269.31H399.46"/>
				</g>
				<g id="use8187_42_" transform="translate(40,0)">
					<path id="path1872_169_" class="st1" d="M599.34,279.31H399.46"/>
				</g>
				<g id="use8189_42_" transform="translate(60,0)">
					<path id="path1872_168_" class="st1" d="M599.34,289.3H399.46"/>
				</g>
			</g>
		</g>
	</g>
	<g id="use8207_5_" transform="translate(0,200)">
		<g id="use8203_21_" transform="matrix(0,1,-1,0,400,0)">
			<g id="g8191_41_">
				<path id="path1872_167_" class="st1" d="M599.34,309.29H399.46"/>
				<g id="use8185_41_" transform="translate(20,0)">
					<path id="path1872_166_" class="st1" d="M599.34,319.28H399.46"/>
				</g>
				<g id="use8187_41_" transform="translate(40,0)">
					<path id="path1872_165_" class="st1" d="M599.34,329.27H399.46"/>
				</g>
				<g id="use8189_41_" transform="translate(60,0)">
					<path id="path1872_164_" class="st1" d="M599.34,339.27H399.46"/>
				</g>
			</g>
		</g>
	</g>
	<g id="use8209_5_" transform="translate(0,300)">
		<g id="use8203_20_" transform="matrix(0,1,-1,0,400,0)">
			<g id="g8191_40_">
				<path id="path1872_163_" class="st1" d="M599.34,359.26H399.46"/>
				<g id="use8185_40_" transform="translate(20,0)">
					<path id="path1872_162_" class="st1" d="M599.34,369.25H399.46"/>
				</g>
				<g id="use8187_40_" transform="translate(40,0)">
					<path id="path1872_161_" class="st1" d="M599.34,379.24H399.46"/>
				</g>
				<g id="use8189_40_" transform="translate(60,0)">
					<path id="path1872_160_" class="st1" d="M599.34,389.24H399.46"/>
				</g>
			</g>
		</g>
	</g>
</g>
<g id="layer2_5_" class="st0">
	<g id="g8225_11_">
		<path id="path8215_35_" class="st2" d="M449.68,199.61v199.87"/>
		<g id="use8217_11_" transform="translate(100,0)">
			<path id="path8215_34_" class="st2" d="M499.65,199.61v199.87"/>
		</g>
		<g id="use8219_11_" transform="translate(200,0)">
			<path id="path8215_33_" class="st2" d="M549.62,199.61v199.87"/>
		</g>
	</g>
	<g id="use8232_5_" transform="matrix(0,1,-1,0,400,0)">
		<g id="g8225_10_">
			<path id="path8215_32_" class="st2" d="M599.59,249.58H399.71"/>
			<g id="use8217_10_" transform="translate(100,0)">
				<path id="path8215_31_" class="st2" d="M599.59,299.55H399.71"/>
			</g>
			<g id="use8219_10_" transform="translate(200,0)">
				<path id="path8215_30_" class="st2" d="M599.59,349.52H399.71"/>
			</g>
		</g>
	</g>
</g>
<g id="layer3_3_" class="st0">
	<polyline id="rect10078_2_" class="st2" points="599.09,199.61 599.09,398.98 399.71,398.98 399.71,199.61 	"/>
</g>
<g id="layer1_4_" class="st0">
	<g id="g8191_39_">
		<path id="path1872_159_" class="st1" d="M609.08,199.36v199.87"/>
		<g id="use8185_39_" transform="translate(20,0)">
			<path id="path1872_158_" class="st1" d="M619.07,199.36v199.87"/>
		</g>
		<g id="use8187_39_" transform="translate(40,0)">
			<path id="path1872_157_" class="st1" d="M629.07,199.36v199.87"/>
		</g>
		<g id="use8189_39_" transform="translate(60,0)">
			<path id="path1872_156_" class="st1" d="M639.06,199.36v199.87"/>
		</g>
	</g>
	<g id="use8197_4_" transform="translate(100,0)">
		<g id="g8191_38_">
			<path id="path1872_155_" class="st1" d="M659.05,199.36v199.87"/>
			<g id="use8185_38_" transform="translate(20,0)">
				<path id="path1872_154_" class="st1" d="M669.04,199.36v199.87"/>
			</g>
			<g id="use8187_38_" transform="translate(40,0)">
				<path id="path1872_153_" class="st1" d="M679.04,199.36v199.87"/>
			</g>
			<g id="use8189_38_" transform="translate(60,0)">
				<path id="path1872_152_" class="st1" d="M689.03,199.36v199.87"/>
			</g>
		</g>
	</g>
	<g id="use8199_4_" transform="translate(200,0)">
		<g id="g8191_37_">
			<path id="path1872_151_" class="st1" d="M709.02,199.36v199.87"/>
			<g id="use8185_37_" transform="translate(20,0)">
				<path id="path1872_150_" class="st1" d="M719.01,199.36v199.87"/>
			</g>
			<g id="use8187_37_" transform="translate(40,0)">
				<path id="path1872_149_" class="st1" d="M729,199.36v199.87"/>
			</g>
			<g id="use8189_37_" transform="translate(60,0)">
				<path id="path1872_148_" class="st1" d="M739,199.36v199.87"/>
			</g>
		</g>
	</g>
	<g id="use8201_4_" transform="translate(300,0)">
		<g id="g8191_36_">
			<path id="path1872_147_" class="st1" d="M758.99,199.36v199.87"/>
			<g id="use8185_36_" transform="translate(20,0)">
				<path id="path1872_146_" class="st1" d="M768.98,199.36v199.87"/>
			</g>
			<g id="use8187_36_" transform="translate(40,0)">
				<path id="path1872_145_" class="st1" d="M778.97,199.36v199.87"/>
			</g>
			<g id="use8189_36_" transform="translate(60,0)">
				<path id="path1872_144_" class="st1" d="M788.97,199.36v199.87"/>
			</g>
		</g>
	</g>
	<g id="use8203_19_" transform="matrix(0,1,-1,0,400,0)">
		<g id="g8191_35_">
			<path id="path1872_143_" class="st1" d="M798.96,209.35H599.09"/>
			<g id="use8185_35_" transform="translate(20,0)">
				<path id="path1872_142_" class="st1" d="M798.96,219.34H599.09"/>
			</g>
			<g id="use8187_35_" transform="translate(40,0)">
				<path id="path1872_141_" class="st1" d="M798.96,229.34H599.09"/>
			</g>
			<g id="use8189_35_" transform="translate(60,0)">
				<path id="path1872_140_" class="st1" d="M798.96,239.33H599.09"/>
			</g>
		</g>
	</g>
	<g id="use8205_4_" transform="translate(0,100)">
		<g id="use8203_18_" transform="matrix(0,1,-1,0,400,0)">
			<g id="g8191_34_">
				<path id="path1872_139_" class="st1" d="M798.96,259.32H599.09"/>
				<g id="use8185_34_" transform="translate(20,0)">
					<path id="path1872_138_" class="st1" d="M798.96,269.31H599.09"/>
				</g>
				<g id="use8187_34_" transform="translate(40,0)">
					<path id="path1872_137_" class="st1" d="M798.96,279.31H599.09"/>
				</g>
				<g id="use8189_34_" transform="translate(60,0)">
					<path id="path1872_136_" class="st1" d="M798.96,289.3H599.09"/>
				</g>
			</g>
		</g>
	</g>
	<g id="use8207_4_" transform="translate(0,200)">
		<g id="use8203_17_" transform="matrix(0,1,-1,0,400,0)">
			<g id="g8191_33_">
				<path id="path1872_135_" class="st1" d="M798.96,309.29H599.09"/>
				<g id="use8185_33_" transform="translate(20,0)">
					<path id="path1872_134_" class="st1" d="M798.96,319.28H599.09"/>
				</g>
				<g id="use8187_33_" transform="translate(40,0)">
					<path id="path1872_133_" class="st1" d="M798.96,329.27H599.09"/>
				</g>
				<g id="use8189_33_" transform="translate(60,0)">
					<path id="path1872_132_" class="st1" d="M798.96,339.27H599.09"/>
				</g>
			</g>
		</g>
	</g>
	<g id="use8209_4_" transform="translate(0,300)">
		<g id="use8203_16_" transform="matrix(0,1,-1,0,400,0)">
			<g id="g8191_32_">
				<path id="path1872_131_" class="st1" d="M798.96,359.26H599.09"/>
				<g id="use8185_32_" transform="translate(20,0)">
					<path id="path1872_130_" class="st1" d="M798.96,369.25H599.09"/>
				</g>
				<g id="use8187_32_" transform="translate(40,0)">
					<path id="path1872_129_" class="st1" d="M798.96,379.24H599.09"/>
				</g>
				<g id="use8189_32_" transform="translate(60,0)">
					<path id="path1872_128_" class="st1" d="M798.96,389.24H599.09"/>
				</g>
			</g>
		</g>
	</g>
</g>
<g id="layer2_4_" class="st0">
	<g id="g8225_9_">
		<path id="path8215_29_" class="st2" d="M649.05,199.36v199.87"/>
		<g id="use8217_9_" transform="translate(100,0)">
			<path id="path8215_28_" class="st2" d="M699.02,199.36v199.87"/>
		</g>
		<g id="use8219_9_" transform="translate(200,0)">
			<path id="path8215_27_" class="st2" d="M748.99,199.36v199.87"/>
		</g>
	</g>
	<g id="use8232_4_" transform="matrix(0,1,-1,0,400,0)">
		<g id="g8225_8_">
			<path id="path8215_26_" class="st2" d="M798.96,249.32H599.09"/>
			<g id="use8217_8_" transform="translate(100,0)">
				<path id="path8215_25_" class="st2" d="M798.96,299.29H599.09"/>
			</g>
			<g id="use8219_8_" transform="translate(200,0)">
				<path id="path8215_24_" class="st2" d="M798.96,349.26H599.09"/>
			</g>
		</g>
	</g>
</g>
</svg>
