<?xml version="1.0" encoding="utf-8"?>
<!-- Generator: Adobe Illustrator 24.1.0, SVG Export Plug-In . SVG Version: 6.00 Build 0)  -->
<svg version="1.1" id="svg2180" xmlns:svg="http://www.w3.org/2000/svg"
	 xmlns="http://www.w3.org/2000/svg" xmlns:xlink="http://www.w3.org/1999/xlink" x="0px" y="0px" viewBox="0 0 799 798.97"
	 style="enable-background:new 0 0 799 798.97;" xml:space="preserve">
<style type="text/css">
	.st0{opacity:0.3;}
	.st1{fill:none;stroke:#A9A9A9;}
	.st2{fill:none;stroke:#336666;}
</style>
<g id="layer1" class="st0">
	<g id="g8191">
		<path id="path1872" class="st1" d="M20,0v400"/>
		<g id="use8185" transform="translate(20,0)">
			<path id="path1872_1_" class="st1" d="M40,0v400"/>
		</g>
		<g id="use8187" transform="translate(40,0)">
			<path id="path1872_2_" class="st1" d="M60,0v400"/>
		</g>
		<g id="use8189" transform="translate(60,0)">
			<path id="path1872_3_" class="st1" d="M80,0v400"/>
		</g>
	</g>
	<g id="use8197" transform="translate(100,0)">
		<g id="g8191_1_">
			<path id="path1872_4_" class="st1" d="M120,0v400"/>
			<g id="use8185_1_" transform="translate(20,0)">
				<path id="path1872_5_" class="st1" d="M140,0v400"/>
			</g>
			<g id="use8187_1_" transform="translate(40,0)">
				<path id="path1872_6_" class="st1" d="M160,0v400"/>
			</g>
			<g id="use8189_1_" transform="translate(60,0)">
				<path id="path1872_7_" class="st1" d="M180,0v400"/>
			</g>
		</g>
	</g>
	<g id="use8199" transform="translate(200,0)">
		<g id="g8191_2_">
			<path id="path1872_8_" class="st1" d="M220,0v400"/>
			<g id="use8185_2_" transform="translate(20,0)">
				<path id="path1872_9_" class="st1" d="M240,0v400"/>
			</g>
			<g id="use8187_2_" transform="translate(40,0)">
				<path id="path1872_10_" class="st1" d="M260,0v400"/>
			</g>
			<g id="use8189_2_" transform="translate(60,0)">
				<path id="path1872_11_" class="st1" d="M280,0v400"/>
			</g>
		</g>
	</g>
	<g id="use8201" transform="translate(300,0)">
		<g id="g8191_3_">
			<path id="path1872_12_" class="st1" d="M320,0v400"/>
			<g id="use8185_3_" transform="translate(20,0)">
				<path id="path1872_13_" class="st1" d="M340,0v400"/>
			</g>
			<g id="use8187_3_" transform="translate(40,0)">
				<path id="path1872_14_" class="st1" d="M360,0v400"/>
			</g>
			<g id="use8189_3_" transform="translate(60,0)">
				<path id="path1872_15_" class="st1" d="M380,0v400"/>
			</g>
		</g>
	</g>
	<g id="use8203" transform="matrix(0,1,-1,0,400,0)">
		<g id="g8191_4_">
			<path id="path1872_16_" class="st1" d="M400,20H0"/>
			<g id="use8185_4_" transform="translate(20,0)">
				<path id="path1872_17_" class="st1" d="M400,40H0"/>
			</g>
			<g id="use8187_4_" transform="translate(40,0)">
				<path id="path1872_18_" class="st1" d="M400,60H0"/>
			</g>
			<g id="use8189_4_" transform="translate(60,0)">
				<path id="path1872_19_" class="st1" d="M400,80H0"/>
			</g>
		</g>
	</g>
	<g id="use8205" transform="translate(0,100)">
		<g id="use8203_1_" transform="matrix(0,1,-1,0,400,0)">
			<g id="g8191_5_">
				<path id="path1872_20_" class="st1" d="M400,120H0"/>
				<g id="use8185_5_" transform="translate(20,0)">
					<path id="path1872_21_" class="st1" d="M400,140H0"/>
				</g>
				<g id="use8187_5_" transform="translate(40,0)">
					<path id="path1872_22_" class="st1" d="M400,160H0"/>
				</g>
				<g id="use8189_5_" transform="translate(60,0)">
					<path id="path1872_23_" class="st1" d="M400,180H0"/>
				</g>
			</g>
		</g>
	</g>
	<g id="use8207" transform="translate(0,200)">
		<g id="use8203_2_" transform="matrix(0,1,-1,0,400,0)">
			<g id="g8191_6_">
				<path id="path1872_24_" class="st1" d="M400,220H0"/>
				<g id="use8185_6_" transform="translate(20,0)">
					<path id="path1872_25_" class="st1" d="M400,240H0"/>
				</g>
				<g id="use8187_6_" transform="translate(40,0)">
					<path id="path1872_26_" class="st1" d="M400,260H0"/>
				</g>
				<g id="use8189_6_" transform="translate(60,0)">
					<path id="path1872_27_" class="st1" d="M400,280H0"/>
				</g>
			</g>
		</g>
	</g>
	<g id="use8209" transform="translate(0,300)">
		<g id="use8203_3_" transform="matrix(0,1,-1,0,400,0)">
			<g id="g8191_7_">
				<path id="path1872_28_" class="st1" d="M400,320H0"/>
				<g id="use8185_7_" transform="translate(20,0)">
					<path id="path1872_29_" class="st1" d="M400,340H0"/>
				</g>
				<g id="use8187_7_" transform="translate(40,0)">
					<path id="path1872_30_" class="st1" d="M400,360H0"/>
				</g>
				<g id="use8189_7_" transform="translate(60,0)">
					<path id="path1872_31_" class="st1" d="M400,380H0"/>
				</g>
			</g>
		</g>
	</g>
</g>
<g id="layer2" class="st0">
	<g id="g8225">
		<path id="path8215" class="st2" d="M100,0v400"/>
		<g id="use8217" transform="translate(100,0)">
			<path id="path8215_1_" class="st2" d="M200,0v400"/>
		</g>
		<g id="use8219" transform="translate(200,0)">
			<path id="path8215_2_" class="st2" d="M300,0v400"/>
		</g>
	</g>
	<g id="use8232" transform="matrix(0,1,-1,0,400,0)">
		<g id="g8225_1_">
			<path id="path8215_3_" class="st2" d="M400,100H0"/>
			<g id="use8217_1_" transform="translate(100,0)">
				<path id="path8215_4_" class="st2" d="M400,200H0"/>
			</g>
			<g id="use8219_1_" transform="translate(200,0)">
				<path id="path8215_5_" class="st2" d="M400,300H0"/>
			</g>
		</g>
	</g>
</g>
<g id="layer3" class="st0">
	<rect id="rect10078" x="0.5" y="0.5" class="st2" width="399" height="399"/>
</g>
<g id="layer1_1_" class="st0">
	<g id="g8191_15_">
		<path id="path1872_63_" class="st1" d="M419.5,0v400"/>
		<g id="use8185_15_" transform="translate(20,0)">
			<path id="path1872_62_" class="st1" d="M439.5,0v400"/>
		</g>
		<g id="use8187_15_" transform="translate(40,0)">
			<path id="path1872_61_" class="st1" d="M459.5,0v400"/>
		</g>
		<g id="use8189_15_" transform="translate(60,0)">
			<path id="path1872_60_" class="st1" d="M479.5,0v400"/>
		</g>
	</g>
	<g id="use8197_1_" transform="translate(100,0)">
		<g id="g8191_14_">
			<path id="path1872_59_" class="st1" d="M519.5,0v400"/>
			<g id="use8185_14_" transform="translate(20,0)">
				<path id="path1872_58_" class="st1" d="M539.5,0v400"/>
			</g>
			<g id="use8187_14_" transform="translate(40,0)">
				<path id="path1872_57_" class="st1" d="M559.5,0v400"/>
			</g>
			<g id="use8189_14_" transform="translate(60,0)">
				<path id="path1872_56_" class="st1" d="M579.5,0v400"/>
			</g>
		</g>
	</g>
	<g id="use8199_1_" transform="translate(200,0)">
		<g id="g8191_13_">
			<path id="path1872_55_" class="st1" d="M619.5,0v400"/>
			<g id="use8185_13_" transform="translate(20,0)">
				<path id="path1872_54_" class="st1" d="M639.5,0v400"/>
			</g>
			<g id="use8187_13_" transform="translate(40,0)">
				<path id="path1872_53_" class="st1" d="M659.5,0v400"/>
			</g>
			<g id="use8189_13_" transform="translate(60,0)">
				<path id="path1872_52_" class="st1" d="M679.5,0v400"/>
			</g>
		</g>
	</g>
	<g id="use8201_1_" transform="translate(300,0)">
		<g id="g8191_12_">
			<path id="path1872_51_" class="st1" d="M719.5,0v400"/>
			<g id="use8185_12_" transform="translate(20,0)">
				<path id="path1872_50_" class="st1" d="M739.5,0v400"/>
			</g>
			<g id="use8187_12_" transform="translate(40,0)">
				<path id="path1872_49_" class="st1" d="M759.5,0v400"/>
			</g>
			<g id="use8189_12_" transform="translate(60,0)">
				<path id="path1872_48_" class="st1" d="M779.5,0v400"/>
			</g>
		</g>
	</g>
	<g id="use8203_7_" transform="matrix(0,1,-1,0,400,0)">
		<g id="g8191_11_">
			<path id="path1872_47_" class="st1" d="M799.5,20h-400"/>
			<g id="use8185_11_" transform="translate(20,0)">
				<path id="path1872_46_" class="st1" d="M799.5,40h-400"/>
			</g>
			<g id="use8187_11_" transform="translate(40,0)">
				<path id="path1872_45_" class="st1" d="M799.5,60h-400"/>
			</g>
			<g id="use8189_11_" transform="translate(60,0)">
				<path id="path1872_44_" class="st1" d="M799.5,80h-400"/>
			</g>
		</g>
	</g>
	<g id="use8205_1_" transform="translate(0,100)">
		<g id="use8203_6_" transform="matrix(0,1,-1,0,400,0)">
			<g id="g8191_10_">
				<path id="path1872_43_" class="st1" d="M799.5,120h-400"/>
				<g id="use8185_10_" transform="translate(20,0)">
					<path id="path1872_42_" class="st1" d="M799.5,140h-400"/>
				</g>
				<g id="use8187_10_" transform="translate(40,0)">
					<path id="path1872_41_" class="st1" d="M799.5,160h-400"/>
				</g>
				<g id="use8189_10_" transform="translate(60,0)">
					<path id="path1872_40_" class="st1" d="M799.5,180h-400"/>
				</g>
			</g>
		</g>
	</g>
	<g id="use8207_1_" transform="translate(0,200)">
		<g id="use8203_5_" transform="matrix(0,1,-1,0,400,0)">
			<g id="g8191_9_">
				<path id="path1872_39_" class="st1" d="M799.5,220h-400"/>
				<g id="use8185_9_" transform="translate(20,0)">
					<path id="path1872_38_" class="st1" d="M799.5,240h-400"/>
				</g>
				<g id="use8187_9_" transform="translate(40,0)">
					<path id="path1872_37_" class="st1" d="M799.5,260h-400"/>
				</g>
				<g id="use8189_9_" transform="translate(60,0)">
					<path id="path1872_36_" class="st1" d="M799.5,280h-400"/>
				</g>
			</g>
		</g>
	</g>
	<g id="use8209_1_" transform="translate(0,300)">
		<g id="use8203_4_" transform="matrix(0,1,-1,0,400,0)">
			<g id="g8191_8_">
				<path id="path1872_35_" class="st1" d="M799.5,320h-400"/>
				<g id="use8185_8_" transform="translate(20,0)">
					<path id="path1872_34_" class="st1" d="M799.5,340h-400"/>
				</g>
				<g id="use8187_8_" transform="translate(40,0)">
					<path id="path1872_33_" class="st1" d="M799.5,360h-400"/>
				</g>
				<g id="use8189_8_" transform="translate(60,0)">
					<path id="path1872_32_" class="st1" d="M799.5,380h-400"/>
				</g>
			</g>
		</g>
	</g>
</g>
<g id="layer2_1_" class="st0">
	<g id="g8225_3_">
		<path id="path8215_11_" class="st2" d="M499.5,0v400"/>
		<g id="use8217_3_" transform="translate(100,0)">
			<path id="path8215_10_" class="st2" d="M599.5,0v400"/>
		</g>
		<g id="use8219_3_" transform="translate(200,0)">
			<path id="path8215_9_" class="st2" d="M699.5,0v400"/>
		</g>
	</g>
	<g id="use8232_1_" transform="matrix(0,1,-1,0,400,0)">
		<g id="g8225_2_">
			<path id="path8215_8_" class="st2" d="M799.5,100h-400"/>
			<g id="use8217_2_" transform="translate(100,0)">
				<path id="path8215_7_" class="st2" d="M799.5,200h-400"/>
			</g>
			<g id="use8219_2_" transform="translate(200,0)">
				<path id="path8215_6_" class="st2" d="M799.5,300h-400"/>
			</g>
		</g>
	</g>
</g>
<g id="layer3_1_" class="st0">
	<rect id="rect10078_1_" x="400" y="0.5" class="st2" width="399" height="399"/>
</g>
<g id="layer1_2_" class="st0">
	<g id="g8191_23_">
		<path id="path1872_95_" class="st1" d="M20,398.97v400"/>
		<g id="use8185_23_" transform="translate(20,0)">
			<path id="path1872_94_" class="st1" d="M40,398.97v400"/>
		</g>
		<g id="use8187_23_" transform="translate(40,0)">
			<path id="path1872_93_" class="st1" d="M60,398.97v400"/>
		</g>
		<g id="use8189_23_" transform="translate(60,0)">
			<path id="path1872_92_" class="st1" d="M80,398.97v400"/>
		</g>
	</g>
	<g id="use8197_2_" transform="translate(100,0)">
		<g id="g8191_22_">
			<path id="path1872_91_" class="st1" d="M120,398.97v400"/>
			<g id="use8185_22_" transform="translate(20,0)">
				<path id="path1872_90_" class="st1" d="M140,398.97v400"/>
			</g>
			<g id="use8187_22_" transform="translate(40,0)">
				<path id="path1872_89_" class="st1" d="M160,398.97v400"/>
			</g>
			<g id="use8189_22_" transform="translate(60,0)">
				<path id="path1872_88_" class="st1" d="M180,398.97v400"/>
			</g>
		</g>
	</g>
	<g id="use8199_2_" transform="translate(200,0)">
		<g id="g8191_21_">
			<path id="path1872_87_" class="st1" d="M220,398.97v400"/>
			<g id="use8185_21_" transform="translate(20,0)">
				<path id="path1872_86_" class="st1" d="M240,398.97v400"/>
			</g>
			<g id="use8187_21_" transform="translate(40,0)">
				<path id="path1872_85_" class="st1" d="M260,398.97v400"/>
			</g>
			<g id="use8189_21_" transform="translate(60,0)">
				<path id="path1872_84_" class="st1" d="M280,398.97v400"/>
			</g>
		</g>
	</g>
	<g id="use8201_2_" transform="translate(300,0)">
		<g id="g8191_20_">
			<path id="path1872_83_" class="st1" d="M320,398.97v400"/>
			<g id="use8185_20_" transform="translate(20,0)">
				<path id="path1872_82_" class="st1" d="M340,398.97v400"/>
			</g>
			<g id="use8187_20_" transform="translate(40,0)">
				<path id="path1872_81_" class="st1" d="M360,398.97v400"/>
			</g>
			<g id="use8189_20_" transform="translate(60,0)">
				<path id="path1872_80_" class="st1" d="M380,398.97v400"/>
			</g>
		</g>
	</g>
	<g id="use8203_11_" transform="matrix(0,1,-1,0,400,0)">
		<g id="g8191_19_">
			<path id="path1872_79_" class="st1" d="M400,418.97H0"/>
			<g id="use8185_19_" transform="translate(20,0)">
				<path id="path1872_78_" class="st1" d="M400,438.97H0"/>
			</g>
			<g id="use8187_19_" transform="translate(40,0)">
				<path id="path1872_77_" class="st1" d="M400,458.97H0"/>
			</g>
			<g id="use8189_19_" transform="translate(60,0)">
				<path id="path1872_76_" class="st1" d="M400,478.97H0"/>
			</g>
		</g>
	</g>
	<g id="use8205_2_" transform="translate(0,100)">
		<g id="use8203_10_" transform="matrix(0,1,-1,0,400,0)">
			<g id="g8191_18_">
				<path id="path1872_75_" class="st1" d="M400,518.97H0"/>
				<g id="use8185_18_" transform="translate(20,0)">
					<path id="path1872_74_" class="st1" d="M400,538.97H0"/>
				</g>
				<g id="use8187_18_" transform="translate(40,0)">
					<path id="path1872_73_" class="st1" d="M400,558.97H0"/>
				</g>
				<g id="use8189_18_" transform="translate(60,0)">
					<path id="path1872_72_" class="st1" d="M400,578.97H0"/>
				</g>
			</g>
		</g>
	</g>
	<g id="use8207_2_" transform="translate(0,200)">
		<g id="use8203_9_" transform="matrix(0,1,-1,0,400,0)">
			<g id="g8191_17_">
				<path id="path1872_71_" class="st1" d="M400,618.97H0"/>
				<g id="use8185_17_" transform="translate(20,0)">
					<path id="path1872_70_" class="st1" d="M400,638.97H0"/>
				</g>
				<g id="use8187_17_" transform="translate(40,0)">
					<path id="path1872_69_" class="st1" d="M400,658.97H0"/>
				</g>
				<g id="use8189_17_" transform="translate(60,0)">
					<path id="path1872_68_" class="st1" d="M400,678.97H0"/>
				</g>
			</g>
		</g>
	</g>
	<g id="use8209_2_" transform="translate(0,300)">
		<g id="use8203_8_" transform="matrix(0,1,-1,0,400,0)">
			<g id="g8191_16_">
				<path id="path1872_67_" class="st1" d="M400,718.97H0"/>
				<g id="use8185_16_" transform="translate(20,0)">
					<path id="path1872_66_" class="st1" d="M400,738.97H0"/>
				</g>
				<g id="use8187_16_" transform="translate(40,0)">
					<path id="path1872_65_" class="st1" d="M400,758.97H0"/>
				</g>
				<g id="use8189_16_" transform="translate(60,0)">
					<path id="path1872_64_" class="st1" d="M400,778.97H0"/>
				</g>
			</g>
		</g>
	</g>
</g>
<g id="layer2_2_" class="st0">
	<g id="g8225_5_">
		<path id="path8215_17_" class="st2" d="M100,398.97v400"/>
		<g id="use8217_5_" transform="translate(100,0)">
			<path id="path8215_16_" class="st2" d="M200,398.97v400"/>
		</g>
		<g id="use8219_5_" transform="translate(200,0)">
			<path id="path8215_15_" class="st2" d="M300,398.97v400"/>
		</g>
	</g>
	<g id="use8232_2_" transform="matrix(0,1,-1,0,400,0)">
		<g id="g8225_4_">
			<path id="path8215_14_" class="st2" d="M400,498.97H0"/>
			<g id="use8217_4_" transform="translate(100,0)">
				<path id="path8215_13_" class="st2" d="M400,598.97H0"/>
			</g>
			<g id="use8219_4_" transform="translate(200,0)">
				<path id="path8215_12_" class="st2" d="M400,698.97H0"/>
			</g>
		</g>
	</g>
</g>
<g id="layer3_2_" class="st0">
	<rect id="rect10078_2_" x="0.5" y="399.47" class="st2" width="399" height="399"/>
</g>
<g id="layer1_3_" class="st0">
	<g id="g8191_31_">
		<path id="path1872_127_" class="st1" d="M419.5,398.97v400"/>
		<g id="use8185_31_" transform="translate(20,0)">
			<path id="path1872_126_" class="st1" d="M439.5,398.97v400"/>
		</g>
		<g id="use8187_31_" transform="translate(40,0)">
			<path id="path1872_125_" class="st1" d="M459.5,398.97v400"/>
		</g>
		<g id="use8189_31_" transform="translate(60,0)">
			<path id="path1872_124_" class="st1" d="M479.5,398.97v400"/>
		</g>
	</g>
	<g id="use8197_3_" transform="translate(100,0)">
		<g id="g8191_30_">
			<path id="path1872_123_" class="st1" d="M519.5,398.97v400"/>
			<g id="use8185_30_" transform="translate(20,0)">
				<path id="path1872_122_" class="st1" d="M539.5,398.97v400"/>
			</g>
			<g id="use8187_30_" transform="translate(40,0)">
				<path id="path1872_121_" class="st1" d="M559.5,398.97v400"/>
			</g>
			<g id="use8189_30_" transform="translate(60,0)">
				<path id="path1872_120_" class="st1" d="M579.5,398.97v400"/>
			</g>
		</g>
	</g>
	<g id="use8199_3_" transform="translate(200,0)">
		<g id="g8191_29_">
			<path id="path1872_119_" class="st1" d="M619.5,398.97v400"/>
			<g id="use8185_29_" transform="translate(20,0)">
				<path id="path1872_118_" class="st1" d="M639.5,398.97v400"/>
			</g>
			<g id="use8187_29_" transform="translate(40,0)">
				<path id="path1872_117_" class="st1" d="M659.5,398.97v400"/>
			</g>
			<g id="use8189_29_" transform="translate(60,0)">
				<path id="path1872_116_" class="st1" d="M679.5,398.97v400"/>
			</g>
		</g>
	</g>
	<g id="use8201_3_" transform="translate(300,0)">
		<g id="g8191_28_">
			<path id="path1872_115_" class="st1" d="M719.5,398.97v400"/>
			<g id="use8185_28_" transform="translate(20,0)">
				<path id="path1872_114_" class="st1" d="M739.5,398.97v400"/>
			</g>
			<g id="use8187_28_" transform="translate(40,0)">
				<path id="path1872_113_" class="st1" d="M759.5,398.97v400"/>
			</g>
			<g id="use8189_28_" transform="translate(60,0)">
				<path id="path1872_112_" class="st1" d="M779.5,398.97v400"/>
			</g>
		</g>
	</g>
	<g id="use8203_15_" transform="matrix(0,1,-1,0,400,0)">
		<g id="g8191_27_">
			<path id="path1872_111_" class="st1" d="M799.5,418.97h-400"/>
			<g id="use8185_27_" transform="translate(20,0)">
				<path id="path1872_110_" class="st1" d="M799.5,438.97h-400"/>
			</g>
			<g id="use8187_27_" transform="translate(40,0)">
				<path id="path1872_109_" class="st1" d="M799.5,458.97h-400"/>
			</g>
			<g id="use8189_27_" transform="translate(60,0)">
				<path id="path1872_108_" class="st1" d="M799.5,478.97h-400"/>
			</g>
		</g>
	</g>
	<g id="use8205_3_" transform="translate(0,100)">
		<g id="use8203_14_" transform="matrix(0,1,-1,0,400,0)">
			<g id="g8191_26_">
				<path id="path1872_107_" class="st1" d="M799.5,518.97h-400"/>
				<g id="use8185_26_" transform="translate(20,0)">
					<path id="path1872_106_" class="st1" d="M799.5,538.97h-400"/>
				</g>
				<g id="use8187_26_" transform="translate(40,0)">
					<path id="path1872_105_" class="st1" d="M799.5,558.97h-400"/>
				</g>
				<g id="use8189_26_" transform="translate(60,0)">
					<path id="path1872_104_" class="st1" d="M799.5,578.97h-400"/>
				</g>
			</g>
		</g>
	</g>
	<g id="use8207_3_" transform="translate(0,200)">
		<g id="use8203_13_" transform="matrix(0,1,-1,0,400,0)">
			<g id="g8191_25_">
				<path id="path1872_103_" class="st1" d="M799.5,618.97h-400"/>
				<g id="use8185_25_" transform="translate(20,0)">
					<path id="path1872_102_" class="st1" d="M799.5,638.97h-400"/>
				</g>
				<g id="use8187_25_" transform="translate(40,0)">
					<path id="path1872_101_" class="st1" d="M799.5,658.97h-400"/>
				</g>
				<g id="use8189_25_" transform="translate(60,0)">
					<path id="path1872_100_" class="st1" d="M799.5,678.97h-400"/>
				</g>
			</g>
		</g>
	</g>
	<g id="use8209_3_" transform="translate(0,300)">
		<g id="use8203_12_" transform="matrix(0,1,-1,0,400,0)">
			<g id="g8191_24_">
				<path id="path1872_99_" class="st1" d="M799.5,718.97h-400"/>
				<g id="use8185_24_" transform="translate(20,0)">
					<path id="path1872_98_" class="st1" d="M799.5,738.97h-400"/>
				</g>
				<g id="use8187_24_" transform="translate(40,0)">
					<path id="path1872_97_" class="st1" d="M799.5,758.97h-400"/>
				</g>
				<g id="use8189_24_" transform="translate(60,0)">
					<path id="path1872_96_" class="st1" d="M799.5,778.97h-400"/>
				</g>
			</g>
		</g>
	</g>
</g>
<g id="layer2_3_" class="st0">
	<g id="g8225_7_">
		<path id="path8215_23_" class="st2" d="M499.5,398.97v400"/>
		<g id="use8217_7_" transform="translate(100,0)">
			<path id="path8215_22_" class="st2" d="M599.5,398.97v400"/>
		</g>
		<g id="use8219_7_" transform="translate(200,0)">
			<path id="path8215_21_" class="st2" d="M699.5,398.97v400"/>
		</g>
	</g>
	<g id="use8232_3_" transform="matrix(0,1,-1,0,400,0)">
		<g id="g8225_6_">
			<path id="path8215_20_" class="st2" d="M799.5,498.97h-400"/>
			<g id="use8217_6_" transform="translate(100,0)">
				<path id="path8215_19_" class="st2" d="M799.5,598.97h-400"/>
			</g>
			<g id="use8219_6_" transform="translate(200,0)">
				<path id="path8215_18_" class="st2" d="M799.5,698.97h-400"/>
			</g>
		</g>
	</g>
</g>
<g id="layer3_3_" class="st0">
	<rect id="rect10078_3_" x="400" y="399.47" class="st2" width="399" height="399"/>
</g>
</svg>
