<?xml version="1.0" encoding="utf-8"?>
<!-- Generator: Adobe Illustrator 24.1.0, SVG Export Plug-In . SVG Version: 6.00 Build 0)  -->
<svg version="1.1" id="Layer_1" xmlns="http://www.w3.org/2000/svg" xmlns:xlink="http://www.w3.org/1999/xlink" x="0px" y="0px"
	 viewBox="0 0 1397.53 1066.63" style="enable-background:new 0 0 1397.53 1066.63;" xml:space="preserve">
<style type="text/css">
	.st0{fill:#F2F2B1;}
	.st1{opacity:0.4;fill:#F2F2B1;enable-background:new    ;}
	.st2{fill:#BABABA;}
	.st3{fill:#C1B69D;}
	.st4{fill:none;}
	.st5{fill:#CECECE;}
	.st6{fill:#565656;}
	.st7{fill:#FFFAE9;}
	.st8{stroke:#000000;stroke-miterlimit:10;}
	.st9{fill:none;stroke:#000000;stroke-miterlimit:10;}
	.st10{fill:#F4E6D0;}
	.st11{opacity:0.3;fill:#E0D0C6;enable-background:new    ;}
	.st12{fill:#E0D9CD;}
	.st13{fill:#CEC8B7;}
	.st14{opacity:0.2;fill:#271768;enable-background:new    ;}
	.st15{fill:#DDB683;}
	.st16{fill:#D3D0BA;}
	.st17{fill:#F4E6D0;stroke:#000000;stroke-miterlimit:10;}
	.st18{opacity:0.3;fill:#DDB683;enable-background:new    ;}
	.st19{opacity:0.2;fill:#D3D0BA;enable-background:new    ;}
	.st20{opacity:0.3;fill:#D3D0BA;enable-background:new    ;}
	.st21{opacity:0.4;fill:#F4E6D0;enable-background:new    ;}
	.st22{fill:#96AF90;}
	.st23{opacity:0.3;fill:#96AF90;enable-background:new    ;}
	.st24{fill:#A8A8A8;}
	.st25{fill:url(#SVGID_1_);}
	.st26{fill:#BFBFBF;}
	.st27{fill:none;stroke:#F2EADA;stroke-width:5;stroke-miterlimit:10;}
	.st28{fill:#8E8E8E;}
	.st29{fill:#7A7A7A;}
	.st30{opacity:0.2;fill:#8E8E8E;enable-background:new    ;}
	.st31{fill:#AFAEAE;}
	.st32{opacity:0.05;fill:#271768;enable-background:new    ;}
	.st33{opacity:0.1;fill:#C5A2DD;enable-background:new    ;}
	.st34{opacity:0.1;fill:#271768;enable-background:new    ;}
	.st35{fill:#BF8258;}
	.st36{fill:#B57C50;}
	.st37{opacity:0.3;fill:#BF8258;enable-background:new    ;}
</style>
<g>
	<g>
		<g>
			<g>
				<path class="st0" d="M362.23,257.5c0.6,2.4,1.2,4.8,2,5.5h-70.1l12.1-9.9l0.9-0.8l0,0l23.6-19.3l34.8-28.5
					c-0.2,0.7-8.4,25.9-5.9,42.3c0.3,1.8,0.7,3.5,1.2,5C361.23,253,361.73,255.3,362.23,257.5z"/>
			</g>
			<polygon class="st0" points="365.63,204.6 365.63,204.6 330.83,233.1 307.13,252.4 307.13,252.4 306.23,253.1 294.13,263 
				300.63,198.1 331.13,201.1 			"/>
		</g>
		<polygon class="st0" points="357.03,155 357.03,155 345.23,145.3 336.23,138 323.63,127.7 323.63,127.6 285.53,96.6 285.53,96.5 
			320.13,93.1 350.53,90 		"/>
		<path class="st0" d="M357.03,155L357.03,155h-70.1c1.3-1.2,2.2-6.5,2.9-9.5c0.2-0.7,0.3-1.2,0.4-1.6c1.1-3.3,1.6-7.2,1.6-11.3
			c0.1-15.9-6.2-35.4-6.4-36l38.1,31.1l12.7,10.4l8.9,7.3L357.03,155z"/>
		<path class="st1" d="M336.23,138l-14.1,2.2l-32.4,5.2c0.2-0.7,0.3-1.2,0.4-1.6c1.1-3.3,1.6-7.2,1.6-11.3l30.7,3.8L336.23,138z"/>
		<polygon class="st0" points="237.53,82.9 237.53,148.2 216.83,127.5 172.23,82.9 		"/>
		<path class="st0" d="M237.53,148.2l-30.8-5.5l-34.5-6.2l-4-0.7c0.1-0.1,0.1-0.1,0.2-0.2c1.6-1.3,2.8-3.1,3.8-5.2
			c1.5-3.3,2.4-7.3,2.8-11.6c1.6-15.9-2.8-35.9-2.8-35.9l44.6,44.6L237.53,148.2z"/>
		<polygon class="st0" points="261.13,171.4 267.63,236.4 196.13,177.9 		"/>
		<path class="st0" d="M267.63,236.4h-70.1c1.5-1.5,2.6-8.9,3.4-11.1c5.5-15.7-4.5-46.5-4.7-47.3l37.8,30.9l0,0L267.63,236.4z"/>
		<polygon class="st0" points="296.13,374.5 296.13,374.5 274.33,356.7 274.33,356.7 272.53,355.2 266.53,350.3 263.23,347.6 
			224.63,316.1 261.73,312.4 289.63,309.6 		"/>
		<path class="st0" d="M224.63,316.1L224.63,316.1L224.63,316.1L224.63,316.1z"/>
		<path class="st0" d="M296.13,374.5L296.13,374.5h-70.1c1.5-1.5,2.6-8.9,3.4-11.1c0.4-1,0.7-2.1,0.9-3.2c0.5-2.5,0.8-5.3,0.8-8.2
			c0.1-15.9-6.2-35.3-6.4-35.9l38.6,31.5l3.3,2.7l6,4.9l1.8,1.5l0,0L296.13,374.5z"/>
		<path class="st1" d="M282.93,356l-8.6,0.7l0,0l-7.5,0.6l-36.6,2.9c0.5-2.5,0.8-5.3,0.8-8.2l35.7,2.7l5.7,0.4L282.93,356z"/>
		<path class="st1" d="M207.43,217.6c0,0,28.1-8.7,45.7-1.3L207.43,217.6z"/>
		<path class="st1" d="M230.33,129.5l-10.5,1.1l-4.1,0.4l-47.3,4.7c1.6-1.3,2.8-3.1,3.8-5.2c1.5-3.3,2.4-7.3,2.8-11.6
			c10,2.2,28.7,6.3,41.8,8.7c0.4,0.1,0.7,0.1,1.1,0.2C223.83,128.8,228.53,129.5,230.33,129.5z"/>
		<path class="st1" d="M362.23,257.5l-56-4.4l-3.6-0.3l4.5-0.5l52.5-5.5c0.3,1.8,0.6,3.5,1.2,5
			C361.23,253,361.73,255.3,362.23,257.5z"/>
	</g>
	<rect x="732.23" y="341.6" class="st2" width="80.3" height="54.4"/>
	<polygon class="st3" points="1156.03,807.7 1164.73,806.3 1112.23,438.7 1090.23,442.2 	"/>
	<polygon class="st3" points="1070.73,719 1079.43,717.6 1037.33,414.8 1015.43,418.4 	"/>
	<path class="st3" d="M310.13,442.2l-2.1,11.5l-23.3,129.2l0,0l0,0l-10.1,56l0,0l-8.4,46.5l-22,122.2l-8.7-1.4l17.4-120.6
		l33.2-231.9l2.2-15L310.13,442.2z"/>
	<polygon class="st3" points="382.63,442.2 382.13,444.9 380.53,453.7 372.33,498.6 372.33,498.6 352.03,608.9 346.43,639.3 
		343.43,655.6 337.93,685.6 327.33,742.8 318.63,741.4 326.43,685.6 333.93,631.9 338.33,599.7 354.63,483 358.63,453.7 
		360.73,438.7 368.63,440 	"/>
	<path d="M507.83,690.6c0,0,9.6,22.8,15.5,46.8c5,20.4,12.6,43.4,12.6,43.4h44.3l4.8-44.6l4.8-45.2L507.83,690.6z"/>
	<path class="st4" d="M539.73,219"/>
	<path class="st4" d="M564.53,274.5c-20-10-25.6-25.4-26.5-37.4"/>
	<path class="st5" d="M546.03,225.5c-0.2,0.3-0.4,0.5-0.6,0.8c-1.4,2-3.6,4.4-7.5,4.7c-0.8,0.1-1.8,0.1-2.8-0.1
		c-0.5-0.1-1-0.1-1.4-0.2c-0.2,0-0.4-0.1-0.5-0.1c-0.2,0-0.4-0.1-0.5-0.1c-0.4-0.1-0.8-0.1-1.1-0.2c-0.2,0-0.4-0.1-0.7-0.1
		c-0.4-0.1-0.8-0.1-1.1-0.1l-0.1,0.3c0.4,1.3,1,2.7,1.6,4c1.8,3.6,4.5,6.9,7.7,10.1l0,0l0,0l0,0c0,0,0.1,0,0.1,0.1
		c1.8,1.8,3.8,3.5,5.8,5.1l0,0l0.1,0.1c0.7,0.5,1.3,1,2,1.5c0.5,0.4,1,0.8,1.6,1.1v-30.8C547.73,223,546.83,224.3,546.03,225.5z
		 M546.03,225.5c-0.2,0.3-0.4,0.5-0.6,0.8c-1.4,2-3.6,4.4-7.5,4.7c-0.8,0.1-1.8,0.1-2.8-0.1c-0.5-0.1-1-0.1-1.4-0.2
		c-0.2,0-0.4-0.1-0.5-0.1c-0.2,0-0.4-0.1-0.5-0.1c-0.4-0.1-0.8-0.1-1.1-0.2c-0.2,0-0.4-0.1-0.7-0.1c-0.4-0.1-0.8-0.1-1.1-0.1
		l-0.1,0.3c0.4,1.3,1,2.7,1.6,4c1.8,3.6,4.5,6.9,7.7,10.1l0,0l0,0l0,0c0,0,0.1,0,0.1,0.1c1.8,1.8,3.8,3.5,5.8,5.1l0,0l0.1,0.1
		c0.7,0.5,1.3,1,2,1.5c0.5,0.4,1,0.8,1.6,1.1v-30.8C547.73,223,546.83,224.3,546.03,225.5z M988.83,14.3h-438.4
		c-10.2,0-18.9,6.9-21.5,16.3c0,0.1-0.1,0.3-0.1,0.4c-0.1,0.4-0.2,0.9-0.3,1.3c0,0.1,0,0.2,0,0.2c-0.2,1.3-0.4,2.6-0.4,4v144.2l0,0
		v153.9c0,5.7,2.1,10.9,5.7,14.8l0,0c4.1,4.6,10,7.5,16.7,7.5h438.4c12.3,0,22.3-10,22.3-22.3v-298
		C1011.13,24.3,1001.13,14.3,988.83,14.3z M992.03,308.3h-443.3V35h443.3V308.3z M546.03,225.5c-0.2,0.3-0.4,0.5-0.6,0.8
		c-1.4,2-3.6,4.4-7.5,4.7c-0.8,0.1-1.8,0.1-2.8-0.1c-0.5-0.1-1-0.1-1.4-0.2c-0.2,0-0.4-0.1-0.5-0.1c-0.2,0-0.4-0.1-0.5-0.1
		c-0.4-0.1-0.8-0.1-1.1-0.2c-0.2,0-0.4-0.1-0.7-0.1c-0.4-0.1-0.8-0.1-1.1-0.1l-0.1,0.3c0.4,1.3,1,2.7,1.6,4
		c1.8,3.6,4.5,6.9,7.7,10.1l0,0l0,0l0,0c0,0,0.1,0,0.1,0.1c1.8,1.8,3.8,3.5,5.8,5.1l0,0l0.1,0.1c0.7,0.5,1.3,1,2,1.5
		c0.5,0.4,1,0.8,1.6,1.1v-30.8C547.73,223,546.83,224.3,546.03,225.5z M546.03,225.5c-0.2,0.3-0.4,0.5-0.6,0.8
		c-1.4,2-3.6,4.4-7.5,4.7c-0.8,0.1-1.8,0.1-2.8-0.1c-0.5-0.1-1-0.1-1.4-0.2c-0.2,0-0.4-0.1-0.5-0.1c-0.2,0-0.4-0.1-0.5-0.1
		c-0.4-0.1-0.8-0.1-1.1-0.2c-0.2,0-0.4-0.1-0.7-0.1c-0.4-0.1-0.8-0.1-1.1-0.1l-0.1,0.3c0.4,1.3,1,2.7,1.6,4
		c1.8,3.6,4.5,6.9,7.7,10.1l0,0l0,0l0,0c0,0,0.1,0,0.1,0.1c1.8,1.8,3.8,3.5,5.8,5.1l0,0l0.1,0.1c0.7,0.5,1.3,1,2,1.5
		c0.5,0.4,1,0.8,1.6,1.1v-30.8C547.73,223,546.83,224.3,546.03,225.5z"/>
	<rect x="548.73" y="35" class="st6" width="443.3" height="273.3"/>
	<path class="st7" d="M474.33,0L474.33,0z"/>
	<path class="st4" d="M444.53,268.3c-3,4-6.6,7.7-11.2,10.9"/>
	<path class="st8" d="M581.93,130.8c-0.6,1.6-1.7,4.3-3,7.5c6.2-15.5-3.2-14-5.2-13.5c1-0.3,1.8-0.5,2.5-0.7
		C581.23,122.6,583.83,125.6,581.93,130.8z"/>
	<path class="st9" d="M569.63,154.1c2.1-0.4,5.6-7.3,8.3-13.7c0.3-0.7,0.6-1.5,0.9-2.1"/>
	<path class="st9" d="M574.53,124.5l-1.3,0.4c-3.9,1.1-9.3,2.8-9.3,2.8"/>
	<path class="st4" d="M453.03,251.5c0.2-0.6,0.4-1.3,0.6-1.9c1.6-5.7,2.3-11.2,2.5-16.2c0.4-7.6-0.3-13.9-0.8-17
		c0-0.3-0.1-0.5-0.1-0.7c-0.2-0.9-0.3-1.4-0.3-1.4"/>
	<path class="st10" d="M573.33,172.3c-1.5,3.9-3.2,8.3-5.1,13.1c-5.4,13.7-16.9,32.7-22.8,41c-1.5,2-3.6,4.4-7.5,4.7
		c-0.8,0.1-1.8,0.1-2.8-0.1c-1.9-0.3-4-0.6-5.5-0.8c-0.7-0.1-1.3-0.1-1.7-0.1c-3.1,0.4-3.4,4.9-7.6,4.7
		c-16.1-0.8-38.9-6.2-59.9-17.3c15.9,2.2,45.7,5.1,54.6-1.5c0.1-0.1,0.1-0.1,0.2-0.2c0.2-0.2,0.4-0.3,0.6-0.5c0.3-0.3,0.6-0.6,1-1
		c1.5-1.5,2.7-3.6,3.9-6c7.7-16.2,9.9-47.9,9.9-47.9s-3.1,0-9.3,0s-9.3-15.4-22.9-32.7l12.3-18.5c22.9-4.3,10.6,29.6,26,8
		c13.2-18.4,1.6-66-2-79.6c10.8,13.9,37.7,51.6,33.6,76.8c-2.1,13.2-0.2,22.1,2.1,29.5C573.63,153.9,577.73,161,573.33,172.3z"/>
	<polygon class="st3" points="448.03,830.8 438.63,829 460.03,697.6 478.53,701.3 	"/>
	<path class="st11" d="M573.33,172.3c-1.5,3.9-3.2,8.3-5.1,13.1c-9,1.9-19.2-4.4-23.7-15.2c-5-12-1.3-25,8.4-29
		c5.6-2.3,12.1-1.2,17.4,2.6C573.63,153.9,577.73,161,573.33,172.3z"/>
	<path class="st12" d="M687.53,664.6c0,5.5-11.37,14.35-33.97,21.95c-4.6,1.6-10.31,4.45-15.51,5.95c-4.6,1.3-9.82,3.91-14.82,5.11
		h-2.76c-10.2,2.6-20.74,5.8-32.04,7.9c-5.8,1.1-11.52,1.1-17.52,2c-4.5,0.7-8.88-2.2-13.38-1.6c-14.5,1.7-29,2.7-42.9,2.7
		c-0.3,0-0.6,0-0.9,0h-0.1c-1.6,0-3.2,0-4.7,0c-1.3,0-2.6,0-3.9-0.1c-0.1,0-0.1,0-0.2,0c-2.6-0.1-5.2-0.1-7.8-0.2
		c-6.7-0.3-13.2-0.7-19.7-1.3c-6.2-0.5-12.4-1.2-18.4-2c-5.1-0.7-10.1-1.4-15-2.2c0,0,0,0-0.1,0c-5.3-0.9-10.4-1.8-15.3-2.9
		c-5-1-9.8-2.2-14.3-3.3c-13.2-3.4-24.4-7.1-32.8-10.9c-2.6-1.2-5-2.4-7-3.6l0,0c-6.1-3.6-9.5-7-9.5-10.1c0-1.7,1.1-3.3,3.1-4.6
		c4.7-3.1,14.6-5.2,28.2-6.6c1.9-0.2,3.9-0.4,6-0.6c1.9-0.2,3.8-0.3,5.8-0.5c9.5-0.7,20.2-1.1,31.7-1.4c4-0.1,8-0.2,12.2-0.3
		c11.5-0.2,23.7-0.3,36.3-0.3c0.5,0,1,0,1.4,0c4.1,0,8.1,0,12.3,0h1.3c3.5,0,6.9,0,10.4,0c4.1,0,8.2,0,12.4-0.1
		c4.1,0,8.2-0.1,12.3-0.1c14.9-0.2,30-0.6,44.7-0.9c4.2-0.1,8.3-0.2,12.3-0.3c7.7-0.2,15.2-0.3,22.4-0.3c5.8-0.1,11.4-0.1,16.8-0.1
		c1.6,0,3.1,0,4.7,0c4.3,0,8.3,0.1,12.2,0.3c4.2,0.1,8,0.3,11.6,0.6C678.23,657.9,687.53,660.2,687.53,664.6z"/>
	<path d="M393.53,559.9c0,0-17.4,75.6,3.5,96c33.3,32.5,195.1,35.1,224,26.3c28.9-8.8,5.7-122.2,5.7-122.2L393.53,559.9z"/>
	<path class="st10" d="M379.03,286.3c-1.7,3.9-3.3,7.7-4.9,11.6C375.13,293.7,376.83,289.8,379.03,286.3z"/>
	<path d="M602.93,532.9c0,0,104-67.6,119.8-60.7c15.8,6.9,88.4,15.8,22.4,110.4c-38,54.4-124.2,99.6-124.2,99.6L602.93,532.9z"/>
	<path class="st10" d="M539.13,244.5c-0.6,0.3-1.1,0.6-1.7,0.9c-0.4,0.2-0.7,0.4-1.1,0.5l0,0c-0.2,0.1-0.4,0.2-0.6,0.3
		c-0.2,0.1-0.4,0.2-0.6,0.3c-0.2,0.1-0.4,0.2-0.6,0.3c-0.6,0.3-1.2,0.5-1.8,0.8c-0.2,0.1-0.4,0.2-0.6,0.2c-0.6,0.2-1.2,0.5-1.8,0.7
		c-0.4,0.2-0.9,0.3-1.3,0.5c-0.3,0.1-0.5,0.2-0.8,0.3c-0.1,0-0.1,0-0.1,0c-0.3,0.1-0.6,0.2-0.8,0.3c-0.3,0.1-0.5,0.2-0.8,0.3
		c-0.5,0.2-1,0.3-1.4,0.5c-0.6,0.2-1.1,0.3-1.7,0.5l0,0c-0.5,0.2-1.1,0.3-1.7,0.5c-0.2,0.1-0.4,0.1-0.6,0.2
		c-0.3,0.1-0.6,0.2-0.9,0.2c-0.1,0-0.2,0.1-0.2,0.1c-0.5,0.1-1,0.2-1.5,0.4c-0.1,0-0.1,0-0.2,0.1c-0.1,0-0.1,0-0.2,0
		c-0.7,0.2-1.4,0.3-2.2,0.5c-0.2,0-0.3,0.1-0.5,0.1c-0.6,0.1-1.1,0.2-1.7,0.3c-1.5,0.3-3,0.6-4.5,0.8l0,0c-0.2,0-0.4,0.1-0.6,0.1
		c-0.6,0.1-1.1,0.2-1.7,0.2l0,0c-0.7,0.1-1.5,0.2-2.2,0.3l0,0c-0.5,0.1-1,0.1-1.5,0.2c-0.2,0-0.5,0-0.8,0.1c-0.2,0-0.4,0-0.6,0.1
		c-1.8,0.2-3.5,0.3-5.2,0.4s-3.5,0.2-5.2,0.2c-2.5,0-5,0-7.3-0.1c-0.2,0-0.3,0-0.5,0l0,0c-1.6-0.1-3.2-0.1-4.7-0.2s-3.1-0.2-4.5-0.4
		l0,0c-0.8-0.1-1.7-0.2-2.4-0.2c-0.8-0.1-1.7-0.2-2.5-0.3c-0.8-0.1-1.5-0.2-2.3-0.3c-0.4-0.1-0.7-0.1-1.1-0.2
		c-0.4-0.1-0.7-0.1-1.1-0.2l0,0c-0.7-0.1-1.4-0.2-2.1-0.3c-0.3-0.1-0.7-0.1-1-0.2l0,0l0,0c-0.2,0-0.3-0.1-0.5-0.1
		c-0.8-0.1-1.6-0.3-2.4-0.4l0,0l0,0c-0.1,0-0.3,0-0.4-0.1c-0.8-0.1-1.5-0.3-2.2-0.4c-0.4-0.1-0.8-0.2-1.1-0.2
		c-0.2,0-0.3-0.1-0.5-0.1l0,0c-0.2,0-0.3-0.1-0.5-0.1c-0.3-0.1-0.5-0.1-0.7-0.2c-0.1,0-0.1,0-0.2-0.1l0,0c-0.2,0-0.4-0.1-0.6-0.1
		c-0.2,0-0.4-0.1-0.5-0.1c-0.4-0.1-0.7-0.2-1.1-0.2c-0.1,0-0.2-0.1-0.3-0.1c-0.2,0-0.3-0.1-0.5-0.1c-0.1,0-0.2-0.1-0.3-0.1
		s-0.2-0.1-0.3-0.1c-0.2,0-0.3-0.1-0.5-0.1c-0.1,0-0.2-0.1-0.3-0.1s-0.2-0.1-0.3-0.1s-0.2-0.1-0.3-0.1s-0.2,0-0.2-0.1
		c-0.1,0-0.1,0-0.2,0c-0.1,0-0.1,0-0.2-0.1c-0.2,0-0.3-0.1-0.3-0.1l0,0l0,0l0,0c0.7-1,1.3-2,1.9-3c2.6-4.3,5.5-8.7,7.2-13.6
		c0.8-2.3,1.3-4.8,1.3-7.4v-13l25.8,0.9l32.6,1.2l0,0l12.2,0.4l0,0h0.9v9.4c0,1.7,0.2,3.4,0.7,5l0,0c0,0.1,0.1,0.2,0.1,0.3
		c0.4,1.3,1,2.7,1.6,4C533.23,237.9,535.93,241.3,539.13,244.5L539.13,244.5z"/>
	<g>
		<polygon class="st13" points="1130.43,425.9 1130.43,453.7 269.93,453.7 269.93,425.9 272.03,423.1 1128.43,423.1 		"/>
		<polygon class="st3" points="1130.43,425.9 269.93,425.9 272.03,423.1 302.23,380.7 1098.13,380.7 1128.43,423.1 		"/>
	</g>
	<polygon class="st14" points="380.53,454 380.53,454 372.33,498.9 372.33,498.9 352.03,609.2 346.43,639.5 343.43,655.9 
		337.93,685.8 327.33,743.1 318.63,741.7 326.43,685.8 333.93,632.2 338.33,600 354.63,483.2 358.63,454 358.63,454 374.03,453.7 	
		"/>
	<path class="st10" d="M616.93,441.7c0,0,0,36.6,0,61.1c0,7.9,0,14.5,0,18.2v3.3c0-0.3-0.1-0.6-0.1-1
		C616.73,522.5,616.93,450,616.93,441.7z"/>
	<path class="st15" d="M796.93,414.4c0,0.4,0,0.9,0,1.3c0,0.4,0,0.8-0.1,1.2c-0.1,1.4-0.2,2.7-0.4,3.9c-0.1,0.5-0.1,0.9-0.2,1.4
		c0,0.3-0.1,0.5-0.1,0.8c-0.2,1-0.3,2-0.5,2.8c0,0.2-0.1,0.3-0.1,0.5c-0.1,0.3-0.1,0.5-0.2,0.8c-0.2,0.9-0.4,1.7-0.7,2.4
		c0,0.1-0.1,0.2-0.1,0.3s-0.1,0.2-0.2,0.3c-0.1,0.2-0.2,0.3-0.3,0.5c-0.1,0.2-0.2,0.4-0.4,0.5c-0.2,0.3-0.5,0.6-0.8,0.9
		c-0.2,0.2-0.4,0.4-0.6,0.6c-0.4,0.4-0.8,0.7-1.3,1.1l-42.8,15.8c-8.4,1.4-16.2,1.5-21.6-0.3c-7.3-2.4-34.8-5.7-51-13.9
		c-1-0.5-2-1.1-3-1.7c-4.3-2.6-8.1-4.3-11.5-5.4c-11.8-3.8-18.9,0.3-24.5,4.5c-2.6,2-5.1,6.2-7.4,11.8c-0.8,1.9-1.6,4-2.3,6.2
		c-0.3,0.9-0.6,1.7-0.8,2.7c-4.5,14.4-7.8,33.4-9.1,49.1c-0.1,0.9-0.1,1.9,0,2.9c0.2,2.9,0.9,6.1,1.7,8.9c0.8,2.9,0.2,6.1-1.7,8.5
		l0,0c-0.1,0.1-0.1,0.2-0.1,0.3l0,0v0.4c0,0.1,0,0.2,0,0.4v0.3c0,0.1,0,0.2,0,0.3c0.3,2.2,0.8,4.4,1.5,6.6
		c5.9,19.1,23.2,39.5,12.4,53.4c-0.5,0.6-1,1.2-1.5,1.7c-1.3,1.3-2.9,2.5-4.8,3.6c-3.6,2.2-8.2,3.9-13.3,5.3l0,0
		c-0.2,0.1-0.5,0.1-0.7,0.2c-3.7,1-7.7,1.8-11.9,2.5c-13.9,2.2-29.8,2.7-42.9,2.3c-4.4-0.1-8.5-0.4-12.1-0.7
		c-2.5-0.2-4.8-0.5-6.8-0.8c-8.4-1.2-17.7-4.7-27-8.2c-4-1.5-8.1-3-12.1-4.3c-9.9-3.3-19.4-5.4-27.4-3.3c-0.5,0.1-1,0.3-1.5,0.4
		c-3.9,1.3-9.3,2.4-15.7,3.3c-5.7,0.8-12,1.4-18.6,1.8c-4,0.2-8.2,0.3-12.2,0.3c-12.6-0.1-24.7-1.3-32.8-4.3c-0.1,0-0.1,0-0.2-0.1
		c-0.1,0-0.1,0-0.2-0.1c-2.9-1.1-5.3-2.4-6.9-4.1c-2.9-2.9-5-7.5-6.4-12.9l0,0c-4.6-17.6-2.8-44.4-2.8-55.6l-0.8-12.9l0,0l-2.5-39.7
		l-0.3-5.2l-0.8-13.7l-0.9-14.1l-0.2-2.8l-2.2-35.8c-0.1-2.2-0.2-4.4-0.3-6.6c-0.6-15.9,0.4-31.8,3-47.4c2.7-16.3,5.6-33.8,6-35.4
		l0,0c1.6-3.8,3.2-7.7,4.9-11.6l0,0c6.8-10.8,18.9-17.9,32.6-17.9c7,0,13.5-1.7,19.3-4.6c0.4-0.2,0.9-0.4,1.3-0.7
		c0.9-0.5,1.8-1,2.7-1.6s1.7-1.2,2.6-1.8c1.7-1.2,3.2-2.6,4.7-4.1c1.8-1.8,3.4-3.7,4.8-5.7l0,0l0,0l0,0l0,0c0.1,0,0.2,0.1,0.3,0.1
		c0,0,0.1,0,0.2,0.1c0.1,0,0.1,0,0.2,0c0.1,0,0.2,0,0.2,0.1c0.1,0,0.2,0.1,0.2,0.1c0.1,0,0.2,0.1,0.3,0.1s0.2,0.1,0.3,0.1
		c0.2,0.1,0.5,0.1,0.8,0.2c0.4,0.1,0.8,0.2,1.2,0.3c0.3,0.1,0.7,0.2,1.1,0.2c0.2,0,0.4,0.1,0.5,0.1c0.2,0,0.4,0.1,0.6,0.1
		c0.1,0,0.2,0,0.2,0.1c0.2,0,0.5,0.1,0.7,0.2c0.2,0,0.3,0.1,0.5,0.1s0.3,0.1,0.5,0.1c0.4,0.1,0.7,0.2,1.1,0.2
		c0.7,0.1,1.4,0.3,2.2,0.4c0.1,0,0.2,0.1,0.4,0.1l0,0l0,0c0.8,0.1,1.6,0.3,2.4,0.4c0.2,0,0.3,0.1,0.5,0.1l0,0l0,0
		c0.3,0.1,0.7,0.1,1,0.2c0.7,0.1,1.4,0.2,2.1,0.3l0,0c0.4,0.1,0.7,0.1,1.1,0.2c0.4,0,0.7,0.1,1.1,0.2c0.7,0.1,1.5,0.2,2.3,0.3
		c0.8,0.1,1.6,0.2,2.5,0.3c0.8,0.1,1.6,0.2,2.4,0.2l0,0c1.5,0.1,3,0.3,4.5,0.4c1.6,0.1,3.1,0.2,4.7,0.2l0,0c0.2,0,0.3,0,0.5,0
		c2.4,0.1,4.8,0.1,7.4,0.1c1.7,0,3.4-0.1,5.1-0.2c1.7-0.1,3.5-0.2,5.2-0.4c0.2,0,0.4,0,0.6-0.1c0.3,0,0.5-0.1,0.8-0.1
		c0.5-0.1,1-0.1,1.5-0.2l0,0c0.7-0.1,1.5-0.2,2.2-0.3l0,0c0.6-0.1,1.1-0.2,1.7-0.2c0.2,0,0.4-0.1,0.6-0.1l0,0c1.5-0.2,3-0.5,4.5-0.8
		l0,0c0.5-0.1,1.1-0.2,1.6-0.3l0,0c0.2,0,0.3-0.1,0.5-0.1c0.7-0.2,1.4-0.3,2.2-0.5c0.1,0,0.3-0.1,0.4-0.1c0.5-0.1,1-0.2,1.5-0.4
		c0.1,0,0.2,0,0.2-0.1c0.3-0.1,0.6-0.2,0.9-0.2c0.2,0,0.4-0.1,0.6-0.2c0.3-0.1,0.6-0.2,0.8-0.2c0.3-0.1,0.6-0.2,0.8-0.2l0,0
		c0.3-0.1,0.6-0.2,0.8-0.2s0.3-0.1,0.4-0.1c0.1,0,0.3-0.1,0.4-0.1c0.5-0.2,1-0.3,1.5-0.5c0.3-0.1,0.5-0.2,0.8-0.3
		c0.3-0.1,0.6-0.2,0.8-0.3l0,0h0.1c0.3-0.1,0.5-0.2,0.8-0.3c0.2-0.1,0.5-0.2,0.7-0.2c0.2-0.1,0.4-0.2,0.7-0.3
		c0.2-0.1,0.4-0.2,0.7-0.3c0.4-0.2,0.7-0.3,1.1-0.4c0.2-0.1,0.4-0.2,0.6-0.2c0.2-0.1,0.4-0.2,0.6-0.3c0.6-0.2,1.2-0.5,1.7-0.8
		c0.4-0.2,0.8-0.4,1.2-0.6c0.9-0.5,1.9-0.9,2.8-1.4l0,0l0,0l0,0c2.9,2.8,6.2,5.4,9.6,7.8c0.6,0.5,1.2,0.9,1.9,1.3
		c1.1,0.8,2.3,1.5,3.4,2.2c12.2,7.7,24.4,12.4,24.4,12.4c7.7,0,15,2.3,21,6.2c13.8,5.4,33.8,15.3,61.2,33.7l0,0
		c5.7,3.8,11.7,8,18.1,12.6c21.8,15.7,39.3,27.1,53.6,35.8c0.2,0.1,0.4,0.3,0.7,0.4c17.8,10.7,30.3,17,39.2,21.4
		c0.3,0.1,0.6,0.3,0.8,0.4c1.4,0.7,2.7,1.3,3.9,1.9c0.9,0.4,1.7,0.9,2.5,1.3c0.3,0.1,0.5,0.3,0.8,0.4c0.3,0.1,0.5,0.3,0.8,0.4
		c2.6,1.4,4.7,2.6,6.5,3.9c0.2,0.1,0.3,0.2,0.4,0.3s0.2,0.1,0.2,0.2c0.7,0.5,1.2,1,1.8,1.6c0.4,0.4,0.7,0.8,1.1,1.2
		c0.2,0.2,0.3,0.4,0.5,0.6c0.2,0.2,0.4,0.5,0.5,0.7c0.2,0.2,0.3,0.5,0.5,0.7c0.8,1.2,1.4,2.6,1.9,4c0.2,0.6,0.5,1.3,0.7,1.9
		c0.1,0.3,0.2,0.7,0.3,1c0.1,0.3,0.2,0.5,0.2,0.8c0,0.2,0.1,0.3,0.1,0.5c0.1,0.5,0.2,1.1,0.4,1.6c0,0.1,0,0.1,0,0.2
		c0.1,0.3,0.1,0.7,0.2,1.1c0.1,0.3,0.1,0.7,0.2,1.1c0,0.1,0,0.1,0,0.2c0.1,0.4,0.1,0.8,0.2,1.2c0,0,0,0,0,0.1c0,0.2,0,0.3,0.1,0.5
		c0,0.3,0.1,0.6,0.1,0.8c0.1,0.6,0.1,1.1,0.1,1.7c0,0.3,0,0.7,0.1,1C796.93,411.1,797.03,412.8,796.93,414.4z"/>
	<polygon points="526.73,125.6 525.03,123.6 581.83,130.8 579.93,135.9 	"/>
	<path class="st15" d="M791.03,433.9c-7.9,6.1-26.5,13.2-42.8,15.8L791.03,433.9z"/>
	<path class="st16" d="M560.63,78.7c0,15.7-3,33.1-6.7,48.6c-0.3,1.1-0.5,2.3-0.8,3.4c-1,3.9-2,7.7-3,11.2c-0.1,0.4-0.2,0.7-0.3,1.1
		c-0.3,1.1-0.6,2.1-0.9,3.2c-0.8,2.8-1.7,5.5-2.5,8l0,0c-1.3,3.9-2.4,7.4-3.4,10.2c-1.8,5.2-3,8.3-3,8.3s2.3-27.3,1.8-44.2
		c0-1-0.1-1.9-0.1-2.8c-0.4-8.4-1.8-13.2-4.8-8.6c-2.4,3.6-4.2,5.9-5.6,7.3c-0.9,0.9-1.7,1.4-2.4,1.6l0,0c-0.2,0.1-0.4,0.1-0.6,0.1
		c-0.5,0-0.9-0.2-1.4-0.5c-0.6-0.4-1.1-1.1-1.7-2c-1.5-2.2-3.2-5.3-6.9-6.5c-12.1-4-12.3,9.3-9.3,18.5c2.5,7.6,5.1,19.5,9.4,23.4
		c0.9,0.8,1.9,1.3,3,1.3h6.8c1.6,0,2.4,0,2.4,0s0,0.1,0,0.4c0,0.1,0,0.2,0,0.4c0,0.2,0,0.5-0.1,0.8c0,0.3-0.1,0.6-0.1,1
		s-0.1,0.9-0.1,1.5c0,0.2,0,0.4-0.1,0.6c0,0.4-0.1,0.7-0.1,1.1c0,0.1,0,0.3,0,0.4c0,0.2,0,0.3-0.1,0.5c0,0.2,0,0.3-0.1,0.5
		c-0.1,1.1-0.3,2.3-0.4,3.5c-0.1,0.6-0.2,1.2-0.2,1.9c0,0.2,0,0.3-0.1,0.5c-0.1,0.4-0.1,0.8-0.2,1.2c-0.1,0.6-0.2,1.2-0.2,1.8
		c-0.1,0.6-0.2,1.2-0.3,1.8c0,0.3-0.1,0.6-0.1,0.9c-0.1,0.5-0.2,1.1-0.3,1.6l0,0c-0.1,0.7-0.2,1.5-0.4,2.2c-0.1,0.3-0.1,0.7-0.2,1
		c-0.2,1-0.4,2-0.6,3c0,0,0,0,0,0.1c-0.2,1-0.4,2-0.6,2.9c-0.1,0.3-0.1,0.7-0.2,1c-0.2,0.8-0.4,1.6-0.6,2.4c0,0.2-0.1,0.4-0.1,0.6
		c-0.1,0.5-0.3,1-0.4,1.5v0.1v0.1c-0.2,0.8-0.4,1.5-0.6,2.2l0,0c-0.8,2.9-1.7,5.6-2.7,8c-0.2,0.5-0.4,1-0.7,1.5
		c-0.1,0.3-0.2,0.5-0.4,0.8s-0.3,0.7-0.5,1c-0.3,0.5-0.6,1.1-0.9,1.6c-0.3,0.5-0.6,1-1,1.5c-0.2,0.2-0.3,0.5-0.5,0.7
		c-0.5,0.6-0.9,1.2-1.4,1.7c-0.1,0.1-0.1,0.1-0.2,0.2c-0.1,0.1-0.2,0.3-0.4,0.4c-0.2,0.2-0.4,0.3-0.6,0.5c-0.1,0.1-0.1,0.1-0.2,0.2
		c-4.1,3.1-12.7,4.1-22.3,4.1c-0.8,0-1.6,0-2.4,0c-0.6,0-1.2,0-1.8,0c-0.2,0-0.5,0-0.7,0c-0.8,0-1.7-0.1-2.5-0.1c0,0,0,0-0.1,0
		c-1,0-2-0.1-3-0.2c-0.1,0-0.2,0-0.2,0c-1.1-0.1-2.2-0.2-3.2-0.2c-2.1-0.2-4.2-0.3-6.3-0.6c-0.7-0.1-1.4-0.1-2-0.2
		c-0.8-0.1-1.6-0.2-2.4-0.3c-0.8-0.1-1.6-0.2-2.4-0.3c-0.9-0.1-1.8-0.2-2.7-0.3c-0.6-0.1-1.1-0.2-1.7-0.2c-0.3,0-0.5-0.1-0.8-0.1
		c-1-0.5-2.1-1.1-3.1-1.7c-0.8-0.5-1.7-0.9-2.5-1.4c-1-0.6-2.1-1.2-3.1-1.8c-21.1-13-39.1-32.1-44.8-58.3
		c-4.8-22-8.8-37.2-10.2-49.6c-0.4-3.8-0.6-7.3-0.5-10.7c0.4-12,4.6-22,14.9-35.2c0,0,5.2-8.4,15.1-17.6l0.1-0.1
		c0.1,0,0.1-0.1,0.2-0.1c11.9-11.2,30.4-23.5,54.4-24c13.9-0.3,29.5,3.4,46.8,13.7c0.1,0.1,0.2,0.1,0.3,0.2c0.2,0.1,0.5,0.3,0.7,0.4
		c0,0,0.1,0,0.1,0.1c0.5-0.3,0.9-0.4,1.3-0.5c0.2,0,0.4,0,0.4,0c0.1,0,0.1,0,0.2,0l0,0l0,0c7.7,1.2,13.6,4.3,18,8.8
		c5.3,5.4,8.5,12.7,10.2,21.2l0,0c0.4,2,0.7,4.1,1,6.2l0,0C560.33,70.7,560.63,74.6,560.63,78.7z"/>
	<path class="st10" d="M811.13,385.9c0,0,20.1-13.8,33.9-18.2c27.3-8.9,48.6,4.1,55.9,9.4c1,0.7,0.5,2.3-0.7,2.4
		c-5.1,0.5-15.2,1.9-24.7,6c-13.3,5.8-47.9,20.5-47.9,20.5L811.13,385.9z"/>
	<path class="st17" d="M258.83,512.2"/>
	<path class="st5" d="M839.43,401c0,0,30.4-33.3,49.1-23.3s33.3,12.8,26.9,21s-88.4,21.5-87.7,7.3S839.43,401,839.43,401z"/>
	<path class="st15" d="M840.93,408.2l-49.9,25.8l0,0l-42.8,15.8l12.3-41.6c0,0,0.3-18-7.2-28.4l18.8-1.4l0,0l50.5-3.8
		c0.5,0.3,0.9,0.6,1.4,1c4.3,3.2,7.8,8,10.6,13.1C839.63,398.3,840.93,408.2,840.93,408.2z"/>
	<path class="st18" d="M794.63,429.7c3.1-9.3,4.4-31.7-4.9-40.9c-3.3-3.3-8.7-5.9-17.7-10.4l50.5-3.8c0.5,0.3,0.9,0.6,1.4,1
		c4.7,3.4,8.1,8.2,10.6,13.1c5,9.7,6.3,19.5,6.3,19.5l-49.9,25.8C793.03,432.4,794.23,431,794.63,429.7z"/>
	<path class="st16" d="M437.93,67.7c0,20.5-16.6,37-37,37c-1.4,0-2.7-0.1-4-0.2c-7.6-0.8-14.4-3.9-19.9-8.6c-1.8-1.5-3.5-3.3-5-5.2
		c-1.4-1.7-2.7-3.6-3.7-5.6c-0.3-0.6-0.6-1.2-0.9-1.7c0.4,0.4,0.8,0.7,1.2,1.1c0.7,0.7,1.5,1.3,2.3,1.9c1.6,1.2,3.3,2.3,5.1,3.3
		c5.1,2.7,11,4.2,17.2,4.2c1.1,0,2.1,0,3.2-0.1c19-1.6,33.9-17.5,33.9-36.9c0-5.7-1.3-11-3.5-15.8
		C433.63,47.9,437.93,57.3,437.93,67.7z"/>
	<path class="st16" d="M430.23,56.9c0,19.4-14.9,35.3-33.9,36.9c-1,0.1-2.1,0.1-3.2,0.1c-6.2,0-12.1-1.5-17.2-4.2
		c-1.8-0.9-3.5-2-5.1-3.3c-0.8-0.6-1.6-1.2-2.3-1.9c-0.4-0.3-0.8-0.7-1.2-1.1c-1.1-2.3-1.9-4.7-2.5-7.2c-0.6-2.7-1-5.6-1-8.6
		c0-17,11.5-31.3,27.1-35.7c3.2-0.9,6.5-1.4,10-1.4c7.5,0,14.4,2.2,20.2,6c0.7,0.4,1.3,0.9,2,1.4c1.2,0.9,2.3,1.8,3.4,2.9
		c0.1,0.1,0.2,0.2,0.3,0.2C428.93,45.9,430.23,51.2,430.23,56.9z"/>
	<path class="st19" d="M437.93,67.7c0,20.5-16.6,37-37,37c-1.4,0-2.7-0.1-4-0.2c-7.6-0.8-14.4-3.9-19.9-8.6c-1.8-1.5-3.5-3.3-5-5.2
		c-1.4-1.7-2.7-3.6-3.7-5.6c-0.3-0.6-0.6-1.2-0.9-1.7c0.4,0.4,0.8,0.7,1.2,1.1c0.7,0.7,1.5,1.3,2.3,1.9c1.6,1.2,3.3,2.3,5.1,3.3
		c5.1,2.7,11,4.2,17.2,4.2c1.1,0,2.1,0,3.2-0.1c19-1.6,33.9-17.5,33.9-36.9c0-5.7-1.3-11-3.5-15.8
		C433.63,47.9,437.93,57.3,437.93,67.7z"/>
	<path class="st16" d="M426.73,41.1l-0.4-0.1l-35.4-9l-2.3-0.6c-7.2-2.3-22,10.1-22.8,10.8c0.6-0.8,13.4-16.8,30.5-14.8
		c12.7,1.5,21.1,6.5,24.8,9.2c1.4,1,2.1,1.7,2.1,1.7c0-0.1-0.1-0.2-0.1-0.3c-6.7-14-28-17.1-30-17.4c27.2,1.9,32.8,17.5,33.5,20.1
		C426.63,41,426.73,41.1,426.73,41.1z"/>
	<path class="st16" d="M374.83,76.2c0,0-2,1.4-4.2,4.5c-0.2,0.3-0.4,0.6-0.6,1c-0.5,0.8-1,1.8-1.5,2.8c-0.1,0.2-0.2,0.4-0.3,0.7
		c-1.2,2.9-2.2,6.5-2.5,11c-0.5,8.1-0.9-20-0.9-20H374.83z"/>
	<path class="st16" d="M382.23,111.6c-5.5-7.1-8.6-14.8-10.3-20.8c-0.5-1.6-0.8-3-1.1-4.3c-0.4-2-0.7-3.6-0.8-4.7
		c-0.2-1.2-0.2-1.8-0.2-1.8l0.8,0.8l5.2,5.3c0,1.2,0,2.4,0.1,3.6c0.2,2.1,0.5,4.2,1,6.2C378.73,104.2,382.03,111.2,382.23,111.6z"/>
	<path class="st20" d="M534.63,37.4c0,0,21.1,37.3,18.1,67.3C552.73,104.7,566.23,55.2,534.63,37.4z"/>
	<path class="st20" d="M517.83,102.2c0,0-46.1-9-64.9-22.3C453.03,79.9,466.53,112.2,517.83,102.2z"/>
	<path class="st20" d="M438.93,42.2c0,0,30-27.4,61.7-15.6C500.63,26.6,442.23,38.1,438.93,42.2z"/>
	<path class="st21" d="M538.03,231c-0.8,0.1-1.8,0.1-2.8-0.1c-1.9-0.3-4-0.6-5.5-0.8l0,0V230l-0.7-6.2l-0.9-8.1l-1.3-11.8
		C526.73,203.9,532.23,221.8,538.03,231z"/>
	<path class="st18" d="M554.03,255.9L554.03,255.9c-1.2,1-2.5,1.9-3.7,2.7c-0.5,0.4-1.1,0.7-1.6,1c-0.6,0.4-1.1,0.7-1.7,1.1
		c-6,3.7-12.4,6.4-18.9,8.5c-6.2,2-12.7,3.2-19.1,4c-10,1.2-20,1.2-29.5,0.4c-0.8-0.1-1.5-0.1-2.3-0.2c-19.8-1.8-37-6.7-46.3-9.7
		c0.4-0.2,0.9-0.4,1.3-0.7c0.9-0.5,1.8-1,2.7-1.6c0.7-0.5,1.5-0.9,2.2-1.5c0.1-0.1,0.3-0.2,0.4-0.3c1.7-1.2,3.3-2.6,4.7-4.1
		c1.8-1.8,3.4-3.7,4.8-5.7l0,0l0,0c0.1,0,0.2,0,0.3,0.1c0.1,0,0.2,0.1,0.3,0.1s0.2,0,0.2,0.1c0.1,0,0.2,0,0.3,0.1
		c0.1,0,0.2,0,0.3,0.1c0.1,0,0.2,0.1,0.3,0.1s0.3,0.1,0.5,0.1c0.1,0,0.2,0.1,0.3,0.1s0.2,0,0.3,0.1c0.2,0,0.3,0.1,0.5,0.1
		c0.1,0,0.2,0.1,0.3,0.1c0.3,0.1,0.7,0.2,1.1,0.2c0.2,0,0.4,0.1,0.5,0.1c0.2,0,0.4,0.1,0.6,0.1l0,0c0.1,0,0.1,0,0.2,0.1
		c0.2,0,0.5,0.1,0.7,0.2c0.2,0,0.3,0.1,0.5,0.1l0,0c0.2,0,0.3,0.1,0.5,0.1c0.4,0.1,0.7,0.2,1.1,0.2c0.7,0.1,1.4,0.3,2.2,0.4
		c0.1,0,0.2,0,0.4,0.1l0,0l0,0l0,0c0.8,0.1,1.6,0.3,2.4,0.4c0.2,0,0.3,0.1,0.5,0.1l0,0l0,0l0,0c0.3,0.1,0.7,0.1,1,0.2
		c0.7,0.1,1.4,0.2,2.1,0.3l0,0c0.4,0.1,0.7,0.1,1.1,0.2c0.4,0,0.7,0.1,1.1,0.2c0.7,0.1,1.5,0.2,2.3,0.3c0.8,0.1,1.6,0.2,2.5,0.3
		c0.8,0.1,1.6,0.2,2.4,0.2l0,0c1.5,0.1,3,0.3,4.5,0.4c1.6,0.1,3.1,0.2,4.7,0.2l0,0c0.2,0,0.3,0,0.5,0c2.4,0.1,4.8,0.1,7.4,0.1
		c1.7,0,3.4-0.1,5.1-0.2c1.7-0.1,3.5-0.2,5.2-0.4c0.2,0,0.4,0,0.6-0.1c0.3,0,0.5-0.1,0.8-0.1c0.5-0.1,1-0.1,1.5-0.2l0,0
		c0.7-0.1,1.5-0.2,2.2-0.3l0,0c0.6-0.1,1.1-0.2,1.7-0.2c0.2,0,0.4-0.1,0.6-0.1l0,0l0,0c1.5-0.2,3-0.5,4.5-0.8l0,0
		c0.5-0.1,1.1-0.2,1.6-0.3c1-0.2,1.9-0.4,2.9-0.7c0.6-0.1,1.1-0.3,1.7-0.4c0.1,0,0.2,0,0.2-0.1c0.3-0.1,0.6-0.2,0.9-0.2
		c0.2,0,0.4-0.1,0.6-0.2c0.3-0.1,0.6-0.2,0.8-0.2c0.3-0.1,0.6-0.2,0.8-0.2c0.3-0.1,0.6-0.2,0.8-0.2c0.3-0.1,0.6-0.2,0.9-0.3
		c0.7-0.2,1.5-0.5,2.2-0.7c0.3-0.1,0.6-0.2,0.8-0.3c0,0,0.1,0,0.1-0.1c0.3-0.1,0.5-0.2,0.8-0.3c0.2-0.1,0.5-0.2,0.7-0.2
		c1.6-0.6,3.2-1.2,4.7-2c0.2-0.1,0.4-0.2,0.6-0.3c0.2-0.1,0.4-0.2,0.6-0.3c0.2-0.1,0.4-0.2,0.6-0.3c0.4-0.2,0.7-0.4,1.1-0.5
		c0.6-0.3,1.2-0.6,1.7-0.9l0,0l0,0c0,0,0.1,0,0.1,0.1c1.8,1.8,3.8,3.5,5.8,5.1l0,0c0,0,0.1,0,0.1,0.1c0.7,0.5,1.3,1,2,1.5
		c0.5,0.4,1,0.8,1.6,1.1c0.6,0.5,1.3,0.9,1.9,1.3C551.83,254.5,552.93,255.2,554.03,255.9z"/>
	<path class="st18" d="M675.53,435.6c-1-0.5-2-1.1-3-1.7c-4.3-2.6-8.1-4.3-11.5-5.4c-16.6-20.8-20.4-39.6-20.4-39.6
		C645.43,403.6,661.83,422,675.53,435.6z"/>
	<path class="st18" d="M618.53,531.2c-48-14.1-75.2-71.7-76.1-73.6c23.2,39,74.4,65.7,74.5,65.7l0.1,1c0,0.1,0,0.2,0,0.3
		C617.23,526.8,617.83,529,618.53,531.2z"/>
	<polygon class="st3" points="681.33,955.7 671.43,958.2 613.93,702.6 600.73,705.9 600.03,703.4 623.23,697.6 	"/>
	<polygon class="st3" points="671.43,958.2 669.53,958.7 600.73,705.9 613.93,702.6 	"/>
	<polygon class="st3" points="732.43,827.9 725.13,830.3 723.43,830.9 669.33,682.7 669.33,682.7 686.43,674.1 	"/>
	<polygon class="st3" points="725.13,830.3 723.43,830.9 669.33,682.7 679.43,677.6 	"/>
	<polygon class="st14" points="725.13,830.3 723.43,830.9 669.33,682.7 679.43,677.6 	"/>
	<polygon class="st14" points="448.03,830.8 438.63,829 458.93,704.6 477.33,707 	"/>
	<path class="st9" d="M578.03,140.4c0.3-0.7,0.6-1.5,0.9-2.1"/>
	<path class="st9" d="M573.33,124.9L573.33,124.9"/>
	<polygon class="st3" points="329.13,948.7 340.93,951.6 410.43,696.4 387.23,690.6 	"/>
	<path class="st22" d="M1060.73,330.2l-17.5,2c0,0-4.6-39.4-3.6-63.4s1.7-40.1,1.7-40.1s0.3,1,0.9,2.7c3.4,11.3,16.3,55.9,18.4,93.5
		C1060.63,326.7,1060.73,328.5,1060.73,330.2z"/>
	<path class="st23" d="M1060.53,324.9l-5.7,0.9c0,0-11.2-64.1-12.7-94.3C1045.63,242.8,1058.53,287.3,1060.53,324.9z"/>
	<path class="st22" d="M1042.53,352.5l-6,7.4l-4.9,6.1c0,0-12.6-59.8-12.8-83.9c-0.2-24.2-0.2-24.2-0.2-24.2s2.6,3.4,6.2,9.5
		C1033.83,282.7,1048.83,315,1042.53,352.5z"/>
	<path class="st23" d="M1042.53,352.5l-6,7.4c-3.2-15.8-11.4-58.4-11.6-77.9c-0.1-6.5-0.1-11.2-0.2-14.7
		C1033.83,282.7,1048.83,315,1042.53,352.5z"/>
	<path class="st22" d="M1076.83,256.5c0,0,0,0-0.3,24.2c-0.2,24.2-12.8,83.9-12.8,83.9l-10.8-13.5c-0.4-2.6-0.8-5.2-1-7.8
		c-4.1-44.4,20-79.9,24.3-85.9C1076.63,256.8,1076.83,256.5,1076.83,256.5z"/>
	<path class="st23" d="M1076.23,257.4c-0.9,2.9-2.4,6.4-4.5,10.6c-10.9,21.6-12.8,83.9-12.8,83.9l-7-8.7
		C1047.73,298.9,1071.93,263.4,1076.23,257.4z"/>
	<path class="st24" d="M520.03,725.5c0,0,59.1-7,66.6-6l-0.5,3.9l1.3,6.8c0.3,1.7,0.2,3.5-0.3,5.2c-0.7,2.1-1.6,4.8-2.1,5.7
		c-0.8,1.5,2.3,7,0,11.2c-2.3,4.2-3.1,19.8-3.1,19.8l-48.6,0.9c0,0-5.1-8.8-4.4-12.8s-5.9-6.9-5.9-9.6c0-2.1,0.1-9,0.2-11.9
		c0-0.9-0.1-1.8-0.3-2.7L520.03,725.5z"/>
	<path class="st22" d="M1079.53,245.9L1079.53,245.9z"/>
	<circle cx="770.43" cy="332.2" r="11.6"/>
	
		<linearGradient id="SVGID_1_" gradientUnits="userSpaceOnUse" x1="526.631" y1="880.7" x2="992.0309" y2="880.7" gradientTransform="matrix(1 0 0 -1 0 1050.2)">
		<stop  offset="0" style="stop-color:#FFFFFF;stop-opacity:0"/>
		<stop  offset="0.0558" style="stop-color:#FFFFFF;stop-opacity:0.2905"/>
		<stop  offset="1" style="stop-color:#FFFFFF;stop-opacity:0"/>
	</linearGradient>
	<polygon class="st25" points="526.63,30.7 992.03,35 992.03,308.3 660.63,308.3 611.53,286.3 578.93,274.2 564.53,268.3 
		539.73,251.5 528.93,234.3 549.13,141.1 560.63,62.3 	"/>
	<path class="st24" d="M528.93,855.3c0,0-9.6,7.6-8.9,17.2c0.7,9.6,4.4,14.1,4.4,14.1L528.93,855.3z"/>
	<path class="st26" d="M531.83,776.4c0,0,15.1-37.3,36.1-22c21,15.3,30,27.8,21.3,54c-8.7,26.2,17.2,71.5,4.6,78
		c-12.6,6.6-72.2,13.8-69.3-2.3C527.43,868.1,524.53,807.7,531.83,776.4z"/>
	<polygon class="st14" points="329.13,948.7 340.93,951.6 410.43,696.4 387.23,690.6 	"/>
	<path class="st14" d="M584.93,740.7c-0.8,1.5,2.3,7,0,11.2c-1.4,2.6-2.2,9.4-2.7,14.3c-3.8-4.1-8.7-8.1-14.4-12.3
		c-17.1-12.5-30.2,9.9-34.5,18.7c0,0-5.1-8.8-4.4-12.8c0.7-4-5.9-6.9-5.9-9.6c0-2.1,0.1-9,0.2-11.9c0-0.9-0.1-1.8-0.3-2.7l-2.9-10.6
		c0,0,59.1-7,66.6-6l-0.5,3.9l1.2,6.8c0.3,1.7,0.2,3.5-0.3,5.2C586.33,737.1,585.43,739.8,584.93,740.7z"/>
	<path class="st14" d="M593.83,886c-12.6,6.6-72.2,13.8-69.3-2.3c2.9-16,0-76.5,7.3-107.8c0,0,0.5-1.3,1.5-3.3
		c4.3-8.8,17.5-31.1,34.5-18.7c5.7,4.2,10.6,8.2,14.4,12.3c10.2,10.9,13.2,22.7,6.9,41.8C580.53,834.2,606.43,879.5,593.83,886z"/>
	<polygon class="st14" points="671.43,958.4 669.53,958.9 600.73,706.1 614.23,703.7 	"/>
	<g>
		<path class="st27" d="M714.83,534.6c-4.4-7.5-9.7-15-15.7-22.3c-6.5-8-13.9-15.9-22-23.5c-5.5-5.1-11.3-10.1-17.4-15
			c-5-4-10.3-7.9-15.7-11.6c-4.2-2.9-8.5-5.8-12.9-8.5c-1.4-0.9-2.9-1.8-4.3-2.7c-3.3-2-6.6-3.9-9.9-5.8l0,0
			c-8.9-5-18.1-9.6-27.5-13.7c-2.2-1-4.5-2-6.7-2.9c-0.7-0.3-1.5-0.6-2.2-0.9c-0.6-0.2-1.2-0.5-1.8-0.7c-0.9-0.4-1.8-0.7-2.7-1.1
			c-0.6-0.2-1.1-0.4-1.7-0.7c-2-0.7-3.9-1.5-5.9-2.2c-12.6-4.5-25.4-8.2-38.2-10.9c-4.5-0.9-9-1.8-13.5-2.5
			c-10.3-1.6-20.5-2.6-30.7-2.7c-1.4,0-2.7-0.1-4.1-0.1c-2.8,0-5.5,0.1-8.1,0.2c-1.3,0-2.5,0.1-3.8,0.2c-4.5,0.3-8.8,0.7-13.1,1.4
			c-7.5,1.1-14.6,2.6-21.3,4.7c-6,1.8-11.7,4-17.1,6.5c-0.7,0.3-1.5,0.7-2.2,1c-0.3,0.2-0.7,0.3-1,0.5c-0.4,0.2-0.8,0.4-1.2,0.6
			c-0.6,0.3-1.3,0.6-1.9,1c-0.1,0.1-0.2,0.1-0.3,0.2c-0.7,0.4-1.5,0.8-2.2,1.2c-0.3,0.2-0.6,0.4-0.9,0.5c-0.6,0.4-1.3,0.7-1.9,1.1
			l0,0l0,0c-0.6,0.4-1.2,0.7-1.8,1.1c-0.4,0.2-0.8,0.5-1.2,0.7c-0.7,0.5-1.4,0.9-2.2,1.4c-7.1,4.7-13.5,10-19.4,15.8
			c-2.8,2.8-5.6,5.7-8.2,8.8c-1.4,1.7-2.8,3.4-4.2,5.2c-3.3,4.2-6.3,8.7-9.2,13.3c-2.2,3.5-4.2,7.1-6.1,10.8
			c-8,15.4-13.8,32.1-17.7,49.2c-4.8,20.8-6.9,42-6.9,61.9c0,14.3,1.2,26.9,3.9,37.9c2.2,8.9,5.3,16.8,9.5,23.7
			c3.9,6.5,8.8,12.2,14.7,17.2c5,4.3,10.8,8.1,17.4,11.4c0.9,0.5,1.8,0.9,2.7,1.3c6.8,3.2,14.4,6,23,8.5l0.4,0.1
			c2.8,0.8,5.7,1.6,8.7,2.3c1.5,0.4,2.9,0.7,4.4,1c4.5,1,9.1,1.9,14,2.8c4.8,0.9,9.8,1.6,15,2.4c0,0,0,0,0.1,0
			c4.8,0.7,9.9,1.3,15.1,1.9c1.8,0.2,3.6,0.4,5.4,0.6c4.2,0.4,8.6,0.9,13.1,1.3h0.1c0.2,0,0.4,0,0.6,0c3.9,0.4,7.9,0.7,12,1
			c1.6,0.1,3.2,0.2,4.8,0.3c0.7,0.1,1.5,0.1,2.2,0.2h0.1c1.5,0.1,3,0.2,4.6,0.3c1,0.1,2,0.1,3,0.2c0.1,0,0.2,0,0.2,0
			c0.1,0,0.1,0,0.2,0c1.3,0.1,2.5,0.1,3.8,0.2c1.6,0.1,3.2,0.1,4.8,0.2c0.4,0,0.7,0,1.1,0c14.2,0.5,27.8,0.4,40.9-0.3
			c4.3-0.2,8.6-0.5,12.9-0.9c6.7-0.6,13.3-1.3,19.7-2.2c4.1-0.6,8.1-1.2,12-1.9c6-1.1,11.7-2.2,17.3-3.6c2-0.5,4-1,6-1.5
			c0.5-0.1,1-0.3,1.5-0.4c0.8-0.2,1.7-0.4,2.5-0.7c0.1,0,0.2-0.1,0.4-0.1c0.7-0.2,1.4-0.4,2.1-0.6c0.7-0.2,1.4-0.4,2.1-0.6
			c10.1-3,19.5-6.6,28.2-10.6c10.1-4.6,19.2-9.9,27.2-15.8c6.4-4.7,12.2-9.7,17.2-15.1c14.3-15.3,23.2-33.4,25.8-54
			c0.5-4.2,0.8-8.4,0.8-12.8C731.33,570.5,725.33,552.4,714.83,534.6z M352.03,608.9l20.3-110.3l0.8,12.9c0,11.3-1.8,38.1,2.8,55.6
			l0,0c1.7,33.6,8.9,65.3,20.3,93.4c-13.5,1.4-23.4,3.6-28.2,6.6C360.83,649.1,355.43,629.6,352.03,608.9z"/>
		<path class="st27" d="M432.33,551c0,59.8,17.1,114.3,45.1,155.5c-4.5-0.4-8.9-0.8-13.1-1.3c-27.5-40.9-44.3-95-44.3-154.2
			c0-53.7,13.8-103.1,36.9-142.4c4.2-0.6,8.6-1.1,13.1-1.4C446.33,446.8,432.33,496.7,432.33,551z"/>
		<path class="st27" d="M428.83,700.3c-4.9-0.9-9.5-1.8-14-2.8c-0.2-0.3-0.4-0.7-0.6-1c-2.2-3.6-4.3-7.2-6.3-10.9
			c-4.3-7.9-8.2-16.3-11.7-24.9c-11.4-28.2-18.6-59.8-20.3-93.4l0,0c-0.3-5.3-0.4-10.7-0.4-16.2c0-34.8,5.8-67.7,16.1-97.3
			c3-8.5,6.3-16.7,10-24.6c0.7-0.5,1.4-0.9,2.2-1.4c0.4-0.2,0.8-0.5,1.2-0.7c0.6-0.4,1.2-0.7,1.8-1.1l0,0l0,0
			c0.6-0.4,1.2-0.7,1.9-1.1c0.3-0.2,0.6-0.4,0.9-0.5c0.7-0.4,1.5-0.8,2.2-1.2c0.1-0.1,0.2-0.1,0.3-0.2c0.6-0.3,1.3-0.7,1.9-1
			c0.4-0.2,0.8-0.4,1.2-0.6c0.3-0.2,0.7-0.3,1-0.5c0.7-0.4,1.5-0.7,2.2-1c-0.6,1.1-1.1,2.2-1.7,3.3c-0.5,0.9-0.9,1.9-1.4,2.8
			c-1,2.1-2,4.2-3,6.4l0,0c-3.1,6.9-6,14-8.5,21.4c-10.3,29.6-16.1,62.6-16.1,97.3c0,10.8,0.6,21.5,1.6,31.9l0,0
			c0,0.5,0.1,0.9,0.2,1.4c2.9,26.9,9.3,52.2,18.5,75.3c0.7,1.7,1.3,3.3,2,4.9c3.1,7.3,6.5,14.3,10.1,21c2.6,4.9,5.4,9.7,8.3,14.3
			C428.63,700,428.73,700.2,428.83,700.3z"/>
		<path class="st27" d="M375.53,684.2c-6.6-3.3-12.4-7.1-17.4-11.4c-4.5-10.7-8.5-21.9-11.7-33.5c-3.5-12.7-6.2-25.9-8.1-39.6
			c-1.7-13.1-2.7-26.7-2.7-40.5c0-9.2,0.4-18.2,1.2-27c3.9-17.1,9.7-33.8,17.7-49.2c1.9-3.7,3.9-7.3,6.1-10.8
			c-8.2,26.9-12.7,56.2-12.7,87c0,17.1,1.4,33.7,4,49.8c3.4,20.6,8.9,40.2,16.1,58.3c2,5,4.1,9.9,6.4,14.7l0,0
			C374.83,682.8,375.23,683.5,375.53,684.2z"/>
		<path class="st27" d="M510.33,563.5c0,52.1-7.4,101.1-20.4,144c-4.1-0.3-8-0.6-11.9-1c12.8-42.7,20.1-91.4,20.1-143
			c0-57.1-8.9-110.6-24.4-156.4c2.7-0.1,5.4-0.2,8.1-0.2c1.4,0,2.7,0,4.1,0.1C501.43,452.8,510.33,506.3,510.33,563.5z"/>
		<path class="st27" d="M560.93,543.5c0,64.7-20,123.1-52.1,165.2c-3.9-0.2-7.8-0.4-11.7-0.7c31.9-42,51.6-100.2,51.6-164.5
			c0-49.9-11.9-96-32.1-133.8c4.5,0.7,9,1.5,13.5,2.5C549.53,449.5,560.93,494.7,560.93,543.5z"/>
		<path class="st27" d="M614.43,551c0,60.4-17.4,115.4-46,156.7c-4.2,0.4-8.5,0.7-12.8,0.9c28.9-41.3,46.6-96.7,46.6-157.6
			c0-46.4-10.3-89.5-27.9-125.8c5.1,1.9,10.2,4.1,15.2,6.3C605.23,466.4,614.43,507.3,614.43,551z"/>
		<path class="st27" d="M669.93,552.1c0,54.4-14.1,104.5-37.9,144.1c-4.7,1.4-9.6,2.7-14.6,3.9c25.1-40.1,40.2-91.7,40.2-148
			c0-31.9-4.8-62.2-13.6-89.9c5.4,3.8,10.6,7.6,15.7,11.6C666.33,498.3,669.93,524.6,669.93,552.1z"/>
		<path class="st27" d="M716.83,569.8c0,29.9-4.3,58.6-12.1,84.8c-5.1,5.4-10.8,10.4-17.2,15.1c10.9-30.3,17-64.1,17-99.9
			c0-19.9-1.9-39.2-5.5-57.6c6,7.3,11.3,14.8,15.7,22.3C716.13,546.1,716.83,557.8,716.83,569.8z"/>
		<path class="st27" d="M339.33,648"/>
	</g>
	<path class="st28" d="M1028.03,701.7l-3.9,14.9l-8.1,30.8c0,0-2-11.9-3.4-24.5c-1.3-12-2-24.7,0.2-28.9c0.8-1.6,1.6-2.9,2.4-3.8
		c4.2-4.9,7.7-0.7,10,4C1027.03,697.8,1028.03,701.7,1028.03,701.7z"/>
	<path class="st29" d="M1079.63,684c0,12.5-3.6,23.8-9.3,32c-5.3,7.5-12.5,12.3-20.4,12.8c-0.4,0-0.8,0-1.2,0
		c-4.4,0-9.4-1.6-14.2-4.2c-3.7-2.1-7.2-4.8-10.3-7.9c-2.5-2.6-4.7-5.6-6.4-8.7c-2.9-5.5-4.1-11.6-2.5-17.7c0.5-2,1.3-4.1,2.5-6.1
		c13.5-23.9,14.2-38.6,23.2-43.2c2.1-1.1,4.6-1.6,7.7-1.6c11.2,0,21,8.6,26.5,21.5c1.1,2.5,1.9,5.1,2.6,7.9
		c1.2,4.6,1.8,9.6,1.9,14.8C1079.63,683.6,1079.63,683.8,1079.63,684z"/>
	<path class="st28" d="M1151.63,835.1c-0.9,13.4-4.4,23-12.3,25c-0.5,0.1-1.1,0.2-1.7,0.3c-1.6,0.2-3.4,0.1-5.4-0.3l0,0
		c-9.1-1.9-12.7,1.2-21.3,2.9c-2.6,0.5-6.8,1.8-11.2,3.4c-2.4,0.8-4.8,1.8-7.2,2.8l0,0c-1.6,0.6-3.1,1.3-4.5,1.9
		c-3.1,1.4-5.7,2.7-7.4,3.8c-0.2,0.1-0.4,0.2-0.6,0.4c-6.7,4-12,3.7-16.7,0.6c-2.5-1.7-4.8-4.1-7-7c-5.1-6.9-9.3-16.6-13.7-25
		c-1.2-2.2-2.4-4.4-3.6-6.4c-9-14.8-23.8-38-27.7-58.1c-4-20.6-3.1-39.9,1.2-56.5c1.4-5.3,3.1-10.3,5.2-15c2.2-5,4.7-9.6,7.5-13.7
		c4-6,8.7-11.2,13.8-15.3c3.6-3,7.5-5.4,11.6-7.2c3.3-1.5,6.8-2.7,10.4-3.4c0.1,0,0.1,0,0.2,0c0.5-0.1,1-0.2,1.6-0.3
		c5-0.8,10.1-0.5,15.1,0.7c13.7,3.2,27,13.1,38.3,27.8c1.9,2.5,3.7,5.1,5.5,7.8c7.1,11,13.1,24,17.4,38.4c1.7,5.7,3.2,11.6,4.4,17.6
		c3.9,20.3,8.2,44.9,8.5,64.7l0,0C1151.93,828.6,1151.83,831.9,1151.63,835.1z"/>
	<polygon class="st28" points="1086.63,894 1085.13,894.5 1065.23,900.8 1046.23,906.8 1043.33,904.2 1042.63,887 1042.63,824.3 
		1022.83,779.3 1046.23,779.3 1072.43,853.8 1075.63,862.8 1079.93,875.2 1080.03,875.2 	"/>
	<path class="st30" d="M1087.63,855.4c-0.7,0.2-1.5,0.5-2.3,0.8c-2.5,1.1-5.7,3.1-9.7,6.6c-3.5,3.1-7.5,7.3-12.3,13l0,0
		c-0.3,0.3-0.6,0.7-0.8,1.1c-0.2,0.3-0.5,0.6-0.7,0.8c-5.1,6.5-12.1,16.6-18.3,26.2c-0.1,0.1-0.1,0.2-0.2,0.3l-0.7-17.2
		c5.1-7.4,9.7-13.4,13.7-18.1c6.7-7.8,12-12.5,16.1-15.1c6.8-4.4,10.3-3.4,11.3-2.8c0.2,0.1,0.4,0.2,0.4,0.2
		C1085.43,852.4,1086.63,853.8,1087.63,855.4z"/>
	<polygon class="st28" points="1186.53,923.8 1166.33,930.2 1152.33,934.6 1146.23,936.6 1139.03,897.5 1135.23,876.8 1132.23,860 
		1122.83,809.1 1146.23,809.1 1151.83,825 1151.83,825 1154.73,833.1 1157.23,840.2 1171.53,881.1 	"/>
	<path class="st30" d="M1191.73,950.6v0.3c-0.3,37.9-5.8,72.6-14,82.5c-2.1,2.6-4.5,4.4-7,5.6c0,0-0.1,0-0.1,0.1
		c-1.8,0.8-3.6,1.2-5.5,1.3c-2.1,0.1-4.3-0.2-6.5-1.1c-15.6-12.7-29-49.3-23.2-110.9c1.1-11.7,2.3-22,3.7-31l-3.8-20.7
		c1.3-6.2,2.6-11.6,3.9-16.1c0-0.2,0.1-0.3,0.2-0.5c4.4-15.1,8.9-22,12.3-25c1.2-1,2.2-1.6,3.1-2l2.5,7.1c4-4.3,6.8-3.5,6.8-3.5
		c0.2,0.1,0.5,0.2,0.7,0.2c18.6,15.3,26.4,60.7,27,104.3v0.2C1191.73,944.5,1191.73,947.6,1191.73,950.6z"/>
	<path class="st28" d="M1087.23,918.3c-7.5,28-21,58.9-34.6,83c-0.7,1.2-1.3,2.3-2,3.5c-11.3,19.5-22.6,34-30.3,37.8
		c-1.6,0.8-3.1,1.3-4.6,1.7c-0.2-2.9,0.7-4.4,2.3-7.3l-3.3,2.2c-2.1,2.4-5.9,2-7.5-0.7c-10.1-17-9.3-55.5,22.1-110.8
		c5-8.8,9.6-16.5,13.9-23.3c0.1-0.1,0.1-0.2,0.2-0.3c0.6-0.9,1.2-1.9,1.8-2.8c6.2-9.6,11.7-17.3,16.6-23.4c0.2-0.3,0.4-0.6,0.7-0.8
		c0.3-0.4,0.6-0.7,0.8-1.1l0,0c4.7-5.7,8.8-10,12.3-13c3.9-3.5,7.1-5.5,9.7-6.6c0.9-0.4,1.6-0.7,2.3-0.8c2.5,3.8,4,8.4,4.9,13.8l0,0
		C1094.63,882.3,1092.23,899.6,1087.23,918.3z"/>
	<path class="st28" d="M1034.73,1043.2c-1.9,1.7-3.8,3-5.4,3.8c-2.4,1.2-4.7,1.8-6.9,2.1c-3,0.3-5.9-1.5-6.6-4.4
		c0-0.2-0.1-0.4-0.1-0.6c1.5-0.4,3-0.9,4.6-1.7c7.7-3.8,19-18.2,30.3-37.8c0.7-1.1,1.3-2.3,2-3.5c13.6-24.1,27.1-55.1,34.6-83
		c5-18.7,7.3-36,5.2-49.1l0,0c-0.9-5.4-2.4-10-4.9-13.8c3.9-1.1,5.5,0.3,5.5,0.3c2.9,2.7,5.1,6.3,6.5,10.6l0,0
		C1114.43,908.9,1062.03,1018.9,1034.73,1043.2z"/>
	<path class="st28" d="M1184.53,1037.4c-2.9,3.5-6.3,5.7-9.9,6.6c-1.7,0.4-3.4-0.8-3.6-2.5c-0.1-0.8-0.2-1.6-0.2-2.4
		c0-0.3,0-0.6,0-0.9c0,0.3-0.1,0.7-0.1,1c-0.1,0.9-0.2,1.7-0.4,2.3c-0.4,1.7-2.2,2.7-3.8,2.2c-0.6-0.2-1.1-0.4-1.7-0.6
		c-2-0.8-4.1-2.1-6.1-3.7c-15.6-12.7-29-49.3-23.2-110.9c1.1-11.7,2.3-22,3.7-31c2.3-15.1,4.9-26.5,7.4-35.1
		c3.8-12.4,7.6-18.8,10.7-22.2c4-4.3,6.8-3.5,6.8-3.5c0.2,0.1,0.5,0.2,0.7,0.2C1208.23,853.7,1203.73,1014.2,1184.53,1037.4z"/>
	<path class="st31" d="M1082.13,890.4c0,0-9.9-8.5-40.8,46c-30.9,54.4-17.4,85.1,0,76.5C1058.73,1004.4,1104.03,911,1082.13,890.4z"
		/>
	<path class="st31" d="M1171.93,881.1c0,0-12.3-4.1-20.2,58c-7.9,62.1,16.3,85.3,29.2,70.8
		C1193.73,995.4,1199.93,891.8,1171.93,881.1z"/>
	<circle class="st31" cx="1104.73" cy="820.5" r="16.2"/>
	<path class="st29" d="M1051.43,667.5c0,0-12.3,45.4,7.5,93.2c0,0,23-32.9,3.5-93.2H1051.43z"/>
	<path class="st29" d="M1170.93,1032.5c0,2.2-0.1,4.1-0.2,5.6C1170.73,1035.1,1170.93,1032.5,1170.93,1032.5z"/>
	<path class="st32" d="M1139.93,747.3l-69.6-70.3l45.7,19.4c1.9,2.5,3.7,5.1,5.5,7.8c7.1,11,13.1,24,17.4,38.4L1139.93,747.3z"/>
	<path class="st29" d="M1060.43,667.7c0,0,32.5,34.1,83.6,41.9c0,0-16.2-36.7-77.9-51.3L1060.43,667.7z"/>
	<path class="st33" d="M530.13,30.7c0,0,37.9,106.7,9,167.4c-42.1,88.2-33.8,94.2-28,130.3s100.3,26.9,158.3,47.4
		c149.3,52.9,322.7-67.5,322.7-67.5V35L530.13,30.7z"/>
	<path class="st34" d="M284.73,583l-10.1,56C277.93,612,281.53,591.9,284.73,583z"/>
	<path class="st14" d="M513.63,705.8L513.63,705.8c0,0.6,0,0,0-0.2C513.63,705.7,513.63,705.7,513.63,705.8z"/>
	<path class="st14" d="M548.73,712c0,0.2-59-2.09-71.4-2.79c-141.7-7.7-145.2-69.91-145.7-73.21c-1.4-8.4-4.4-30.7-4.4-40.4
		c0-19.9,1.8-42,6.6-62.8c3.9-17.1,13.9-41.9,21.8-57.3l3-21.9h-50.6h-22h-16.1v-27.8l32.3-45.2h62.8c-0.6-15.9,0.4-31.8,3-47.4
		c2.7-16.3,5.6-33.8,6-35.4l0,0c1-4.2,2.7-8.1,4.9-11.6l0,0c6.8-10.8,18.9-17.9,32.6-17.9c7,0,13.5-1.7,19.3-4.6
		c0.4-0.2,0.9-0.4,1.3-0.7c0.9-0.5,1.8-1,2.7-1.6s1.7-1.2,2.6-1.8c1.7-1.2,3.2-2.6,4.7-4.1c1.8-1.8,3.4-3.7,4.8-5.7l0,0
		c0.7-1,1.3-2,1.9-3c2.6-4.3,5.5-8.7,7.2-13.6c0.4-7.6-0.3-13.9-0.8-17c0-0.3-0.1-0.5-0.1-0.7c-0.2-0.9-0.3-1.4-0.3-1.4
		c-1-0.6-2.1-1.2-3.1-1.8c-21.1-13-39.1-32.1-44.8-58.3c-4.8-22-8.8-37.2-10.2-49.6c-7.6-0.8-14.4-3.9-19.9-8.6
		c1.8,8.2,5.1,15.2,5.3,15.7c-5.5-7.1-8.6-14.8-10.3-20.8c-1.4-1.7-2.7-3.6-3.7-5.6c-1.2,2.9-2.2,6.5-2.5,11c-0.5,8.1-0.9-20-0.9-20
		c-0.6-2.7-1-5.6-1-8.6c0-17,11.5-31.3,27.1-35.7l-2.3-0.6c-7.2-2.3-22,10.1-22.8,10.8c0.6-0.8,13.4-16.8,30.5-14.8
		c12.7,1.5,21.1,6.5,24.8,9.2c0.7,0.4,1.3,0.9,2,1.4c-0.8-1.8-1.9-3.3-3.1-4.8c-0.2-0.3-0.5-0.6-0.8-0.9c-0.3-0.3-0.5-0.6-0.8-0.8
		c-0.4-0.4-0.8-0.8-1.3-1.2c-0.3-0.3-0.7-0.6-1.1-0.9c-0.4-0.3-0.7-0.6-1.1-0.8c-0.3-0.2-0.6-0.4-0.8-0.6l-0.1-0.1
		c-0.4-0.3-0.9-0.6-1.3-0.8c-0.2-0.1-0.4-0.2-0.6-0.3c-0.2-0.1-0.4-0.2-0.6-0.3c-0.4-0.2-0.8-0.4-1.2-0.6c-0.4-0.2-0.8-0.4-1.2-0.6
		c-0.4-0.2-0.8-0.4-1.2-0.6c-0.4-0.2-0.8-0.3-1.2-0.5s-0.8-0.3-1.2-0.5c-0.1,0-0.2-0.1-0.3-0.1c-0.4-0.1-0.8-0.3-1.1-0.4
		c-0.4-0.1-0.8-0.3-1.2-0.4c-0.1,0-0.1,0-0.2-0.1c-0.2-0.1-0.4-0.1-0.6-0.2c-0.2-0.1-0.4-0.1-0.5-0.2c-0.3-0.1-0.6-0.2-0.9-0.3
		c-0.1,0-0.1,0-0.2,0c-0.2-0.1-0.3-0.1-0.5-0.1s-0.3-0.1-0.5-0.1h-0.1c-0.2-0.1-0.5-0.1-0.7-0.2c-0.3-0.1-0.6-0.2-0.9-0.2
		c-0.3-0.1-0.6-0.1-0.9-0.2c-0.1,0-0.3-0.1-0.4-0.1c-0.7-0.1-1.2-0.2-1.7-0.3c-0.2,0-0.4-0.1-0.6-0.1c-0.2,0-0.4-0.1-0.6-0.1
		c-0.1,0-0.2,0-0.3,0c1.2,0.1,2.4,0.2,3.6,0.3c0.1,0,0.2,0,0.3,0s0.1,0,0.2,0c1.1,0.1,2.1,0.3,3.1,0.5c0.4,0.1,0.7,0.1,1.1,0.2
		c0.7,0.1,1.4,0.3,2.1,0.5c0.6,0.2,1.3,0.3,1.9,0.5c2.3,0.7,4.4,1.4,6.2,2.3c0.4,0.2,0.9,0.4,1.3,0.6c1.4,0.7,2.6,1.4,3.7,2.2
		c0.2,0.1,0.3,0.2,0.5,0.3c1.3,1,2.5,2,3.5,2.9c0.1,0.1,0.3,0.3,0.4,0.4c0.5,0.5,0.9,1,1.3,1.5c0.4,0.5,0.8,1,1.2,1.5
		c1.1,1.6,1.9,3,2.4,4.1c0.2,0.4,0.3,0.7,0.4,1c0.1,0.2,0.2,0.4,0.2,0.6c0,0.1,0,0.1,0.1,0.2c0,0.1,0.1,0.2,0.1,0.3
		c11.9-11.2,30.4-23.5,54.4-24c-0.9,2.4-1.8,4.8-2.8,7.2c-1,2.6-2.1,5.3-3.1,7.9c-6.9,17.4-14.7,35.2-22.1,48
		c-20.3,35.5,19.8,114.5,30.2,134.1c0.9,1.6,1.5,3.6,2.1,5.7l0,0c0.6,2.5,0.9,5.3,1.1,8.3c0.4,7.8-0.5,17.2-2.4,27.2
		c-1.1,6-2.6,12.2-4.4,18.4c-5.6,19.1-14,37.6-23.3,48.3c-8.2,9.3-18.8,31.6-28.4,58.7c-4.5,12.8-8.8,26.6-12.6,40.6
		c-0.2,0.6-0.3,1.2-0.5,1.7c-0.2,0.9-0.5,1.9-0.7,2.8c-0.5,2.1-1.1,4.3-1.6,6.4l0,0c-1.7,7.2-3.3,14.3-4.7,21.4
		c-4.2,21.8-6.4,42.4-5.1,58.5c0.9,11.8,7.7,23.8,17.4,36.5c2.8,3.7,5.9,7.4,9.1,11.1c1.1,1.3,2.2,2.6,3.4,3.9l0,0l0,0
		c6.4,7.3,29.1,11.5,36.2,19.4c14.1,15.6,12.9,35.8,24.2,54.5c3.5,5.8,6.7,11.7,9.4,17.8c0.3,0.7,0.6,1.3,0.9,2
		C506.93,666.2,548.73,712,548.73,712z"/>
	<path class="st14" d="M308.03,453.7l-23.3,129.2l0,0l0,0l-10.1,56l0,0l-8.4,46.5l-22,122.2l-8.7-1.4l17.4-120.6l33.2-231.9H308.03z
		"/>
	<path class="st32" d="M795.33,427.2c-0.2,0.9-0.4,1.7-0.7,2.4c0,0.1-0.1,0.2-0.1,0.3s-0.7,1.2-0.8,1.3c-0.1,0.2-2.1,2-2.2,2.2
		s-3,2.1-3.2,2.2c-0.2,0.3-6.2,3.2-6.5,3.6c-0.2,0.2-9.5,3.9-9.7,4.1c-0.4,0.4-12,3.7-12.5,4.1l-11.5,2.3
		c-8.4,1.4-16.2,1.5-21.6-0.3c-7.3-2.4-34.8-5.7-51-13.9c-1-0.5-2-1.1-3-1.7c-4.3-2.6-8.1-4.3-11.5-5.4c-11.8-3.8-18.9,0.3-24.5,4.5
		c-2.6,2-6.5,9.7-8.8,15.4c-28.8-11.4-33.8-59.3-24.8-67.7c9.6-9,86.4,35.4,103.8,46.5C724.23,438.3,795.33,427.2,795.33,427.2z"/>
	<path class="st32" d="M323.63,127.6L323.63,127.6c-0.4,3-0.7,5.9-1,8.7c-0.1,1.3-0.3,2.7-0.4,3.9c-0.5,5.5-0.9,10.4-1.1,14.7h-34.2
		c1.3-1.2,2.2-6.5,2.9-9.5c0.2-0.7,0.3-1.2,0.4-1.6c1.1-3.3,1.6-7.2,1.6-11.3c0.1-15.9-6.2-35.4-6.4-36l0,0l17.1-1.7
		C305.73,101.8,325.73,111.1,323.63,127.6z"/>
	<path class="st32" d="M237.53,82.9c0,0-3.3,20.1-19.6,44.8c-0.1,0.2-0.2,0.3-0.3,0.5c-0.6,0.9-1.2,1.8-1.8,2.7
		c-2.7,3.8-5.7,7.8-9,11.8l-34.5-6.2l-4-0.7c0.1-0.1,0.1-0.1,0.2-0.2c1.6-1.3,2.8-3.1,3.8-5.2c1.5-3.3,2.4-7.3,2.8-11.6
		c1.6-15.9-2.8-35.9-2.8-35.9L237.53,82.9L237.53,82.9z"/>
	<path class="st32" d="M223.53,236.4h-26c1.5-1.5,2.6-8.9,3.4-11.1c5.5-15.7-4.5-46.5-4.7-47.3l37.8,30.9l0,0
		c0.8,3.8,1.4,6.9,1.7,8.6C236.23,221.3,230.23,229.1,223.53,236.4z"/>
	<path class="st32" d="M336.43,263h-42.3l6.5-65l30.5,3.1c-0.6,4.7-1.1,11.4-1.1,20.4c0,3.5,0.3,7.4,0.8,11.6
		c0.7,5.4,1.6,11.1,2.7,16.6c0.4,2,0.8,3.9,1.2,5.7C335.33,258.1,335.93,260.7,336.43,263z"/>
	<path class="st32" d="M266.33,374.5h-40.3c1.5-1.5,2.6-8.9,3.4-11.1c0.4-1,0.7-2.1,0.9-3.2c0.5-2.5,0.8-5.3,0.8-8.2
		c0.1-15.9-6.2-35.3-6.4-35.9l0,0l0,0l37.1-3.7c1.8,10,3.9,24,4.8,37.9c0.1,1.5,0.2,2.9,0.2,4.4c0,0.8,0.1,1.7,0.1,2.5
		C267.03,363.3,266.93,369.1,266.33,374.5z"/>
	<path class="st32" d="M1086.63,894c-0.2,0.7-0.4,1.4-0.6,2.2c-4.5,16.2-19.5,65.7-34.7,106.9c-0.2,0.5-0.4,1-0.6,1.6
		c-5.4,14.5-10.9,28-15.9,38.4c-1.9,1.7-3.8,3-5.4,3.8c-2.4,1.2-4.7,1.8-6.9,2.1c-3,0.3-5.9-1.5-6.6-4.4c0-0.2-0.1-0.4-0.1-0.6
		c-0.2-2.9,0.7-4.4,2.3-7.3l-3.3,2.2c-2.1,2.4-5.9,2-7.5-0.7c-10.1-17-9.3-55.5,22.1-110.8c5-8.8,9.6-16.5,13.9-23.3l-0.7-17.2
		v-43.2c-1.2-2.2-2.4-4.4-3.6-6.4c-9-14.8-23.8-38-27.7-58.1c-4-20.6-3.1-39.9,1.2-56.5c-1.3-12-2-24.7,0.2-28.9
		c0.8-1.6,1.6-2.9,2.4-3.8c0.5-2,1.3-4.1,2.5-6.1c13.5-23.9,14.2-38.6,23.2-43.2l7.7-1.6c0,0-5.3,19-9.6,39.6
		c-3.7,17.8-6.6,36.8-4.6,45.7c4.4,19.1-18,70.1,26,95.1c8.6,4.9,19.9,20.3,23.3,31.3c0.5,1.7,1.1,3.5,1.5,5.3
		c1.3,4.9,2.2,9.9,2.7,14.8C1088.83,879,1088.53,886.9,1086.63,894z"/>
	<path class="st32" d="M1167.23,1012.7c-0.4,10.6-1,20.1-2.1,27.7c-0.1,0.9-0.3,1.8-0.4,2.7c-2-0.8-4.1-2.1-6.1-3.7
		c-15.6-12.7-29-49.3-23.2-110.9c1.1-11.7,2.3-22,3.7-31l-3.8-20.7l-3.1-16.7c0.2,0,2.3,0,5.4,0.3c0.5,0.1,1,0.1,1.5,0.2
		c2.2,0.3,4.7,0.9,7.4,1.8c8.6,3,18,9.6,18.3,24.4l0,0c0.2,7.7,0.9,23.9,1.6,43.4C1167.33,955.9,1168.03,987.3,1167.23,1012.7z"/>
	<polygon class="st34" points="1019.53,390.8 872.33,425.9 872.33,453.7 1014.53,453.7 1073.73,390.8 	"/>
	<g>
		<polygon class="st35" points="1084.73,317.6 1084.73,328.4 1082.03,328.4 1081.83,330.4 1011.43,330.4 1011.13,328.4 
			1008.33,328.4 1008.33,317.6 		"/>
		<g>
			<path class="st36" d="M1082.03,328.4l-0.3,2l-0.7,5.7l-7.3,54.8l-7.5,2.2c-6.1,1.8-12.4,2.8-18.8,2.9c-6.9,0.1-13.8-0.9-20.4-2.9
				l-7.5-2.2l-7.3-54.8l-0.8-5.7l-0.3-2H1082.03z"/>
			<rect x="1008.23" y="315.6" class="st35" width="76.5" height="12.8"/>
		</g>
		<polygon class="st37" points="1082.03,328.4 1081.83,330.4 1081.03,336 1012.13,336 1011.43,330.4 1011.13,328.4 		"/>
	</g>
	<path class="st34" d="M1047.43,328.4V396c-6.9,0.1-13.8-0.9-20.4-2.9l-7.5-2.2l-7.3-54.8l-0.8-5.7l-0.3-2L1047.43,328.4
		L1047.43,328.4z"/>
</g>
</svg>
