<?xml version="1.0" encoding="utf-8"?>
<!-- Generator: Adobe Illustrator 24.1.0, SVG Export Plug-In . SVG Version: 6.00 Build 0)  -->
<svg version="1.1" id="Layer_1" xmlns="http://www.w3.org/2000/svg" xmlns:xlink="http://www.w3.org/1999/xlink" x="0px" y="0px"
	 viewBox="0 0 1680.16 1246.79" style="enable-background:new 0 0 1680.16 1246.79;" xml:space="preserve">
<style type="text/css">
	.st0{opacity:0.5;fill:#AFAFAF;}
	.st1{fill:#F2F2B1;}
	.st2{opacity:0.4;fill:#F2F2B1;enable-background:new    ;}
	.st3{fill:#BABABA;}
	.st4{fill:#C1B69D;}
	.st5{fill:none;}
	.st6{fill:#CECECE;}
	.st7{fill:#565656;}
	.st8{fill:#FFFAE9;}
	.st9{stroke:#000000;stroke-miterlimit:10;}
	.st10{fill:none;stroke:#000000;stroke-miterlimit:10;}
	.st11{fill:#F4E6D0;}
	.st12{opacity:0.3;fill:#E0D0C6;enable-background:new    ;}
	.st13{fill:#E0D9CD;}
	.st14{fill:#CEC8B7;}
	.st15{opacity:0.2;fill:#271768;enable-background:new    ;}
	.st16{fill:#DDB683;}
	.st17{fill:#D3D0BA;}
	.st18{fill:#F4E6D0;stroke:#000000;stroke-miterlimit:10;}
	.st19{opacity:0.3;fill:#DDB683;enable-background:new    ;}
	.st20{opacity:0.2;fill:#D3D0BA;enable-background:new    ;}
	.st21{opacity:0.3;fill:#D3D0BA;enable-background:new    ;}
	.st22{opacity:0.4;fill:#F4E6D0;enable-background:new    ;}
	.st23{fill:#96AF90;}
	.st24{opacity:0.3;fill:#96AF90;enable-background:new    ;}
	.st25{fill:#A8A8A8;}
	.st26{fill:url(#SVGID_1_);}
	.st27{fill:#BFBFBF;}
	.st28{fill:none;stroke:#F2EADA;stroke-width:5;stroke-miterlimit:10;}
	.st29{fill:#8E8E8E;}
	.st30{fill:#7A7A7A;}
	.st31{opacity:0.2;fill:#8E8E8E;enable-background:new    ;}
	.st32{fill:#AFAEAE;}
	.st33{opacity:0.05;fill:#271768;enable-background:new    ;}
	.st34{opacity:0.1;fill:#C5A2DD;enable-background:new    ;}
	.st35{opacity:0.1;fill:#271768;enable-background:new    ;}
	.st36{fill:#BF8258;}
	.st37{fill:#B57C50;}
	.st38{opacity:0.3;fill:#BF8258;enable-background:new    ;}
</style>
<path class="st0" d="M1345.93,974.59c0,38.85-149.04,70.35-332.89,70.35c-8.27,0-16.48-0.06-24.6-0.19
	c-55.13,36.32-167.2,61.18-296.49,61.18c-183.85,0-332.89-50.27-332.89-112.29c0-12.42,5.97-24.36,17.01-35.53
	c-94.61-12.41-157.61-34.56-157.61-59.82c0-38.85,149.04-70.35,332.89-70.35c48.81,0,95.17,2.22,136.94,6.21
	c54.3-8.13,120.64-12.91,192.26-12.91c183.85,0,332.9,31.5,332.9,70.35c0,8.4-6.96,16.45-19.73,23.91
	C1285.32,928.03,1345.93,949.81,1345.93,974.59z"/>
<g>
	<g>
		<g>
			<g>
				<path class="st1" d="M493.55,376.49c0.6,2.4,1.2,4.8,2,5.5h-70.1l12.1-9.9l0.9-0.8l0,0l23.6-19.3l34.8-28.5
					c-0.2,0.7-8.4,25.9-5.9,42.3c0.3,1.8,0.7,3.5,1.2,5C492.55,371.99,493.05,374.29,493.55,376.49z"/>
			</g>
			<polygon class="st1" points="496.95,323.59 496.95,323.59 462.15,352.09 438.45,371.39 438.45,371.39 437.55,372.09 
				425.45,381.99 431.95,317.09 462.45,320.09 			"/>
		</g>
		<polygon class="st1" points="488.35,273.99 488.35,273.99 476.55,264.29 467.55,256.99 454.95,246.69 454.95,246.59 
			416.85,215.59 416.85,215.49 451.45,212.09 481.85,208.99 		"/>
		<path class="st1" d="M488.35,273.99L488.35,273.99h-70.1c1.3-1.2,2.2-6.5,2.9-9.5c0.2-0.7,0.3-1.2,0.4-1.6
			c1.1-3.3,1.6-7.2,1.6-11.3c0.1-15.9-6.2-35.4-6.4-36l38.1,31.1l12.7,10.4l8.9,7.3L488.35,273.99z"/>
		<path class="st2" d="M467.55,256.99l-14.1,2.2l-32.4,5.2c0.2-0.7,0.3-1.2,0.4-1.6c1.1-3.3,1.6-7.2,1.6-11.3l30.7,3.8
			L467.55,256.99z"/>
		<polygon class="st1" points="368.85,201.89 368.85,267.19 348.15,246.49 303.55,201.89 		"/>
		<path class="st1" d="M368.85,267.19l-30.8-5.5l-34.5-6.2l-4-0.7c0.1-0.1,0.1-0.1,0.2-0.2c1.6-1.3,2.8-3.1,3.8-5.2
			c1.5-3.3,2.4-7.3,2.8-11.6c1.6-15.9-2.8-35.9-2.8-35.9l44.6,44.6L368.85,267.19z"/>
		<polygon class="st1" points="392.45,290.39 398.95,355.39 327.45,296.89 		"/>
		<path class="st1" d="M398.95,355.39h-70.1c1.5-1.5,2.6-8.9,3.4-11.1c5.5-15.7-4.5-46.5-4.7-47.3l37.8,30.9l0,0L398.95,355.39z"/>
		<polygon class="st1" points="427.45,493.49 427.45,493.49 405.65,475.69 405.65,475.69 403.85,474.19 397.85,469.29 
			394.55,466.59 355.95,435.09 393.05,431.39 420.95,428.59 		"/>
		<path class="st1" d="M355.95,435.09L355.95,435.09L355.95,435.09L355.95,435.09z"/>
		<path class="st1" d="M427.45,493.49L427.45,493.49h-70.1c1.5-1.5,2.6-8.9,3.4-11.1c0.4-1,0.7-2.1,0.9-3.2c0.5-2.5,0.8-5.3,0.8-8.2
			c0.1-15.9-6.2-35.3-6.4-35.9l38.6,31.5l3.3,2.7l6,4.9l1.8,1.5l0,0L427.45,493.49z"/>
		<path class="st2" d="M414.25,474.99l-8.6,0.7l0,0l-7.5,0.6l-36.6,2.9c0.5-2.5,0.8-5.3,0.8-8.2l35.7,2.7l5.7,0.4L414.25,474.99z"/>
		<path class="st2" d="M338.75,336.59c0,0,28.1-8.7,45.7-1.3L338.75,336.59z"/>
		<path class="st2" d="M361.65,248.49l-10.5,1.1l-4.1,0.4l-47.3,4.7c1.6-1.3,2.8-3.1,3.8-5.2c1.5-3.3,2.4-7.3,2.8-11.6
			c10,2.2,28.7,6.3,41.8,8.7c0.4,0.1,0.7,0.1,1.1,0.2C355.15,247.79,359.85,248.49,361.65,248.49z"/>
		<path class="st2" d="M493.55,376.49l-56-4.4l-3.6-0.3l4.5-0.5l52.5-5.5c0.3,1.8,0.6,3.5,1.2,5
			C492.55,371.99,493.05,374.29,493.55,376.49z"/>
	</g>
	<rect x="863.55" y="460.59" class="st3" width="80.3" height="54.4"/>
	<polygon class="st4" points="1287.35,926.69 1296.05,925.29 1243.55,557.69 1221.55,561.19 	"/>
	<polygon class="st4" points="1202.05,837.99 1210.75,836.59 1168.65,533.79 1146.75,537.39 	"/>
	<path class="st4" d="M441.45,561.19l-2.1,11.5l-23.3,129.2l0,0l0,0l-10.1,56l0,0l-8.4,46.5l-22,122.2l-8.7-1.4l17.4-120.6
		l33.2-231.9l2.2-15L441.45,561.19z"/>
	<polygon class="st4" points="513.95,561.19 513.45,563.89 511.85,572.69 503.65,617.59 503.65,617.59 483.35,727.89 477.75,758.29 
		474.75,774.59 469.25,804.59 458.65,861.79 449.95,860.39 457.75,804.59 465.25,750.89 469.65,718.69 485.95,601.99 489.95,572.69 
		492.05,557.69 499.95,558.99 	"/>
	<path d="M639.15,809.59c0,0,9.6,22.8,15.5,46.8c5,20.4,12.6,43.4,12.6,43.4h44.3l4.8-44.6l4.8-45.2L639.15,809.59z"/>
	<path class="st5" d="M671.05,337.99"/>
	<path class="st5" d="M695.85,393.49c-20-10-25.6-25.4-26.5-37.4"/>
	<path class="st6" d="M677.35,344.49c-0.2,0.3-0.4,0.5-0.6,0.8c-1.4,2-3.6,4.4-7.5,4.7c-0.8,0.1-1.8,0.1-2.8-0.1
		c-0.5-0.1-1-0.1-1.4-0.2c-0.2,0-0.4-0.1-0.5-0.1c-0.2,0-0.4-0.1-0.5-0.1c-0.4-0.1-0.8-0.1-1.1-0.2c-0.2,0-0.4-0.1-0.7-0.1
		c-0.4-0.1-0.8-0.1-1.1-0.1l-0.1,0.3c0.4,1.3,1,2.7,1.6,4c1.8,3.6,4.5,6.9,7.7,10.1l0,0l0,0l0,0c0,0,0.1,0,0.1,0.1
		c1.8,1.8,3.8,3.5,5.8,5.1l0,0l0.1,0.1c0.7,0.5,1.3,1,2,1.5c0.5,0.4,1,0.8,1.6,1.1v-30.8C679.05,341.99,678.15,343.29,677.35,344.49
		z M677.35,344.49c-0.2,0.3-0.4,0.5-0.6,0.8c-1.4,2-3.6,4.4-7.5,4.7c-0.8,0.1-1.8,0.1-2.8-0.1c-0.5-0.1-1-0.1-1.4-0.2
		c-0.2,0-0.4-0.1-0.5-0.1c-0.2,0-0.4-0.1-0.5-0.1c-0.4-0.1-0.8-0.1-1.1-0.2c-0.2,0-0.4-0.1-0.7-0.1c-0.4-0.1-0.8-0.1-1.1-0.1
		l-0.1,0.3c0.4,1.3,1,2.7,1.6,4c1.8,3.6,4.5,6.9,7.7,10.1l0,0l0,0l0,0c0,0,0.1,0,0.1,0.1c1.8,1.8,3.8,3.5,5.8,5.1l0,0l0.1,0.1
		c0.7,0.5,1.3,1,2,1.5c0.5,0.4,1,0.8,1.6,1.1v-30.8C679.05,341.99,678.15,343.29,677.35,344.49z M1120.15,133.29h-438.4
		c-10.2,0-18.9,6.9-21.5,16.3c0,0.1-0.1,0.3-0.1,0.4c-0.1,0.4-0.2,0.9-0.3,1.3c0,0.1,0,0.2,0,0.2c-0.2,1.3-0.4,2.6-0.4,4v144.2l0,0
		v153.9c0,5.7,2.1,10.9,5.7,14.8l0,0c4.1,4.6,10,7.5,16.7,7.5h438.4c12.3,0,22.3-10,22.3-22.3v-298
		C1142.45,143.29,1132.45,133.29,1120.15,133.29z M1123.35,427.29h-443.3v-273.3h443.3V427.29z M677.35,344.49
		c-0.2,0.3-0.4,0.5-0.6,0.8c-1.4,2-3.6,4.4-7.5,4.7c-0.8,0.1-1.8,0.1-2.8-0.1c-0.5-0.1-1-0.1-1.4-0.2c-0.2,0-0.4-0.1-0.5-0.1
		c-0.2,0-0.4-0.1-0.5-0.1c-0.4-0.1-0.8-0.1-1.1-0.2c-0.2,0-0.4-0.1-0.7-0.1c-0.4-0.1-0.8-0.1-1.1-0.1l-0.1,0.3c0.4,1.3,1,2.7,1.6,4
		c1.8,3.6,4.5,6.9,7.7,10.1l0,0l0,0l0,0c0,0,0.1,0,0.1,0.1c1.8,1.8,3.8,3.5,5.8,5.1l0,0l0.1,0.1c0.7,0.5,1.3,1,2,1.5
		c0.5,0.4,1,0.8,1.6,1.1v-30.8C679.05,341.99,678.15,343.29,677.35,344.49z M677.35,344.49c-0.2,0.3-0.4,0.5-0.6,0.8
		c-1.4,2-3.6,4.4-7.5,4.7c-0.8,0.1-1.8,0.1-2.8-0.1c-0.5-0.1-1-0.1-1.4-0.2c-0.2,0-0.4-0.1-0.5-0.1c-0.2,0-0.4-0.1-0.5-0.1
		c-0.4-0.1-0.8-0.1-1.1-0.2c-0.2,0-0.4-0.1-0.7-0.1c-0.4-0.1-0.8-0.1-1.1-0.1l-0.1,0.3c0.4,1.3,1,2.7,1.6,4
		c1.8,3.6,4.5,6.9,7.7,10.1l0,0l0,0l0,0c0,0,0.1,0,0.1,0.1c1.8,1.8,3.8,3.5,5.8,5.1l0,0l0.1,0.1c0.7,0.5,1.3,1,2,1.5
		c0.5,0.4,1,0.8,1.6,1.1v-30.8C679.05,341.99,678.15,343.29,677.35,344.49z"/>
	<rect x="680.05" y="153.99" class="st7" width="443.3" height="273.3"/>
	<path class="st8" d="M605.65,118.99L605.65,118.99z"/>
	<path class="st5" d="M575.85,387.29c-3,4-6.6,7.7-11.2,10.9"/>
	<path class="st9" d="M713.25,249.79c-0.6,1.6-1.7,4.3-3,7.5c6.2-15.5-3.2-14-5.2-13.5c1-0.3,1.8-0.5,2.5-0.7
		C712.55,241.59,715.15,244.59,713.25,249.79z"/>
	<path class="st10" d="M700.95,273.09c2.1-0.4,5.6-7.3,8.3-13.7c0.3-0.7,0.6-1.5,0.9-2.1"/>
	<path class="st10" d="M705.85,243.49l-1.3,0.4c-3.9,1.1-9.3,2.8-9.3,2.8"/>
	<path class="st5" d="M584.35,370.49c0.2-0.6,0.4-1.3,0.6-1.9c1.6-5.7,2.3-11.2,2.5-16.2c0.4-7.6-0.3-13.9-0.8-17
		c0-0.3-0.1-0.5-0.1-0.7c-0.2-0.9-0.3-1.4-0.3-1.4"/>
	<path class="st11" d="M704.65,291.29c-1.5,3.9-3.2,8.3-5.1,13.1c-5.4,13.7-16.9,32.7-22.8,41c-1.5,2-3.6,4.4-7.5,4.7
		c-0.8,0.1-1.8,0.1-2.8-0.1c-1.9-0.3-4-0.6-5.5-0.8c-0.7-0.1-1.3-0.1-1.7-0.1c-3.1,0.4-3.4,4.9-7.6,4.7
		c-16.1-0.8-38.9-6.2-59.9-17.3c15.9,2.2,45.7,5.1,54.6-1.5c0.1-0.1,0.1-0.1,0.2-0.2c0.2-0.2,0.4-0.3,0.6-0.5c0.3-0.3,0.6-0.6,1-1
		c1.5-1.5,2.7-3.6,3.9-6c7.7-16.2,9.9-47.9,9.9-47.9s-3.1,0-9.3,0s-9.3-15.4-22.9-32.7l12.3-18.5c22.9-4.3,10.6,29.6,26,8
		c13.2-18.4,1.6-66-2-79.6c10.8,13.9,37.7,51.6,33.6,76.8c-2.1,13.2-0.2,22.1,2.1,29.5C704.95,272.89,709.05,279.99,704.65,291.29z"
		/>
	<polygon class="st4" points="579.35,949.79 569.95,947.99 591.35,816.59 609.85,820.29 	"/>
	<path class="st12" d="M704.65,291.29c-1.5,3.9-3.2,8.3-5.1,13.1c-9,1.9-19.2-4.4-23.7-15.2c-5-12-1.3-25,8.4-29
		c5.6-2.3,12.1-1.2,17.4,2.6C704.95,272.89,709.05,279.99,704.65,291.29z"/>
	<path class="st13" d="M818.85,783.59c0,5.5-11.37,14.35-33.97,21.95c-4.6,1.6-10.31,4.45-15.51,5.95c-4.6,1.3-9.82,3.91-14.82,5.11
		h-2.76c-10.2,2.6-20.74,5.8-32.04,7.9c-5.8,1.1-11.52,1.1-17.52,2c-4.5,0.7-8.88-2.2-13.38-1.6c-14.5,1.7-29,2.7-42.9,2.7
		c-0.3,0-0.6,0-0.9,0h-0.1c-1.6,0-3.2,0-4.7,0c-1.3,0-2.6,0-3.9-0.1c-0.1,0-0.1,0-0.2,0c-2.6-0.1-5.2-0.1-7.8-0.2
		c-6.7-0.3-13.2-0.7-19.7-1.3c-6.2-0.5-12.4-1.2-18.4-2c-5.1-0.7-10.1-1.4-15-2.2c0,0,0,0-0.1,0c-5.3-0.9-10.4-1.8-15.3-2.9
		c-5-1-9.8-2.2-14.3-3.3c-13.2-3.4-24.4-7.1-32.8-10.9c-2.6-1.2-5-2.4-7-3.6l0,0c-6.1-3.6-9.5-7-9.5-10.1c0-1.7,1.1-3.3,3.1-4.6
		c4.7-3.1,14.6-5.2,28.2-6.6c1.9-0.2,3.9-0.4,6-0.6c1.9-0.2,3.8-0.3,5.8-0.5c9.5-0.7,20.2-1.1,31.7-1.4c4-0.1,8-0.2,12.2-0.3
		c11.5-0.2,23.7-0.3,36.3-0.3c0.5,0,1,0,1.4,0c4.1,0,8.1,0,12.3,0h1.3c3.5,0,6.9,0,10.4,0c4.1,0,8.2,0,12.4-0.1
		c4.1,0,8.2-0.1,12.3-0.1c14.9-0.2,30-0.6,44.7-0.9c4.2-0.1,8.3-0.2,12.3-0.3c7.7-0.2,15.2-0.3,22.4-0.3c5.8-0.1,11.4-0.1,16.8-0.1
		c1.6,0,3.1,0,4.7,0c4.3,0,8.3,0.1,12.2,0.3c4.2,0.1,8,0.3,11.6,0.6C809.55,776.89,818.85,779.19,818.85,783.59z"/>
	<path d="M524.85,678.89c0,0-17.4,75.6,3.5,96c33.3,32.5,195.1,35.1,224,26.3s5.7-122.2,5.7-122.2L524.85,678.89z"/>
	<path class="st11" d="M510.35,405.29c-1.7,3.9-3.3,7.7-4.9,11.6C506.45,412.69,508.15,408.79,510.35,405.29z"/>
	<path d="M734.25,651.89c0,0,104-67.6,119.8-60.7c15.8,6.9,88.4,15.8,22.4,110.4c-38,54.4-124.2,99.6-124.2,99.6L734.25,651.89z"/>
	<path class="st11" d="M670.45,363.49c-0.6,0.3-1.1,0.6-1.7,0.9c-0.4,0.2-0.7,0.4-1.1,0.5l0,0c-0.2,0.1-0.4,0.2-0.6,0.3
		c-0.2,0.1-0.4,0.2-0.6,0.3c-0.2,0.1-0.4,0.2-0.6,0.3c-0.6,0.3-1.2,0.5-1.8,0.8c-0.2,0.1-0.4,0.2-0.6,0.2c-0.6,0.2-1.2,0.5-1.8,0.7
		c-0.4,0.2-0.9,0.3-1.3,0.5c-0.3,0.1-0.5,0.2-0.8,0.3c-0.1,0-0.1,0-0.1,0c-0.3,0.1-0.6,0.2-0.8,0.3c-0.3,0.1-0.5,0.2-0.8,0.3
		c-0.5,0.2-1,0.3-1.4,0.5c-0.6,0.2-1.1,0.3-1.7,0.5l0,0c-0.5,0.2-1.1,0.3-1.7,0.5c-0.2,0.1-0.4,0.1-0.6,0.2
		c-0.3,0.1-0.6,0.2-0.9,0.2c-0.1,0-0.2,0.1-0.2,0.1c-0.5,0.1-1,0.2-1.5,0.4c-0.1,0-0.1,0-0.2,0.1c-0.1,0-0.1,0-0.2,0
		c-0.7,0.2-1.4,0.3-2.2,0.5c-0.2,0-0.3,0.1-0.5,0.1c-0.6,0.1-1.1,0.2-1.7,0.3c-1.5,0.3-3,0.6-4.5,0.8l0,0c-0.2,0-0.4,0.1-0.6,0.1
		c-0.6,0.1-1.1,0.2-1.7,0.2l0,0c-0.7,0.1-1.5,0.2-2.2,0.3l0,0c-0.5,0.1-1,0.1-1.5,0.2c-0.2,0-0.5,0-0.8,0.1c-0.2,0-0.4,0-0.6,0.1
		c-1.8,0.2-3.5,0.3-5.2,0.4s-3.5,0.2-5.2,0.2c-2.5,0-5,0-7.3-0.1c-0.2,0-0.3,0-0.5,0l0,0c-1.6-0.1-3.2-0.1-4.7-0.2s-3.1-0.2-4.5-0.4
		l0,0c-0.8-0.1-1.7-0.2-2.4-0.2c-0.8-0.1-1.7-0.2-2.5-0.3s-1.5-0.2-2.3-0.3c-0.4-0.1-0.7-0.1-1.1-0.2c-0.4-0.1-0.7-0.1-1.1-0.2l0,0
		c-0.7-0.1-1.4-0.2-2.1-0.3c-0.3-0.1-0.7-0.1-1-0.2l0,0l0,0c-0.2,0-0.3-0.1-0.5-0.1c-0.8-0.1-1.6-0.3-2.4-0.4l0,0l0,0
		c-0.1,0-0.3,0-0.4-0.1c-0.8-0.1-1.5-0.3-2.2-0.4c-0.4-0.1-0.8-0.2-1.1-0.2c-0.2,0-0.3-0.1-0.5-0.1l0,0c-0.2,0-0.3-0.1-0.5-0.1
		c-0.3-0.1-0.5-0.1-0.7-0.2c-0.1,0-0.1,0-0.2-0.1l0,0c-0.2,0-0.4-0.1-0.6-0.1s-0.4-0.1-0.5-0.1c-0.4-0.1-0.7-0.2-1.1-0.2
		c-0.1,0-0.2-0.1-0.3-0.1c-0.2,0-0.3-0.1-0.5-0.1c-0.1,0-0.2-0.1-0.3-0.1s-0.2-0.1-0.3-0.1c-0.2,0-0.3-0.1-0.5-0.1
		c-0.1,0-0.2-0.1-0.3-0.1s-0.2-0.1-0.3-0.1s-0.2-0.1-0.3-0.1s-0.2,0-0.2-0.1c-0.1,0-0.1,0-0.2,0c-0.1,0-0.1,0-0.2-0.1
		c-0.2,0-0.3-0.1-0.3-0.1l0,0l0,0l0,0c0.7-1,1.3-2,1.9-3c2.6-4.3,5.5-8.7,7.2-13.6c0.8-2.3,1.3-4.8,1.3-7.4v-13l25.8,0.9l32.6,1.2
		l0,0l12.2,0.4l0,0h0.9v9.4c0,1.7,0.2,3.4,0.7,5l0,0c0,0.1,0.1,0.2,0.1,0.3c0.4,1.3,1,2.7,1.6,4
		C664.55,356.89,667.25,360.29,670.45,363.49L670.45,363.49z"/>
	<g>
		<polygon class="st14" points="1261.75,544.89 1261.75,572.69 401.25,572.69 401.25,544.89 403.35,542.09 1259.75,542.09 		"/>
		<polygon class="st4" points="1261.75,544.89 401.25,544.89 403.35,542.09 433.55,499.69 1229.45,499.69 1259.75,542.09 		"/>
	</g>
	<polygon class="st15" points="511.85,572.99 511.85,572.99 503.65,617.89 503.65,617.89 483.35,728.19 477.75,758.49 
		474.75,774.89 469.25,804.79 458.65,862.09 449.95,860.69 457.75,804.79 465.25,751.19 469.65,718.99 485.95,602.19 489.95,572.99 
		489.95,572.99 505.35,572.69 	"/>
	<path class="st11" d="M748.25,560.69c0,0,0,36.6,0,61.1c0,7.9,0,14.5,0,18.2v3.3c0-0.3-0.1-0.6-0.1-1
		C748.05,641.49,748.25,568.99,748.25,560.69z"/>
	<path class="st16" d="M928.25,533.39c0,0.4,0,0.9,0,1.3c0,0.4,0,0.8-0.1,1.2c-0.1,1.4-0.2,2.7-0.4,3.9c-0.1,0.5-0.1,0.9-0.2,1.4
		c0,0.3-0.1,0.5-0.1,0.8c-0.2,1-0.3,2-0.5,2.8c0,0.2-0.1,0.3-0.1,0.5c-0.1,0.3-0.1,0.5-0.2,0.8c-0.2,0.9-0.4,1.7-0.7,2.4
		c0,0.1-0.1,0.2-0.1,0.3s-0.1,0.2-0.2,0.3c-0.1,0.2-0.2,0.3-0.3,0.5s-0.2,0.4-0.4,0.5c-0.2,0.3-0.5,0.6-0.8,0.9
		c-0.2,0.2-0.4,0.4-0.6,0.6c-0.4,0.4-0.8,0.7-1.3,1.1l-42.8,15.8c-8.4,1.4-16.2,1.5-21.6-0.3c-7.3-2.4-34.8-5.7-51-13.9
		c-1-0.5-2-1.1-3-1.7c-4.3-2.6-8.1-4.3-11.5-5.4c-11.8-3.8-18.9,0.3-24.5,4.5c-2.6,2-5.1,6.2-7.4,11.8c-0.8,1.9-1.6,4-2.3,6.2
		c-0.3,0.9-0.6,1.7-0.8,2.7c-4.5,14.4-7.8,33.4-9.1,49.1c-0.1,0.9-0.1,1.9,0,2.9c0.2,2.9,0.9,6.1,1.7,8.9c0.8,2.9,0.2,6.1-1.7,8.5
		l0,0c-0.1,0.1-0.1,0.2-0.1,0.3l0,0v0.4c0,0.1,0,0.2,0,0.4v0.3c0,0.1,0,0.2,0,0.3c0.3,2.2,0.8,4.4,1.5,6.6
		c5.9,19.1,23.2,39.5,12.4,53.4c-0.5,0.6-1,1.2-1.5,1.7c-1.3,1.3-2.9,2.5-4.8,3.6c-3.6,2.2-8.2,3.9-13.3,5.3l0,0
		c-0.2,0.1-0.5,0.1-0.7,0.2c-3.7,1-7.7,1.8-11.9,2.5c-13.9,2.2-29.8,2.7-42.9,2.3c-4.4-0.1-8.5-0.4-12.1-0.7
		c-2.5-0.2-4.8-0.5-6.8-0.8c-8.4-1.2-17.7-4.7-27-8.2c-4-1.5-8.1-3-12.1-4.3c-9.9-3.3-19.4-5.4-27.4-3.3c-0.5,0.1-1,0.3-1.5,0.4
		c-3.9,1.3-9.3,2.4-15.7,3.3c-5.7,0.8-12,1.4-18.6,1.8c-4,0.2-8.2,0.3-12.2,0.3c-12.6-0.1-24.7-1.3-32.8-4.3c-0.1,0-0.1,0-0.2-0.1
		c-0.1,0-0.1,0-0.2-0.1c-2.9-1.1-5.3-2.4-6.9-4.1c-2.9-2.9-5-7.5-6.4-12.9l0,0c-4.6-17.6-2.8-44.4-2.8-55.6l-0.8-12.9l0,0l-2.5-39.7
		l-0.3-5.2l-0.8-13.7l-0.9-14.1l-0.2-2.8l-2.2-35.8c-0.1-2.2-0.2-4.4-0.3-6.6c-0.6-15.9,0.4-31.8,3-47.4c2.7-16.3,5.6-33.8,6-35.4
		l0,0c1.6-3.8,3.2-7.7,4.9-11.6l0,0c6.8-10.8,18.9-17.9,32.6-17.9c7,0,13.5-1.7,19.3-4.6c0.4-0.2,0.9-0.4,1.3-0.7
		c0.9-0.5,1.8-1,2.7-1.6s1.7-1.2,2.6-1.8c1.7-1.2,3.2-2.6,4.7-4.1c1.8-1.8,3.4-3.7,4.8-5.7l0,0l0,0l0,0l0,0c0.1,0,0.2,0.1,0.3,0.1
		c0,0,0.1,0,0.2,0.1c0.1,0,0.1,0,0.2,0c0.1,0,0.2,0,0.2,0.1c0.1,0,0.2,0.1,0.2,0.1c0.1,0,0.2,0.1,0.3,0.1s0.2,0.1,0.3,0.1
		c0.2,0.1,0.5,0.1,0.8,0.2c0.4,0.1,0.8,0.2,1.2,0.3c0.3,0.1,0.7,0.2,1.1,0.2c0.2,0,0.4,0.1,0.5,0.1c0.2,0,0.4,0.1,0.6,0.1
		c0.1,0,0.2,0,0.2,0.1c0.2,0,0.5,0.1,0.7,0.2c0.2,0,0.3,0.1,0.5,0.1s0.3,0.1,0.5,0.1c0.4,0.1,0.7,0.2,1.1,0.2
		c0.7,0.1,1.4,0.3,2.2,0.4c0.1,0,0.2,0.1,0.4,0.1l0,0l0,0c0.8,0.1,1.6,0.3,2.4,0.4c0.2,0,0.3,0.1,0.5,0.1l0,0l0,0
		c0.3,0.1,0.7,0.1,1,0.2c0.7,0.1,1.4,0.2,2.1,0.3l0,0c0.4,0.1,0.7,0.1,1.1,0.2c0.4,0,0.7,0.1,1.1,0.2c0.7,0.1,1.5,0.2,2.3,0.3
		s1.6,0.2,2.5,0.3c0.8,0.1,1.6,0.2,2.4,0.2l0,0c1.5,0.1,3,0.3,4.5,0.4c1.6,0.1,3.1,0.2,4.7,0.2l0,0c0.2,0,0.3,0,0.5,0
		c2.4,0.1,4.8,0.1,7.4,0.1c1.7,0,3.4-0.1,5.1-0.2c1.7-0.1,3.5-0.2,5.2-0.4c0.2,0,0.4,0,0.6-0.1c0.3,0,0.5-0.1,0.8-0.1
		c0.5-0.1,1-0.1,1.5-0.2l0,0c0.7-0.1,1.5-0.2,2.2-0.3l0,0c0.6-0.1,1.1-0.2,1.7-0.2c0.2,0,0.4-0.1,0.6-0.1l0,0c1.5-0.2,3-0.5,4.5-0.8
		l0,0c0.5-0.1,1.1-0.2,1.6-0.3l0,0c0.2,0,0.3-0.1,0.5-0.1c0.7-0.2,1.4-0.3,2.2-0.5c0.1,0,0.3-0.1,0.4-0.1c0.5-0.1,1-0.2,1.5-0.4
		c0.1,0,0.2,0,0.2-0.1c0.3-0.1,0.6-0.2,0.9-0.2c0.2,0,0.4-0.1,0.6-0.2c0.3-0.1,0.6-0.2,0.8-0.2c0.3-0.1,0.6-0.2,0.8-0.2l0,0
		c0.3-0.1,0.6-0.2,0.8-0.2s0.3-0.1,0.4-0.1c0.1,0,0.3-0.1,0.4-0.1c0.5-0.2,1-0.3,1.5-0.5c0.3-0.1,0.5-0.2,0.8-0.3s0.6-0.2,0.8-0.3
		l0,0h0.1c0.3-0.1,0.5-0.2,0.8-0.3c0.2-0.1,0.5-0.2,0.7-0.2c0.2-0.1,0.4-0.2,0.7-0.3c0.2-0.1,0.4-0.2,0.7-0.3
		c0.4-0.2,0.7-0.3,1.1-0.4c0.2-0.1,0.4-0.2,0.6-0.2c0.2-0.1,0.4-0.2,0.6-0.3c0.6-0.2,1.2-0.5,1.7-0.8c0.4-0.2,0.8-0.4,1.2-0.6
		c0.9-0.5,1.9-0.9,2.8-1.4l0,0l0,0l0,0c2.9,2.8,6.2,5.4,9.6,7.8c0.6,0.5,1.2,0.9,1.9,1.3c1.1,0.8,2.3,1.5,3.4,2.2
		c12.2,7.7,24.4,12.4,24.4,12.4c7.7,0,15,2.3,21,6.2c13.8,5.4,33.8,15.3,61.2,33.7l0,0c5.7,3.8,11.7,8,18.1,12.6
		c21.8,15.7,39.3,27.1,53.6,35.8c0.2,0.1,0.4,0.3,0.7,0.4c17.8,10.7,30.3,17,39.2,21.4c0.3,0.1,0.6,0.3,0.8,0.4
		c1.4,0.7,2.7,1.3,3.9,1.9c0.9,0.4,1.7,0.9,2.5,1.3c0.3,0.1,0.5,0.3,0.8,0.4s0.5,0.3,0.8,0.4c2.6,1.4,4.7,2.6,6.5,3.9
		c0.2,0.1,0.3,0.2,0.4,0.3s0.2,0.1,0.2,0.2c0.7,0.5,1.2,1,1.8,1.6c0.4,0.4,0.7,0.8,1.1,1.2c0.2,0.2,0.3,0.4,0.5,0.6s0.4,0.5,0.5,0.7
		c0.2,0.2,0.3,0.5,0.5,0.7c0.8,1.2,1.4,2.6,1.9,4c0.2,0.6,0.5,1.3,0.7,1.9c0.1,0.3,0.2,0.7,0.3,1s0.2,0.5,0.2,0.8
		c0,0.2,0.1,0.3,0.1,0.5c0.1,0.5,0.2,1.1,0.4,1.6c0,0.1,0,0.1,0,0.2c0.1,0.3,0.1,0.7,0.2,1.1c0.1,0.3,0.1,0.7,0.2,1.1
		c0,0.1,0,0.1,0,0.2c0.1,0.4,0.1,0.8,0.2,1.2c0,0,0,0,0,0.1c0,0.2,0,0.3,0.1,0.5c0,0.3,0.1,0.6,0.1,0.8c0.1,0.6,0.1,1.1,0.1,1.7
		c0,0.3,0,0.7,0.1,1C928.25,530.09,928.35,531.79,928.25,533.39z"/>
	<polygon points="658.05,244.59 656.35,242.59 713.15,249.79 711.25,254.89 	"/>
	<path class="st16" d="M922.35,552.89c-7.9,6.1-26.5,13.2-42.8,15.8L922.35,552.89z"/>
	<path class="st17" d="M691.95,197.69c0,15.7-3,33.1-6.7,48.6c-0.3,1.1-0.5,2.3-0.8,3.4c-1,3.9-2,7.7-3,11.2
		c-0.1,0.4-0.2,0.7-0.3,1.1c-0.3,1.1-0.6,2.1-0.9,3.2c-0.8,2.8-1.7,5.5-2.5,8l0,0c-1.3,3.9-2.4,7.4-3.4,10.2c-1.8,5.2-3,8.3-3,8.3
		s2.3-27.3,1.8-44.2c0-1-0.1-1.9-0.1-2.8c-0.4-8.4-1.8-13.2-4.8-8.6c-2.4,3.6-4.2,5.9-5.6,7.3c-0.9,0.9-1.7,1.4-2.4,1.6l0,0
		c-0.2,0.1-0.4,0.1-0.6,0.1c-0.5,0-0.9-0.2-1.4-0.5c-0.6-0.4-1.1-1.1-1.7-2c-1.5-2.2-3.2-5.3-6.9-6.5c-12.1-4-12.3,9.3-9.3,18.5
		c2.5,7.6,5.1,19.5,9.4,23.4c0.9,0.8,1.9,1.3,3,1.3h6.8c1.6,0,2.4,0,2.4,0s0,0.1,0,0.4c0,0.1,0,0.2,0,0.4c0,0.2,0,0.5-0.1,0.8
		c0,0.3-0.1,0.6-0.1,1s-0.1,0.9-0.1,1.5c0,0.2,0,0.4-0.1,0.6c0,0.4-0.1,0.7-0.1,1.1c0,0.1,0,0.3,0,0.4c0,0.2,0,0.3-0.1,0.5
		c0,0.2,0,0.3-0.1,0.5c-0.1,1.1-0.3,2.3-0.4,3.5c-0.1,0.6-0.2,1.2-0.2,1.9c0,0.2,0,0.3-0.1,0.5c-0.1,0.4-0.1,0.8-0.2,1.2
		c-0.1,0.6-0.2,1.2-0.2,1.8c-0.1,0.6-0.2,1.2-0.3,1.8c0,0.3-0.1,0.6-0.1,0.9c-0.1,0.5-0.2,1.1-0.3,1.6l0,0c-0.1,0.7-0.2,1.5-0.4,2.2
		c-0.1,0.3-0.1,0.7-0.2,1c-0.2,1-0.4,2-0.6,3c0,0,0,0,0,0.1c-0.2,1-0.4,2-0.6,2.9c-0.1,0.3-0.1,0.7-0.2,1c-0.2,0.8-0.4,1.6-0.6,2.4
		c0,0.2-0.1,0.4-0.1,0.6c-0.1,0.5-0.3,1-0.4,1.5v0.1v0.1c-0.2,0.8-0.4,1.5-0.6,2.2l0,0c-0.8,2.9-1.7,5.6-2.7,8
		c-0.2,0.5-0.4,1-0.7,1.5c-0.1,0.3-0.2,0.5-0.4,0.8s-0.3,0.7-0.5,1c-0.3,0.5-0.6,1.1-0.9,1.6c-0.3,0.5-0.6,1-1,1.5
		c-0.2,0.2-0.3,0.5-0.5,0.7c-0.5,0.6-0.9,1.2-1.4,1.7c-0.1,0.1-0.1,0.1-0.2,0.2c-0.1,0.1-0.2,0.3-0.4,0.4c-0.2,0.2-0.4,0.3-0.6,0.5
		c-0.1,0.1-0.1,0.1-0.2,0.2c-4.1,3.1-12.7,4.1-22.3,4.1c-0.8,0-1.6,0-2.4,0c-0.6,0-1.2,0-1.8,0c-0.2,0-0.5,0-0.7,0
		c-0.8,0-1.7-0.1-2.5-0.1c0,0,0,0-0.1,0c-1,0-2-0.1-3-0.2c-0.1,0-0.2,0-0.2,0c-1.1-0.1-2.2-0.2-3.2-0.2c-2.1-0.2-4.2-0.3-6.3-0.6
		c-0.7-0.1-1.4-0.1-2-0.2c-0.8-0.1-1.6-0.2-2.4-0.3s-1.6-0.2-2.4-0.3c-0.9-0.1-1.8-0.2-2.7-0.3c-0.6-0.1-1.1-0.2-1.7-0.2
		c-0.3,0-0.5-0.1-0.8-0.1c-1-0.5-2.1-1.1-3.1-1.7c-0.8-0.5-1.7-0.9-2.5-1.4c-1-0.6-2.1-1.2-3.1-1.8c-21.1-13-39.1-32.1-44.8-58.3
		c-4.8-22-8.8-37.2-10.2-49.6c-0.4-3.8-0.6-7.3-0.5-10.7c0.4-12,4.6-22,14.9-35.2c0,0,5.2-8.4,15.1-17.6l0.1-0.1
		c0.1,0,0.1-0.1,0.2-0.1c11.9-11.2,30.4-23.5,54.4-24c13.9-0.3,29.5,3.4,46.8,13.7c0.1,0.1,0.2,0.1,0.3,0.2c0.2,0.1,0.5,0.3,0.7,0.4
		c0,0,0.1,0,0.1,0.1c0.5-0.3,0.9-0.4,1.3-0.5c0.2,0,0.4,0,0.4,0c0.1,0,0.1,0,0.2,0l0,0l0,0c7.7,1.2,13.6,4.3,18,8.8
		c5.3,5.4,8.5,12.7,10.2,21.2l0,0c0.4,2,0.7,4.1,1,6.2l0,0C691.65,189.69,691.95,193.59,691.95,197.69z"/>
	<path class="st11" d="M942.45,504.89c0,0,20.1-13.8,33.9-18.2c27.3-8.9,48.6,4.1,55.9,9.4c1,0.7,0.5,2.3-0.7,2.4
		c-5.1,0.5-15.2,1.9-24.7,6c-13.3,5.8-47.9,20.5-47.9,20.5L942.45,504.89z"/>
	<path class="st18" d="M390.15,631.19"/>
	<path class="st6" d="M970.75,519.99c0,0,30.4-33.3,49.1-23.3s33.3,12.8,26.9,21s-88.4,21.5-87.7,7.3
		C959.75,510.79,970.75,519.99,970.75,519.99z"/>
	<path class="st16" d="M972.25,527.19l-49.9,25.8l0,0l-42.8,15.8l12.3-41.6c0,0,0.3-18-7.2-28.4l18.8-1.4l0,0l50.5-3.8
		c0.5,0.3,0.9,0.6,1.4,1c4.3,3.2,7.8,8,10.6,13.1C970.95,517.29,972.25,527.19,972.25,527.19z"/>
	<path class="st19" d="M925.95,548.69c3.1-9.3,4.4-31.7-4.9-40.9c-3.3-3.3-8.7-5.9-17.7-10.4l50.5-3.8c0.5,0.3,0.9,0.6,1.4,1
		c4.7,3.4,8.1,8.2,10.6,13.1c5,9.7,6.3,19.5,6.3,19.5l-49.9,25.8C924.35,551.39,925.55,549.99,925.95,548.69z"/>
	<path class="st17" d="M569.25,186.69c0,20.5-16.6,37-37,37c-1.4,0-2.7-0.1-4-0.2c-7.6-0.8-14.4-3.9-19.9-8.6
		c-1.8-1.5-3.5-3.3-5-5.2c-1.4-1.7-2.7-3.6-3.7-5.6c-0.3-0.6-0.6-1.2-0.9-1.7c0.4,0.4,0.8,0.7,1.2,1.1c0.7,0.7,1.5,1.3,2.3,1.9
		c1.6,1.2,3.3,2.3,5.1,3.3c5.1,2.7,11,4.2,17.2,4.2c1.1,0,2.1,0,3.2-0.1c19-1.6,33.9-17.5,33.9-36.9c0-5.7-1.3-11-3.5-15.8
		C564.95,166.89,569.25,176.29,569.25,186.69z"/>
	<path class="st17" d="M561.55,175.89c0,19.4-14.9,35.3-33.9,36.9c-1,0.1-2.1,0.1-3.2,0.1c-6.2,0-12.1-1.5-17.2-4.2
		c-1.8-0.9-3.5-2-5.1-3.3c-0.8-0.6-1.6-1.2-2.3-1.9c-0.4-0.3-0.8-0.7-1.2-1.1c-1.1-2.3-1.9-4.7-2.5-7.2c-0.6-2.7-1-5.6-1-8.6
		c0-17,11.5-31.3,27.1-35.7c3.2-0.9,6.5-1.4,10-1.4c7.5,0,14.4,2.2,20.2,6c0.7,0.4,1.3,0.9,2,1.4c1.2,0.9,2.3,1.8,3.4,2.9
		c0.1,0.1,0.2,0.2,0.3,0.2C560.25,164.89,561.55,170.19,561.55,175.89z"/>
	<path class="st20" d="M569.25,186.69c0,20.5-16.6,37-37,37c-1.4,0-2.7-0.1-4-0.2c-7.6-0.8-14.4-3.9-19.9-8.6
		c-1.8-1.5-3.5-3.3-5-5.2c-1.4-1.7-2.7-3.6-3.7-5.6c-0.3-0.6-0.6-1.2-0.9-1.7c0.4,0.4,0.8,0.7,1.2,1.1c0.7,0.7,1.5,1.3,2.3,1.9
		c1.6,1.2,3.3,2.3,5.1,3.3c5.1,2.7,11,4.2,17.2,4.2c1.1,0,2.1,0,3.2-0.1c19-1.6,33.9-17.5,33.9-36.9c0-5.7-1.3-11-3.5-15.8
		C564.95,166.89,569.25,176.29,569.25,186.69z"/>
	<path class="st17" d="M558.05,160.09l-0.4-0.1l-35.4-9l-2.3-0.6c-7.2-2.3-22,10.1-22.8,10.8c0.6-0.8,13.4-16.8,30.5-14.8
		c12.7,1.5,21.1,6.5,24.8,9.2c1.4,1,2.1,1.7,2.1,1.7c0-0.1-0.1-0.2-0.1-0.3c-6.7-14-28-17.1-30-17.4c27.2,1.9,32.8,17.5,33.5,20.1
		C557.95,159.99,558.05,160.09,558.05,160.09z"/>
	<path class="st17" d="M506.15,195.19c0,0-2,1.4-4.2,4.5c-0.2,0.3-0.4,0.6-0.6,1c-0.5,0.8-1,1.8-1.5,2.8c-0.1,0.2-0.2,0.4-0.3,0.7
		c-1.2,2.9-2.2,6.5-2.5,11c-0.5,8.1-0.9-20-0.9-20H506.15z"/>
	<path class="st17" d="M513.55,230.59c-5.5-7.1-8.6-14.8-10.3-20.8c-0.5-1.6-0.8-3-1.1-4.3c-0.4-2-0.7-3.6-0.8-4.7
		c-0.2-1.2-0.2-1.8-0.2-1.8l0.8,0.8l5.2,5.3c0,1.2,0,2.4,0.1,3.6c0.2,2.1,0.5,4.2,1,6.2C510.05,223.19,513.35,230.19,513.55,230.59z
		"/>
	<path class="st21" d="M665.95,156.39c0,0,21.1,37.3,18.1,67.3C684.05,223.69,697.55,174.19,665.95,156.39z"/>
	<path class="st21" d="M649.15,221.19c0,0-46.1-9-64.9-22.3C584.35,198.89,597.85,231.19,649.15,221.19z"/>
	<path class="st21" d="M570.25,161.19c0,0,30-27.4,61.7-15.6C631.95,145.59,573.55,157.09,570.25,161.19z"/>
	<path class="st22" d="M669.35,349.99c-0.8,0.1-1.8,0.1-2.8-0.1c-1.9-0.3-4-0.6-5.5-0.8l0,0v-0.1l-0.7-6.2l-0.9-8.1l-1.3-11.8
		C658.05,322.89,663.55,340.79,669.35,349.99z"/>
	<path class="st19" d="M685.35,374.89L685.35,374.89c-1.2,1-2.5,1.9-3.7,2.7c-0.5,0.4-1.1,0.7-1.6,1c-0.6,0.4-1.1,0.7-1.7,1.1
		c-6,3.7-12.4,6.4-18.9,8.5c-6.2,2-12.7,3.2-19.1,4c-10,1.2-20,1.2-29.5,0.4c-0.8-0.1-1.5-0.1-2.3-0.2c-19.8-1.8-37-6.7-46.3-9.7
		c0.4-0.2,0.9-0.4,1.3-0.7c0.9-0.5,1.8-1,2.7-1.6c0.7-0.5,1.5-0.9,2.2-1.5c0.1-0.1,0.3-0.2,0.4-0.3c1.7-1.2,3.3-2.6,4.7-4.1
		c1.8-1.8,3.4-3.7,4.8-5.7l0,0l0,0c0.1,0,0.2,0,0.3,0.1c0.1,0,0.2,0.1,0.3,0.1s0.2,0,0.2,0.1c0.1,0,0.2,0,0.3,0.1
		c0.1,0,0.2,0,0.3,0.1c0.1,0,0.2,0.1,0.3,0.1s0.3,0.1,0.5,0.1c0.1,0,0.2,0.1,0.3,0.1s0.2,0,0.3,0.1c0.2,0,0.3,0.1,0.5,0.1
		c0.1,0,0.2,0.1,0.3,0.1c0.3,0.1,0.7,0.2,1.1,0.2c0.2,0,0.4,0.1,0.5,0.1c0.2,0,0.4,0.1,0.6,0.1l0,0c0.1,0,0.1,0,0.2,0.1
		c0.2,0,0.5,0.1,0.7,0.2c0.2,0,0.3,0.1,0.5,0.1l0,0c0.2,0,0.3,0.1,0.5,0.1c0.4,0.1,0.7,0.2,1.1,0.2c0.7,0.1,1.4,0.3,2.2,0.4
		c0.1,0,0.2,0,0.4,0.1l0,0l0,0l0,0c0.8,0.1,1.6,0.3,2.4,0.4c0.2,0,0.3,0.1,0.5,0.1l0,0l0,0l0,0c0.3,0.1,0.7,0.1,1,0.2
		c0.7,0.1,1.4,0.2,2.1,0.3l0,0c0.4,0.1,0.7,0.1,1.1,0.2c0.4,0,0.7,0.1,1.1,0.2c0.7,0.1,1.5,0.2,2.3,0.3s1.6,0.2,2.5,0.3
		c0.8,0.1,1.6,0.2,2.4,0.2l0,0c1.5,0.1,3,0.3,4.5,0.4c1.6,0.1,3.1,0.2,4.7,0.2l0,0c0.2,0,0.3,0,0.5,0c2.4,0.1,4.8,0.1,7.4,0.1
		c1.7,0,3.4-0.1,5.1-0.2c1.7-0.1,3.5-0.2,5.2-0.4c0.2,0,0.4,0,0.6-0.1c0.3,0,0.5-0.1,0.8-0.1c0.5-0.1,1-0.1,1.5-0.2l0,0
		c0.7-0.1,1.5-0.2,2.2-0.3l0,0c0.6-0.1,1.1-0.2,1.7-0.2c0.2,0,0.4-0.1,0.6-0.1l0,0l0,0c1.5-0.2,3-0.5,4.5-0.8l0,0
		c0.5-0.1,1.1-0.2,1.6-0.3c1-0.2,1.9-0.4,2.9-0.7c0.6-0.1,1.1-0.3,1.7-0.4c0.1,0,0.2,0,0.2-0.1c0.3-0.1,0.6-0.2,0.9-0.2
		c0.2,0,0.4-0.1,0.6-0.2c0.3-0.1,0.6-0.2,0.8-0.2c0.3-0.1,0.6-0.2,0.8-0.2c0.3-0.1,0.6-0.2,0.8-0.2c0.3-0.1,0.6-0.2,0.9-0.3
		c0.7-0.2,1.5-0.5,2.2-0.7c0.3-0.1,0.6-0.2,0.8-0.3c0,0,0.1,0,0.1-0.1c0.3-0.1,0.5-0.2,0.8-0.3c0.2-0.1,0.5-0.2,0.7-0.2
		c1.6-0.6,3.2-1.2,4.7-2c0.2-0.1,0.4-0.2,0.6-0.3c0.2-0.1,0.4-0.2,0.6-0.3c0.2-0.1,0.4-0.2,0.6-0.3c0.4-0.2,0.7-0.4,1.1-0.5
		c0.6-0.3,1.2-0.6,1.7-0.9l0,0l0,0c0,0,0.1,0,0.1,0.1c1.8,1.8,3.8,3.5,5.8,5.1l0,0c0,0,0.1,0,0.1,0.1c0.7,0.5,1.3,1,2,1.5
		c0.5,0.4,1,0.8,1.6,1.1c0.6,0.5,1.3,0.9,1.9,1.3C683.15,373.49,684.25,374.19,685.35,374.89z"/>
	<path class="st19" d="M806.85,554.59c-1-0.5-2-1.1-3-1.7c-4.3-2.6-8.1-4.3-11.5-5.4c-16.6-20.8-20.4-39.6-20.4-39.6
		C776.75,522.59,793.15,540.99,806.85,554.59z"/>
	<path class="st19" d="M749.85,650.19c-48-14.1-75.2-71.7-76.1-73.6c23.2,39,74.4,65.7,74.5,65.7l0.1,1c0,0.1,0,0.2,0,0.3
		C748.55,645.79,749.15,647.99,749.85,650.19z"/>
	<polygon class="st4" points="812.65,1074.69 802.75,1077.19 745.25,821.59 732.05,824.89 731.35,822.39 754.55,816.59 	"/>
	<polygon class="st4" points="802.75,1077.19 800.85,1077.69 732.05,824.89 745.25,821.59 	"/>
	<polygon class="st4" points="863.75,946.89 856.45,949.29 854.75,949.89 800.65,801.69 800.65,801.69 817.75,793.09 	"/>
	<polygon class="st4" points="856.45,949.29 854.75,949.89 800.65,801.69 810.75,796.59 	"/>
	<polygon class="st15" points="856.45,949.29 854.75,949.89 800.65,801.69 810.75,796.59 	"/>
	<polygon class="st15" points="579.35,949.79 569.95,947.99 590.25,823.59 608.65,825.99 	"/>
	<path class="st10" d="M709.35,259.39c0.3-0.7,0.6-1.5,0.9-2.1"/>
	<path class="st10" d="M704.65,243.89L704.65,243.89"/>
	<polygon class="st4" points="460.45,1067.69 472.25,1070.59 541.75,815.39 518.55,809.59 	"/>
	<path class="st23" d="M1192.05,449.19l-17.5,2c0,0-4.6-39.4-3.6-63.4s1.7-40.1,1.7-40.1s0.3,1,0.9,2.7
		c3.4,11.3,16.3,55.9,18.4,93.5C1191.95,445.69,1192.05,447.49,1192.05,449.19z"/>
	<path class="st24" d="M1191.85,443.89l-5.7,0.9c0,0-11.2-64.1-12.7-94.3C1176.95,361.79,1189.85,406.29,1191.85,443.89z"/>
	<path class="st23" d="M1173.85,471.49l-6,7.4l-4.9,6.1c0,0-12.6-59.8-12.8-83.9c-0.2-24.2-0.2-24.2-0.2-24.2s2.6,3.4,6.2,9.5
		C1165.15,401.69,1180.15,433.99,1173.85,471.49z"/>
	<path class="st24" d="M1173.85,471.49l-6,7.4c-3.2-15.8-11.4-58.4-11.6-77.9c-0.1-6.5-0.1-11.2-0.2-14.7
		C1165.15,401.69,1180.15,433.99,1173.85,471.49z"/>
	<path class="st23" d="M1208.15,375.49c0,0,0,0-0.3,24.2c-0.2,24.2-12.8,83.9-12.8,83.9l-10.8-13.5c-0.4-2.6-0.8-5.2-1-7.8
		c-4.1-44.4,20-79.9,24.3-85.9C1207.95,375.79,1208.15,375.49,1208.15,375.49z"/>
	<path class="st24" d="M1207.55,376.39c-0.9,2.9-2.4,6.4-4.5,10.6c-10.9,21.6-12.8,83.9-12.8,83.9l-7-8.7
		C1179.05,417.89,1203.25,382.39,1207.55,376.39z"/>
	<path class="st25" d="M651.35,844.49c0,0,59.1-7,66.6-6l-0.5,3.9l1.3,6.8c0.3,1.7,0.2,3.5-0.3,5.2c-0.7,2.1-1.6,4.8-2.1,5.7
		c-0.8,1.5,2.3,7,0,11.2s-3.1,19.8-3.1,19.8l-48.6,0.9c0,0-5.1-8.8-4.4-12.8s-5.9-6.9-5.9-9.6c0-2.1,0.1-9,0.2-11.9
		c0-0.9-0.1-1.8-0.3-2.7L651.35,844.49z"/>
	<path class="st23" d="M1210.85,364.89L1210.85,364.89z"/>
	<circle cx="901.75" cy="451.19" r="11.6"/>
	
		<linearGradient id="SVGID_1_" gradientUnits="userSpaceOnUse" x1="657.95" y1="1239.71" x2="1123.35" y2="1239.71" gradientTransform="matrix(1 0 0 -1 0 1528.2)">
		<stop  offset="0" style="stop-color:#FFFFFF;stop-opacity:0"/>
		<stop  offset="0.0558" style="stop-color:#FFFFFF;stop-opacity:0.2905"/>
		<stop  offset="1" style="stop-color:#FFFFFF;stop-opacity:0"/>
	</linearGradient>
	<polygon class="st26" points="657.95,149.69 1123.35,153.99 1123.35,427.29 791.95,427.29 742.85,405.29 710.25,393.19 
		695.85,387.29 671.05,370.49 660.25,353.29 680.45,260.09 691.95,181.29 	"/>
	<path class="st25" d="M660.25,974.29c0,0-9.6,7.6-8.9,17.2c0.7,9.6,4.4,14.1,4.4,14.1L660.25,974.29z"/>
	<path class="st27" d="M663.15,895.39c0,0,15.1-37.3,36.1-22s30,27.8,21.3,54s17.2,71.5,4.6,78c-12.6,6.6-72.2,13.8-69.3-2.3
		C658.75,987.09,655.85,926.69,663.15,895.39z"/>
	<polygon class="st15" points="460.45,1067.69 472.25,1070.59 541.75,815.39 518.55,809.59 	"/>
	<path class="st15" d="M716.25,859.69c-0.8,1.5,2.3,7,0,11.2c-1.4,2.6-2.2,9.4-2.7,14.3c-3.8-4.1-8.7-8.1-14.4-12.3
		c-17.1-12.5-30.2,9.9-34.5,18.7c0,0-5.1-8.8-4.4-12.8c0.7-4-5.9-6.9-5.9-9.6c0-2.1,0.1-9,0.2-11.9c0-0.9-0.1-1.8-0.3-2.7l-2.9-10.6
		c0,0,59.1-7,66.6-6l-0.5,3.9l1.2,6.8c0.3,1.7,0.2,3.5-0.3,5.2C717.65,856.09,716.75,858.79,716.25,859.69z"/>
	<path class="st15" d="M725.15,1004.99c-12.6,6.6-72.2,13.8-69.3-2.3c2.9-16,0-76.5,7.3-107.8c0,0,0.5-1.3,1.5-3.3
		c4.3-8.8,17.5-31.1,34.5-18.7c5.7,4.2,10.6,8.2,14.4,12.3c10.2,10.9,13.2,22.7,6.9,41.8
		C711.85,953.19,737.75,998.49,725.15,1004.99z"/>
	<polygon class="st15" points="802.75,1077.39 800.85,1077.89 732.05,825.09 745.55,822.69 	"/>
	<g>
		<path class="st28" d="M846.15,653.59c-4.4-7.5-9.7-15-15.7-22.3c-6.5-8-13.9-15.9-22-23.5c-5.5-5.1-11.3-10.1-17.4-15
			c-5-4-10.3-7.9-15.7-11.6c-4.2-2.9-8.5-5.8-12.9-8.5c-1.4-0.9-2.9-1.8-4.3-2.7c-3.3-2-6.6-3.9-9.9-5.8l0,0
			c-8.9-5-18.1-9.6-27.5-13.7c-2.2-1-4.5-2-6.7-2.9c-0.7-0.3-1.5-0.6-2.2-0.9c-0.6-0.2-1.2-0.5-1.8-0.7c-0.9-0.4-1.8-0.7-2.7-1.1
			c-0.6-0.2-1.1-0.4-1.7-0.7c-2-0.7-3.9-1.5-5.9-2.2c-12.6-4.5-25.4-8.2-38.2-10.9c-4.5-0.9-9-1.8-13.5-2.5
			c-10.3-1.6-20.5-2.6-30.7-2.7c-1.4,0-2.7-0.1-4.1-0.1c-2.8,0-5.5,0.1-8.1,0.2c-1.3,0-2.5,0.1-3.8,0.2c-4.5,0.3-8.8,0.7-13.1,1.4
			c-7.5,1.1-14.6,2.6-21.3,4.7c-6,1.8-11.7,4-17.1,6.5c-0.7,0.3-1.5,0.7-2.2,1c-0.3,0.2-0.7,0.3-1,0.5c-0.4,0.2-0.8,0.4-1.2,0.6
			c-0.6,0.3-1.3,0.6-1.9,1c-0.1,0.1-0.2,0.1-0.3,0.2c-0.7,0.4-1.5,0.8-2.2,1.2c-0.3,0.2-0.6,0.4-0.9,0.5c-0.6,0.4-1.3,0.7-1.9,1.1
			l0,0l0,0c-0.6,0.4-1.2,0.7-1.8,1.1c-0.4,0.2-0.8,0.5-1.2,0.7c-0.7,0.5-1.4,0.9-2.2,1.4c-7.1,4.7-13.5,10-19.4,15.8
			c-2.8,2.8-5.6,5.7-8.2,8.8c-1.4,1.7-2.8,3.4-4.2,5.2c-3.3,4.2-6.3,8.7-9.2,13.3c-2.2,3.5-4.2,7.1-6.1,10.8
			c-8,15.4-13.8,32.1-17.7,49.2c-4.8,20.8-6.9,42-6.9,61.9c0,14.3,1.2,26.9,3.9,37.9c2.2,8.9,5.3,16.8,9.5,23.7
			c3.9,6.5,8.8,12.2,14.7,17.2c5,4.3,10.8,8.1,17.4,11.4c0.9,0.5,1.8,0.9,2.7,1.3c6.8,3.2,14.4,6,23,8.5l0.4,0.1
			c2.8,0.8,5.7,1.6,8.7,2.3c1.5,0.4,2.9,0.7,4.4,1c4.5,1,9.1,1.9,14,2.8c4.8,0.9,9.8,1.6,15,2.4c0,0,0,0,0.1,0
			c4.8,0.7,9.9,1.3,15.1,1.9c1.8,0.2,3.6,0.4,5.4,0.6c4.2,0.4,8.6,0.9,13.1,1.3h0.1c0.2,0,0.4,0,0.6,0c3.9,0.4,7.9,0.7,12,1
			c1.6,0.1,3.2,0.2,4.8,0.3c0.7,0.1,1.5,0.1,2.2,0.2h0.1c1.5,0.1,3,0.2,4.6,0.3c1,0.1,2,0.1,3,0.2c0.1,0,0.2,0,0.2,0
			c0.1,0,0.1,0,0.2,0c1.3,0.1,2.5,0.1,3.8,0.2c1.6,0.1,3.2,0.1,4.8,0.2c0.4,0,0.7,0,1.1,0c14.2,0.5,27.8,0.4,40.9-0.3
			c4.3-0.2,8.6-0.5,12.9-0.9c6.7-0.6,13.3-1.3,19.7-2.2c4.1-0.6,8.1-1.2,12-1.9c6-1.1,11.7-2.2,17.3-3.6c2-0.5,4-1,6-1.5
			c0.5-0.1,1-0.3,1.5-0.4c0.8-0.2,1.7-0.4,2.5-0.7c0.1,0,0.2-0.1,0.4-0.1c0.7-0.2,1.4-0.4,2.1-0.6c0.7-0.2,1.4-0.4,2.1-0.6
			c10.1-3,19.5-6.6,28.2-10.6c10.1-4.6,19.2-9.9,27.2-15.8c6.4-4.7,12.2-9.7,17.2-15.1c14.3-15.3,23.2-33.4,25.8-54
			c0.5-4.2,0.8-8.4,0.8-12.8C862.65,689.49,856.65,671.39,846.15,653.59z M483.35,727.89l20.3-110.3l0.8,12.9
			c0,11.3-1.8,38.1,2.8,55.6l0,0c1.7,33.6,8.9,65.3,20.3,93.4c-13.5,1.4-23.4,3.6-28.2,6.6
			C492.15,768.09,486.75,748.59,483.35,727.89z"/>
		<path class="st28" d="M563.65,669.99c0,59.8,17.1,114.3,45.1,155.5c-4.5-0.4-8.9-0.8-13.1-1.3c-27.5-40.9-44.3-95-44.3-154.2
			c0-53.7,13.8-103.1,36.9-142.4c4.2-0.6,8.6-1.1,13.1-1.4C577.65,565.79,563.65,615.69,563.65,669.99z"/>
		<path class="st28" d="M560.15,819.29c-4.9-0.9-9.5-1.8-14-2.8c-0.2-0.3-0.4-0.7-0.6-1c-2.2-3.6-4.3-7.2-6.3-10.9
			c-4.3-7.9-8.2-16.3-11.7-24.9c-11.4-28.2-18.6-59.8-20.3-93.4l0,0c-0.3-5.3-0.4-10.7-0.4-16.2c0-34.8,5.8-67.7,16.1-97.3
			c3-8.5,6.3-16.7,10-24.6c0.7-0.5,1.4-0.9,2.2-1.4c0.4-0.2,0.8-0.5,1.2-0.7c0.6-0.4,1.2-0.7,1.8-1.1l0,0l0,0
			c0.6-0.4,1.2-0.7,1.9-1.1c0.3-0.2,0.6-0.4,0.9-0.5c0.7-0.4,1.5-0.8,2.2-1.2c0.1-0.1,0.2-0.1,0.3-0.2c0.6-0.3,1.3-0.7,1.9-1
			c0.4-0.2,0.8-0.4,1.2-0.6c0.3-0.2,0.7-0.3,1-0.5c0.7-0.4,1.5-0.7,2.2-1c-0.6,1.1-1.1,2.2-1.7,3.3c-0.5,0.9-0.9,1.9-1.4,2.8
			c-1,2.1-2,4.2-3,6.4l0,0c-3.1,6.9-6,14-8.5,21.4c-10.3,29.6-16.1,62.6-16.1,97.3c0,10.8,0.6,21.5,1.6,31.9l0,0
			c0,0.5,0.1,0.9,0.2,1.4c2.9,26.9,9.3,52.2,18.5,75.3c0.7,1.7,1.3,3.3,2,4.9c3.1,7.3,6.5,14.3,10.1,21c2.6,4.9,5.4,9.7,8.3,14.3
			C559.95,818.99,560.05,819.19,560.15,819.29z"/>
		<path class="st28" d="M506.85,803.19c-6.6-3.3-12.4-7.1-17.4-11.4c-4.5-10.7-8.5-21.9-11.7-33.5c-3.5-12.7-6.2-25.9-8.1-39.6
			c-1.7-13.1-2.7-26.7-2.7-40.5c0-9.2,0.4-18.2,1.2-27c3.9-17.1,9.7-33.8,17.7-49.2c1.9-3.7,3.9-7.3,6.1-10.8
			c-8.2,26.9-12.7,56.2-12.7,87c0,17.1,1.4,33.7,4,49.8c3.4,20.6,8.9,40.2,16.1,58.3c2,5,4.1,9.9,6.4,14.7l0,0
			C506.15,801.79,506.55,802.49,506.85,803.19z"/>
		<path class="st28" d="M641.65,682.49c0,52.1-7.4,101.1-20.4,144c-4.1-0.3-8-0.6-11.9-1c12.8-42.7,20.1-91.4,20.1-143
			c0-57.1-8.9-110.6-24.4-156.4c2.7-0.1,5.4-0.2,8.1-0.2c1.4,0,2.7,0,4.1,0.1C632.75,571.79,641.65,625.29,641.65,682.49z"/>
		<path class="st28" d="M692.25,662.49c0,64.7-20,123.1-52.1,165.2c-3.9-0.2-7.8-0.4-11.7-0.7c31.9-42,51.6-100.2,51.6-164.5
			c0-49.9-11.9-96-32.1-133.8c4.5,0.7,9,1.5,13.5,2.5C680.85,568.49,692.25,613.69,692.25,662.49z"/>
		<path class="st28" d="M745.75,669.99c0,60.4-17.4,115.4-46,156.7c-4.2,0.4-8.5,0.7-12.8,0.9c28.9-41.3,46.6-96.7,46.6-157.6
			c0-46.4-10.3-89.5-27.9-125.8c5.1,1.9,10.2,4.1,15.2,6.3C736.55,585.39,745.75,626.29,745.75,669.99z"/>
		<path class="st28" d="M801.25,671.09c0,54.4-14.1,104.5-37.9,144.1c-4.7,1.4-9.6,2.7-14.6,3.9c25.1-40.1,40.2-91.7,40.2-148
			c0-31.9-4.8-62.2-13.6-89.9c5.4,3.8,10.6,7.6,15.7,11.6C797.65,617.29,801.25,643.59,801.25,671.09z"/>
		<path class="st28" d="M848.15,688.79c0,29.9-4.3,58.6-12.1,84.8c-5.1,5.4-10.8,10.4-17.2,15.1c10.9-30.3,17-64.1,17-99.9
			c0-19.9-1.9-39.2-5.5-57.6c6,7.3,11.3,14.8,15.7,22.3C847.45,665.09,848.15,676.79,848.15,688.79z"/>
		<path class="st28" d="M470.65,766.99"/>
	</g>
	<path class="st29" d="M1159.35,820.69l-3.9,14.9l-8.1,30.8c0,0-2-11.9-3.4-24.5c-1.3-12-2-24.7,0.2-28.9c0.8-1.6,1.6-2.9,2.4-3.8
		c4.2-4.9,7.7-0.7,10,4C1158.35,816.79,1159.35,820.69,1159.35,820.69z"/>
	<path class="st30" d="M1210.95,802.99c0,12.5-3.6,23.8-9.3,32c-5.3,7.5-12.5,12.3-20.4,12.8c-0.4,0-0.8,0-1.2,0
		c-4.4,0-9.4-1.6-14.2-4.2c-3.7-2.1-7.2-4.8-10.3-7.9c-2.5-2.6-4.7-5.6-6.4-8.7c-2.9-5.5-4.1-11.6-2.5-17.7c0.5-2,1.3-4.1,2.5-6.1
		c13.5-23.9,14.2-38.6,23.2-43.2c2.1-1.1,4.6-1.6,7.7-1.6c11.2,0,21,8.6,26.5,21.5c1.1,2.5,1.9,5.1,2.6,7.9
		c1.2,4.6,1.8,9.6,1.9,14.8C1210.95,802.59,1210.95,802.79,1210.95,802.99z"/>
	<path class="st29" d="M1282.95,954.09c-0.9,13.4-4.4,23-12.3,25c-0.5,0.1-1.1,0.2-1.7,0.3c-1.6,0.2-3.4,0.1-5.4-0.3l0,0
		c-9.1-1.9-12.7,1.2-21.3,2.9c-2.6,0.5-6.8,1.8-11.2,3.4c-2.4,0.8-4.8,1.8-7.2,2.8l0,0c-1.6,0.6-3.1,1.3-4.5,1.9
		c-3.1,1.4-5.7,2.7-7.4,3.8c-0.2,0.1-0.4,0.2-0.6,0.4c-6.7,4-12,3.7-16.7,0.6c-2.5-1.7-4.8-4.1-7-7c-5.1-6.9-9.3-16.6-13.7-25
		c-1.2-2.2-2.4-4.4-3.6-6.4c-9-14.8-23.8-38-27.7-58.1c-4-20.6-3.1-39.9,1.2-56.5c1.4-5.3,3.1-10.3,5.2-15c2.2-5,4.7-9.6,7.5-13.7
		c4-6,8.7-11.2,13.8-15.3c3.6-3,7.5-5.4,11.6-7.2c3.3-1.5,6.8-2.7,10.4-3.4c0.1,0,0.1,0,0.2,0c0.5-0.1,1-0.2,1.6-0.3
		c5-0.8,10.1-0.5,15.1,0.7c13.7,3.2,27,13.1,38.3,27.8c1.9,2.5,3.7,5.1,5.5,7.8c7.1,11,13.1,24,17.4,38.4c1.7,5.7,3.2,11.6,4.4,17.6
		c3.9,20.3,8.2,44.9,8.5,64.7l0,0C1283.25,947.59,1283.15,950.89,1282.95,954.09z"/>
	<polygon class="st29" points="1217.95,1012.99 1216.45,1013.49 1196.55,1019.79 1177.55,1025.79 1174.65,1023.19 1173.95,1005.99 
		1173.95,943.29 1154.15,898.29 1177.55,898.29 1203.75,972.79 1206.95,981.79 1211.25,994.19 1211.35,994.19 	"/>
	<path class="st31" d="M1218.95,974.39c-0.7,0.2-1.5,0.5-2.3,0.8c-2.5,1.1-5.7,3.1-9.7,6.6c-3.5,3.1-7.5,7.3-12.3,13l0,0
		c-0.3,0.3-0.6,0.7-0.8,1.1c-0.2,0.3-0.5,0.6-0.7,0.8c-5.1,6.5-12.1,16.6-18.3,26.2c-0.1,0.1-0.1,0.2-0.2,0.3l-0.7-17.2
		c5.1-7.4,9.7-13.4,13.7-18.1c6.7-7.8,12-12.5,16.1-15.1c6.8-4.4,10.3-3.4,11.3-2.8c0.2,0.1,0.4,0.2,0.4,0.2
		C1216.75,971.39,1217.95,972.79,1218.95,974.39z"/>
	<polygon class="st29" points="1317.85,1042.79 1297.65,1049.19 1283.65,1053.59 1277.55,1055.59 1270.35,1016.49 1266.55,995.79 
		1263.55,978.99 1254.15,928.09 1277.55,928.09 1283.15,943.99 1283.15,943.99 1286.05,952.09 1288.55,959.19 1302.85,1000.09 	"/>
	<path class="st31" d="M1323.05,1069.59v0.3c-0.3,37.9-5.8,72.6-14,82.5c-2.1,2.6-4.5,4.4-7,5.6c0,0-0.1,0-0.1,0.1
		c-1.8,0.8-3.6,1.2-5.5,1.3c-2.1,0.1-4.3-0.2-6.5-1.1c-15.6-12.7-29-49.3-23.2-110.9c1.1-11.7,2.3-22,3.7-31l-3.8-20.7
		c1.3-6.2,2.6-11.6,3.9-16.1c0-0.2,0.1-0.3,0.2-0.5c4.4-15.1,8.9-22,12.3-25c1.2-1,2.2-1.6,3.1-2l2.5,7.1c4-4.3,6.8-3.5,6.8-3.5
		c0.2,0.1,0.5,0.2,0.7,0.2c18.6,15.3,26.4,60.7,27,104.3v0.2C1323.05,1063.49,1323.05,1066.59,1323.05,1069.59z"/>
	<path class="st29" d="M1218.55,1037.29c-7.5,28-21,58.9-34.6,83c-0.7,1.2-1.3,2.3-2,3.5c-11.3,19.5-22.6,34-30.3,37.8
		c-1.6,0.8-3.1,1.3-4.6,1.7c-0.2-2.9,0.7-4.4,2.3-7.3l-3.3,2.2c-2.1,2.4-5.9,2-7.5-0.7c-10.1-17-9.3-55.5,22.1-110.8
		c5-8.8,9.6-16.5,13.9-23.3c0.1-0.1,0.1-0.2,0.2-0.3c0.6-0.9,1.2-1.9,1.8-2.8c6.2-9.6,11.7-17.3,16.6-23.4c0.2-0.3,0.4-0.6,0.7-0.8
		c0.3-0.4,0.6-0.7,0.8-1.1l0,0c4.7-5.7,8.8-10,12.3-13c3.9-3.5,7.1-5.5,9.7-6.6c0.9-0.4,1.6-0.7,2.3-0.8c2.5,3.8,4,8.4,4.9,13.8l0,0
		C1225.95,1001.29,1223.55,1018.59,1218.55,1037.29z"/>
	<path class="st29" d="M1166.05,1162.19c-1.9,1.7-3.8,3-5.4,3.8c-2.4,1.2-4.7,1.8-6.9,2.1c-3,0.3-5.9-1.5-6.6-4.4
		c0-0.2-0.1-0.4-0.1-0.6c1.5-0.4,3-0.9,4.6-1.7c7.7-3.8,19-18.2,30.3-37.8c0.7-1.1,1.3-2.3,2-3.5c13.6-24.1,27.1-55.1,34.6-83
		c5-18.7,7.3-36,5.2-49.1l0,0c-0.9-5.4-2.4-10-4.9-13.8c3.9-1.1,5.5,0.3,5.5,0.3c2.9,2.7,5.1,6.3,6.5,10.6l0,0
		C1245.75,1027.89,1193.35,1137.89,1166.05,1162.19z"/>
	<path class="st29" d="M1315.85,1156.39c-2.9,3.5-6.3,5.7-9.9,6.6c-1.7,0.4-3.4-0.8-3.6-2.5c-0.1-0.8-0.2-1.6-0.2-2.4
		c0-0.3,0-0.6,0-0.9c0,0.3-0.1,0.7-0.1,1c-0.1,0.9-0.2,1.7-0.4,2.3c-0.4,1.7-2.2,2.7-3.8,2.2c-0.6-0.2-1.1-0.4-1.7-0.6
		c-2-0.8-4.1-2.1-6.1-3.7c-15.6-12.7-29-49.3-23.2-110.9c1.1-11.7,2.3-22,3.7-31c2.3-15.1,4.9-26.5,7.4-35.1
		c3.8-12.4,7.6-18.8,10.7-22.2c4-4.3,6.8-3.5,6.8-3.5c0.2,0.1,0.5,0.2,0.7,0.2C1339.55,972.69,1335.05,1133.19,1315.85,1156.39z"/>
	<path class="st32" d="M1213.45,1009.39c0,0-9.9-8.5-40.8,46c-30.9,54.4-17.4,85.1,0,76.5
		C1190.05,1123.39,1235.35,1029.99,1213.45,1009.39z"/>
	<path class="st32" d="M1303.25,1000.09c0,0-12.3-4.1-20.2,58c-7.9,62.1,16.3,85.3,29.2,70.8
		C1325.05,1114.39,1331.25,1010.79,1303.25,1000.09z"/>
	<circle class="st32" cx="1236.05" cy="939.49" r="16.2"/>
	<path class="st30" d="M1182.75,786.49c0,0-12.3,45.4,7.5,93.2c0,0,23-32.9,3.5-93.2H1182.75z"/>
	<path class="st30" d="M1302.25,1151.49c0,2.2-0.1,4.1-0.2,5.6C1302.05,1154.09,1302.25,1151.49,1302.25,1151.49z"/>
	<path class="st33" d="M1271.25,866.29l-69.6-70.3l45.7,19.4c1.9,2.5,3.7,5.1,5.5,7.8c7.1,11,13.1,24,17.4,38.4L1271.25,866.29z"/>
	<path class="st30" d="M1191.75,786.69c0,0,32.5,34.1,83.6,41.9c0,0-16.2-36.7-77.9-51.3L1191.75,786.69z"/>
	<path class="st34" d="M661.45,149.69c0,0,37.9,106.7,9,167.4c-42.1,88.2-33.8,94.2-28,130.3s100.3,26.9,158.3,47.4
		c149.3,52.9,322.7-67.5,322.7-67.5v-273.3L661.45,149.69z"/>
	<path class="st35" d="M416.05,701.99l-10.1,56C409.25,730.99,412.85,710.89,416.05,701.99z"/>
	<path class="st15" d="M644.95,824.79L644.95,824.79c0,0.6,0,0,0-0.2C644.95,824.69,644.95,824.69,644.95,824.79z"/>
	<path class="st15" d="M680.05,830.99c0,0.2-59-2.09-71.4-2.79c-141.7-7.7-145.2-69.91-145.7-73.21c-1.4-8.4-4.4-30.7-4.4-40.4
		c0-19.9,1.8-42,6.6-62.8c3.9-17.1,13.9-41.9,21.8-57.3l3-21.9h-50.6h-22h-16.1v-27.8l32.3-45.2h62.8c-0.6-15.9,0.4-31.8,3-47.4
		c2.7-16.3,5.6-33.8,6-35.4l0,0c1-4.2,2.7-8.1,4.9-11.6l0,0c6.8-10.8,18.9-17.9,32.6-17.9c7,0,13.5-1.7,19.3-4.6
		c0.4-0.2,0.9-0.4,1.3-0.7c0.9-0.5,1.8-1,2.7-1.6s1.7-1.2,2.6-1.8c1.7-1.2,3.2-2.6,4.7-4.1c1.8-1.8,3.4-3.7,4.8-5.7l0,0
		c0.7-1,1.3-2,1.9-3c2.6-4.3,5.5-8.7,7.2-13.6c0.4-7.6-0.3-13.9-0.8-17c0-0.3-0.1-0.5-0.1-0.7c-0.2-0.9-0.3-1.4-0.3-1.4
		c-1-0.6-2.1-1.2-3.1-1.8c-21.1-13-39.1-32.1-44.8-58.3c-4.8-22-8.8-37.2-10.2-49.6c-7.6-0.8-14.4-3.9-19.9-8.6
		c1.8,8.2,5.1,15.2,5.3,15.7c-5.5-7.1-8.6-14.8-10.3-20.8c-1.4-1.7-2.7-3.6-3.7-5.6c-1.2,2.9-2.2,6.5-2.5,11c-0.5,8.1-0.9-20-0.9-20
		c-0.6-2.7-1-5.6-1-8.6c0-17,11.5-31.3,27.1-35.7l-2.3-0.6c-7.2-2.3-22,10.1-22.8,10.8c0.6-0.8,13.4-16.8,30.5-14.8
		c12.7,1.5,21.1,6.5,24.8,9.2c0.7,0.4,1.3,0.9,2,1.4c-0.8-1.8-1.9-3.3-3.1-4.8c-0.2-0.3-0.5-0.6-0.8-0.9s-0.5-0.6-0.8-0.8
		c-0.4-0.4-0.8-0.8-1.3-1.2c-0.3-0.3-0.7-0.6-1.1-0.9c-0.4-0.3-0.7-0.6-1.1-0.8c-0.3-0.2-0.6-0.4-0.8-0.6l-0.1-0.1
		c-0.4-0.3-0.9-0.6-1.3-0.8c-0.2-0.1-0.4-0.2-0.6-0.3c-0.2-0.1-0.4-0.2-0.6-0.3c-0.4-0.2-0.8-0.4-1.2-0.6c-0.4-0.2-0.8-0.4-1.2-0.6
		c-0.4-0.2-0.8-0.4-1.2-0.6c-0.4-0.2-0.8-0.3-1.2-0.5s-0.8-0.3-1.2-0.5c-0.1,0-0.2-0.1-0.3-0.1c-0.4-0.1-0.8-0.3-1.1-0.4
		c-0.4-0.1-0.8-0.3-1.2-0.4c-0.1,0-0.1,0-0.2-0.1c-0.2-0.1-0.4-0.1-0.6-0.2c-0.2-0.1-0.4-0.1-0.5-0.2c-0.3-0.1-0.6-0.2-0.9-0.3
		c-0.1,0-0.1,0-0.2,0c-0.2-0.1-0.3-0.1-0.5-0.1s-0.3-0.1-0.5-0.1h-0.1c-0.2-0.1-0.5-0.1-0.7-0.2c-0.3-0.1-0.6-0.2-0.9-0.2
		c-0.3-0.1-0.6-0.1-0.9-0.2c-0.1,0-0.3-0.1-0.4-0.1c-0.7-0.1-1.2-0.2-1.7-0.3c-0.2,0-0.4-0.1-0.6-0.1s-0.4-0.1-0.6-0.1
		c-0.1,0-0.2,0-0.3,0c1.2,0.1,2.4,0.2,3.6,0.3c0.1,0,0.2,0,0.3,0s0.1,0,0.2,0c1.1,0.1,2.1,0.3,3.1,0.5c0.4,0.1,0.7,0.1,1.1,0.2
		c0.7,0.1,1.4,0.3,2.1,0.5c0.6,0.2,1.3,0.3,1.9,0.5c2.3,0.7,4.4,1.4,6.2,2.3c0.4,0.2,0.9,0.4,1.3,0.6c1.4,0.7,2.6,1.4,3.7,2.2
		c0.2,0.1,0.3,0.2,0.5,0.3c1.3,1,2.5,2,3.5,2.9c0.1,0.1,0.3,0.3,0.4,0.4c0.5,0.5,0.9,1,1.3,1.5c0.4,0.5,0.8,1,1.2,1.5
		c1.1,1.6,1.9,3,2.4,4.1c0.2,0.4,0.3,0.7,0.4,1c0.1,0.2,0.2,0.4,0.2,0.6c0,0.1,0,0.1,0.1,0.2c0,0.1,0.1,0.2,0.1,0.3
		c11.9-11.2,30.4-23.5,54.4-24c-0.9,2.4-1.8,4.8-2.8,7.2c-1,2.6-2.1,5.3-3.1,7.9c-6.9,17.4-14.7,35.2-22.1,48
		c-20.3,35.5,19.8,114.5,30.2,134.1c0.9,1.6,1.5,3.6,2.1,5.7l0,0c0.6,2.5,0.9,5.3,1.1,8.3c0.4,7.8-0.5,17.2-2.4,27.2
		c-1.1,6-2.6,12.2-4.4,18.4c-5.6,19.1-14,37.6-23.3,48.3c-8.2,9.3-18.8,31.6-28.4,58.7c-4.5,12.8-8.8,26.6-12.6,40.6
		c-0.2,0.6-0.3,1.2-0.5,1.7c-0.2,0.9-0.5,1.9-0.7,2.8c-0.5,2.1-1.1,4.3-1.6,6.4l0,0c-1.7,7.2-3.3,14.3-4.7,21.4
		c-4.2,21.8-6.4,42.4-5.1,58.5c0.9,11.8,7.7,23.8,17.4,36.5c2.8,3.7,5.9,7.4,9.1,11.1c1.1,1.3,2.2,2.6,3.4,3.9l0,0l0,0
		c6.4,7.3,29.1,11.5,36.2,19.4c14.1,15.6,12.9,35.8,24.2,54.5c3.5,5.8,6.7,11.7,9.4,17.8c0.3,0.7,0.6,1.3,0.9,2
		C638.25,785.19,680.05,830.99,680.05,830.99z"/>
	<path class="st15" d="M439.35,572.69l-23.3,129.2l0,0l0,0l-10.1,56l0,0l-8.4,46.5l-22,122.2l-8.7-1.4l17.4-120.6l33.2-231.9
		L439.35,572.69L439.35,572.69z"/>
	<path class="st33" d="M926.65,546.19c-0.2,0.9-0.4,1.7-0.7,2.4c0,0.1-0.1,0.2-0.1,0.3s-0.7,1.2-0.8,1.3c-0.1,0.2-2.1,2-2.2,2.2
		s-3,2.1-3.2,2.2c-0.2,0.3-6.2,3.2-6.5,3.6c-0.2,0.2-9.5,3.9-9.7,4.1c-0.4,0.4-12,3.7-12.5,4.1l-11.5,2.3
		c-8.4,1.4-16.2,1.5-21.6-0.3c-7.3-2.4-34.8-5.7-51-13.9c-1-0.5-2-1.1-3-1.7c-4.3-2.6-8.1-4.3-11.5-5.4c-11.8-3.8-18.9,0.3-24.5,4.5
		c-2.6,2-6.5,9.7-8.8,15.4c-28.8-11.4-33.8-59.3-24.8-67.7c9.6-9,86.4,35.4,103.8,46.5C855.55,557.29,926.65,546.19,926.65,546.19z"
		/>
	<path class="st33" d="M454.95,246.59L454.95,246.59c-0.4,3-0.7,5.9-1,8.7c-0.1,1.3-0.3,2.7-0.4,3.9c-0.5,5.5-0.9,10.4-1.1,14.7
		h-34.2c1.3-1.2,2.2-6.5,2.9-9.5c0.2-0.7,0.3-1.2,0.4-1.6c1.1-3.3,1.6-7.2,1.6-11.3c0.1-15.9-6.2-35.4-6.4-36l0,0l17.1-1.7
		C437.05,220.79,457.05,230.09,454.95,246.59z"/>
	<path class="st33" d="M368.85,201.89c0,0-3.3,20.1-19.6,44.8c-0.1,0.2-0.2,0.3-0.3,0.5c-0.6,0.9-1.2,1.8-1.8,2.7
		c-2.7,3.8-5.7,7.8-9,11.8l-34.5-6.2l-4-0.7c0.1-0.1,0.1-0.1,0.2-0.2c1.6-1.3,2.8-3.1,3.8-5.2c1.5-3.3,2.4-7.3,2.8-11.6
		c1.6-15.9-2.8-35.9-2.8-35.9L368.85,201.89L368.85,201.89z"/>
	<path class="st33" d="M354.85,355.39h-26c1.5-1.5,2.6-8.9,3.4-11.1c5.5-15.7-4.5-46.5-4.7-47.3l37.8,30.9l0,0
		c0.8,3.8,1.4,6.9,1.7,8.6C367.55,340.29,361.55,348.09,354.85,355.39z"/>
	<path class="st33" d="M467.75,381.99h-42.3l6.5-65l30.5,3.1c-0.6,4.7-1.1,11.4-1.1,20.4c0,3.5,0.3,7.4,0.8,11.6
		c0.7,5.4,1.6,11.1,2.7,16.6c0.4,2,0.8,3.9,1.2,5.7C466.65,377.09,467.25,379.69,467.75,381.99z"/>
	<path class="st33" d="M397.65,493.49h-40.3c1.5-1.5,2.6-8.9,3.4-11.1c0.4-1,0.7-2.1,0.9-3.2c0.5-2.5,0.8-5.3,0.8-8.2
		c0.1-15.9-6.2-35.3-6.4-35.9l0,0l0,0l37.1-3.7c1.8,10,3.9,24,4.8,37.9c0.1,1.5,0.2,2.9,0.2,4.4c0,0.8,0.1,1.7,0.1,2.5
		C398.35,482.29,398.25,488.09,397.65,493.49z"/>
	<path class="st33" d="M1217.95,1012.99c-0.2,0.7-0.4,1.4-0.6,2.2c-4.5,16.2-19.5,65.7-34.7,106.9c-0.2,0.5-0.4,1-0.6,1.6
		c-5.4,14.5-10.9,28-15.9,38.4c-1.9,1.7-3.8,3-5.4,3.8c-2.4,1.2-4.7,1.8-6.9,2.1c-3,0.3-5.9-1.5-6.6-4.4c0-0.2-0.1-0.4-0.1-0.6
		c-0.2-2.9,0.7-4.4,2.3-7.3l-3.3,2.2c-2.1,2.4-5.9,2-7.5-0.7c-10.1-17-9.3-55.5,22.1-110.8c5-8.8,9.6-16.5,13.9-23.3l-0.7-17.2
		v-43.2c-1.2-2.2-2.4-4.4-3.6-6.4c-9-14.8-23.8-38-27.7-58.1c-4-20.6-3.1-39.9,1.2-56.5c-1.3-12-2-24.7,0.2-28.9
		c0.8-1.6,1.6-2.9,2.4-3.8c0.5-2,1.3-4.1,2.5-6.1c13.5-23.9,14.2-38.6,23.2-43.2l7.7-1.6c0,0-5.3,19-9.6,39.6
		c-3.7,17.8-6.6,36.8-4.6,45.7c4.4,19.1-18,70.1,26,95.1c8.6,4.9,19.9,20.3,23.3,31.3c0.5,1.7,1.1,3.5,1.5,5.3
		c1.3,4.9,2.2,9.9,2.7,14.8C1220.15,997.99,1219.85,1005.89,1217.95,1012.99z"/>
	<path class="st33" d="M1298.55,1131.69c-0.4,10.6-1,20.1-2.1,27.7c-0.1,0.9-0.3,1.8-0.4,2.7c-2-0.8-4.1-2.1-6.1-3.7
		c-15.6-12.7-29-49.3-23.2-110.9c1.1-11.7,2.3-22,3.7-31l-3.8-20.7l-3.1-16.7c0.2,0,2.3,0,5.4,0.3c0.5,0.1,1,0.1,1.5,0.2
		c2.2,0.3,4.7,0.9,7.4,1.8c8.6,3,18,9.6,18.3,24.4l0,0c0.2,7.7,0.9,23.9,1.6,43.4C1298.65,1074.89,1299.35,1106.29,1298.55,1131.69z
		"/>
	<polygon class="st35" points="1150.85,509.79 1003.65,544.89 1003.65,572.69 1145.85,572.69 1205.05,509.79 	"/>
	<g>
		<polygon class="st36" points="1216.05,436.59 1216.05,447.39 1213.35,447.39 1213.15,449.39 1142.75,449.39 1142.45,447.39 
			1139.65,447.39 1139.65,436.59 		"/>
		<g>
			<path class="st37" d="M1213.35,447.39l-0.3,2l-0.7,5.7l-7.3,54.8l-7.5,2.2c-6.1,1.8-12.4,2.8-18.8,2.9
				c-6.9,0.1-13.8-0.9-20.4-2.9l-7.5-2.2l-7.3-54.8l-0.8-5.7l-0.3-2H1213.35z"/>
			<rect x="1139.55" y="434.59" class="st36" width="76.5" height="12.8"/>
		</g>
		<polygon class="st38" points="1213.35,447.39 1213.15,449.39 1212.35,454.99 1143.45,454.99 1142.75,449.39 1142.45,447.39 		"/>
	</g>
	<path class="st35" d="M1178.75,447.39v67.6c-6.9,0.1-13.8-0.9-20.4-2.9l-7.5-2.2l-7.3-54.8l-0.8-5.7l-0.3-2L1178.75,447.39
		L1178.75,447.39z"/>
</g>
</svg>
