<svg id="Layer_1" data-name="Layer 1" xmlns="http://www.w3.org/2000/svg" xmlns:xlink="http://www.w3.org/1999/xlink" viewBox="0 0 1368.6 1034.83"><defs><linearGradient id="linear-gradient" x1="70.71" y1="-12.75" x2="1271.7" y2="424.93" gradientTransform="matrix(1, 0, 0, -1, -16.53, 1035.9)" gradientUnits="userSpaceOnUse"><stop offset="0" stop-color="#fff" stop-opacity="0"/><stop offset="0.05" stop-color="#bfbdd4" stop-opacity="0.1"/><stop offset="0.1" stop-color="#8582ac" stop-opacity="0.21"/><stop offset="0.15" stop-color="#57528d" stop-opacity="0.3"/><stop offset="0.19" stop-color="#363077" stop-opacity="0.39"/><stop offset="0.22" stop-color="#221c69" stop-opacity="0.45"/><stop offset="0.24" stop-color="#1b1464" stop-opacity="0.5"/><stop offset="0.98" stop-color="#1b1464" stop-opacity="0"/></linearGradient><linearGradient id="linear-gradient-2" x1="526.63" y1="880.7" x2="992.03" y2="880.7" gradientTransform="matrix(1, 0, 0, -1, -16.53, 1035.9)" gradientUnits="userSpaceOnUse"><stop offset="0" stop-color="#fff" stop-opacity="0"/><stop offset="0.06" stop-color="#fff" stop-opacity="0.29"/><stop offset="1" stop-color="#fff" stop-opacity="0"/></linearGradient></defs><polygon points="1368.6 942 1.2 942 115.9 652.9 1254.2 652.9 1368.6 942" style="fill:#ead9ca"/><polygon points="311 652.9 293.2 743.1 254.1 941 253.9 942 243 942 243.2 941 279 759.8 300.2 652.9 311 652.9" style="fill:#ead9ca"/><polygon points="1086 653.8 1143.2 942.9 1154.1 942.9 1096.9 653.8 1086 653.8" style="fill:#ead9ca"/><polygon points="1252.9 653.8 1367.3 942.9 286.3 942.4 286.1 943.3 272.3 943.3 272.5 942.4 0 942.9 114.7 653.8 1209 653.3 1252.9 653.8" style="opacity:0.20000000298023224;isolation:isolate;fill:url(#linear-gradient)"/><path d="M362.23,257.5c.6,2.4,1.2,4.8,2,5.5h-70.1l12.1-9.9.9-.8h0l23.6-19.3,34.8-28.5c-.2.7-8.4,25.9-5.9,42.3a33.33,33.33,0,0,0,1.2,5C361.23,253,361.73,255.3,362.23,257.5Z" transform="translate(-16.53 -14.3)" style="fill:#f2f2b1"/><polygon points="349.1 190.3 349.1 190.3 314.3 218.8 290.6 238.1 290.6 238.1 289.7 238.8 277.6 248.7 284.1 183.8 314.6 186.8 349.1 190.3" style="fill:#f2f2b1"/><polygon points="340.5 140.7 340.5 140.7 328.7 131 319.7 123.7 307.1 113.4 307.1 113.3 269 82.3 269 82.2 303.6 78.8 334 75.7 340.5 140.7" style="fill:#f2f2b1"/><path d="M357,155h-70.1c1.3-1.2,2.2-6.5,2.9-9.5.2-.7.3-1.2.4-1.6a36.3,36.3,0,0,0,1.6-11.3c.1-15.9-6.2-35.4-6.4-36l38.1,31.1,12.7,10.4,8.9,7.3Z" transform="translate(-16.53 -14.3)" style="fill:#f2f2b1"/><path d="M336.23,138l-14.1,2.2-32.4,5.2c.2-.7.3-1.2.4-1.6a36.3,36.3,0,0,0,1.6-11.3l30.7,3.8Z" transform="translate(-16.53 -14.3)" style="fill:#f2f2b1;opacity:0.4000000059604645;isolation:isolate"/><polygon points="221 68.6 221 133.9 200.3 113.2 155.7 68.6 221 68.6" style="fill:#f2f2b1"/><path d="M237.53,148.2l-30.8-5.5-34.5-6.2-4-.7.2-.2a14.62,14.62,0,0,0,3.8-5.2,36.57,36.57,0,0,0,2.8-11.6c1.6-15.9-2.8-35.9-2.8-35.9l44.6,44.6Z" transform="translate(-16.53 -14.3)" style="fill:#f2f2b1"/><polygon points="244.6 157.1 251.1 222.1 179.6 163.6 244.6 157.1" style="fill:#f2f2b1"/><path d="M267.63,236.4h-70.1c1.5-1.5,2.6-8.9,3.4-11.1,5.5-15.7-4.5-46.5-4.7-47.3L234,208.9h0Z" transform="translate(-16.53 -14.3)" style="fill:#f2f2b1"/><polygon points="279.6 360.2 279.6 360.2 257.8 342.4 257.8 342.4 256 340.9 250 336 246.7 333.3 208.1 301.8 245.2 298.1 273.1 295.3 279.6 360.2" style="fill:#f2f2b1"/><path d="M224.63,316.1Z" transform="translate(-16.53 -14.3)" style="fill:#f2f2b1"/><path d="M296.13,374.5H226c1.5-1.5,2.6-8.9,3.4-11.1a16.81,16.81,0,0,0,.9-3.2,42.23,42.23,0,0,0,.8-8.2c.1-15.9-6.2-35.3-6.4-35.9l38.6,31.5,3.3,2.7,6,4.9,1.8,1.5h0Z" transform="translate(-16.53 -14.3)" style="fill:#f2f2b1"/><path d="M282.93,356l-8.6.7h0l-7.5.6-36.6,2.9a42.23,42.23,0,0,0,.8-8.2l35.7,2.7,5.7.4Z" transform="translate(-16.53 -14.3)" style="fill:#f2f2b1;opacity:0.4000000059604645;isolation:isolate"/><path d="M207.43,217.6s28.1-8.7,45.7-1.3Z" transform="translate(-16.53 -14.3)" style="fill:#f2f2b1;opacity:0.4000000059604645;isolation:isolate"/><path d="M230.33,129.5l-10.5,1.1-4.1.4-47.3,4.7a14.62,14.62,0,0,0,3.8-5.2,36.57,36.57,0,0,0,2.8-11.6c10,2.2,28.7,6.3,41.8,8.7.4.1.7.1,1.1.2A112.83,112.83,0,0,0,230.33,129.5Z" transform="translate(-16.53 -14.3)" style="fill:#f2f2b1;opacity:0.4000000059604645;isolation:isolate"/><path d="M362.23,257.5l-56-4.4-3.6-.3,4.5-.5,52.5-5.5a24.41,24.41,0,0,0,1.2,5C361.23,253,361.73,255.3,362.23,257.5Z" transform="translate(-16.53 -14.3)" style="fill:#f2f2b1;opacity:0.4000000059604645;isolation:isolate"/><rect x="715.7" y="327.3" width="80.3" height="54.4" style="fill:#bababa"/><polygon points="1139.5 793.4 1148.2 792 1095.7 424.4 1073.7 427.9 1139.5 793.4" style="fill:#c1b69d"/><polygon points="1054.2 704.7 1062.9 703.3 1020.8 400.5 998.9 404.1 1054.2 704.7" style="fill:#c1b69d"/><path d="M310.13,442.2,308,453.7l-23.3,129.2h0l-10.1,56h0l-8.4,46.5-22,122.2-8.7-1.4,17.4-120.6,33.2-231.9,2.2-15Z" transform="translate(-16.53 -14.3)" style="fill:#c1b69d"/><polygon points="366.1 427.9 365.6 430.6 364 439.4 355.8 484.3 355.8 484.3 335.5 594.6 329.9 625 326.9 641.3 321.4 671.3 310.8 728.5 302.1 727.1 309.9 671.3 317.4 617.6 321.8 585.4 338.1 468.7 342.1 439.4 344.2 424.4 352.1 425.7 366.1 427.9" style="fill:#c1b69d"/><path d="M507.83,690.6a358.53,358.53,0,0,1,15.5,46.8c5,20.4,12.6,43.4,12.6,43.4h44.3l4.8-44.6,4.8-45.2Z" transform="translate(-16.53 -14.3)"/><path d="M539.73,219" transform="translate(-16.53 -14.3)" style="fill:none"/><path d="M564.53,274.5c-20-10-25.6-25.4-26.5-37.4" transform="translate(-16.53 -14.3)" style="fill:none"/><path d="M546,225.5c-.2.3-.4.5-.6.8a9.86,9.86,0,0,1-7.5,4.7,9,9,0,0,1-2.8-.1c-.5-.1-1-.1-1.4-.2a4.33,4.33,0,0,1-.5-.1,4.33,4.33,0,0,1-.5-.1c-.4-.1-.8-.1-1.1-.2s-.4-.1-.7-.1a4.48,4.48,0,0,0-1.1-.1l-.1.3a33.35,33.35,0,0,0,1.6,4,39.87,39.87,0,0,0,7.7,10.1h0a.1.1,0,0,1,.1.1,70.5,70.5,0,0,0,5.8,5.1h0l.1.1c.7.5,1.3,1,2,1.5a9.06,9.06,0,0,0,1.6,1.1V221.6C547.73,223,546.83,224.3,546,225.5Zm0,0c-.2.3-.4.5-.6.8a9.86,9.86,0,0,1-7.5,4.7,9,9,0,0,1-2.8-.1c-.5-.1-1-.1-1.4-.2a4.33,4.33,0,0,1-.5-.1,4.33,4.33,0,0,1-.5-.1c-.4-.1-.8-.1-1.1-.2s-.4-.1-.7-.1a4.48,4.48,0,0,0-1.1-.1l-.1.3a33.35,33.35,0,0,0,1.6,4,39.87,39.87,0,0,0,7.7,10.1h0a.1.1,0,0,1,.1.1,70.5,70.5,0,0,0,5.8,5.1h0l.1.1c.7.5,1.3,1,2,1.5a9.06,9.06,0,0,0,1.6,1.1V221.6C547.73,223,546.83,224.3,546,225.5ZM988.83,14.3H550.43a22.35,22.35,0,0,0-21.5,16.3c0,.1-.1.3-.1.4-.1.4-.2.9-.3,1.3v.2a25.81,25.81,0,0,0-.4,4V180.7h0V334.6a21.67,21.67,0,0,0,5.7,14.8h0a22.21,22.21,0,0,0,16.7,7.5h438.4a22.32,22.32,0,0,0,22.3-22.3V36.6A22.47,22.47,0,0,0,988.83,14.3Zm3.2,294H548.73V35H992ZM546,225.5c-.2.3-.4.5-.6.8a9.86,9.86,0,0,1-7.5,4.7,9,9,0,0,1-2.8-.1c-.5-.1-1-.1-1.4-.2a4.33,4.33,0,0,1-.5-.1,4.33,4.33,0,0,1-.5-.1c-.4-.1-.8-.1-1.1-.2s-.4-.1-.7-.1a4.48,4.48,0,0,0-1.1-.1l-.1.3a33.35,33.35,0,0,0,1.6,4,39.87,39.87,0,0,0,7.7,10.1h0a.1.1,0,0,1,.1.1,70.5,70.5,0,0,0,5.8,5.1h0l.1.1c.7.5,1.3,1,2,1.5a9.06,9.06,0,0,0,1.6,1.1V221.6C547.73,223,546.83,224.3,546,225.5Zm0,0c-.2.3-.4.5-.6.8a9.86,9.86,0,0,1-7.5,4.7,9,9,0,0,1-2.8-.1c-.5-.1-1-.1-1.4-.2a4.33,4.33,0,0,1-.5-.1,4.33,4.33,0,0,1-.5-.1c-.4-.1-.8-.1-1.1-.2s-.4-.1-.7-.1a4.48,4.48,0,0,0-1.1-.1l-.1.3a33.35,33.35,0,0,0,1.6,4,39.87,39.87,0,0,0,7.7,10.1h0a.1.1,0,0,1,.1.1,70.5,70.5,0,0,0,5.8,5.1h0l.1.1c.7.5,1.3,1,2,1.5a9.06,9.06,0,0,0,1.6,1.1V221.6C547.73,223,546.83,224.3,546,225.5Z" transform="translate(-16.53 -14.3)" style="fill:#cecece"/><rect x="532.2" y="20.7" width="443.3" height="273.3" style="fill:#565656"/><path d="M474.33,0Z" transform="translate(-16.53 -14.3)" style="fill:#fffae9"/><path d="M444.53,268.3a48.48,48.48,0,0,1-11.2,10.9" transform="translate(-16.53 -14.3)" style="fill:none"/><path d="M581.93,130.8c-.6,1.6-1.7,4.3-3,7.5,6.2-15.5-3.2-14-5.2-13.5,1-.3,1.8-.5,2.5-.7C581.23,122.6,583.83,125.6,581.93,130.8Z" transform="translate(-16.53 -14.3)" style="stroke:#000;stroke-miterlimit:10"/><path d="M569.63,154.1c2.1-.4,5.6-7.3,8.3-13.7.3-.7.6-1.5.9-2.1" transform="translate(-16.53 -14.3)" style="fill:none;stroke:#000;stroke-miterlimit:10"/><path d="M574.53,124.5l-1.3.4c-3.9,1.1-9.3,2.8-9.3,2.8" transform="translate(-16.53 -14.3)" style="fill:none;stroke:#000;stroke-miterlimit:10"/><path d="M453,251.5c.2-.6.4-1.3.6-1.9a70.26,70.26,0,0,0,2.5-16.2,83.81,83.81,0,0,0-.8-17c0-.3-.1-.5-.1-.7-.2-.9-.3-1.4-.3-1.4" transform="translate(-16.53 -14.3)" style="fill:none"/><path d="M687.53,664.6c0,5.5-14.7,13.4-37.3,21-4.6,1.6-9.5,3.1-14.7,4.6-4.6,1.3-9.5,2.7-14.5,3.9h0c-10.2,2.6-21.1,5-32.4,7.1-5.8,1.1-11.7,2-17.7,2.9-4.5.7-8.9,1.2-13.4,1.8a371.51,371.51,0,0,1-42.9,2.7h-5.7c-1.3,0-2.6,0-3.9-.1h-.2c-2.6-.1-5.2-.1-7.8-.2-6.7-.3-13.2-.7-19.7-1.3-6.2-.5-12.4-1.2-18.4-2-5.1-.7-10.1-1.4-15-2.2h-.1c-5.3-.9-10.4-1.8-15.3-2.9s-9.8-2.2-14.3-3.3c-13.2-3.4-24.4-7.1-32.8-10.9a75.12,75.12,0,0,1-7-3.6h0c-6.1-3.6-9.5-7-9.5-10.1,0-1.7,1.1-3.3,3.1-4.6,4.7-3.1,14.6-5.2,28.2-6.6l6-.6c1.9-.2,3.8-.3,5.8-.5,9.5-.7,20.2-1.1,31.7-1.4l12.2-.3c11.5-.2,23.7-.3,36.3-.3h25.4c4.1,0,8.2,0,12.4-.1s8.2-.1,12.3-.1c14.9-.2,30-.6,44.7-.9l12.3-.3c7.7-.2,15.2-.3,22.4-.3,5.8-.1,11.4-.1,16.8-.1h4.7c4.3,0,8.3.1,12.2.3,4.2.1,8,.3,11.6.6C678.23,657.9,687.53,660.2,687.53,664.6Z" transform="translate(-16.53 -14.3)" style="fill:#e0d9cd"/><path d="M573.33,172.3c-1.5,3.9-3.2,8.3-5.1,13.1-5.4,13.7-16.9,32.7-22.8,41-1.5,2-3.6,4.4-7.5,4.7a9,9,0,0,1-2.8-.1c-1.9-.3-4-.6-5.5-.8a11.56,11.56,0,0,0-1.7-.1c-3.1.4-3.4,4.9-7.6,4.7-16.1-.8-38.9-6.2-59.9-17.3,15.9,2.2,45.7,5.1,54.6-1.5l.2-.2c.2-.2.4-.3.6-.5l1-1a23.06,23.06,0,0,0,3.9-6c7.7-16.2,9.9-47.9,9.9-47.9h-9.3c-6.2,0-9.3-15.4-22.9-32.7l12.3-18.5c22.9-4.3,10.6,29.6,26,8,13.2-18.4,1.6-66-2-79.6,10.8,13.9,37.7,51.6,33.6,76.8a60.5,60.5,0,0,0,2.1,29.5C573.63,153.9,577.73,161,573.33,172.3Z" transform="translate(-16.53 -14.3)" style="fill:#f4e6d0"/><path d="M573.33,172.3c-1.5,3.9-3.2,8.3-5.1,13.1-9,1.9-19.2-4.4-23.7-15.2-5-12-1.3-25,8.4-29,5.6-2.3,12.1-1.2,17.4,2.6C573.63,153.9,577.73,161,573.33,172.3Z" transform="translate(-16.53 -14.3)" style="fill:#e0d0c6;opacity:0.30000001192092896;isolation:isolate"/><path d="M393.53,559.9s-17.4,75.6,3.5,96c33.3,32.5,195.1,35.1,224,26.3s5.7-122.2,5.7-122.2Z" transform="translate(-16.53 -14.3)"/><path d="M379,286.3c-1.7,3.9-3.3,7.7-4.9,11.6A38.62,38.62,0,0,1,379,286.3Z" transform="translate(-16.53 -14.3)" style="fill:#f4e6d0"/><path d="M602.93,532.9s104-67.6,119.8-60.7,88.4,15.8,22.4,110.4c-38,54.4-124.2,99.6-124.2,99.6Z" transform="translate(-16.53 -14.3)"/><path d="M539.13,244.5c-.6.3-1.1.6-1.7.9a5.36,5.36,0,0,1-1.1.5h0l-.6.3-.6.3-.6.3c-.6.3-1.2.5-1.8.8a1.42,1.42,0,0,1-.6.2c-.6.2-1.2.5-1.8.7-.4.2-.9.3-1.3.5s-.5.2-.8.3h-.1a6.89,6.89,0,0,0-.8.3c-.3.1-.5.2-.8.3-.5.2-1,.3-1.4.5-.6.2-1.1.3-1.7.5h0c-.5.2-1.1.3-1.7.5-.2.1-.4.1-.6.2a2.92,2.92,0,0,1-.9.2.35.35,0,0,0-.2.1,8.33,8.33,0,0,0-1.5.4c-.1,0-.1,0-.2.1h-.2c-.7.2-1.4.3-2.2.5-.2,0-.3.1-.5.1l-1.7.3c-1.5.3-3,.6-4.5.8h0c-.2,0-.4.1-.6.1a9.85,9.85,0,0,1-1.7.2h0l-2.2.3h0c-.5.1-1,.1-1.5.2a2.49,2.49,0,0,0-.8.1,1.27,1.27,0,0,0-.6.1c-1.8.2-3.5.3-5.2.4s-3.5.2-5.2.2c-2.5,0-5,0-7.3-.1h-.5c-1.6-.1-3.2-.1-4.7-.2s-3.1-.2-4.5-.4h0a21.16,21.16,0,0,0-2.4-.2l-2.5-.3-2.3-.3c-.4-.1-.7-.1-1.1-.2s-.7-.1-1.1-.2h0l-2.1-.3c-.3-.1-.7-.1-1-.2h0c-.2,0-.3-.1-.5-.1-.8-.1-1.6-.3-2.4-.4h0a.6.6,0,0,1-.4-.1c-.8-.1-1.5-.3-2.2-.4a5.16,5.16,0,0,0-1.1-.2c-.2,0-.3-.1-.5-.1h0c-.2,0-.3-.1-.5-.1a6.37,6.37,0,0,1-.7-.2c-.1,0-.1,0-.2-.1h0c-.2,0-.4-.1-.6-.1a4.33,4.33,0,0,1-.5-.1,4.25,4.25,0,0,0-1.1-.2c-.1,0-.2-.1-.3-.1s-.3-.1-.5-.1-.2-.1-.3-.1-.2-.1-.3-.1-.3-.1-.5-.1-.2-.1-.3-.1-.2-.1-.3-.1-.2-.1-.3-.1-.2,0-.2-.1H448c-.1,0-.1,0-.2-.1a.44.44,0,0,1-.3-.1h0c.7-1,1.3-2,1.9-3,2.6-4.3,5.5-8.7,7.2-13.6a22.56,22.56,0,0,0,1.3-7.4v-13l25.8.9,32.6,1.2h0l12.2.4h.9V225a16.79,16.79,0,0,0,.7,5h0c0,.1.1.2.1.3a33.35,33.35,0,0,0,1.6,4c1.4,3.6,4.1,7,7.3,10.2Z" transform="translate(-16.53 -14.3)" style="fill:#f4e6d0"/><polygon points="1113.9 411.6 1113.9 439.4 253.4 439.4 253.4 411.6 255.5 408.8 1111.9 408.8 1113.9 411.6" style="fill:#cec8b7"/><polygon points="1113.9 411.6 253.4 411.6 255.5 408.8 285.7 366.4 1081.6 366.4 1111.9 408.8 1113.9 411.6" style="fill:#c1b69d"/><polygon points="364 439.7 364 439.7 355.8 484.6 355.8 484.6 335.5 594.9 329.9 625.2 326.9 641.6 321.4 671.5 310.8 728.8 302.1 727.4 309.9 671.5 317.4 617.9 321.8 585.7 338.1 468.9 342.1 439.7 342.1 439.7 357.5 439.4 364 439.7" style="fill:#271768;opacity:0.20000000298023224;isolation:isolate"/><path d="M616.93,441.7v82.6c0-.3-.1-.6-.1-1C616.73,522.5,616.93,450,616.93,441.7Z" transform="translate(-16.53 -14.3)" style="fill:#f4e6d0"/><path d="M796.93,414.4v1.3a4.87,4.87,0,0,1-.1,1.2c-.1,1.4-.2,2.7-.4,3.9-.1.5-.1.9-.2,1.4,0,.3-.1.5-.1.8-.2,1-.3,2-.5,2.8,0,.2-.1.3-.1.5s-.1.5-.2.8a13.7,13.7,0,0,1-.7,2.4c0,.1-.1.2-.1.3s-.1.2-.2.3-.2.3-.3.5a1,1,0,0,1-.4.5,6.47,6.47,0,0,1-.8.9l-.6.6a15,15,0,0,1-1.3,1.1l-42.8,15.8c-8.4,1.4-16.2,1.5-21.6-.3-7.3-2.4-34.8-5.7-51-13.9-1-.5-2-1.1-3-1.7a55,55,0,0,0-11.5-5.4c-11.8-3.8-18.9.3-24.5,4.5-2.6,2-5.1,6.2-7.4,11.8-.8,1.9-1.6,4-2.3,6.2a21.28,21.28,0,0,0-.8,2.7c-4.5,14.4-7.8,33.4-9.1,49.1a14,14,0,0,0,0,2.9,45.12,45.12,0,0,0,1.7,8.9,9.64,9.64,0,0,1-1.7,8.5h0a.37.37,0,0,0-.1.3h0v1.4a39.22,39.22,0,0,0,1.5,6.6c5.9,19.1,23.2,39.5,12.4,53.4-.5.6-1,1.2-1.5,1.7a23.13,23.13,0,0,1-4.8,3.6,52.69,52.69,0,0,1-13.3,5.3h0c-.2.1-.5.1-.7.2-3.7,1-7.7,1.8-11.9,2.5-13.9,2.2-29.8,2.7-42.9,2.3-4.4-.1-8.5-.4-12.1-.7-2.5-.2-4.8-.5-6.8-.8-8.4-1.2-17.7-4.7-27-8.2-4-1.5-8.1-3-12.1-4.3-9.9-3.3-19.4-5.4-27.4-3.3-.5.1-1,.3-1.5.4a93.74,93.74,0,0,1-15.7,3.3c-5.7.8-12,1.4-18.6,1.8-4,.2-8.2.3-12.2.3-12.6-.1-24.7-1.3-32.8-4.3-.1,0-.1,0-.2-.1s-.1,0-.2-.1a18.32,18.32,0,0,1-6.9-4.1c-2.9-2.9-5-7.5-6.4-12.9h0c-4.6-17.6-2.8-44.4-2.8-55.6l-.8-12.9h0l-2.5-39.7-.3-5.2-.8-13.7-.9-14.1-.2-2.8-2.2-35.8-.3-6.6a234.66,234.66,0,0,1,3-47.4c2.7-16.3,5.6-33.8,6-35.4h0c1.6-3.8,3.2-7.7,4.9-11.6h0a38.44,38.44,0,0,1,32.6-17.9,42.91,42.91,0,0,0,19.3-4.6,8.26,8.26,0,0,0,1.3-.7c.9-.5,1.8-1,2.7-1.6s1.7-1.2,2.6-1.8a36.33,36.33,0,0,0,4.7-4.1,42.65,42.65,0,0,0,4.8-5.7h0c.1,0,.2.1.3.1a.31.31,0,0,1,.2.1h.2c.1,0,.2,0,.2.1a.35.35,0,0,1,.2.1c.1,0,.2.1.3.1s.2.1.3.1.5.1.8.2l1.2.3a3.59,3.59,0,0,0,1.1.2,4.33,4.33,0,0,1,.5.1c.2,0,.4.1.6.1s.2,0,.2.1a1.85,1.85,0,0,1,.7.2c.2,0,.3.1.5.1s.3.1.5.1a4.25,4.25,0,0,0,1.1.2c.7.1,1.4.3,2.2.4.1,0,.2.1.4.1h0c.8.1,1.6.3,2.4.4.2,0,.3.1.5.1h0c.3.1.7.1,1,.2l2.1.3h0c.4.1.7.1,1.1.2a4.25,4.25,0,0,1,1.1.2l2.3.3,2.5.3a19.42,19.42,0,0,0,2.4.2h0c1.5.1,3,.3,4.5.4s3.1.2,4.7.2h.5c2.4.1,4.8.1,7.4.1,1.7,0,3.4-.1,5.1-.2s3.5-.2,5.2-.4a1.27,1.27,0,0,0,.6-.1c.3,0,.5-.1.8-.1.5-.1,1-.1,1.5-.2h0l2.2-.3h0a9.85,9.85,0,0,1,1.7-.2c.2,0,.4-.1.6-.1h0c1.5-.2,3-.5,4.5-.8h0l1.6-.3h0c.2,0,.3-.1.5-.1.7-.2,1.4-.3,2.2-.5.1,0,.3-.1.4-.1a8.33,8.33,0,0,0,1.5-.4c.1,0,.2,0,.2-.1a2.92,2.92,0,0,1,.9-.2,1.42,1.42,0,0,0,.6-.2,30827137529289.48,30827137529289.48,0,0,0,1.6-.4h0a3.09,3.09,0,0,1,.8-.2c.2,0,.3-.1.4-.1s.3-.1.4-.1c.5-.2,1-.3,1.5-.5.3-.1.5-.2.8-.3a6.89,6.89,0,0,0,.8-.3h.1c.3-.1.5-.2.8-.3a1.85,1.85,0,0,1,.7-.2,24,24,0,0,1,2.5-1,1.42,1.42,0,0,1,.6-.2l.6-.3a8.86,8.86,0,0,0,1.7-.8l1.2-.6c.9-.5,1.9-.9,2.8-1.4h0a81.62,81.62,0,0,0,9.6,7.8,12.74,12.74,0,0,0,1.9,1.3c1.1.8,2.3,1.5,3.4,2.2a158.14,158.14,0,0,0,24.4,12.4,38.63,38.63,0,0,1,21,6.2c13.8,5.4,33.8,15.3,61.2,33.7h0c5.7,3.8,11.7,8,18.1,12.6,21.8,15.7,39.3,27.1,53.6,35.8a4.35,4.35,0,0,0,.7.4c17.8,10.7,30.3,17,39.2,21.4a5.94,5.94,0,0,1,.8.4c1.4.7,2.7,1.3,3.9,1.9.9.4,1.7.9,2.5,1.3.3.1.5.3.8.4s.5.3.8.4a58.53,58.53,0,0,1,6.5,3.9,1.38,1.38,0,0,1,.4.3c.1.1.2.1.2.2a13.72,13.72,0,0,1,1.8,1.6c.4.4.7.8,1.1,1.2.2.2.3.4.5.6a3,3,0,0,1,.5.7c.2.2.3.5.5.7a18.39,18.39,0,0,1,1.9,4c.2.6.5,1.3.7,1.9.1.3.2.7.3,1a2.35,2.35,0,0,1,.2.8c0,.2.1.3.1.5a9.36,9.36,0,0,0,.4,1.6v.2c.1.3.1.7.2,1.1s.1.7.2,1.1v.2c.1.4.1.8.2,1.2v.1a.9.9,0,0,0,.1.5c0,.3.1.6.1.8a9.7,9.7,0,0,1,.1,1.7,3.4,3.4,0,0,0,.1,1A9.88,9.88,0,0,1,796.93,414.4Z" transform="translate(-16.53 -14.3)" style="fill:#ddb683"/><polygon points="510.2 111.3 508.5 109.3 565.3 116.5 563.4 121.6 510.2 111.3"/><path d="M791,433.9c-7.9,6.1-26.5,13.2-42.8,15.8Z" transform="translate(-16.53 -14.3)" style="fill:#ddb683"/><path d="M560.63,78.7c0,15.7-3,33.1-6.7,48.6-.3,1.1-.5,2.3-.8,3.4-1,3.9-2,7.7-3,11.2-.1.4-.2.7-.3,1.1-.3,1.1-.6,2.1-.9,3.2-.8,2.8-1.7,5.5-2.5,8h0c-1.3,3.9-2.4,7.4-3.4,10.2-1.8,5.2-3,8.3-3,8.3s2.3-27.3,1.8-44.2c0-1-.1-1.9-.1-2.8-.4-8.4-1.8-13.2-4.8-8.6a49.92,49.92,0,0,1-5.6,7.3,5.85,5.85,0,0,1-2.4,1.6h0a1.27,1.27,0,0,1-.6.1,2.65,2.65,0,0,1-1.4-.5,7.07,7.07,0,0,1-1.7-2c-1.5-2.2-3.2-5.3-6.9-6.5-12.1-4-12.3,9.3-9.3,18.5,2.5,7.6,5.1,19.5,9.4,23.4a4.53,4.53,0,0,0,3,1.3h9.2v.8a2.49,2.49,0,0,1-.1.8c0,.3-.1.6-.1,1s-.1.9-.1,1.5a1.27,1.27,0,0,1-.1.6c0,.4-.1.7-.1,1.1v.4a.9.9,0,0,1-.1.5.9.9,0,0,1-.1.5c-.1,1.1-.3,2.3-.4,3.5a11.08,11.08,0,0,0-.2,1.9.9.9,0,0,1-.1.5c-.1.4-.1.8-.2,1.2a11,11,0,0,0-.2,1.8l-.3,1.8c0,.3-.1.6-.1.9-.1.5-.2,1.1-.3,1.6h0a17,17,0,0,1-.4,2.2c-.1.3-.1.7-.2,1l-.6,3v.1c-.2,1-.4,2-.6,2.9-.1.3-.1.7-.2,1l-.6,2.4c0,.2-.1.4-.1.6-.1.5-.3,1-.4,1.5v.2c-.2.8-.4,1.5-.6,2.2h0a68,68,0,0,1-2.7,8,10.09,10.09,0,0,1-.7,1.5,3,3,0,0,1-.4.8c-.2.3-.3.7-.5,1-.3.5-.6,1.1-.9,1.6a13,13,0,0,1-1,1.5c-.2.2-.3.5-.5.7-.5.6-.9,1.2-1.4,1.7l-.2.2c-.1.1-.2.3-.4.4s-.4.3-.6.5l-.2.2c-4.1,3.1-12.7,4.1-22.3,4.1h-4.9c-.8,0-1.7-.1-2.5-.1h-.1c-1,0-2-.1-3-.2h-.2c-1.1-.1-2.2-.2-3.2-.2-2.1-.2-4.2-.3-6.3-.6-.7-.1-1.4-.1-2-.2l-2.4-.3-2.4-.3-2.7-.3a9.85,9.85,0,0,0-1.7-.2c-.3,0-.5-.1-.8-.1-1-.5-2.1-1.1-3.1-1.7-.8-.5-1.7-.9-2.5-1.4-1-.6-2.1-1.2-3.1-1.8-21.1-13-39.1-32.1-44.8-58.3-4.8-22-8.8-37.2-10.2-49.6a79.57,79.57,0,0,1-.5-10.7c.4-12,4.6-22,14.9-35.2a95.91,95.91,0,0,1,15.1-17.6l.1-.1c.1,0,.1-.1.2-.1,11.9-11.2,30.4-23.5,54.4-24,13.9-.3,29.5,3.4,46.8,13.7.1.1.2.1.3.2s.5.3.7.4a.1.1,0,0,1,.1.1,4.28,4.28,0,0,1,1.3-.5h.6c7.7,1.2,13.6,4.3,18,8.8,5.3,5.4,8.5,12.7,10.2,21.2h0c.4,2,.7,4.1,1,6.2h0A104.82,104.82,0,0,1,560.63,78.7Z" transform="translate(-16.53 -14.3)" style="fill:#d3d0ba"/><path d="M811.13,385.9s20.1-13.8,33.9-18.2c27.3-8.9,48.6,4.1,55.9,9.4a1.34,1.34,0,0,1-.7,2.4c-5.1.5-15.2,1.9-24.7,6-13.3,5.8-47.9,20.5-47.9,20.5Z" transform="translate(-16.53 -14.3)" style="fill:#f4e6d0"/><path d="M258.83,512.2" transform="translate(-16.53 -14.3)" style="fill:#f4e6d0;stroke:#000;stroke-miterlimit:10"/><path d="M839.43,401s30.4-33.3,49.1-23.3,33.3,12.8,26.9,21-88.4,21.5-87.7,7.3S839.43,401,839.43,401Z" transform="translate(-16.53 -14.3)" style="fill:#cecece"/><path d="M840.93,408.2,791,434h0l-42.8,15.8,12.3-41.6s.3-18-7.2-28.4l18.8-1.4h0l50.5-3.8a12.13,12.13,0,0,1,1.4,1c4.3,3.2,7.8,8,10.6,13.1A66.12,66.12,0,0,1,840.93,408.2Z" transform="translate(-16.53 -14.3)" style="fill:#ddb683"/><path d="M794.63,429.7c3.1-9.3,4.4-31.7-4.9-40.9-3.3-3.3-8.7-5.9-17.7-10.4l50.5-3.8a12.13,12.13,0,0,1,1.4,1,36.16,36.16,0,0,1,10.6,13.1,67,67,0,0,1,6.3,19.5L790.93,434C793,432.4,794.23,431,794.63,429.7Z" transform="translate(-16.53 -14.3)" style="fill:#ddb683;opacity:0.30000001192092896;isolation:isolate"/><path d="M437.93,67.7a37,37,0,0,1-37,37c-1.4,0-2.7-.1-4-.2A36.32,36.32,0,0,1,377,95.9a35.24,35.24,0,0,1-5-5.2,30.18,30.18,0,0,1-3.7-5.6c-.3-.6-.6-1.2-.9-1.7.4.4.8.7,1.2,1.1a21.1,21.1,0,0,0,2.3,1.9,44.52,44.52,0,0,0,5.1,3.3,36.76,36.76,0,0,0,17.2,4.2c1.1,0,2.1,0,3.2-.1a37,37,0,0,0,33.9-36.9,37.69,37.69,0,0,0-3.5-15.8A37.57,37.57,0,0,1,437.93,67.7Z" transform="translate(-16.53 -14.3)" style="fill:#d3d0ba"/><path d="M430.23,56.9a37,37,0,0,1-33.9,36.9c-1,.1-2.1.1-3.2.1a36.76,36.76,0,0,1-17.2-4.2,27.76,27.76,0,0,1-5.1-3.3,21.1,21.1,0,0,1-2.3-1.9,12,12,0,0,1-1.2-1.1,36.1,36.1,0,0,1-2.5-7.2,39.72,39.72,0,0,1-1-8.6,37.16,37.16,0,0,1,27.1-35.7,36.81,36.81,0,0,1,30.2,4.6,24.26,24.26,0,0,1,2,1.4,30.71,30.71,0,0,1,3.4,2.9c.1.1.2.2.3.2A40.09,40.09,0,0,1,430.23,56.9Z" transform="translate(-16.53 -14.3)" style="fill:#d3d0ba"/><path d="M437.93,67.7a37,37,0,0,1-37,37c-1.4,0-2.7-.1-4-.2A36.32,36.32,0,0,1,377,95.9a35.24,35.24,0,0,1-5-5.2,30.18,30.18,0,0,1-3.7-5.6c-.3-.6-.6-1.2-.9-1.7.4.4.8.7,1.2,1.1a21.1,21.1,0,0,0,2.3,1.9,44.52,44.52,0,0,0,5.1,3.3,36.76,36.76,0,0,0,17.2,4.2c1.1,0,2.1,0,3.2-.1a37,37,0,0,0,33.9-36.9,37.69,37.69,0,0,0-3.5-15.8A37.57,37.57,0,0,1,437.93,67.7Z" transform="translate(-16.53 -14.3)" style="fill:#d3d0ba;opacity:0.20000000298023224;isolation:isolate"/><path d="M426.73,41.1l-.4-.1-35.4-9-2.3-.6c-7.2-2.3-22,10.1-22.8,10.8.6-.8,13.4-16.8,30.5-14.8a52.86,52.86,0,0,1,24.8,9.2,18.18,18.18,0,0,1,2.1,1.7c0-.1-.1-.2-.1-.3-6.7-14-28-17.1-30-17.4,27.2,1.9,32.8,17.5,33.5,20.1A.58.58,0,0,0,426.73,41.1Z" transform="translate(-16.53 -14.3)" style="fill:#d3d0ba"/><path d="M374.83,76.2a19.81,19.81,0,0,0-4.2,4.5,8.79,8.79,0,0,0-.6,1c-.5.8-1,1.8-1.5,2.8a4.88,4.88,0,0,0-.3.7,34.38,34.38,0,0,0-2.5,11c-.5,8.1-.9-20-.9-20Z" transform="translate(-16.53 -14.3)" style="fill:#d3d0ba"/><path d="M382.23,111.6a61.65,61.65,0,0,1-10.3-20.8c-.5-1.6-.8-3-1.1-4.3-.4-2-.7-3.6-.8-4.7a12.35,12.35,0,0,1-.2-1.8l.8.8,5.2,5.3c0,1.2,0,2.4.1,3.6a42.18,42.18,0,0,0,1,6.2A78.93,78.93,0,0,0,382.23,111.6Z" transform="translate(-16.53 -14.3)" style="fill:#d3d0ba"/><path d="M534.63,37.4s21.1,37.3,18.1,67.3C552.73,104.7,566.23,55.2,534.63,37.4Z" transform="translate(-16.53 -14.3)" style="fill:#d3d0ba;opacity:0.30000001192092896;isolation:isolate"/><path d="M517.83,102.2s-46.1-9-64.9-22.3C453,79.9,466.53,112.2,517.83,102.2Z" transform="translate(-16.53 -14.3)" style="fill:#d3d0ba;opacity:0.30000001192092896;isolation:isolate"/><path d="M438.93,42.2s30-27.4,61.7-15.6C500.63,26.6,442.23,38.1,438.93,42.2Z" transform="translate(-16.53 -14.3)" style="fill:#d3d0ba;opacity:0.30000001192092896;isolation:isolate"/><path d="M538,231a9,9,0,0,1-2.8-.1c-1.9-.3-4-.6-5.5-.8h0V230l-.7-6.2-.9-8.1-1.3-11.8C526.73,203.9,532.23,221.8,538,231Z" transform="translate(-16.53 -14.3)" style="fill:#f4e6d0;opacity:0.4000000059604645;isolation:isolate"/><path d="M554,255.9h0a43.3,43.3,0,0,1-3.7,2.7,14,14,0,0,1-1.6,1c-.6.4-1.1.7-1.7,1.1a86.32,86.32,0,0,1-18.9,8.5,104.66,104.66,0,0,1-19.1,4,145.92,145.92,0,0,1-29.5.4c-.8-.1-1.5-.1-2.3-.2a219.15,219.15,0,0,1-46.3-9.7,8.26,8.26,0,0,0,1.3-.7c.9-.5,1.8-1,2.7-1.6.7-.5,1.5-.9,2.2-1.5.1-.1.3-.2.4-.3a30.71,30.71,0,0,0,4.7-4.1,42.65,42.65,0,0,0,4.8-5.7h0a.37.37,0,0,1,.3.1c.1,0,.2.1.3.1s.2,0,.2.1a4635948076458.79,4635948076458.79,0,0,1,.6.2c.1,0,.2.1.3.1a4.33,4.33,0,0,0,.5.1c.1,0,.2.1.3.1a.37.37,0,0,1,.3.1c.2,0,.3.1.5.1s.2.1.3.1a3.59,3.59,0,0,0,1.1.2,4.33,4.33,0,0,1,.5.1c.2,0,.4.1.6.1h0c.1,0,.1,0,.2.1a1.85,1.85,0,0,1,.7.2c.2,0,.3.1.5.1h0c.2,0,.3.1.5.1a4.25,4.25,0,0,0,1.1.2c.7.1,1.4.3,2.2.4a.76.76,0,0,1,.4.1h0c.8.1,1.6.3,2.4.4.2,0,.3.1.5.1h0c.3.1.7.1,1,.2l2.1.3h0c.4.1.7.1,1.1.2a4.25,4.25,0,0,1,1.1.2l2.3.3,2.5.3a19.42,19.42,0,0,0,2.4.2h0c1.5.1,3,.3,4.5.4s3.1.2,4.7.2h.5c2.4.1,4.8.1,7.4.1,1.7,0,3.4-.1,5.1-.2s3.5-.2,5.2-.4a1.27,1.27,0,0,0,.6-.1c.3,0,.5-.1.8-.1.5-.1,1-.1,1.5-.2h0l2.2-.3h0a9.85,9.85,0,0,1,1.7-.2c.2,0,.4-.1.6-.1h0c1.5-.2,3-.5,4.5-.8h0l1.6-.3c1-.2,1.9-.4,2.9-.7.6-.1,1.1-.3,1.7-.4.1,0,.2,0,.2-.1a2.92,2.92,0,0,1,.9-.2,1.42,1.42,0,0,0,.6-.2,12330855011927.9,12330855011927.9,0,0,0,1.6-.4,3.09,3.09,0,0,1,.8-.2l.9-.3c.7-.2,1.5-.5,2.2-.7a6.89,6.89,0,0,0,.8-.3.1.1,0,0,0,.1-.1c.3-.1.5-.2.8-.3a1.85,1.85,0,0,1,.7-.2,39,39,0,0,0,4.7-2l.6-.3.6-.3.6-.3a5.36,5.36,0,0,1,1.1-.5c.6-.3,1.2-.6,1.7-.9h0a.1.1,0,0,1,.1.1,70.5,70.5,0,0,0,5.8,5.1h0a.1.1,0,0,1,.1.1c.7.5,1.3,1,2,1.5a9.06,9.06,0,0,0,1.6,1.1,21.41,21.41,0,0,0,1.9,1.3A35,35,0,0,1,554,255.9Z" transform="translate(-16.53 -14.3)" style="fill:#ddb683;opacity:0.30000001192092896;isolation:isolate"/><path d="M675.53,435.6c-1-.5-2-1.1-3-1.7a55,55,0,0,0-11.5-5.4c-16.6-20.8-20.4-39.6-20.4-39.6C645.43,403.6,661.83,422,675.53,435.6Z" transform="translate(-16.53 -14.3)" style="fill:#ddb683;opacity:0.30000001192092896;isolation:isolate"/><path d="M618.53,531.2c-48-14.1-75.2-71.7-76.1-73.6,23.2,39,74.4,65.7,74.5,65.7l.1,1v.3A31.41,31.41,0,0,0,618.53,531.2Z" transform="translate(-16.53 -14.3)" style="fill:#ddb683;opacity:0.30000001192092896;isolation:isolate"/><polygon points="664.8 941.4 654.9 943.9 597.4 688.3 584.2 691.6 583.5 689.1 606.7 683.3 664.8 941.4" style="fill:#c1b69d"/><polygon points="654.9 943.9 653 944.4 584.2 691.6 597.4 688.3 654.9 943.9" style="fill:#c1b69d"/><polygon points="715.9 813.6 708.6 816 706.9 816.6 652.8 668.4 652.8 668.4 669.9 659.8 715.9 813.6" style="fill:#c1b69d"/><polygon points="708.6 816 706.9 816.6 652.8 668.4 662.9 663.3 708.6 816" style="fill:#c1b69d"/><polygon points="708.6 816 706.9 816.6 652.8 668.4 662.9 663.3 708.6 816" style="fill:#271768;opacity:0.20000000298023224;isolation:isolate"/><polygon points="431.5 816.5 422.1 814.7 443.5 683.3 462 687 431.5 816.5" style="fill:#c1b69d"/><polygon points="431.5 816.5 422.1 814.7 443.5 683.3 462 687 431.5 816.5" style="fill:#271768;opacity:0.20000000298023224;isolation:isolate"/><path d="M578,140.4c.3-.7.6-1.5.9-2.1" transform="translate(-16.53 -14.3)" style="fill:none;stroke:#000;stroke-miterlimit:10"/><path d="M573.33,124.9h0" transform="translate(-16.53 -14.3)" style="fill:none;stroke:#000;stroke-miterlimit:10"/><polygon points="312.6 934.4 324.4 937.3 393.9 682.1 370.7 676.3 312.6 934.4" style="fill:#c1b69d"/><path d="M1060.73,330.2l-17.5,2s-4.6-39.4-3.6-63.4,1.7-40.1,1.7-40.1.3,1,.9,2.7c3.4,11.3,16.3,55.9,18.4,93.5C1060.63,326.7,1060.73,328.5,1060.73,330.2Z" transform="translate(-16.53 -14.3)" style="fill:#96af90"/><path d="M1060.53,324.9l-5.7.9s-11.2-64.1-12.7-94.3C1045.63,242.8,1058.53,287.3,1060.53,324.9Z" transform="translate(-16.53 -14.3)" style="fill:#96af90;opacity:0.30000001192092896;isolation:isolate"/><path d="M1042.53,352.5l-6,7.4-4.9,6.1s-12.6-59.8-12.8-83.9l-.2-24.2a105.1,105.1,0,0,1,6.2,9.5C1033.83,282.7,1048.83,315,1042.53,352.5Z" transform="translate(-16.53 -14.3)" style="fill:#96af90"/><path d="M1042.53,352.5l-6,7.4c-3.2-15.8-11.4-58.4-11.6-77.9-.1-6.5-.1-11.2-.2-14.7C1033.83,282.7,1048.83,315,1042.53,352.5Z" transform="translate(-16.53 -14.3)" style="fill:#96af90;opacity:0.30000001192092896;isolation:isolate"/><path d="M1076.83,256.5l-.3,24.2c-.2,24.2-12.8,83.9-12.8,83.9l-10.8-13.5c-.4-2.6-.8-5.2-1-7.8-4.1-44.4,20-79.9,24.3-85.9Z" transform="translate(-16.53 -14.3)" style="fill:#96af90"/><path d="M1076.23,257.4a73.34,73.34,0,0,1-4.5,10.6c-10.9,21.6-12.8,83.9-12.8,83.9l-7-8.7C1047.73,298.9,1071.93,263.4,1076.23,257.4Z" transform="translate(-16.53 -14.3)" style="fill:#96af90;opacity:0.30000001192092896;isolation:isolate"/><path d="M520,725.5s59.1-7,66.6-6l-.5,3.9,1.3,6.8a11.47,11.47,0,0,1-.3,5.2,53,53,0,0,1-2.1,5.7c-.8,1.5,2.3,7,0,11.2s-3.1,19.8-3.1,19.8l-48.6.9s-5.1-8.8-4.4-12.8-5.9-6.9-5.9-9.6c0-2.1.1-9,.2-11.9a12.41,12.41,0,0,0-.3-2.7Z" transform="translate(-16.53 -14.3)" style="fill:#a8a8a8"/><path d="M1079.53,245.9Z" transform="translate(-16.53 -14.3)" style="fill:#96af90"/><circle cx="753.9" cy="317.9" r="11.6"/><polygon points="510.1 16.4 975.5 20.7 975.5 294 644.1 294 595 272 562.4 259.9 548 254 523.2 237.2 512.4 220 532.6 126.8 544.1 48 510.1 16.4" style="fill:url(#linear-gradient-2)"/><path d="M528.93,855.3s-9.6,7.6-8.9,17.2,4.4,14.1,4.4,14.1Z" transform="translate(-16.53 -14.3)" style="fill:#a8a8a8"/><path d="M531.83,776.4s15.1-37.3,36.1-22,30,27.8,21.3,54,17.2,71.5,4.6,78-72.2,13.8-69.3-2.3S524.53,807.7,531.83,776.4Z" transform="translate(-16.53 -14.3)" style="fill:#bfbfbf"/><polygon points="312.6 934.4 324.4 937.3 393.9 682.1 370.7 676.3 312.6 934.4" style="fill:#271768;opacity:0.20000000298023224;isolation:isolate"/><path d="M584.93,740.7c-.8,1.5,2.3,7,0,11.2-1.4,2.6-2.2,9.4-2.7,14.3a103.09,103.09,0,0,0-14.4-12.3c-17.1-12.5-30.2,9.9-34.5,18.7,0,0-5.1-8.8-4.4-12.8s-5.9-6.9-5.9-9.6c0-2.1.1-9,.2-11.9a12.41,12.41,0,0,0-.3-2.7L520,725s59.1-7,66.6-6l-.5,3.9,1.2,6.8a11.47,11.47,0,0,1-.3,5.2A48.66,48.66,0,0,1,584.93,740.7Z" transform="translate(-16.53 -14.3)" style="fill:#271768;opacity:0.20000000298023224;isolation:isolate"/><path d="M593.83,886c-12.6,6.6-72.2,13.8-69.3-2.3s0-76.5,7.3-107.8c0,0,.5-1.3,1.5-3.3,4.3-8.8,17.5-31.1,34.5-18.7a103.09,103.09,0,0,1,14.4,12.3c10.2,10.9,13.2,22.7,6.9,41.8C580.53,834.2,606.43,879.5,593.83,886Z" transform="translate(-16.53 -14.3)" style="fill:#271768;opacity:0.20000000298023224;isolation:isolate"/><polygon points="654.9 944.1 653 944.6 584.2 691.8 597.7 689.4 654.9 944.1" style="fill:#271768;opacity:0.20000000298023224;isolation:isolate"/><path d="M714.83,534.6a174.37,174.37,0,0,0-15.7-22.3,239.83,239.83,0,0,0-22-23.5q-8.25-7.65-17.4-15c-5-4-10.3-7.9-15.7-11.6-4.2-2.9-8.5-5.8-12.9-8.5-1.4-.9-2.9-1.8-4.3-2.7-3.3-2-6.6-3.9-9.9-5.8h0a306.11,306.11,0,0,0-27.5-13.7c-2.2-1-4.5-2-6.7-2.9-.7-.3-1.5-.6-2.2-.9s-1.2-.5-1.8-.7c-.9-.4-1.8-.7-2.7-1.1a12.2,12.2,0,0,1-1.7-.7c-2-.7-3.9-1.5-5.9-2.2a294.88,294.88,0,0,0-38.2-10.9c-4.5-.9-9-1.8-13.5-2.5a213.4,213.4,0,0,0-30.7-2.7c-1.4,0-2.7-.1-4.1-.1-2.8,0-5.5.1-8.1.2-1.3,0-2.5.1-3.8.2-4.5.3-8.8.7-13.1,1.4a138.2,138.2,0,0,0-21.3,4.7,128.73,128.73,0,0,0-17.1,6.5c-.7.3-1.5.7-2.2,1-.3.2-.7.3-1,.5l-1.2.6a17.38,17.38,0,0,0-1.9,1c-.1.1-.2.1-.3.2-.7.4-1.5.8-2.2,1.2a4.05,4.05,0,0,1-.9.5c-.6.4-1.3.7-1.9,1.1h0c-.6.4-1.2.7-1.8,1.1-.4.2-.8.5-1.2.7-.7.5-1.4.9-2.2,1.4a129.84,129.84,0,0,0-19.4,15.8c-2.8,2.8-5.6,5.7-8.2,8.8-1.4,1.7-2.8,3.4-4.2,5.2a156.75,156.75,0,0,0-9.2,13.3c-2.2,3.5-4.2,7.1-6.1,10.8a206.38,206.38,0,0,0-17.7,49.2,277.64,277.64,0,0,0-6.9,61.9c0,14.3,1.2,26.9,3.9,37.9a84,84,0,0,0,9.5,23.7,68.86,68.86,0,0,0,14.7,17.2,84.44,84.44,0,0,0,17.4,11.4c.9.5,1.8.9,2.7,1.3a156.44,156.44,0,0,0,23,8.5l.4.1c2.8.8,5.7,1.6,8.7,2.3,1.5.4,2.9.7,4.4,1,4.5,1,9.1,1.9,14,2.8s9.8,1.6,15,2.4h.1c4.8.7,9.9,1.3,15.1,1.9l5.4.6c4.2.4,8.6.9,13.1,1.3h.7c3.9.4,7.9.7,12,1l4.8.3c.7.1,1.5.1,2.2.2h.1l4.6.3c1,.1,2,.1,3,.2h.4c1.3.1,2.5.1,3.8.2,1.6.1,3.2.1,4.8.2h1.1c14.2.5,27.8.4,40.9-.3q6.45-.3,12.9-.9c6.7-.6,13.3-1.3,19.7-2.2,4.1-.6,8.1-1.2,12-1.9,6-1.1,11.7-2.2,17.3-3.6l6-1.5c.5-.1,1-.3,1.5-.4a23.35,23.35,0,0,0,2.5-.7c.1,0,.2-.1.4-.1l2.1-.6,2.1-.6a211.91,211.91,0,0,0,28.2-10.6,151.66,151.66,0,0,0,27.2-15.8,120.68,120.68,0,0,0,17.2-15.1c14.3-15.3,23.2-33.4,25.8-54a107.27,107.27,0,0,0,.8-12.8C731.33,570.5,725.33,552.4,714.83,534.6ZM352,608.9l20.3-110.3.8,12.9c0,11.3-1.8,38.1,2.8,55.6h0a287.83,287.83,0,0,0,20.3,93.4c-13.5,1.4-23.4,3.6-28.2,6.6A278,278,0,0,1,352,608.9Z" transform="translate(-16.53 -14.3)" style="fill:none;stroke:#f2eada;stroke-miterlimit:10;stroke-width:5px"/><path d="M432.33,551c0,59.8,17.1,114.3,45.1,155.5-4.5-.4-8.9-.8-13.1-1.3-27.5-40.9-44.3-95-44.3-154.2,0-53.7,13.8-103.1,36.9-142.4,4.2-.6,8.6-1.1,13.1-1.4C446.33,446.8,432.33,496.7,432.33,551Z" transform="translate(-16.53 -14.3)" style="fill:none;stroke:#f2eada;stroke-miterlimit:10;stroke-width:5px"/><path d="M428.83,700.3c-4.9-.9-9.5-1.8-14-2.8-.2-.3-.4-.7-.6-1-2.2-3.6-4.3-7.2-6.3-10.9a247.11,247.11,0,0,1-11.7-24.9,288.41,288.41,0,0,1-20.3-93.4h0c-.3-5.3-.4-10.7-.4-16.2a296.32,296.32,0,0,1,16.1-97.3c3-8.5,6.3-16.7,10-24.6.7-.5,1.4-.9,2.2-1.4.4-.2.8-.5,1.2-.7.6-.4,1.2-.7,1.8-1.1h0c.6-.4,1.2-.7,1.9-1.1a4.05,4.05,0,0,1,.9-.5c.7-.4,1.5-.8,2.2-1.2.1-.1.2-.1.3-.2.6-.3,1.3-.7,1.9-1l1.2-.6c.3-.2.7-.3,1-.5a21.4,21.4,0,0,1,2.2-1c-.6,1.1-1.1,2.2-1.7,3.3-.5.9-.9,1.9-1.4,2.8-1,2.1-2,4.2-3,6.4h0c-3.1,6.9-6,14-8.5,21.4a296.77,296.77,0,0,0-16.1,97.3c0,10.8.6,21.5,1.6,31.9h0a6.75,6.75,0,0,0,.2,1.4A286.49,286.49,0,0,0,408,659.7c.7,1.7,1.3,3.3,2,4.9,3.1,7.3,6.5,14.3,10.1,21,2.6,4.9,5.4,9.7,8.3,14.3C428.63,700,428.73,700.2,428.83,700.3Z" transform="translate(-16.53 -14.3)" style="fill:none;stroke:#f2eada;stroke-miterlimit:10;stroke-width:5px"/><path d="M375.53,684.2a84.44,84.44,0,0,1-17.4-11.4,275.66,275.66,0,0,1-11.7-33.5,308.32,308.32,0,0,1-8.1-39.6,315.4,315.4,0,0,1-2.7-40.5q0-13.8,1.2-27a206.38,206.38,0,0,1,17.7-49.2c1.9-3.7,3.9-7.3,6.1-10.8a298.43,298.43,0,0,0-12.7,87,311.87,311.87,0,0,0,4,49.8A282.44,282.44,0,0,0,368,667.3c2,5,4.1,9.9,6.4,14.7h0C374.83,682.8,375.23,683.5,375.53,684.2Z" transform="translate(-16.53 -14.3)" style="fill:none;stroke:#f2eada;stroke-miterlimit:10;stroke-width:5px"/><path d="M510.33,563.5c0,52.1-7.4,101.1-20.4,144-4.1-.3-8-.6-11.9-1,12.8-42.7,20.1-91.4,20.1-143,0-57.1-8.9-110.6-24.4-156.4,2.7-.1,5.4-.2,8.1-.2,1.4,0,2.7,0,4.1.1C501.43,452.8,510.33,506.3,510.33,563.5Z" transform="translate(-16.53 -14.3)" style="fill:none;stroke:#f2eada;stroke-miterlimit:10;stroke-width:5px"/><path d="M560.93,543.5c0,64.7-20,123.1-52.1,165.2-3.9-.2-7.8-.4-11.7-.7,31.9-42,51.6-100.2,51.6-164.5,0-49.9-11.9-96-32.1-133.8,4.5.7,9,1.5,13.5,2.5C549.53,449.5,560.93,494.7,560.93,543.5Z" transform="translate(-16.53 -14.3)" style="fill:none;stroke:#f2eada;stroke-miterlimit:10;stroke-width:5px"/><path d="M614.43,551c0,60.4-17.4,115.4-46,156.7-4.2.4-8.5.7-12.8.9,28.9-41.3,46.6-96.7,46.6-157.6,0-46.4-10.3-89.5-27.9-125.8,5.1,1.9,10.2,4.1,15.2,6.3C605.23,466.4,614.43,507.3,614.43,551Z" transform="translate(-16.53 -14.3)" style="fill:none;stroke:#f2eada;stroke-miterlimit:10;stroke-width:5px"/><path d="M669.93,552.1c0,54.4-14.1,104.5-37.9,144.1-4.7,1.4-9.6,2.7-14.6,3.9,25.1-40.1,40.2-91.7,40.2-148A297,297,0,0,0,644,462.2c5.4,3.8,10.6,7.6,15.7,11.6A301,301,0,0,1,669.93,552.1Z" transform="translate(-16.53 -14.3)" style="fill:none;stroke:#f2eada;stroke-miterlimit:10;stroke-width:5px"/><path d="M716.83,569.8a298.06,298.06,0,0,1-12.1,84.8,126.42,126.42,0,0,1-17.2,15.1,295.35,295.35,0,0,0,17-99.9,300.13,300.13,0,0,0-5.5-57.6,174.37,174.37,0,0,1,15.7,22.3A293.53,293.53,0,0,1,716.83,569.8Z" transform="translate(-16.53 -14.3)" style="fill:none;stroke:#f2eada;stroke-miterlimit:10;stroke-width:5px"/><path d="M339.33,648" transform="translate(-16.53 -14.3)" style="fill:none;stroke:#f2eada;stroke-miterlimit:10;stroke-width:5px"/><path d="M1028,701.7l-3.9,14.9-8.1,30.8s-2-11.9-3.4-24.5c-1.3-12-2-24.7.2-28.9a17.91,17.91,0,0,1,2.4-3.8c4.2-4.9,7.7-.7,10,4A43.08,43.08,0,0,1,1028,701.7Z" transform="translate(-16.53 -14.3)" style="fill:#8e8e8e"/><path d="M1079.63,684c0,12.5-3.6,23.8-9.3,32-5.3,7.5-12.5,12.3-20.4,12.8h-1.2c-4.4,0-9.4-1.6-14.2-4.2a48.69,48.69,0,0,1-10.3-7.9,41.51,41.51,0,0,1-6.4-8.7c-2.9-5.5-4.1-11.6-2.5-17.7a22.47,22.47,0,0,1,2.5-6.1c13.5-23.9,14.2-38.6,23.2-43.2a16.26,16.26,0,0,1,7.7-1.6c11.2,0,21,8.6,26.5,21.5a48.75,48.75,0,0,1,2.6,7.9,63.76,63.76,0,0,1,1.9,14.8C1079.63,683.6,1079.63,683.8,1079.63,684Z" transform="translate(-16.53 -14.3)" style="fill:#7a7a7a"/><path d="M1151.63,835.1c-.9,13.4-4.4,23-12.3,25-.5.1-1.1.2-1.7.3a17,17,0,0,1-5.4-.3h0c-9.1-1.9-12.7,1.2-21.3,2.9a84.84,84.84,0,0,0-11.2,3.4c-2.4.8-4.8,1.8-7.2,2.8h0c-1.6.6-3.1,1.3-4.5,1.9a61,61,0,0,0-7.4,3.8,2.09,2.09,0,0,0-.6.4c-6.7,4-12,3.7-16.7.6a30.93,30.93,0,0,1-7-7c-5.1-6.9-9.3-16.6-13.7-25-1.2-2.2-2.4-4.4-3.6-6.4-9-14.8-23.8-38-27.7-58.1-4-20.6-3.1-39.9,1.2-56.5a98.06,98.06,0,0,1,5.2-15,85,85,0,0,1,7.5-13.7,68.08,68.08,0,0,1,13.8-15.3,48.65,48.65,0,0,1,11.6-7.2,46.91,46.91,0,0,1,10.4-3.4h.2c.5-.1,1-.2,1.6-.3a38.5,38.5,0,0,1,15.1.7c13.7,3.2,27,13.1,38.3,27.8,1.9,2.5,3.7,5.1,5.5,7.8a150.41,150.41,0,0,1,17.4,38.4c1.7,5.7,3.2,11.6,4.4,17.6,3.9,20.3,8.2,44.9,8.5,64.7h0C1151.93,828.6,1151.83,831.9,1151.63,835.1Z" transform="translate(-16.53 -14.3)" style="fill:#8e8e8e"/><polygon points="1070.1 879.7 1068.6 880.2 1048.7 886.5 1029.7 892.5 1026.8 889.9 1026.1 872.7 1026.1 810 1006.3 765 1029.7 765 1055.9 839.5 1059.1 848.5 1063.4 860.9 1063.5 860.9 1070.1 879.7" style="fill:#8e8e8e"/><path d="M1087.63,855.4c-.7.2-1.5.5-2.3.8a39.36,39.36,0,0,0-9.7,6.6,125.14,125.14,0,0,0-12.3,13h0a4.44,4.44,0,0,0-.8,1.1,5.72,5.72,0,0,1-.7.8c-5.1,6.5-12.1,16.6-18.3,26.2-.1.1-.1.2-.2.3l-.7-17.2a226.45,226.45,0,0,1,13.7-18.1c6.7-7.8,12-12.5,16.1-15.1,6.8-4.4,10.3-3.4,11.3-2.8l.4.2A20.56,20.56,0,0,1,1087.63,855.4Z" transform="translate(-16.53 -14.3)" style="fill:#8e8e8e;opacity:0.20000000298023224;isolation:isolate"/><polygon points="1170 909.5 1149.8 915.9 1135.8 920.3 1129.7 922.3 1122.5 883.2 1118.7 862.5 1115.7 845.7 1106.3 794.8 1129.7 794.8 1135.3 810.7 1135.3 810.7 1138.2 818.8 1140.7 825.9 1155 866.8 1170 909.5" style="fill:#8e8e8e"/><path d="M1191.73,950.6v.3c-.3,37.9-5.8,72.6-14,82.5a20.15,20.15,0,0,1-7,5.6.1.1,0,0,0-.1.1,15.42,15.42,0,0,1-12,.2c-15.6-12.7-29-49.3-23.2-110.9,1.1-11.7,2.3-22,3.7-31l-3.8-20.7c1.3-6.2,2.6-11.6,3.9-16.1,0-.2.1-.3.2-.5,4.4-15.1,8.9-22,12.3-25a13.17,13.17,0,0,1,3.1-2l2.5,7.1c4-4.3,6.8-3.5,6.8-3.5a1.85,1.85,0,0,0,.7.2c18.6,15.3,26.4,60.7,27,104.3v.2C1191.73,944.5,1191.73,947.6,1191.73,950.6Z" transform="translate(-16.53 -14.3)" style="fill:#8e8e8e;opacity:0.20000000298023224;isolation:isolate"/><path d="M1087.23,918.3c-7.5,28-21,58.9-34.6,83-.7,1.2-1.3,2.3-2,3.5-11.3,19.5-22.6,34-30.3,37.8a23.58,23.58,0,0,1-4.6,1.7c-.2-2.9.7-4.4,2.3-7.3l-3.3,2.2a4.65,4.65,0,0,1-7.5-.7c-10.1-17-9.3-55.5,22.1-110.8,5-8.8,9.6-16.5,13.9-23.3.1-.1.1-.2.2-.3.6-.9,1.2-1.9,1.8-2.8a282,282,0,0,1,16.6-23.4,2.7,2.7,0,0,1,.7-.8,7.63,7.63,0,0,0,.8-1.1h0a107.21,107.21,0,0,1,12.3-13,36,36,0,0,1,9.7-6.6,9.05,9.05,0,0,1,2.3-.8c2.5,3.8,4,8.4,4.9,13.8h0C1094.63,882.3,1092.23,899.6,1087.23,918.3Z" transform="translate(-16.53 -14.3)" style="fill:#8e8e8e"/><path d="M1034.73,1043.2a25.71,25.71,0,0,1-5.4,3.8,21.7,21.7,0,0,1-6.9,2.1,6.06,6.06,0,0,1-6.6-4.4c0-.2-.1-.4-.1-.6a23.58,23.58,0,0,0,4.6-1.7c7.7-3.8,19-18.2,30.3-37.8.7-1.1,1.3-2.3,2-3.5,13.6-24.1,27.1-55.1,34.6-83,5-18.7,7.3-36,5.2-49.1h0c-.9-5.4-2.4-10-4.9-13.8,3.9-1.1,5.5.3,5.5.3a24.73,24.73,0,0,1,6.5,10.6h0C1114.43,908.9,1062,1018.9,1034.73,1043.2Z" transform="translate(-16.53 -14.3)" style="fill:#8e8e8e"/><path d="M1184.53,1037.4a18.92,18.92,0,0,1-9.9,6.6,3,3,0,0,1-3.6-2.5,19.42,19.42,0,0,1-.2-2.4v-.9c0,.3-.1.7-.1,1a12,12,0,0,1-.4,2.3,3,3,0,0,1-3.8,2.2c-.6-.2-1.1-.4-1.7-.6a24.89,24.89,0,0,1-6.1-3.7c-15.6-12.7-29-49.3-23.2-110.9,1.1-11.7,2.3-22,3.7-31a274.57,274.57,0,0,1,7.4-35.1c3.8-12.4,7.6-18.8,10.7-22.2,4-4.3,6.8-3.5,6.8-3.5a1.85,1.85,0,0,0,.7.2C1208.23,853.7,1203.73,1014.2,1184.53,1037.4Z" transform="translate(-16.53 -14.3)" style="fill:#8e8e8e"/><path d="M1082.13,890.4s-9.9-8.5-40.8,46-17.4,85.1,0,76.5S1104,911,1082.13,890.4Z" transform="translate(-16.53 -14.3)" style="fill:#afaeae"/><path d="M1171.93,881.1s-12.3-4.1-20.2,58,16.3,85.3,29.2,70.8S1199.93,891.8,1171.93,881.1Z" transform="translate(-16.53 -14.3)" style="fill:#afaeae"/><circle cx="1088.2" cy="806.2" r="16.2" style="fill:#afaeae"/><path d="M1051.43,667.5s-12.3,45.4,7.5,93.2c0,0,23-32.9,3.5-93.2Z" transform="translate(-16.53 -14.3)" style="fill:#7a7a7a"/><path d="M1170.93,1032.5c0,2.2-.1,4.1-.2,5.6C1170.73,1035.1,1170.93,1032.5,1170.93,1032.5Z" transform="translate(-16.53 -14.3)" style="fill:#7a7a7a"/><path d="M1139.93,747.3l-69.6-70.3,45.7,19.4c1.9,2.5,3.7,5.1,5.5,7.8a150.41,150.41,0,0,1,17.4,38.4Z" transform="translate(-16.53 -14.3)" style="fill:#271768;opacity:0.05000000074505806;isolation:isolate"/><path d="M1060.43,667.7s32.5,34.1,83.6,41.9c0,0-16.2-36.7-77.9-51.3Z" transform="translate(-16.53 -14.3)" style="fill:#7a7a7a"/><path d="M530.13,30.7s37.9,106.7,9,167.4c-42.1,88.2-33.8,94.2-28,130.3s100.3,26.9,158.3,47.4c149.3,52.9,322.7-67.5,322.7-67.5V35Z" transform="translate(-16.53 -14.3)" style="fill:#c5a2dd;opacity:0.10000000149011612;isolation:isolate"/><path d="M284.73,583l-10.1,56C277.93,612,281.53,591.9,284.73,583Z" transform="translate(-16.53 -14.3)" style="fill:#271768;opacity:0.10000000149011612;isolation:isolate"/><path d="M513.63,705.8h0v0Z" transform="translate(-16.53 -14.3)" style="fill:#271768;opacity:0.20000000298023224;isolation:isolate"/><path d="M548.73,712c0,.2-58.9-2.1-71.3-2.8-141.7-7.7-145.3-69.9-145.8-73.2-1.4-8.4-4.4-30.7-4.4-40.4,0-19.9,1.8-42,6.6-62.8,3.9-17.1,13.9-41.9,21.8-57.3l3-21.9h-88.7V425.8l32.3-45.2H365a234.66,234.66,0,0,1,3-47.4c2.7-16.3,5.6-33.8,6-35.4h0a38.62,38.62,0,0,1,4.9-11.6h0a38.44,38.44,0,0,1,32.6-17.9,42.91,42.91,0,0,0,19.3-4.6,8.26,8.26,0,0,0,1.3-.7c.9-.5,1.8-1,2.7-1.6s1.7-1.2,2.6-1.8a36.33,36.33,0,0,0,4.7-4.1,42.65,42.65,0,0,0,4.8-5.7h0c.7-1,1.3-2,1.9-3,2.6-4.3,5.5-8.7,7.2-13.6a83.81,83.81,0,0,0-.8-17c0-.3-.1-.5-.1-.7-.2-.9-.3-1.4-.3-1.4-1-.6-2.1-1.2-3.1-1.8-21.1-13-39.1-32.1-44.8-58.3-4.8-22-8.8-37.2-10.2-49.6a36.32,36.32,0,0,1-19.9-8.6,84.82,84.82,0,0,0,5.3,15.7,61.65,61.65,0,0,1-10.3-20.8,30.18,30.18,0,0,1-3.7-5.6,34.38,34.38,0,0,0-2.5,11c-.5,8.1-.9-20-.9-20a39.72,39.72,0,0,1-1-8.6,37.16,37.16,0,0,1,27.1-35.7l-2.3-.6c-7.2-2.3-22,10.1-22.8,10.8.6-.8,13.4-16.8,30.5-14.8A52.86,52.86,0,0,1,421,36.4a24.26,24.26,0,0,1,2,1.4,21.91,21.91,0,0,0-3.1-4.8,6.47,6.47,0,0,0-.8-.9,6,6,0,0,0-.8-.8,15.38,15.38,0,0,0-1.3-1.2,10.63,10.63,0,0,0-1.1-.9,7.63,7.63,0,0,0-1.1-.8,5.55,5.55,0,0,1-.8-.6l-.1-.1a9.13,9.13,0,0,0-1.3-.8l-.6-.3-.6-.3-1.2-.6-1.2-.6-1.2-.6c-.4-.2-.8-.3-1.2-.5s-.8-.3-1.2-.5c-.1,0-.2-.1-.3-.1-.4-.1-.8-.3-1.1-.4s-.8-.3-1.2-.4c-.1,0-.1,0-.2-.1s-.4-.1-.6-.2-.4-.1-.5-.2l-.9-.3h-.2a.9.9,0,0,0-.5-.1c-.2,0-.3-.1-.5-.1h-.1c-.2-.1-.5-.1-.7-.2a2.92,2.92,0,0,0-.9-.2c-.3-.1-.6-.1-.9-.2-.1,0-.3-.1-.4-.1-.7-.1-1.2-.2-1.7-.3-.2,0-.4-.1-.6-.1s-.4-.1-.6-.1h-.3l3.6.3h.5a28.68,28.68,0,0,1,3.1.5c.4.1.7.1,1.1.2a16,16,0,0,1,2.1.5c.6.2,1.3.3,1.9.5a40.32,40.32,0,0,1,6.2,2.3c.4.2.9.4,1.3.6a25.83,25.83,0,0,1,3.7,2.2c.2.1.3.2.5.3,1.3,1,2.5,2,3.5,2.9l.4.4a17.38,17.38,0,0,1,1.3,1.5l1.2,1.5a28,28,0,0,1,2.4,4.1,6.89,6.89,0,0,1,.4,1,1.42,1.42,0,0,1,.2.6c0,.1,0,.1.1.2s.1.2.1.3c11.9-11.2,30.4-23.5,54.4-24-.9,2.4-1.8,4.8-2.8,7.2-1,2.6-2.1,5.3-3.1,7.9-6.9,17.4-14.7,35.2-22.1,48-20.3,35.5,19.8,114.5,30.2,134.1a27.1,27.1,0,0,1,2.1,5.7h0a50.56,50.56,0,0,1,1.1,8.3c.4,7.8-.5,17.2-2.4,27.2a188.18,188.18,0,0,1-4.4,18.4c-5.6,19.1-14,37.6-23.3,48.3-8.2,9.3-18.8,31.6-28.4,58.7-4.5,12.8-8.8,26.6-12.6,40.6-.2.6-.3,1.2-.5,1.7-.2.9-.5,1.9-.7,2.8-.5,2.1-1.1,4.3-1.6,6.4h0c-1.7,7.2-3.3,14.3-4.7,21.4-4.2,21.8-6.4,42.4-5.1,58.5.9,11.8,7.7,23.8,17.4,36.5,2.8,3.7,5.9,7.4,9.1,11.1,1.1,1.3,2.2,2.6,3.4,3.9h0c6.4,7.3,29.1,11.5,36.2,19.4,14.1,15.6,12.9,35.8,24.2,54.5a159.53,159.53,0,0,1,9.4,17.8c.3.7.6,1.3.9,2C506.93,666.2,548.73,712,548.73,712Z" transform="translate(-16.53 -14.3)" style="fill:#271768;opacity:0.20000000298023224;isolation:isolate"/><path d="M308,453.7l-23.3,129.2h0l-10.1,56h0l-8.4,46.5-22,122.2-8.7-1.4,17.4-120.6,33.2-231.9Z" transform="translate(-16.53 -14.3)" style="fill:#271768;opacity:0.20000000298023224;isolation:isolate"/><path d="M795.33,427.2a13.7,13.7,0,0,1-.7,2.4c0,.1-.1.2-.1.3a9.13,9.13,0,0,1-.8,1.3c-.1.2-2.1,2-2.2,2.2a36.17,36.17,0,0,1-3.2,2.2c-.2.3-6.2,3.2-6.5,3.6-.2.2-9.5,3.9-9.7,4.1-.4.4-12,3.7-12.5,4.1l-11.5,2.3c-8.4,1.4-16.2,1.5-21.6-.3-7.3-2.4-34.8-5.7-51-13.9-1-.5-2-1.1-3-1.7a55,55,0,0,0-11.5-5.4c-11.8-3.8-18.9.3-24.5,4.5-2.6,2-6.5,9.7-8.8,15.4-28.8-11.4-33.8-59.3-24.8-67.7,9.6-9,86.4,35.4,103.8,46.5S795.33,427.2,795.33,427.2Z" transform="translate(-16.53 -14.3)" style="fill:#271768;opacity:0.05000000074505806;isolation:isolate"/><path d="M323.63,127.6h0c-.4,3-.7,5.9-1,8.7-.1,1.3-.3,2.7-.4,3.9-.5,5.5-.9,10.4-1.1,14.7h-34.2c1.3-1.2,2.2-6.5,2.9-9.5.2-.7.3-1.2.4-1.6a36.3,36.3,0,0,0,1.6-11.3c.1-15.9-6.2-35.4-6.4-36h0l17.1-1.7C305.73,101.8,325.73,111.1,323.63,127.6Z" transform="translate(-16.53 -14.3)" style="fill:#271768;opacity:0.05000000074505806;isolation:isolate"/><path d="M237.53,82.9s-3.3,20.1-19.6,44.8c-.1.2-.2.3-.3.5l-1.8,2.7c-2.7,3.8-5.7,7.8-9,11.8l-34.5-6.2-4-.7.2-.2a14.62,14.62,0,0,0,3.8-5.2,36.57,36.57,0,0,0,2.8-11.6c1.6-15.9-2.8-35.9-2.8-35.9Z" transform="translate(-16.53 -14.3)" style="fill:#271768;opacity:0.05000000074505806;isolation:isolate"/><path d="M223.53,236.4h-26c1.5-1.5,2.6-8.9,3.4-11.1,5.5-15.7-4.5-46.5-4.7-47.3L234,208.9h0c.8,3.8,1.4,6.9,1.7,8.6C236.23,221.3,230.23,229.1,223.53,236.4Z" transform="translate(-16.53 -14.3)" style="fill:#271768;opacity:0.05000000074505806;isolation:isolate"/><path d="M336.43,263h-42.3l6.5-65,30.5,3.1a163.55,163.55,0,0,0-1.1,20.4,99.86,99.86,0,0,0,.8,11.6c.7,5.4,1.6,11.1,2.7,16.6q.6,3,1.2,5.7C335.33,258.1,335.93,260.7,336.43,263Z" transform="translate(-16.53 -14.3)" style="fill:#271768;opacity:0.05000000074505806;isolation:isolate"/><path d="M266.33,374.5H226c1.5-1.5,2.6-8.9,3.4-11.1a16.81,16.81,0,0,0,.9-3.2,42.23,42.23,0,0,0,.8-8.2c.1-15.9-6.2-35.3-6.4-35.9h0l37.1-3.7a350.14,350.14,0,0,1,4.8,37.9c.1,1.5.2,2.9.2,4.4,0,.8.1,1.7.1,2.5A138,138,0,0,1,266.33,374.5Z" transform="translate(-16.53 -14.3)" style="fill:#271768;opacity:0.05000000074505806;isolation:isolate"/><path d="M1086.63,894c-.2.7-.4,1.4-.6,2.2-4.5,16.2-19.5,65.7-34.7,106.9-.2.5-.4,1-.6,1.6-5.4,14.5-10.9,28-15.9,38.4a25.71,25.71,0,0,1-5.4,3.8,21.7,21.7,0,0,1-6.9,2.1,6.06,6.06,0,0,1-6.6-4.4c0-.2-.1-.4-.1-.6-.2-2.9.7-4.4,2.3-7.3l-3.3,2.2a4.65,4.65,0,0,1-7.5-.7c-10.1-17-9.3-55.5,22.1-110.8,5-8.8,9.6-16.5,13.9-23.3l-.7-17.2V843.7c-1.2-2.2-2.4-4.4-3.6-6.4-9-14.8-23.8-38-27.7-58.1-4-20.6-3.1-39.9,1.2-56.5-1.3-12-2-24.7.2-28.9a17.91,17.91,0,0,1,2.4-3.8,22.47,22.47,0,0,1,2.5-6.1c13.5-23.9,14.2-38.6,23.2-43.2l7.7-1.6s-5.3,19-9.6,39.6c-3.7,17.8-6.6,36.8-4.6,45.7,4.4,19.1-18,70.1,26,95.1,8.6,4.9,19.9,20.3,23.3,31.3.5,1.7,1.1,3.5,1.5,5.3a96,96,0,0,1,2.7,14.8A61,61,0,0,1,1086.63,894Z" transform="translate(-16.53 -14.3)" style="fill:#271768;opacity:0.05000000074505806;isolation:isolate"/><path d="M1167.23,1012.7a276.58,276.58,0,0,1-2.1,27.7c-.1.9-.3,1.8-.4,2.7a24.89,24.89,0,0,1-6.1-3.7c-15.6-12.7-29-49.3-23.2-110.9,1.1-11.7,2.3-22,3.7-31l-3.8-20.7-3.1-16.7c.2,0,2.3,0,5.4.3.5.1,1,.1,1.5.2a41.52,41.52,0,0,1,7.4,1.8c8.6,3,18,9.6,18.3,24.4h0c.2,7.7.9,23.9,1.6,43.4C1167.33,955.9,1168,987.3,1167.23,1012.7Z" transform="translate(-16.53 -14.3)" style="fill:#271768;opacity:0.05000000074505806;isolation:isolate"/><polygon points="1003 376.5 855.8 411.6 855.8 439.4 998 439.4 1057.2 376.5 1003 376.5" style="fill:#271768;opacity:0.10000000149011612;isolation:isolate"/><polygon points="1068.2 303.3 1068.2 314.1 1065.5 314.1 1065.3 316.1 994.9 316.1 994.6 314.1 991.8 314.1 991.8 303.3 1068.2 303.3" style="fill:#bf8258"/><path d="M1082,328.4l-.3,2-.7,5.7-7.3,54.8-7.5,2.2a70.21,70.21,0,0,1-18.8,2.9,67.11,67.11,0,0,1-20.4-2.9l-7.5-2.2-7.3-54.8-.8-5.7-.3-2Z" transform="translate(-16.53 -14.3)" style="fill:#b57c50"/><rect x="991.7" y="301.3" width="76.5" height="12.8" style="fill:#bf8258"/><polygon points="1065.5 314.1 1065.3 316.1 1064.5 321.7 995.6 321.7 994.9 316.1 994.6 314.1 1065.5 314.1" style="fill:#bf8258;opacity:0.30000001192092896;isolation:isolate"/><path d="M1047.43,328.4V396a67.11,67.11,0,0,1-20.4-2.9l-7.5-2.2-7.3-54.8-.8-5.7-.3-2Z" transform="translate(-16.53 -14.3)" style="fill:#271768;opacity:0.10000000149011612;isolation:isolate"/></svg>