<?xml version="1.0" encoding="utf-8"?>
<!-- Generator: Adobe Illustrator 24.1.0, SVG Export Plug-In . SVG Version: 6.00 Build 0)  -->
<svg version="1.1" id="Layer_1" xmlns="http://www.w3.org/2000/svg" xmlns:xlink="http://www.w3.org/1999/xlink" x="0px" y="0px"
	 viewBox="0 0 1680.2 1246.8" style="enable-background:new 0 0 1680.2 1246.8;" xml:space="preserve">
<style type="text/css">
	.st0{fill:url(#SVGID_1_);}
	.st1{fill:#F2F2B1;}
	.st2{opacity:0.4;fill:#F2F2B1;enable-background:new    ;}
	.st3{fill:#BABABA;}
	.st4{fill:#C1B69D;}
	.st5{fill:none;}
	.st6{fill:#E0E0E0;}
	.st7{fill:#969696;}
	.st8{fill:#FFFAE9;}
	.st9{stroke:#000000;stroke-miterlimit:10;}
	.st10{fill:none;stroke:#000000;stroke-miterlimit:10;}
	.st11{fill:#F4E6D0;}
	.st12{opacity:0.3;fill:#D8AFA9;enable-background:new    ;}
	.st13{fill:#E0D9CD;}
	.st14{fill:#CEC8B7;}
	.st15{opacity:0.2;fill:#271768;enable-background:new    ;}
	.st16{fill:#A08D82;}
	.st17{fill:#DDB683;}
	.st18{fill:#FFFFFF;}
	.st19{fill:#F4E6D0;stroke:#000000;stroke-miterlimit:10;}
	.st20{fill:#CECECE;}
	.st21{opacity:5.000000e-02;fill:#271768;enable-background:new    ;}
	.st22{opacity:0.3;fill:#D3D0BA;enable-background:new    ;}
	.st23{opacity:0.4;fill:#F4E6D0;enable-background:new    ;}
	.st24{opacity:0.3;fill:#666461;enable-background:new    ;}
	.st25{fill:#BCC9B9;}
	.st26{opacity:0.3;fill:#96AF90;enable-background:new    ;}
	.st27{opacity:0.3;fill:#BCC9B9;enable-background:new    ;}
	.st28{fill:#A8A8A8;}
	.st29{fill:#96AF90;}
	.st30{fill:#BFBFBF;}
	.st31{fill:#BCBCBC;}
	.st32{fill:none;stroke:#F2EADA;stroke-width:5;stroke-miterlimit:10;}
	.st33{fill:#8E8E8E;}
	.st34{fill:#7A7A7A;}
	.st35{opacity:0.2;fill:#8E8E8E;enable-background:new    ;}
	.st36{fill:#AFAEAE;}
	.st37{opacity:0.1;fill:#271768;enable-background:new    ;}
	.st38{opacity:0.1;enable-background:new    ;}
	.st39{fill:#BF8258;}
	.st40{fill:#B57C50;}
	.st41{opacity:0.3;fill:#BF8258;enable-background:new    ;}
</style>
<linearGradient id="SVGID_1_" gradientUnits="userSpaceOnUse" x1="819.1339" y1="1024.3857" x2="819.1339" y2="-377.1248">
	<stop  offset="0" style="stop-color:#FFFFFF"/>
	<stop  offset="1" style="stop-color:#000000"/>
</linearGradient>
<polygon class="st0" points="1550.4,1168.1 87.9,1168.1 390.9,790.4 1273.4,790.4 "/>
<g>
	<g>
		<g>
			<g>
				<path class="st1" d="M493.5,376.5c0.6,2.4,1.2,4.8,2,5.5h-70.1l12.1-9.9l0.9-0.8l0,0L462,352l34.8-28.5
					c-0.2,0.7-8.4,25.9-5.9,42.3c0.3,1.8,0.7,3.5,1.2,5C492.5,372,493,374.3,493.5,376.5z"/>
			</g>
			<polygon class="st1" points="497,323.6 497,323.6 462.1,352.1 438.5,371.4 438.5,371.4 437.5,372.1 425.5,382 432,317.1 
				462.5,320.1 			"/>
		</g>
		<polygon class="st1" points="488.4,274 488.4,274 476.5,264.3 467.5,257 455,246.7 455,246.6 416.9,215.6 416.9,215.5 
			451.5,212.1 481.9,209 		"/>
		<path class="st1" d="M488.4,274L488.4,274h-70.1c1.3-1.2,2.2-6.5,2.9-9.5c0.2-0.7,0.3-1.2,0.4-1.6c1.1-3.3,1.6-7.2,1.6-11.3
			c0.1-15.9-6.2-35.4-6.4-36l38.1,31.1l12.7,10.4l8.9,7.3L488.4,274z"/>
		<path class="st2" d="M467.5,257l-14.1,2.2l-32.4,5.2c0.2-0.7,0.3-1.2,0.4-1.6c1.1-3.3,1.6-7.2,1.6-11.3l30.7,3.8L467.5,257z"/>
		<polygon class="st1" points="368.9,201.9 368.9,267.2 348.1,246.5 303.5,201.9 		"/>
		<path class="st1" d="M368.9,267.2l-30.8-5.5l-34.5-6.2l-4-0.7c0.1-0.1,0.1-0.1,0.2-0.2c1.6-1.3,2.8-3.1,3.8-5.2
			c1.5-3.3,2.4-7.3,2.8-11.6c1.6-15.9-2.8-35.9-2.8-35.9l44.6,44.6L368.9,267.2z"/>
		<polygon class="st1" points="392.5,290.4 399,355.4 327.5,296.9 		"/>
		<path class="st1" d="M399,355.4h-70.1c1.5-1.5,2.6-8.9,3.4-11.1c5.5-15.7-4.5-46.5-4.7-47.3l37.8,30.9l0,0L399,355.4z"/>
		<polygon class="st1" points="427.5,493.5 427.5,493.5 405.6,475.7 405.6,475.7 403.9,474.2 397.9,469.3 394.5,466.6 356,435.1 
			393,431.4 421,428.6 		"/>
		<path class="st1" d="M356,435.1L356,435.1L356,435.1L356,435.1z"/>
		<path class="st1" d="M427.5,493.5L427.5,493.5h-70.1c1.5-1.5,2.6-8.9,3.4-11.1c0.4-1,0.7-2.1,0.9-3.2c0.5-2.5,0.8-5.3,0.8-8.2
			c0.1-15.9-6.2-35.3-6.4-35.9l38.6,31.5l3.3,2.7l6,4.9l1.8,1.5l0,0L427.5,493.5z"/>
		<path class="st2" d="M414.2,475l-8.6,0.7l0,0l-7.5,0.6l-36.6,2.9c0.5-2.5,0.8-5.3,0.8-8.2l35.7,2.7l5.7,0.4L414.2,475z"/>
		<path class="st2" d="M338.8,336.6c0,0,28.1-8.7,45.7-1.3L338.8,336.6z"/>
		<path class="st2" d="M361.6,248.5l-10.5,1.1L347,250l-47.3,4.7c1.6-1.3,2.8-3.1,3.8-5.2c1.5-3.3,2.4-7.3,2.8-11.6
			c10,2.2,28.7,6.3,41.8,8.7c0.4,0.1,0.7,0.1,1.1,0.2C355.1,247.8,359.9,248.5,361.6,248.5z"/>
		<path class="st2" d="M493.5,376.5l-56-4.4l-3.6-0.3l4.5-0.5l52.5-5.5c0.3,1.8,0.6,3.5,1.2,5C492.5,372,493,374.3,493.5,376.5z"/>
	</g>
	<rect x="863.5" y="460.6" class="st3" width="80.3" height="54.4"/>
	<polygon class="st4" points="1287.3,926.7 1296.1,925.3 1243.6,557.7 1221.6,561.2 	"/>
	<polygon class="st4" points="1202.1,838 1210.8,836.6 1168.7,533.8 1146.8,537.4 	"/>
	<path class="st4" d="M441.5,561.2l-2.1,11.5l-23.3,129.2l0,0l0,0l-10.1,56l0,0l-8.4,46.5l-22,122.2l-8.7-1.4l17.4-120.6l33.2-231.9
		l2.2-15L441.5,561.2z"/>
	<polygon class="st4" points="514,561.2 513.5,563.9 511.9,572.7 503.6,617.6 503.6,617.6 483.4,727.9 477.8,758.3 474.8,774.6 
		469.2,804.6 458.6,861.8 450,860.4 457.8,804.6 465.2,750.9 469.6,718.7 486,602 490,572.7 492,557.7 500,559 	"/>
	<path d="M639.2,809.6c0,0,9.6,22.8,15.5,46.8c5,20.4,12.6,43.4,12.6,43.4h44.3l4.8-44.6l4.8-45.2L639.2,809.6z"/>
	<path class="st5" d="M671,338"/>
	<path class="st5" d="M695.8,393.5c-20-10-25.6-25.4-26.5-37.4"/>
	<path class="st6" d="M677.3,344.5c-0.2,0.3-0.4,0.5-0.6,0.8c-1.4,2-3.6,4.4-7.5,4.7c-0.8,0.1-1.8,0.1-2.8-0.1
		c-0.5-0.1-1-0.1-1.4-0.2c-0.2,0-0.4-0.1-0.5-0.1c-0.2,0-0.4-0.1-0.5-0.1c-0.4-0.1-0.8-0.1-1.1-0.2c-0.2,0-0.4-0.1-0.7-0.1
		c-0.4-0.1-0.8-0.1-1.1-0.1l-0.1,0.3c0.4,1.3,1,2.7,1.6,4c1.8,3.6,4.5,6.9,7.7,10.1l0,0l0,0l0,0c0,0,0.1,0,0.1,0.1
		c1.8,1.8,3.8,3.5,5.8,5.1l0,0l0.1,0.1c0.7,0.5,1.3,1,2,1.5c0.5,0.4,1,0.8,1.6,1.1v-30.8C679,342,678.2,343.3,677.3,344.5z
		 M677.3,344.5c-0.2,0.3-0.4,0.5-0.6,0.8c-1.4,2-3.6,4.4-7.5,4.7c-0.8,0.1-1.8,0.1-2.8-0.1c-0.5-0.1-1-0.1-1.4-0.2
		c-0.2,0-0.4-0.1-0.5-0.1c-0.2,0-0.4-0.1-0.5-0.1c-0.4-0.1-0.8-0.1-1.1-0.2c-0.2,0-0.4-0.1-0.7-0.1c-0.4-0.1-0.8-0.1-1.1-0.1
		l-0.1,0.3c0.4,1.3,1,2.7,1.6,4c1.8,3.6,4.5,6.9,7.7,10.1l0,0l0,0l0,0c0,0,0.1,0,0.1,0.1c1.8,1.8,3.8,3.5,5.8,5.1l0,0l0.1,0.1
		c0.7,0.5,1.3,1,2,1.5c0.5,0.4,1,0.8,1.6,1.1v-30.8C679,342,678.2,343.3,677.3,344.5z M1120.2,133.3H681.8
		c-10.2,0-18.9,6.9-21.5,16.3c0,0.1-0.1,0.3-0.1,0.4c-0.1,0.4-0.2,0.9-0.3,1.3c0,0.1,0,0.2,0,0.2c-0.2,1.3-0.4,2.6-0.4,4v144.2l0,0
		v153.9c0,5.7,2.1,10.9,5.7,14.8l0,0c4.1,4.6,10,7.5,16.7,7.5h438.4c12.3,0,22.3-10,22.3-22.3v-298
		C1142.4,143.3,1132.4,133.3,1120.2,133.3z M1123.3,427.3H680V154h443.3V427.3z M677.3,344.5c-0.2,0.3-0.4,0.5-0.6,0.8
		c-1.4,2-3.6,4.4-7.5,4.7c-0.8,0.1-1.8,0.1-2.8-0.1c-0.5-0.1-1-0.1-1.4-0.2c-0.2,0-0.4-0.1-0.5-0.1c-0.2,0-0.4-0.1-0.5-0.1
		c-0.4-0.1-0.8-0.1-1.1-0.2c-0.2,0-0.4-0.1-0.7-0.1c-0.4-0.1-0.8-0.1-1.1-0.1l-0.1,0.3c0.4,1.3,1,2.7,1.6,4
		c1.8,3.6,4.5,6.9,7.7,10.1l0,0l0,0l0,0c0,0,0.1,0,0.1,0.1c1.8,1.8,3.8,3.5,5.8,5.1l0,0l0.1,0.1c0.7,0.5,1.3,1,2,1.5
		c0.5,0.4,1,0.8,1.6,1.1v-30.8C679,342,678.2,343.3,677.3,344.5z M677.3,344.5c-0.2,0.3-0.4,0.5-0.6,0.8c-1.4,2-3.6,4.4-7.5,4.7
		c-0.8,0.1-1.8,0.1-2.8-0.1c-0.5-0.1-1-0.1-1.4-0.2c-0.2,0-0.4-0.1-0.5-0.1c-0.2,0-0.4-0.1-0.5-0.1c-0.4-0.1-0.8-0.1-1.1-0.2
		c-0.2,0-0.4-0.1-0.7-0.1c-0.4-0.1-0.8-0.1-1.1-0.1l-0.1,0.3c0.4,1.3,1,2.7,1.6,4c1.8,3.6,4.5,6.9,7.7,10.1l0,0l0,0l0,0
		c0,0,0.1,0,0.1,0.1c1.8,1.8,3.8,3.5,5.8,5.1l0,0l0.1,0.1c0.7,0.5,1.3,1,2,1.5c0.5,0.4,1,0.8,1.6,1.1v-30.8
		C679,342,678.2,343.3,677.3,344.5z"/>
	<rect x="680" y="154" class="st7" width="443.3" height="273.3"/>
	<path class="st8" d="M605.7,119L605.7,119z"/>
	<path class="st5" d="M575.8,387.3c-3,4-6.6,7.7-11.2,10.9"/>
	<path class="st9" d="M713.2,249.8c-0.6,1.6-1.7,4.3-3,7.5c6.2-15.5-3.2-14-5.2-13.5c1-0.3,1.8-0.5,2.5-0.7
		C712.5,241.6,715.2,244.6,713.2,249.8z"/>
	<path class="st10" d="M701,273.1c2.1-0.4,5.6-7.3,8.3-13.7c0.3-0.7,0.6-1.5,0.9-2.1"/>
	<path class="st10" d="M705.8,243.5l-1.3,0.4c-3.9,1.1-9.3,2.8-9.3,2.8"/>
	<path class="st5" d="M584.3,370.5c0.2-0.6,0.4-1.3,0.6-1.9c1.6-5.7,2.3-11.2,2.5-16.2c0.4-7.6-0.3-13.9-0.8-17
		c0-0.3-0.1-0.5-0.1-0.7c-0.2-0.9-0.3-1.4-0.3-1.4"/>
	<path class="st11" d="M704.7,291.3c-1.5,3.9-3.2,8.3-5.1,13.1c-5.4,13.7-16.9,32.7-22.8,41c-1.5,2-3.6,4.4-7.5,4.7
		c-0.8,0.1-1.8,0.1-2.8-0.1c-1.9-0.3-4-0.6-5.5-0.8c-0.7-0.1-1.3-0.1-1.7-0.1c-3.1,0.4-3.4,4.9-7.6,4.7
		c-16.1-0.8-38.9-6.2-59.9-17.3c15.9,2.2,45.7,5.1,54.6-1.5c0.1-0.1,0.1-0.1,0.2-0.2c0.2-0.2,0.4-0.3,0.6-0.5c0.3-0.3,0.6-0.6,1-1
		c1.5-1.5,2.7-3.6,3.9-6c7.7-16.2,9.9-47.9,9.9-47.9s-3.1,0-9.3,0s-9.3-15.4-22.9-32.7l12.3-18.5c22.9-4.3,10.6,29.6,26,8
		c13.2-18.4,1.6-66-2-79.6c10.8,13.9,37.7,51.6,33.6,76.8c-2.1,13.2-0.2,22.1,2.1,29.5C705,272.9,709,280,704.7,291.3z"/>
	<polygon class="st4" points="579.3,949.8 570,948 591.3,816.6 609.8,820.3 	"/>
	<path class="st12" d="M704.7,291.3c-1.5,3.9-3.2,8.3-5.1,13.1c-9,1.9-19.2-4.4-23.7-15.2c-5-12-1.3-25,8.4-29
		c5.6-2.3,12.1-1.2,17.4,2.6C705,272.9,709,280,704.7,291.3z"/>
	<path class="st13" d="M818.8,783.6c0,5.5-11.4,14.3-34,22c-4.6,1.6-10.3,4.5-15.5,6c-4.6,1.3-9.8,3.9-14.8,5.1h-2.8
		c-10.2,2.6-20.7,5.8-32,7.9c-5.8,1.1-11.5,1.1-17.5,2c-4.5,0.7-8.9-2.2-13.4-1.6c-14.5,1.7-29,2.7-42.9,2.7c-0.3,0-0.6,0-0.9,0
		h-0.1c-1.6,0-3.2,0-4.7,0c-1.3,0-2.6,0-3.9-0.1c-0.1,0-0.1,0-0.2,0c-2.6-0.1-5.2-0.1-7.8-0.2c-6.7-0.3-13.2-0.7-19.7-1.3
		c-6.2-0.5-12.4-1.2-18.4-2c-5.1-0.7-10.1-1.4-15-2.2c0,0,0,0-0.1,0c-5.3-0.9-10.4-1.8-15.3-2.9c-5-1-9.8-2.2-14.3-3.3
		c-13.2-3.4-24.4-7.1-32.8-10.9c-2.6-1.2-5-2.4-7-3.6l0,0c-6.1-3.6-9.5-7-9.5-10.1c0-1.7,1.1-3.3,3.1-4.6c4.7-3.1,14.6-5.2,28.2-6.6
		c1.9-0.2,3.9-0.4,6-0.6c1.9-0.2,3.8-0.3,5.8-0.5c9.5-0.7,20.2-1.1,31.7-1.4c4-0.1,8-0.2,12.2-0.3c11.5-0.2,23.7-0.3,36.3-0.3
		c0.5,0,1,0,1.4,0c4.1,0,8.1,0,12.3,0h1.3c3.5,0,6.9,0,10.4,0c4.1,0,8.2,0,12.4-0.1c4.1,0,8.2-0.1,12.3-0.1
		c14.9-0.2,30-0.6,44.7-0.9c4.2-0.1,8.3-0.2,12.3-0.3c7.7-0.2,15.2-0.3,22.4-0.3c5.8-0.1,11.4-0.1,16.8-0.1c1.6,0,3.1,0,4.7,0
		c4.3,0,8.3,0.1,12.2,0.3c4.2,0.1,8,0.3,11.6,0.6C809.5,776.9,818.8,779.2,818.8,783.6z"/>
	<path d="M524.8,678.9c0,0-17.4,75.6,3.5,96c33.3,32.5,195.1,35.1,224,26.3S758,679,758,679L524.8,678.9z"/>
	<path class="st11" d="M510.4,405.3c-1.7,3.9-3.3,7.7-4.9,11.6C506.5,412.7,508.1,408.8,510.4,405.3z"/>
	<path d="M734.2,651.9c0,0,104-67.6,119.8-60.7c15.8,6.9,88.4,15.8,22.4,110.4c-38,54.4-124.2,99.6-124.2,99.6L734.2,651.9z"/>
	<path class="st11" d="M670.5,363.5c-0.6,0.3-1.1,0.6-1.7,0.9c-0.4,0.2-0.7,0.4-1.1,0.5l0,0c-0.2,0.1-0.4,0.2-0.6,0.3
		c-0.2,0.1-0.4,0.2-0.6,0.3c-0.2,0.1-0.4,0.2-0.6,0.3c-0.6,0.3-1.2,0.5-1.8,0.8c-0.2,0.1-0.4,0.2-0.6,0.2c-0.6,0.2-1.2,0.5-1.8,0.7
		c-0.4,0.2-0.9,0.3-1.3,0.5c-0.3,0.1-0.5,0.2-0.8,0.3c-0.1,0-0.1,0-0.1,0c-0.3,0.1-0.6,0.2-0.8,0.3c-0.3,0.1-0.5,0.2-0.8,0.3
		c-0.5,0.2-1,0.3-1.4,0.5c-0.6,0.2-1.1,0.3-1.7,0.5l0,0c-0.5,0.2-1.1,0.3-1.7,0.5c-0.2,0.1-0.4,0.1-0.6,0.2
		c-0.3,0.1-0.6,0.2-0.9,0.2c-0.1,0-0.2,0.1-0.2,0.1c-0.5,0.1-1,0.2-1.5,0.4c-0.1,0-0.1,0-0.2,0.1c-0.1,0-0.1,0-0.2,0
		c-0.7,0.2-1.4,0.3-2.2,0.5c-0.2,0-0.3,0.1-0.5,0.1c-0.6,0.1-1.1,0.2-1.7,0.3c-1.5,0.3-3,0.6-4.5,0.8l0,0c-0.2,0-0.4,0.1-0.6,0.1
		c-0.6,0.1-1.1,0.2-1.7,0.2l0,0c-0.7,0.1-1.5,0.2-2.2,0.3l0,0c-0.5,0.1-1,0.1-1.5,0.2c-0.2,0-0.5,0-0.8,0.1c-0.2,0-0.4,0-0.6,0.1
		c-1.8,0.2-3.5,0.3-5.2,0.4s-3.5,0.2-5.2,0.2c-2.5,0-5,0-7.3-0.1c-0.2,0-0.3,0-0.5,0l0,0c-1.6-0.1-3.2-0.1-4.7-0.2s-3.1-0.2-4.5-0.4
		l0,0c-0.8-0.1-1.7-0.2-2.4-0.2c-0.8-0.1-1.7-0.2-2.5-0.3s-1.5-0.2-2.3-0.3c-0.4-0.1-0.7-0.1-1.1-0.2c-0.4-0.1-0.7-0.1-1.1-0.2l0,0
		c-0.7-0.1-1.4-0.2-2.1-0.3c-0.3-0.1-0.7-0.1-1-0.2l0,0l0,0c-0.2,0-0.3-0.1-0.5-0.1c-0.8-0.1-1.6-0.3-2.4-0.4l0,0l0,0
		c-0.1,0-0.3,0-0.4-0.1c-0.8-0.1-1.5-0.3-2.2-0.4c-0.4-0.1-0.8-0.2-1.1-0.2c-0.2,0-0.3-0.1-0.5-0.1l0,0c-0.2,0-0.3-0.1-0.5-0.1
		c-0.3-0.1-0.5-0.1-0.7-0.2c-0.1,0-0.1,0-0.2-0.1l0,0c-0.2,0-0.4-0.1-0.6-0.1s-0.4-0.1-0.5-0.1c-0.4-0.1-0.7-0.2-1.1-0.2
		c-0.1,0-0.2-0.1-0.3-0.1c-0.2,0-0.3-0.1-0.5-0.1c-0.1,0-0.2-0.1-0.3-0.1s-0.2-0.1-0.3-0.1c-0.2,0-0.3-0.1-0.5-0.1
		c-0.1,0-0.2-0.1-0.3-0.1s-0.2-0.1-0.3-0.1s-0.2-0.1-0.3-0.1s-0.2,0-0.2-0.1c-0.1,0-0.1,0-0.2,0c-0.1,0-0.1,0-0.2-0.1
		c-0.2,0-0.3-0.1-0.3-0.1l0,0l0,0l0,0c0.7-1,1.3-2,1.9-3c2.6-4.3,5.5-8.7,7.2-13.6c0.8-2.3,1.3-4.8,1.3-7.4v-13l25.8,0.9l32.6,1.2
		l0,0l12.2,0.4l0,0h0.9v9.4c0,1.7,0.2,3.4,0.7,5l0,0c0,0.1,0.1,0.2,0.1,0.3c0.4,1.3,1,2.7,1.6,4
		C664.5,356.9,667.2,360.3,670.5,363.5L670.5,363.5z"/>
	<g>
		<polygon class="st14" points="1261.8,544.9 1261.8,572.7 401.2,572.7 401.2,544.9 403.4,542.1 1259.8,542.1 		"/>
		<polygon class="st4" points="1261.8,544.9 401.2,544.9 403.4,542.1 433.5,499.7 1229.4,499.7 1259.8,542.1 		"/>
	</g>
	<polygon class="st15" points="511.9,573 511.9,573 503.6,617.9 503.6,617.9 483.4,728.2 477.8,758.5 474.8,774.9 469.2,804.8 
		458.6,862.1 450,860.7 457.8,804.8 465.2,751.2 469.6,719 486,602.2 490,573 490,573 505.4,572.7 	"/>
	<path class="st11" d="M748.2,560.7c0,0,0,36.6,0,61.1c0,7.9,0,14.5,0,18.2v3.3c0-0.3-0.1-0.6-0.1-1
		C748,641.5,748.2,569,748.2,560.7z"/>
	<path class="st16" d="M928.2,533.4c0,0.4,0,0.9,0,1.3c0,0.4,0,0.8-0.1,1.2c-0.1,1.4-0.2,2.7-0.4,3.9c-0.1,0.5-0.1,0.9-0.2,1.4
		c0,0.3-0.1,0.5-0.1,0.8c-0.2,1-0.3,2-0.5,2.8c0,0.2-0.1,0.3-0.1,0.5c-0.1,0.3-0.1,0.5-0.2,0.8c-0.2,0.9-0.4,1.7-0.7,2.4
		c0,0.1-0.1,0.2-0.1,0.3s-0.1,0.2-0.2,0.3c-0.1,0.2-0.2,0.3-0.3,0.5s-0.2,0.4-0.4,0.5c-0.2,0.3-0.5,0.6-0.8,0.9
		c-0.2,0.2-0.4,0.4-0.6,0.6c-0.4,0.4-0.8,0.7-1.3,1.1l-42.8,15.8c-8.4,1.4-16.2,1.5-21.6-0.3c-7.3-2.4-34.8-5.7-51-13.9
		c-1-0.5-2-1.1-3-1.7c-4.3-2.6-8.1-4.3-11.5-5.4c-11.8-3.8-18.9,0.3-24.5,4.5c-2.6,2-5.1,6.2-7.4,11.8c-0.8,1.9-1.6,4-2.3,6.2
		c-0.3,0.9-0.6,1.7-0.8,2.7c-4.5,14.4-7.8,33.4-9.1,49.1c-0.1,0.9-0.1,1.9,0,2.9c0.2,2.9,0.9,6.1,1.7,8.9c0.8,2.9,0.2,6.1-1.7,8.5
		l0,0c-0.1,0.1-0.1,0.2-0.1,0.3l0,0v0.4c0,0.1,0,0.2,0,0.4v0.3c0,0.1,0,0.2,0,0.3c0.3,2.2,0.8,4.4,1.5,6.6
		c5.9,19.1,23.2,39.5,12.4,53.4c-0.5,0.6-1,1.2-1.5,1.7c-1.3,1.3-2.9,2.5-4.8,3.6c-3.6,2.2-8.2,3.9-13.3,5.3l0,0
		c-0.2,0.1-0.5,0.1-0.7,0.2c-3.7,1-7.7,1.8-11.9,2.5c-13.9,2.2-29.8,2.7-42.9,2.3c-4.4-0.1-8.5-0.4-12.1-0.7
		c-2.5-0.2-4.8-0.5-6.8-0.8c-8.4-1.2-17.7-4.7-27-8.2c-4-1.5-8.1-3-12.1-4.3c-9.9-3.3-19.4-5.4-27.4-3.3c-0.5,0.1-1,0.3-1.5,0.4
		c-3.9,1.3-9.3,2.4-15.7,3.3c-5.7,0.8-12,1.4-18.6,1.8c-4,0.2-8.2,0.3-12.2,0.3c-12.6-0.1-24.7-1.3-32.8-4.3c-0.1,0-0.1,0-0.2-0.1
		c-0.1,0-0.1,0-0.2-0.1c-2.9-1.1-5.3-2.4-6.9-4.1c-2.9-2.9-5-7.5-6.4-12.9l0,0c-4.6-17.6-2.8-44.4-2.8-55.6l-0.8-12.9l0,0l-2.5-39.7
		l-0.3-5.2l-0.8-13.7l-0.9-14.1l-0.2-2.8l-2.2-35.8c-0.1-2.2-0.2-4.4-0.3-6.6c-0.6-15.9,0.4-31.8,3-47.4c2.7-16.3,5.6-33.8,6-35.4
		l0,0c1.6-3.8,3.2-7.7,4.9-11.6l0,0c6.8-10.8,18.9-17.9,32.6-17.9c7,0,13.5-1.7,19.3-4.6c0.4-0.2,0.9-0.4,1.3-0.7
		c0.9-0.5,1.8-1,2.7-1.6s1.7-1.2,2.6-1.8c1.7-1.2,3.2-2.6,4.7-4.1c1.8-1.8,3.4-3.7,4.8-5.7l0,0l0,0l0,0l0,0c0.1,0,0.2,0.1,0.3,0.1
		c0,0,0.1,0,0.2,0.1c0.1,0,0.1,0,0.2,0c0.1,0,0.2,0,0.2,0.1c0.1,0,0.2,0.1,0.2,0.1c0.1,0,0.2,0.1,0.3,0.1s0.2,0.1,0.3,0.1
		c0.2,0.1,0.5,0.1,0.8,0.2c0.4,0.1,0.8,0.2,1.2,0.3c0.3,0.1,0.7,0.2,1.1,0.2c0.2,0,0.4,0.1,0.5,0.1c0.2,0,0.4,0.1,0.6,0.1
		c0.1,0,0.2,0,0.2,0.1c0.2,0,0.5,0.1,0.7,0.2c0.2,0,0.3,0.1,0.5,0.1s0.3,0.1,0.5,0.1c0.4,0.1,0.7,0.2,1.1,0.2
		c0.7,0.1,1.4,0.3,2.2,0.4c0.1,0,0.2,0.1,0.4,0.1l0,0l0,0c0.8,0.1,1.6,0.3,2.4,0.4c0.2,0,0.3,0.1,0.5,0.1l0,0l0,0
		c0.3,0.1,0.7,0.1,1,0.2c0.7,0.1,1.4,0.2,2.1,0.3l0,0c0.4,0.1,0.7,0.1,1.1,0.2c0.4,0,0.7,0.1,1.1,0.2c0.7,0.1,1.5,0.2,2.3,0.3
		s1.6,0.2,2.5,0.3c0.8,0.1,1.6,0.2,2.4,0.2l0,0c1.5,0.1,3,0.3,4.5,0.4c1.6,0.1,3.1,0.2,4.7,0.2l0,0c0.2,0,0.3,0,0.5,0
		c2.4,0.1,4.8,0.1,7.4,0.1c1.7,0,3.4-0.1,5.1-0.2c1.7-0.1,3.5-0.2,5.2-0.4c0.2,0,0.4,0,0.6-0.1c0.3,0,0.5-0.1,0.8-0.1
		c0.5-0.1,1-0.1,1.5-0.2l0,0c0.7-0.1,1.5-0.2,2.2-0.3l0,0c0.6-0.1,1.1-0.2,1.7-0.2c0.2,0,0.4-0.1,0.6-0.1l0,0c1.5-0.2,3-0.5,4.5-0.8
		l0,0c0.5-0.1,1.1-0.2,1.6-0.3l0,0c0.2,0,0.3-0.1,0.5-0.1c0.7-0.2,1.4-0.3,2.2-0.5c0.1,0,0.3-0.1,0.4-0.1c0.5-0.1,1-0.2,1.5-0.4
		c0.1,0,0.2,0,0.2-0.1c0.3-0.1,0.6-0.2,0.9-0.2c0.2,0,0.4-0.1,0.6-0.2c0.3-0.1,0.6-0.2,0.8-0.2c0.3-0.1,0.6-0.2,0.8-0.2l0,0
		c0.3-0.1,0.6-0.2,0.8-0.2s0.3-0.1,0.4-0.1c0.1,0,0.3-0.1,0.4-0.1c0.5-0.2,1-0.3,1.5-0.5c0.3-0.1,0.5-0.2,0.8-0.3s0.6-0.2,0.8-0.3
		l0,0h0.1c0.3-0.1,0.5-0.2,0.8-0.3c0.2-0.1,0.5-0.2,0.7-0.2c0.2-0.1,0.4-0.2,0.7-0.3c0.2-0.1,0.4-0.2,0.7-0.3
		c0.4-0.2,0.7-0.3,1.1-0.4c0.2-0.1,0.4-0.2,0.6-0.2c0.2-0.1,0.4-0.2,0.6-0.3c0.6-0.2,1.2-0.5,1.7-0.8c0.4-0.2,0.8-0.4,1.2-0.6
		c0.9-0.5,1.9-0.9,2.8-1.4l0,0l0,0l0,0c2.9,2.8,6.2,5.4,9.6,7.8c0.6,0.5,1.2,0.9,1.9,1.3c1.1,0.8,2.3,1.5,3.4,2.2
		c12.2,7.7,24.4,12.4,24.4,12.4c7.7,0,15,2.3,21,6.2c13.8,5.4,33.8,15.3,61.2,33.7l0,0c5.7,3.8,11.7,8,18.1,12.6
		c21.8,15.7,39.3,27.1,53.6,35.8c0.2,0.1,0.4,0.3,0.7,0.4c17.8,10.7,30.3,17,39.2,21.4c0.3,0.1,0.6,0.3,0.8,0.4
		c1.4,0.7,2.7,1.3,3.9,1.9c0.9,0.4,1.7,0.9,2.5,1.3c0.3,0.1,0.5,0.3,0.8,0.4s0.5,0.3,0.8,0.4c2.6,1.4,4.7,2.6,6.5,3.9
		c0.2,0.1,0.3,0.2,0.4,0.3s0.2,0.1,0.2,0.2c0.7,0.5,1.2,1,1.8,1.6c0.4,0.4,0.7,0.8,1.1,1.2c0.2,0.2,0.3,0.4,0.5,0.6s0.4,0.5,0.5,0.7
		c0.2,0.2,0.3,0.5,0.5,0.7c0.8,1.2,1.4,2.6,1.9,4c0.2,0.6,0.5,1.3,0.7,1.9c0.1,0.3,0.2,0.7,0.3,1s0.2,0.5,0.2,0.8
		c0,0.2,0.1,0.3,0.1,0.5c0.1,0.5,0.2,1.1,0.4,1.6c0,0.1,0,0.1,0,0.2c0.1,0.3,0.1,0.7,0.2,1.1c0.1,0.3,0.1,0.7,0.2,1.1
		c0,0.1,0,0.1,0,0.2c0.1,0.4,0.1,0.8,0.2,1.2c0,0,0,0,0,0.1c0,0.2,0,0.3,0.1,0.5c0,0.3,0.1,0.6,0.1,0.8c0.1,0.6,0.1,1.1,0.1,1.7
		c0,0.3,0,0.7,0.1,1C928.2,530.1,928.3,531.8,928.2,533.4z"/>
	<polygon points="658,244.6 656.3,242.6 713.2,249.8 711.2,254.9 	"/>
	<path class="st17" d="M922.3,552.9c-7.9,6.1-26.5,13.2-42.8,15.8L922.3,552.9z"/>
	<path class="st18" d="M692,197.7c0,15.7-3,33.1-6.7,48.6c-0.3,1.1-0.5,2.3-0.8,3.4c-1,3.9-2,7.7-3,11.2c-0.1,0.4-0.2,0.7-0.3,1.1
		c-0.3,1.1-0.6,2.1-0.9,3.2c-0.8,2.8-1.7,5.5-2.5,8l0,0c-1.6,5.4,2.2,36.7,2.2,36.7s-11-36.5-6.8-62.4c0-1-0.1-1.9-0.1-2.8
		c-0.4-8.4-1.8-13.2-4.8-8.6c-2.4,3.6-4.2,5.9-5.6,7.3c-0.9,0.9-1.7,1.4-2.4,1.6l0,0c-0.2,0.1-0.4,0.1-0.6,0.1
		c-0.5,0-0.9-0.2-1.4-0.5c-0.6-0.4-1.1-1.1-1.7-2c-1.5-2.2-3.2-5.3-6.9-6.5c-12.1-4-12.3,9.3-9.3,18.5c2.5,7.6,5.1,19.5,9.4,23.4
		c0.9,0.8,1.9,1.3,3,1.3h6.8c1.6,0,2.4,0,2.4,0s0,0.1,0,0.4c0,0.1,0,0.2,0,0.4c0,0.2,0,0.5-0.1,0.8c0,0.3-0.1,0.6-0.1,1
		s-0.1,0.9-0.1,1.5c0,0.2,0,0.4-0.1,0.6c0,0.4-0.1,0.7-0.1,1.1c0,0.1,0,0.3,0,0.4c0,0.2,0,0.3-0.1,0.5c0,0.2,0,0.3-0.1,0.5
		c-0.1,1.1-0.3,2.3-0.4,3.5c-0.1,0.6-0.2,1.2-0.2,1.9c0,0.2,0,0.3-0.1,0.5c-0.1,0.4-0.1,0.8-0.2,1.2c-0.1,0.6-0.2,1.2-0.2,1.8
		c-0.1,0.6-0.2,1.2-0.3,1.8c0,0.3-0.1,0.6-0.1,0.9c-0.1,0.5-0.2,1.1-0.3,1.6l0,0c-0.1,0.7-0.2,1.5-0.4,2.2c-0.1,0.3-0.1,0.7-0.2,1
		c-0.2,1-0.4,2-0.6,3c0,0,0,0,0,0.1c-0.2,1-0.4,2-0.6,2.9c-0.1,0.3-0.1,0.7-0.2,1c-0.2,0.8-0.4,1.6-0.6,2.4c0,0.2-0.1,0.4-0.1,0.6
		c-0.1,0.5-0.3,1-0.4,1.5v0.1v0.1c-0.2,0.8-0.4,1.5-0.6,2.2l0,0c-0.8,2.9-1.7,5.6-2.7,8c-0.2,0.5-0.4,1-0.7,1.5
		c-0.1,0.3-0.2,0.5-0.4,0.8s-0.3,0.7-0.5,1c-0.3,0.5-0.6,1.1-0.9,1.6c-0.3,0.5-0.6,1-1,1.5c-0.2,0.2-0.3,0.5-0.5,0.7
		c-0.5,0.6-0.9,1.2-1.4,1.7c-0.1,0.1-0.1,0.1-0.2,0.2c-0.1,0.1-0.2,0.3-0.4,0.4c-0.2,0.2-0.4,0.3-0.6,0.5c-0.1,0.1-0.1,0.1-0.2,0.2
		c-4.1,3.1-12.7,4.1-22.3,4.1c-0.8,0-1.6,0-2.4,0c-0.6,0-1.2,0-1.8,0c-0.2,0-0.5,0-0.7,0c-0.8,0-1.7-0.1-2.5-0.1c0,0,0,0-0.1,0
		c-1,0-2-0.1-3-0.2c-0.1,0-0.2,0-0.2,0c-1.1-0.1-2.2-0.2-3.2-0.2c-2.1-0.2-4.2-0.3-6.3-0.6c-0.7-0.1-1.4-0.1-2-0.2
		c-0.8-0.1-1.6-0.2-2.4-0.3s-1.6-0.2-2.4-0.3c-0.9-0.1-1.8-0.2-2.7-0.3c-0.6-0.1-1.1-0.2-1.7-0.2c-0.3,0-0.5-0.1-0.8-0.1
		c-1-0.5-2.1-1.1-3.1-1.7c-0.8-0.5-1.7-0.9-2.5-1.4c-1-0.6-2.1-1.2-3.1-1.8c-21.1-13-39.1-32.1-44.8-58.3
		c-4.8-22-8.8-37.2-10.2-49.6c-0.4-3.8-0.6-7.3-0.5-10.7c0.4-12,4.6-22,14.9-35.2c0,0,5.2-8.4,15.1-17.6l0.1-0.1
		c0.1,0,0.1-0.1,0.2-0.1c11.9-11.2,30.4-23.5,54.4-24c13.9-0.3,29.5,3.4,46.8,13.7c0.1,0.1,0.2,0.1,0.3,0.2c0.2,0.1,0.5,0.3,0.7,0.4
		c0,0,0.1,0,0.1,0.1c0.5-0.3,0.9-0.4,1.3-0.5c0.2,0,0.4,0,0.4,0c0.1,0,0.1,0,0.2,0l0,0l0,0c7.7,1.2,13.6,4.3,18,8.8
		c5.3,5.4,8.5,12.7,10.2,21.2l0,0c0.4,2,0.7,4.1,1,6.2l0,0C691.7,189.7,692,193.6,692,197.7z"/>
	<path class="st11" d="M942.5,504.9c0,0,20.1-13.8,33.9-18.2c27.3-8.9,48.6,4.1,55.9,9.4c1,0.7,0.5,2.3-0.7,2.4
		c-5.1,0.5-15.2,1.9-24.7,6C993.6,510.3,959,525,959,525L942.5,504.9z"/>
	<path class="st19" d="M390.1,631.2"/>
	<path class="st20" d="M970.8,520c0,0,30.4-33.3,49.1-23.3c18.7,10,33.3,12.8,26.9,21s-88.4,21.5-87.7,7.3
		C959.8,510.8,970.8,520,970.8,520z"/>
	<path class="st16" d="M972.2,527.2L922.3,553l0,0l-42.8,15.8l12.3-41.6c0,0,0.3-18-7.2-28.4l18.8-1.4l0,0l50.5-3.8
		c0.5,0.3,0.9,0.6,1.4,1c4.3,3.2,7.8,8,10.6,13.1C971,517.3,972.2,527.2,972.2,527.2z"/>
	<path class="st21" d="M926,548.7c3.1-9.3,4.4-31.7-4.9-40.9c-3.3-3.3-8.7-5.9-17.7-10.4l50.5-3.8c0.5,0.3,0.9,0.6,1.4,1
		c4.7,3.4,8.1,8.2,10.6,13.1c5,9.7,6.3,19.5,6.3,19.5l-50,25.8C924.3,551.4,925.5,550,926,548.7z"/>
	<path class="st22" d="M569.2,186.7c0,20.5-16.6,37-37,37c-1.4,0-2.7-0.1-4-0.2c-7.6-0.8-14.4-3.9-19.9-8.6c-1.8-1.5-3.5-3.3-5-5.2
		c-1.4-1.7-2.7-3.6-3.7-5.6c-0.3-0.6-0.6-1.2-0.9-1.7c0.4,0.4,0.8,0.7,1.2,1.1c0.7,0.7,1.5,1.3,2.3,1.9c1.6,1.2,3.3,2.3,5.1,3.3
		c5.1,2.7,11,4.2,17.2,4.2c1.1,0,2.1,0,3.2-0.1c19-1.6,33.9-17.5,33.9-36.9c0-5.7-1.3-11-3.5-15.8
		C565,166.9,569.2,176.3,569.2,186.7z"/>
	<path class="st18" d="M561.5,175.9c0,19.4-14.9,35.3-33.9,36.9c-1,0.1-2.1,0.1-3.2,0.1c-6.2,0-12.1-1.5-17.2-4.2
		c-1.8-0.9-3.5-2-5.1-3.3c-0.8-0.6-1.6-1.2-2.3-1.9c-0.4-0.3-0.8-0.7-1.2-1.1c-1.1-2.3-1.9-4.7-2.5-7.2c-0.6-2.7-1-5.6-1-8.6
		c0-17,11.5-31.3,27.1-35.7c3.2-0.9,6.5-1.4,10-1.4c7.5,0,14.4,2.2,20.2,6c0.7,0.4,1.3,0.9,2,1.4c1.2,0.9,2.3,1.8,3.4,2.9
		c0.1,0.1,0.2,0.2,0.3,0.2C560.2,164.9,561.5,170.2,561.5,175.9z"/>
	<path class="st18" d="M558,160.1l-0.4-0.1l-35.4-9l-2.3-0.6c-7.2-2.3-22,10.1-22.8,10.8c0.6-0.8,13.4-16.8,30.5-14.8
		c12.7,1.5,21.1,6.5,24.8,9.2c1.4,1,2.1,1.7,2.1,1.7c0-0.1-0.1-0.2-0.1-0.3c-6.7-14-28-17.1-30-17.4c27.2,1.9,32.8,17.5,33.5,20.1
		C558,160,558,160.1,558,160.1z"/>
	<path class="st18" d="M506.1,195.2c0,0-2,1.4-4.2,4.5c-0.2,0.3-0.4,0.6-0.6,1c-0.5,0.8-1,1.8-1.5,2.8c-0.1,0.2-0.2,0.4-0.3,0.7
		c-1.2,2.9-2.2,6.5-2.5,11c-0.5,8.1-0.9-20-0.9-20H506.1z"/>
	<path class="st18" d="M513.5,230.6c-5.5-7.1-8.6-14.8-10.3-20.8c-0.5-1.6-0.8-3-1.1-4.3c-0.4-2-0.7-3.6-0.8-4.7
		c-0.2-1.2-0.2-1.8-0.2-1.8l0.8,0.8l5.2,5.3c0,1.2,0,2.4,0.1,3.6c0.2,2.1,0.5,4.2,1,6.2C510,223.2,513.3,230.2,513.5,230.6z"/>
	<path class="st22" d="M666,156.4c0,0,21.1,37.3,18.1,67.3C684,223.7,697.5,174.2,666,156.4z"/>
	<path class="st22" d="M649.2,221.2c0,0-46.1-9-64.9-22.3C584.3,198.9,597.8,231.2,649.2,221.2z"/>
	<path class="st22" d="M570.2,161.2c0,0,30-27.4,61.7-15.6C632,145.6,573.5,157.1,570.2,161.2z"/>
	<path class="st23" d="M669.3,350c-0.8,0.1-1.8,0.1-2.8-0.1c-1.9-0.3-4-0.6-5.5-0.8l0,0V349l-0.7-6.2l-0.9-8.1l-1.3-11.8
		C658,322.9,663.5,340.8,669.3,350z"/>
	<path class="st24" d="M685.3,374.9L685.3,374.9c-1.2,1-2.5,1.9-3.7,2.7c-0.5,0.4-1.1,0.7-1.6,1c-0.6,0.4-1.1,0.7-1.7,1.1
		c-6,3.7-12.4,6.4-18.9,8.5c-6.2,2-12.7,3.2-19.1,4c-10,1.2-20,1.2-29.5,0.4c-0.8-0.1-1.5-0.1-2.3-0.2c-19.8-1.8-37-6.7-46.3-9.7
		c0.4-0.2,0.9-0.4,1.3-0.7c0.9-0.5,1.8-1,2.7-1.6c0.7-0.5,1.5-0.9,2.2-1.5c0.1-0.1,0.3-0.2,0.4-0.3c1.7-1.2,3.3-2.6,4.7-4.1
		c1.8-1.8,3.4-3.7,4.8-5.7l0,0l0,0c0.1,0,0.2,0,0.3,0.1c0.1,0,0.2,0.1,0.3,0.1s0.2,0,0.2,0.1c0.1,0,0.2,0,0.3,0.1
		c0.1,0,0.2,0,0.3,0.1c0.1,0,0.2,0.1,0.3,0.1s0.3,0.1,0.5,0.1c0.1,0,0.2,0.1,0.3,0.1s0.2,0,0.3,0.1c0.2,0,0.3,0.1,0.5,0.1
		c0.1,0,0.2,0.1,0.3,0.1c0.3,0.1,0.7,0.2,1.1,0.2c0.2,0,0.4,0.1,0.5,0.1c0.2,0,0.4,0.1,0.6,0.1l0,0c0.1,0,0.1,0,0.2,0.1
		c0.2,0,0.5,0.1,0.7,0.2c0.2,0,0.3,0.1,0.5,0.1l0,0c0.2,0,0.3,0.1,0.5,0.1c0.4,0.1,0.7,0.2,1.1,0.2c0.7,0.1,1.4,0.3,2.2,0.4
		c0.1,0,0.2,0,0.4,0.1l0,0l0,0l0,0c0.8,0.1,1.6,0.3,2.4,0.4c0.2,0,0.3,0.1,0.5,0.1l0,0l0,0l0,0c0.3,0.1,0.7,0.1,1,0.2
		c0.7,0.1,1.4,0.2,2.1,0.3l0,0c0.4,0.1,0.7,0.1,1.1,0.2c0.4,0,0.7,0.1,1.1,0.2c0.7,0.1,1.5,0.2,2.3,0.3s1.6,0.2,2.5,0.3
		c0.8,0.1,1.6,0.2,2.4,0.2l0,0c1.5,0.1,3,0.3,4.5,0.4c1.6,0.1,3.1,0.2,4.7,0.2l0,0c0.2,0,0.3,0,0.5,0c2.4,0.1,4.8,0.1,7.4,0.1
		c1.7,0,3.4-0.1,5.1-0.2c1.7-0.1,3.5-0.2,5.2-0.4c0.2,0,0.4,0,0.6-0.1c0.3,0,0.5-0.1,0.8-0.1c0.5-0.1,1-0.1,1.5-0.2l0,0
		c0.7-0.1,1.5-0.2,2.2-0.3l0,0c0.6-0.1,1.1-0.2,1.7-0.2c0.2,0,0.4-0.1,0.6-0.1l0,0l0,0c1.5-0.2,3-0.5,4.5-0.8l0,0
		c0.5-0.1,1.1-0.2,1.6-0.3c1-0.2,1.9-0.4,2.9-0.7c0.6-0.1,1.1-0.3,1.7-0.4c0.1,0,0.2,0,0.2-0.1c0.3-0.1,0.6-0.2,0.9-0.2
		c0.2,0,0.4-0.1,0.6-0.2c0.3-0.1,0.6-0.2,0.8-0.2c0.3-0.1,0.6-0.2,0.8-0.2c0.3-0.1,0.6-0.2,0.8-0.2c0.3-0.1,0.6-0.2,0.9-0.3
		c0.7-0.2,1.5-0.5,2.2-0.7c0.3-0.1,0.6-0.2,0.8-0.3c0,0,0.1,0,0.1-0.1c0.3-0.1,0.5-0.2,0.8-0.3c0.2-0.1,0.5-0.2,0.7-0.2
		c1.6-0.6,3.2-1.2,4.7-2c0.2-0.1,0.4-0.2,0.6-0.3c0.2-0.1,0.4-0.2,0.6-0.3c0.2-0.1,0.4-0.2,0.6-0.3c0.4-0.2,0.7-0.4,1.1-0.5
		c0.6-0.3,1.2-0.6,1.7-0.9l0,0l0,0c0,0,0.1,0,0.1,0.1c1.8,1.8,3.8,3.5,5.8,5.1l0,0c0,0,0.1,0,0.1,0.1c0.7,0.5,1.3,1,2,1.5
		c0.5,0.4,1,0.8,1.6,1.1c0.6,0.5,1.3,0.9,1.9,1.3C683.2,373.5,684.2,374.2,685.3,374.9z"/>
	<path class="st24" d="M806.8,554.6c-1-0.5-2-1.1-3-1.7c-4.3-2.6-8.1-4.3-11.5-5.4c-16.6-20.8-20.4-39.6-20.4-39.6
		C776.8,522.6,793.2,541,806.8,554.6z"/>
	<path class="st24" d="M749.8,650.2c-48-14.1-75.2-71.7-76.1-73.6c23.2,39,74.4,65.7,74.5,65.7l0.1,1c0,0.1,0,0.2,0,0.3
		C748.5,645.8,749.2,648,749.8,650.2z"/>
	<polygon class="st4" points="812.7,1074.7 802.8,1077.2 745.2,821.6 732,824.9 731.3,822.4 754.5,816.6 	"/>
	<polygon class="st4" points="802.8,1077.2 800.8,1077.7 732,824.9 745.2,821.6 	"/>
	<polygon class="st4" points="863.8,946.9 856.5,949.3 854.8,949.9 800.7,801.7 800.7,801.7 817.8,793.1 	"/>
	<polygon class="st4" points="856.5,949.3 854.8,949.9 800.7,801.7 810.8,796.6 	"/>
	<polygon class="st15" points="856.5,949.3 854.8,949.9 800.7,801.7 810.8,796.6 	"/>
	<polygon class="st15" points="579.3,949.8 570,948 590.2,823.6 608.7,826 	"/>
	<path class="st10" d="M709.3,259.4c0.3-0.7,0.6-1.5,0.9-2.1"/>
	<path class="st10" d="M704.7,243.9L704.7,243.9"/>
	<polygon class="st4" points="460.5,1067.7 472.2,1070.6 541.8,815.4 518.5,809.6 	"/>
	<path class="st25" d="M1192.1,449.2l-17.5,2c0,0-4.6-39.4-3.6-63.4s1.7-40.1,1.7-40.1s0.3,1,0.9,2.7c3.4,11.3,16.3,55.9,18.4,93.5
		C1191.9,445.7,1192.1,447.5,1192.1,449.2z"/>
	<path class="st26" d="M1191.8,443.9l-5.7,0.9c0,0-11.2-64.1-12.7-94.3C1176.9,361.8,1189.8,406.3,1191.8,443.9z"/>
	<path class="st25" d="M1173.8,471.5l-6,7.4l-4.9,6.1c0,0-12.6-59.8-12.8-83.9c-0.2-24.2-0.2-24.2-0.2-24.2s2.6,3.4,6.2,9.5
		C1165.2,401.7,1180.2,434,1173.8,471.5z"/>
	<path class="st27" d="M1173.8,471.5l-6,7.4c-3.2-15.8-11.4-58.4-11.6-77.9c-0.1-6.5-0.1-11.2-0.2-14.7
		C1165.2,401.7,1180.2,434,1173.8,471.5z"/>
	<path class="st25" d="M1208.2,375.5c0,0,0,0-0.3,24.2c-0.2,24.2-12.8,83.9-12.8,83.9l-10.8-13.5c-0.4-2.6-0.8-5.2-1-7.8
		c-4.1-44.4,20-79.9,24.3-85.9C1207.9,375.8,1208.2,375.5,1208.2,375.5z"/>
	<path class="st26" d="M1207.6,376.4c-0.9,2.9-2.4,6.4-4.5,10.6c-10.9,21.6-12.8,83.9-12.8,83.9l-7-8.7
		C1179.1,417.9,1203.2,382.4,1207.6,376.4z"/>
	<path class="st28" d="M651.3,844.5c0,0,59.1-7,66.6-6l-0.5,3.9l1.3,6.8c0.3,1.7,0.2,3.5-0.3,5.2c-0.7,2.1-1.6,4.8-2.1,5.7
		c-0.8,1.5,2.3,7,0,11.2s-3.1,19.8-3.1,19.8l-48.6,0.9c0,0-5.1-8.8-4.4-12.8s-5.9-6.9-5.9-9.6c0-2.1,0.1-9,0.2-11.9
		c0-0.9-0.1-1.8-0.3-2.7L651.3,844.5z"/>
	<path class="st29" d="M1210.8,364.9L1210.8,364.9z"/>
	<circle cx="901.8" cy="451.2" r="11.6"/>
	<path class="st28" d="M660.2,974.3c0,0-9.6,7.6-8.9,17.2c0.7,9.6,4.4,14.1,4.4,14.1L660.2,974.3z"/>
	<path class="st30" d="M663.2,895.4c0,0,15.1-37.3,36.1-22s30,27.8,21.3,54s17.2,71.5,4.6,78c-12.6,6.6-72.2,13.8-69.3-2.3
		C658.8,987.1,655.8,926.7,663.2,895.4z"/>
	<polygon class="st15" points="460.5,1067.7 472.2,1070.6 541.8,815.4 518.5,809.6 	"/>
	<path class="st31" d="M716.2,859.7c-0.8,1.5,2.3,7,0,11.2c-1.4,2.6-2.2,9.4-2.7,14.3c-3.8-4.1-8.7-8.1-14.4-12.3
		c-17.1-12.5-30.2,9.9-34.5,18.7c0,0-5.1-8.8-4.4-12.8c0.7-4-5.9-6.9-5.9-9.6c0-2.1,0.1-9,0.2-11.9c0-0.9-0.1-1.8-0.3-2.7l-2.9-10.6
		c0,0,59.1-7,66.6-6l-0.5,3.9l1.2,6.8c0.3,1.7,0.2,3.5-0.3,5.2C717.7,856.1,716.8,858.8,716.2,859.7z"/>
	<path class="st31" d="M725.2,1005c-12.6,6.6-72.2,13.8-69.3-2.3c2.9-16,0-76.5,7.3-107.8c0,0,0.5-1.3,1.5-3.3
		c4.3-8.8,17.5-31.1,34.5-18.7c5.7,4.2,10.6,8.2,14.4,12.3c10.2,10.9,13.2,22.7,6.9,41.8C711.8,953.2,737.8,998.5,725.2,1005z"/>
	<polygon class="st15" points="802.8,1077.4 800.8,1077.9 732,825.1 745.5,822.7 	"/>
	<g>
		<path class="st32" d="M846.2,653.6c-4.4-7.5-9.7-15-15.7-22.3c-6.5-8-13.9-15.9-22-23.5c-5.5-5.1-11.3-10.1-17.4-15
			c-5-4-10.3-7.9-15.7-11.6c-4.2-2.9-8.5-5.8-12.9-8.5c-1.4-0.9-2.9-1.8-4.3-2.7c-3.3-2-6.6-3.9-9.9-5.8l0,0
			c-8.9-5-18.1-9.6-27.5-13.7c-2.2-1-4.5-2-6.7-2.9c-0.7-0.3-1.5-0.6-2.2-0.9c-0.6-0.2-1.2-0.5-1.8-0.7c-0.9-0.4-1.8-0.7-2.7-1.1
			c-0.6-0.2-1.1-0.4-1.7-0.7c-2-0.7-3.9-1.5-5.9-2.2c-12.6-4.5-25.4-8.2-38.2-10.9c-4.5-0.9-9-1.8-13.5-2.5
			c-10.3-1.6-20.5-2.6-30.7-2.7c-1.4,0-2.7-0.1-4.1-0.1c-2.8,0-5.5,0.1-8.1,0.2c-1.3,0-2.5,0.1-3.8,0.2c-4.5,0.3-8.8,0.7-13.1,1.4
			c-7.5,1.1-14.6,2.6-21.3,4.7c-6,1.8-11.7,4-17.1,6.5c-0.7,0.3-1.5,0.7-2.2,1c-0.3,0.2-0.7,0.3-1,0.5c-0.4,0.2-0.8,0.4-1.2,0.6
			c-0.6,0.3-1.3,0.6-1.9,1c-0.1,0.1-0.2,0.1-0.3,0.2c-0.7,0.4-1.5,0.8-2.2,1.2c-0.3,0.2-0.6,0.4-0.9,0.5c-0.6,0.4-1.3,0.7-1.9,1.1
			l0,0l0,0c-0.6,0.4-1.2,0.7-1.8,1.1c-0.4,0.2-0.8,0.5-1.2,0.7c-0.7,0.5-1.4,0.9-2.2,1.4c-7.1,4.7-13.5,10-19.4,15.8
			c-2.8,2.8-5.6,5.7-8.2,8.8c-1.4,1.7-2.8,3.4-4.2,5.2c-3.3,4.2-6.3,8.7-9.2,13.3c-2.2,3.5-4.2,7.1-6.1,10.8
			c-8,15.4-13.8,32.1-17.7,49.2c-4.8,20.8-6.9,42-6.9,61.9c0,14.3,1.2,26.9,3.9,37.9c2.2,8.9,5.3,16.8,9.5,23.7
			c3.9,6.5,8.8,12.2,14.7,17.2c5,4.3,10.8,8.1,17.4,11.4c0.9,0.5,1.8,0.9,2.7,1.3c6.8,3.2,14.4,6,23,8.5l0.4,0.1
			c2.8,0.8,5.7,1.6,8.7,2.3c1.5,0.4,2.9,0.7,4.4,1c4.5,1,9.1,1.9,14,2.8c4.8,0.9,9.8,1.6,15,2.4c0,0,0,0,0.1,0
			c4.8,0.7,9.9,1.3,15.1,1.9c1.8,0.2,3.6,0.4,5.4,0.6c4.2,0.4,8.6,0.9,13.1,1.3h0.1c0.2,0,0.4,0,0.6,0c3.9,0.4,7.9,0.7,12,1
			c1.6,0.1,3.2,0.2,4.8,0.3c0.7,0.1,1.5,0.1,2.2,0.2h0.1c1.5,0.1,3,0.2,4.6,0.3c1,0.1,2,0.1,3,0.2c0.1,0,0.2,0,0.2,0
			c0.1,0,0.1,0,0.2,0c1.3,0.1,2.5,0.1,3.8,0.2c1.6,0.1,3.2,0.1,4.8,0.2c0.4,0,0.7,0,1.1,0c14.2,0.5,27.8,0.4,40.9-0.3
			c4.3-0.2,8.6-0.5,12.9-0.9c6.7-0.6,13.3-1.3,19.7-2.2c4.1-0.6,8.1-1.2,12-1.9c6-1.1,11.7-2.2,17.3-3.6c2-0.5,4-1,6-1.5
			c0.5-0.1,1-0.3,1.5-0.4c0.8-0.2,1.7-0.4,2.5-0.7c0.1,0,0.2-0.1,0.4-0.1c0.7-0.2,1.4-0.4,2.1-0.6c0.7-0.2,1.4-0.4,2.1-0.6
			c10.1-3,19.5-6.6,28.2-10.6c10.1-4.6,19.2-9.9,27.2-15.8c6.4-4.7,12.2-9.7,17.2-15.1c14.3-15.3,23.2-33.4,25.8-54
			c0.5-4.2,0.8-8.4,0.8-12.8C862.7,689.5,856.7,671.4,846.2,653.6z M483.4,727.9l20.3-110.3l0.8,12.9c0,11.3-1.8,38.1,2.8,55.6l0,0
			c1.7,33.6,8.9,65.3,20.3,93.4c-13.5,1.4-23.4,3.6-28.2,6.6C492.1,768.1,486.8,748.6,483.4,727.9z"/>
		<path class="st32" d="M563.7,670c0,59.8,17.1,114.3,45.1,155.5c-4.5-0.4-8.9-0.8-13.1-1.3c-27.5-40.9-44.3-95-44.3-154.2
			c0-53.7,13.8-103.1,36.9-142.4c4.2-0.6,8.6-1.1,13.1-1.4C577.7,565.8,563.7,615.7,563.7,670z"/>
		<path class="st32" d="M560.2,819.3c-4.9-0.9-9.5-1.8-14-2.8c-0.2-0.3-0.4-0.7-0.6-1c-2.2-3.6-4.3-7.2-6.3-10.9
			c-4.3-7.9-8.2-16.3-11.7-24.9c-11.4-28.2-18.6-59.8-20.3-93.4l0,0c-0.3-5.3-0.4-10.7-0.4-16.2c0-34.8,5.8-67.7,16.1-97.3
			c3-8.5,6.3-16.7,10-24.6c0.7-0.5,1.4-0.9,2.2-1.4c0.4-0.2,0.8-0.5,1.2-0.7c0.6-0.4,1.2-0.7,1.8-1.1l0,0l0,0
			c0.6-0.4,1.2-0.7,1.9-1.1c0.3-0.2,0.6-0.4,0.9-0.5c0.7-0.4,1.5-0.8,2.2-1.2c0.1-0.1,0.2-0.1,0.3-0.2c0.6-0.3,1.3-0.7,1.9-1
			c0.4-0.2,0.8-0.4,1.2-0.6c0.3-0.2,0.7-0.3,1-0.5c0.7-0.4,1.5-0.7,2.2-1c-0.6,1.1-1.1,2.2-1.7,3.3c-0.5,0.9-0.9,1.9-1.4,2.8
			c-1,2.1-2,4.2-3,6.4l0,0c-3.1,6.9-6,14-8.5,21.4c-10.3,29.6-16.1,62.6-16.1,97.3c0,10.8,0.6,21.5,1.6,31.9l0,0
			c0,0.5,0.1,0.9,0.2,1.4c2.9,26.9,9.3,52.2,18.5,75.3c0.7,1.7,1.3,3.3,2,4.9c3.1,7.3,6.5,14.3,10.1,21c2.6,4.9,5.4,9.7,8.3,14.3
			C560,819,560,819.2,560.2,819.3z"/>
		<path class="st32" d="M506.9,803.2c-6.6-3.3-12.4-7.1-17.4-11.4c-4.5-10.7-8.5-21.9-11.7-33.5c-3.5-12.7-6.2-25.9-8.1-39.6
			c-1.7-13.1-2.7-26.7-2.7-40.5c0-9.2,0.4-18.2,1.2-27c3.9-17.1,9.7-33.8,17.7-49.2c1.9-3.7,3.9-7.3,6.1-10.8
			c-8.2,26.9-12.7,56.2-12.7,87c0,17.1,1.4,33.7,4,49.8c3.4,20.6,8.9,40.2,16.1,58.3c2,5,4.1,9.9,6.4,14.7l0,0
			C506.1,801.8,506.5,802.5,506.9,803.2z"/>
		<path class="st32" d="M641.7,682.5c0,52.1-7.4,101.1-20.4,144c-4.1-0.3-8-0.6-11.9-1c12.8-42.7,20.1-91.4,20.1-143
			c0-57.1-8.9-110.6-24.4-156.4c2.7-0.1,5.4-0.2,8.1-0.2c1.4,0,2.7,0,4.1,0.1C632.8,571.8,641.7,625.3,641.7,682.5z"/>
		<path class="st32" d="M692.2,662.5c0,64.7-20,123.1-52.1,165.2c-3.9-0.2-7.8-0.4-11.7-0.7c31.9-42,51.6-100.2,51.6-164.5
			c0-49.9-11.9-96-32.1-133.8c4.5,0.7,9,1.5,13.5,2.5C680.8,568.5,692.2,613.7,692.2,662.5z"/>
		<path class="st32" d="M745.8,670c0,60.4-17.4,115.4-46,156.7c-4.2,0.4-8.5,0.7-12.8,0.9c28.9-41.3,46.6-96.7,46.6-157.6
			c0-46.4-10.3-89.5-27.9-125.8c5.1,1.9,10.2,4.1,15.2,6.3C736.5,585.4,745.8,626.3,745.8,670z"/>
		<path class="st32" d="M801.2,671.1c0,54.4-14.1,104.5-37.9,144.1c-4.7,1.4-9.6,2.7-14.6,3.9c25.1-40.1,40.2-91.7,40.2-148
			c0-31.9-4.8-62.2-13.6-89.9c5.4,3.8,10.6,7.6,15.7,11.6C797.7,617.3,801.2,643.6,801.2,671.1z"/>
		<path class="st32" d="M848.2,688.8c0,29.9-4.3,58.6-12.1,84.8c-5.1,5.4-10.8,10.4-17.2,15.1c10.9-30.3,17-64.1,17-99.9
			c0-19.9-1.9-39.2-5.5-57.6c6,7.3,11.3,14.8,15.7,22.3C847.5,665.1,848.2,676.8,848.2,688.8z"/>
		<path class="st32" d="M470.6,767"/>
	</g>
	<path class="st33" d="M1159.3,820.7l-3.9,14.9l-8.1,30.8c0,0-2-11.9-3.4-24.5c-1.3-12-2-24.7,0.2-28.9c0.8-1.6,1.6-2.9,2.4-3.8
		c4.2-4.9,7.7-0.7,10,4C1158.3,816.8,1159.3,820.7,1159.3,820.7z"/>
	<path class="st34" d="M1210.9,803c0,12.5-3.6,23.8-9.3,32c-5.3,7.5-12.5,12.3-20.4,12.8c-0.4,0-0.8,0-1.2,0
		c-4.4,0-9.4-1.6-14.2-4.2c-3.7-2.1-7.2-4.8-10.3-7.9c-2.5-2.6-4.7-5.6-6.4-8.7c-2.9-5.5-4.1-11.6-2.5-17.7c0.5-2,1.3-4.1,2.5-6.1
		c13.5-23.9,14.2-38.6,23.2-43.2c2.1-1.1,4.6-1.6,7.7-1.6c11.2,0,21,8.6,26.5,21.5c1.1,2.5,1.9,5.1,2.6,7.9
		c1.2,4.6,1.8,9.6,1.9,14.8C1210.9,802.6,1210.9,802.8,1210.9,803z"/>
	<path class="st33" d="M1282.9,954.1c-0.9,13.4-4.4,23-12.3,25c-0.5,0.1-1.1,0.2-1.7,0.3c-1.6,0.2-3.4,0.1-5.4-0.3l0,0
		c-9.1-1.9-12.7,1.2-21.3,2.9c-2.6,0.5-6.8,1.8-11.2,3.4c-2.4,0.8-4.8,1.8-7.2,2.8l0,0c-1.6,0.6-3.1,1.3-4.5,1.9
		c-3.1,1.4-5.7,2.7-7.4,3.8c-0.2,0.1-0.4,0.2-0.6,0.4c-6.7,4-12,3.7-16.7,0.6c-2.5-1.7-4.8-4.1-7-7c-5.1-6.9-9.3-16.6-13.7-25
		c-1.2-2.2-2.4-4.4-3.6-6.4c-9-14.8-23.8-38-27.7-58.1c-4-20.6-3.1-39.9,1.2-56.5c1.4-5.3,3.1-10.3,5.2-15c2.2-5,4.7-9.6,7.5-13.7
		c4-6,8.7-11.2,13.8-15.3c3.6-3,7.5-5.4,11.6-7.2c3.3-1.5,6.8-2.7,10.4-3.4c0.1,0,0.1,0,0.2,0c0.5-0.1,1-0.2,1.6-0.3
		c5-0.8,10.1-0.5,15.1,0.7c13.7,3.2,27,13.1,38.3,27.8c1.9,2.5,3.7,5.1,5.5,7.8c7.1,11,13.1,24,17.4,38.4c1.7,5.7,3.2,11.6,4.4,17.6
		c3.9,20.3,8.2,44.9,8.5,64.7l0,0C1283.2,947.6,1283.2,950.9,1282.9,954.1z"/>
	<polygon class="st33" points="1217.9,1013 1216.4,1013.5 1196.6,1019.8 1177.6,1025.8 1174.7,1023.2 1173.9,1006 1173.9,943.3 
		1154.2,898.3 1177.6,898.3 1203.8,972.8 1206.9,981.8 1211.2,994.2 1211.3,994.2 	"/>
	<path class="st35" d="M1218.9,974.4c-0.7,0.2-1.5,0.5-2.3,0.8c-2.5,1.1-5.7,3.1-9.7,6.6c-3.5,3.1-7.5,7.3-12.3,13l0,0
		c-0.3,0.3-0.6,0.7-0.8,1.1c-0.2,0.3-0.5,0.6-0.7,0.8c-5.1,6.5-12.1,16.6-18.3,26.2c-0.1,0.1-0.1,0.2-0.2,0.3l-0.7-17.2
		c5.1-7.4,9.7-13.4,13.7-18.1c6.7-7.8,12-12.5,16.1-15.1c6.8-4.4,10.3-3.4,11.3-2.8c0.2,0.1,0.4,0.2,0.4,0.2
		C1216.8,971.4,1217.9,972.8,1218.9,974.4z"/>
	<polygon class="st33" points="1317.8,1042.8 1297.7,1049.2 1283.7,1053.6 1277.6,1055.6 1270.3,1016.5 1266.6,995.8 1263.6,979 
		1254.2,928.1 1277.6,928.1 1283.2,944 1283.2,944 1286.1,952.1 1288.6,959.2 1302.8,1000.1 	"/>
	<path class="st35" d="M1323.1,1069.6v0.3c-0.3,37.9-5.8,72.6-14,82.5c-2.1,2.6-4.5,4.4-7,5.6c0,0-0.1,0-0.1,0.1
		c-1.8,0.8-3.6,1.2-5.5,1.3c-2.1,0.1-4.3-0.2-6.5-1.1c-15.6-12.7-29-49.3-23.2-110.9c1.1-11.7,2.3-22,3.7-31l-3.8-20.7
		c1.3-6.2,2.6-11.6,3.9-16.1c0-0.2,0.1-0.3,0.2-0.5c4.4-15.1,8.9-22,12.3-25c1.2-1,2.2-1.6,3.1-2l2.5,7.1c4-4.3,6.8-3.5,6.8-3.5
		c0.2,0.1,0.5,0.2,0.7,0.2c18.6,15.3,26.4,60.7,27,104.3v0.2C1323.1,1063.5,1323.1,1066.6,1323.1,1069.6z"/>
	<path class="st33" d="M1218.6,1037.3c-7.5,28-21,58.9-34.6,83c-0.7,1.2-1.3,2.3-2,3.5c-11.3,19.5-22.6,34-30.3,37.8
		c-1.6,0.8-3.1,1.3-4.6,1.7c-0.2-2.9,0.7-4.4,2.3-7.3l-3.3,2.2c-2.1,2.4-5.9,2-7.5-0.7c-10.1-17-9.3-55.5,22.1-110.8
		c5-8.8,9.6-16.5,13.9-23.3c0.1-0.1,0.1-0.2,0.2-0.3c0.6-0.9,1.2-1.9,1.8-2.8c6.2-9.6,11.7-17.3,16.6-23.4c0.2-0.3,0.4-0.6,0.7-0.8
		c0.3-0.4,0.6-0.7,0.8-1.1l0,0c4.7-5.7,8.8-10,12.3-13c3.9-3.5,7.1-5.5,9.7-6.6c0.9-0.4,1.6-0.7,2.3-0.8c2.5,3.8,4,8.4,4.9,13.8l0,0
		C1225.9,1001.3,1223.6,1018.6,1218.6,1037.3z"/>
	<path class="st33" d="M1166.1,1162.2c-1.9,1.7-3.8,3-5.4,3.8c-2.4,1.2-4.7,1.8-6.9,2.1c-3,0.3-5.9-1.5-6.6-4.4
		c0-0.2-0.1-0.4-0.1-0.6c1.5-0.4,3-0.9,4.6-1.7c7.7-3.8,19-18.2,30.3-37.8c0.7-1.1,1.3-2.3,2-3.5c13.6-24.1,27.1-55.1,34.6-83
		c5-18.7,7.3-36,5.2-49.1l0,0c-0.9-5.4-2.4-10-4.9-13.8c3.9-1.1,5.5,0.3,5.5,0.3c2.9,2.7,5.1,6.3,6.5,10.6l0,0
		C1245.8,1027.9,1193.3,1137.9,1166.1,1162.2z"/>
	<path class="st33" d="M1315.8,1156.4c-2.9,3.5-6.3,5.7-9.9,6.6c-1.7,0.4-3.4-0.8-3.6-2.5c-0.1-0.8-0.2-1.6-0.2-2.4
		c0-0.3,0-0.6,0-0.9c0,0.3-0.1,0.7-0.1,1c-0.1,0.9-0.2,1.7-0.4,2.3c-0.4,1.7-2.2,2.7-3.8,2.2c-0.6-0.2-1.1-0.4-1.7-0.6
		c-2-0.8-4.1-2.1-6.1-3.7c-15.6-12.7-29-49.3-23.2-110.9c1.1-11.7,2.3-22,3.7-31c2.3-15.1,4.9-26.5,7.4-35.1
		c3.8-12.4,7.6-18.8,10.7-22.2c4-4.3,6.8-3.5,6.8-3.5c0.2,0.1,0.5,0.2,0.7,0.2C1339.6,972.7,1335.1,1133.2,1315.8,1156.4z"/>
	<path class="st36" d="M1213.4,1009.4c0,0-9.9-8.5-40.8,46c-30.9,54.4-17.4,85.1,0,76.5C1190.1,1123.4,1235.3,1030,1213.4,1009.4z"
		/>
	<path class="st36" d="M1303.2,1000.1c0,0-12.3-4.1-20.2,58c-7.9,62.1,16.3,85.3,29.2,70.8
		C1325.1,1114.4,1331.2,1010.8,1303.2,1000.1z"/>
	<circle class="st36" cx="1236.1" cy="939.5" r="16.2"/>
	<path class="st34" d="M1182.8,786.5c0,0-12.3,45.4,7.5,93.2c0,0,23-32.9,3.5-93.2H1182.8z"/>
	<path class="st34" d="M1302.2,1151.5c0,2.2-0.1,4.1-0.2,5.6C1302.1,1154.1,1302.2,1151.5,1302.2,1151.5z"/>
	<path class="st21" d="M1271.2,866.3l-69.6-70.3l45.7,19.4c1.9,2.5,3.7,5.1,5.5,7.8c7.1,11,13.1,24,17.4,38.4L1271.2,866.3z"/>
	<path class="st34" d="M1191.8,786.7c0,0,32.5,34.1,83.6,41.9c0,0-16.2-36.7-77.9-51.3L1191.8,786.7z"/>
	<path class="st37" d="M416,702l-10.1,56C409.2,731,412.9,710.9,416,702z"/>
	<path class="st15" d="M645,824.8L645,824.8c0,0.6,0,0,0-0.2C645,824.7,645,824.7,645,824.8z"/>
	<path class="st38" d="M680,831.7c0,0.2-59-2.1-71.4-2.8c-141.7-7.7-145.2-69.9-145.7-73.2c-1.4-8.4-4.4-30.7-4.4-40.4
		c0-19.9,1.8-42,6.6-62.8c3.9-17.1,13.9-41.9,21.8-57.3l3-21.9h-50.6h-22h-16.1v-27.8l32.3-45.2h62.8c-0.6-15.9,0.4-31.8,3-47.4
		c2.7-16.3,5.6-33.8,6-35.4l0,0c1-4.2,2.7-8.1,4.9-11.6l0,0c6.8-10.8,18.9-17.9,32.6-17.9c7,0,13.5-1.7,19.3-4.6
		c0.4-0.2,0.9-0.4,1.3-0.7c0.9-0.5,1.8-1,2.7-1.6s1.7-1.2,2.6-1.8c1.7-1.2,3.2-2.6,4.7-4.1c1.8-1.8,3.4-3.7,4.8-5.7l0,0
		c0.7-1,1.3-2,1.9-3c2.6-4.3,5.5-8.7,7.2-13.6c0.4-7.6-0.3-13.9-0.8-17c0-0.3-0.1-0.5-0.1-0.7c-0.2-0.9-0.3-1.4-0.3-1.4
		c-1-0.6-2.1-1.2-3.1-1.8c-21.1-13-39.1-32.1-44.8-58.3c-4.8-22-8.8-37.2-10.2-49.6c-7.6-0.8-14.4-3.9-19.9-8.6
		c1.8,8.2,5.1,15.2,5.3,15.7c-5.5-7.1-8.6-14.8-10.3-20.8c-1.4-1.7-2.7-3.6-3.7-5.6c-1.2,2.9-2.2,6.5-2.5,11c-0.5,8.1-0.9-20-0.9-20
		c-0.6-2.7-1-5.6-1-8.6c0-17,11.5-31.3,27.1-35.7l-2.3-0.6c-7.2-2.3-22,10.1-22.8,10.8c0.6-0.8,13.4-16.8,30.5-14.8
		c12.7,1.5,21.1,6.5,24.8,9.2c0.7,0.4,1.3,0.9,2,1.4c-0.8-1.8-1.9-3.3-3.1-4.8c-0.2-0.3-0.5-0.6-0.8-0.9s-0.5-0.6-0.8-0.8
		c-0.4-0.4-0.8-0.8-1.3-1.2c-0.3-0.3-0.7-0.6-1.1-0.9c-0.4-0.3-0.7-0.6-1.1-0.8c-0.3-0.2-0.6-0.4-0.8-0.6l-0.1-0.1
		c-0.4-0.3-0.9-0.6-1.3-0.8c-0.2-0.1-0.4-0.2-0.6-0.3c-0.2-0.1-0.4-0.2-0.6-0.3c-0.4-0.2-0.8-0.4-1.2-0.6c-0.4-0.2-0.8-0.4-1.2-0.6
		c-0.4-0.2-0.8-0.4-1.2-0.6c-0.4-0.2-0.8-0.3-1.2-0.5s-0.8-0.3-1.2-0.5c-0.1,0-0.2-0.1-0.3-0.1c-0.4-0.1-0.8-0.3-1.1-0.4
		c-0.4-0.1-0.8-0.3-1.2-0.4c-0.1,0-0.1,0-0.2-0.1c-0.2-0.1-0.4-0.1-0.6-0.2c-0.2-0.1-0.4-0.1-0.5-0.2c-0.3-0.1-0.6-0.2-0.9-0.3
		c-0.1,0-0.1,0-0.2,0c-0.2-0.1-0.3-0.1-0.5-0.1s-0.3-0.1-0.5-0.1h-0.1c-0.2-0.1-0.5-0.1-0.7-0.2c-0.3-0.1-0.6-0.2-0.9-0.2
		c-0.3-0.1-0.6-0.1-0.9-0.2c-0.1,0-0.3-0.1-0.4-0.1c-0.7-0.1-1.2-0.2-1.7-0.3c-0.2,0-0.4-0.1-0.6-0.1s-0.4-0.1-0.6-0.1
		c-0.1,0-0.2,0-0.3,0c1.2,0.1,2.4,0.2,3.6,0.3c0.1,0,0.2,0,0.3,0s0.1,0,0.2,0c1.1,0.1,2.1,0.3,3.1,0.5c0.4,0.1,0.7,0.1,1.1,0.2
		c0.7,0.1,1.4,0.3,2.1,0.5c0.6,0.2,1.3,0.3,1.9,0.5c2.3,0.7,4.4,1.4,6.2,2.3c0.4,0.2,0.9,0.4,1.3,0.6c1.4,0.7,2.6,1.4,3.7,2.2
		c0.2,0.1,0.3,0.2,0.5,0.3c1.3,1,2.5,2,3.5,2.9c0.1,0.1,0.3,0.3,0.4,0.4c0.5,0.5,0.9,1,1.3,1.5c0.4,0.5,0.8,1,1.2,1.5
		c1.1,1.6,1.9,3,2.4,4.1c0.2,0.4,0.3,0.7,0.4,1c0.1,0.2,0.2,0.4,0.2,0.6c0,0.1,0,0.1,0.1,0.2c0,0.1,0.1,0.2,0.1,0.3
		c11.9-11.2,30.4-23.5,54.4-24c-0.9,2.4-1.8,4.8-2.8,7.2c-1,2.6-2.1,5.3-3.1,7.9c-6.9,17.4-14.7,35.2-22.1,48
		c-20.3,35.5,19.8,114.5,30.2,134.1c0.9,1.6,1.5,3.6,2.1,5.7l0,0c0.6,2.5,0.9,5.3,1.1,8.3c0.4,7.8-0.5,17.2-2.4,27.2
		c-1.1,6-2.6,12.2-4.4,18.4c-5.6,19.1-14,37.6-23.3,48.3c-8.2,9.3-18.8,31.6-28.4,58.7c-4.5,12.8-8.8,26.6-12.6,40.6
		c-0.2,0.6-0.3,1.2-0.5,1.7c-0.2,0.9-0.5,1.9-0.7,2.8c-0.5,2.1-1.1,4.3-1.6,6.4l0,0c-1.7,7.2-3.3,14.3-4.7,21.4
		c-4.2,21.8-6.4,42.4-5.1,58.5c0.9,11.8,7.7,23.8,17.4,36.5c2.8,3.7,5.9,7.4,9.1,11.1c1.1,1.3,2.2,2.6,3.4,3.9l0,0l0,0
		c6.4,7.3,29.1,11.5,36.2,19.4c14.1,15.6,12.9,35.8,24.2,54.5c3.5,5.8,6.7,11.7,9.4,17.8c0.3,0.7,0.6,1.3,0.9,2
		C638.2,785.9,680,831.7,680,831.7z"/>
	<path class="st15" d="M439.4,572.7l-23.3,129.2l0,0l0,0l-10.1,56l0,0l-8.4,46.5l-22,122.2l-8.7-1.4l17.4-120.6l33.2-231.9
		L439.4,572.7L439.4,572.7z"/>
	<path class="st38" d="M926.8,545.9c-0.2,0.9-0.4,1.7-0.7,2.4c0,0.1-0.1,0.2-0.1,0.3s-0.7,1.2-0.8,1.3c-0.1,0.2-2.1,2-2.2,2.2
		s-3,2.1-3.2,2.2c-0.2,0.3-6.2,3.2-6.5,3.6c-0.2,0.2-9.5,3.9-9.7,4.1c-0.4,0.4-12,3.7-12.5,4.1l-11.5,2.3
		c-8.4,1.4-16.2,1.5-21.6-0.3c-7.3-2.4-34.8-5.7-51-13.9c-1-0.5-2-1.1-3-1.7c-4.3-2.6-8.1-4.3-11.5-5.4c-11.8-3.8-18.9,0.3-24.5,4.5
		c-2.6,2-6.5,9.7-8.8,15.4c-28.8-11.4-33.8-59.3-24.8-67.7c9.6-9,86.4,35.4,103.8,46.5C855.7,557,926.8,545.9,926.8,545.9z"/>
	<path class="st21" d="M455,246.6L455,246.6c-0.4,3-0.7,5.9-1,8.7c-0.1,1.3-0.3,2.7-0.4,3.9c-0.5,5.5-0.9,10.4-1.1,14.7h-34.2
		c1.3-1.2,2.2-6.5,2.9-9.5c0.2-0.7,0.3-1.2,0.4-1.6c1.1-3.3,1.6-7.2,1.6-11.3c0.1-15.9-6.2-35.4-6.4-36l0,0l17.1-1.7
		C437,220.8,457,230.1,455,246.6z"/>
	<path class="st21" d="M368.9,201.9c0,0-3.3,20.1-19.6,44.8c-0.1,0.2-0.2,0.3-0.3,0.5c-0.6,0.9-1.2,1.8-1.8,2.7
		c-2.7,3.8-5.7,7.8-9,11.8l-34.5-6.2l-4-0.7c0.1-0.1,0.1-0.1,0.2-0.2c1.6-1.3,2.8-3.1,3.8-5.2c1.5-3.3,2.4-7.3,2.8-11.6
		c1.6-15.9-2.8-35.9-2.8-35.9H368.9L368.9,201.9z"/>
	<path class="st21" d="M354.9,355.4h-26c1.5-1.5,2.6-8.9,3.4-11.1c5.5-15.7-4.5-46.5-4.7-47.3l37.8,30.9l0,0
		c0.8,3.8,1.4,6.9,1.7,8.6C367.5,340.3,361.5,348.1,354.9,355.4z"/>
	<path class="st21" d="M467.8,382h-42.3l6.5-65l30.5,3.1c-0.6,4.7-1.1,11.4-1.1,20.4c0,3.5,0.3,7.4,0.8,11.6
		c0.7,5.4,1.6,11.1,2.7,16.6c0.4,2,0.8,3.9,1.2,5.7C466.6,377.1,467.2,379.7,467.8,382z"/>
	<path class="st21" d="M397.6,493.5h-40.3c1.5-1.5,2.6-8.9,3.4-11.1c0.4-1,0.7-2.1,0.9-3.2c0.5-2.5,0.8-5.3,0.8-8.2
		c0.1-15.9-6.2-35.3-6.4-35.9l0,0l0,0l37.1-3.7c1.8,10,3.9,24,4.8,37.9c0.1,1.5,0.2,2.9,0.2,4.4c0,0.8,0.1,1.7,0.1,2.5
		C398.4,482.3,398.2,488.1,397.6,493.5z"/>
	<path class="st21" d="M1217.9,1013c-0.2,0.7-0.4,1.4-0.6,2.2c-4.5,16.2-19.5,65.7-34.7,106.9c-0.2,0.5-0.4,1-0.6,1.6
		c-5.4,14.5-10.9,28-15.9,38.4c-1.9,1.7-3.8,3-5.4,3.8c-2.4,1.2-4.7,1.8-6.9,2.1c-3,0.3-5.9-1.5-6.6-4.4c0-0.2-0.1-0.4-0.1-0.6
		c-0.2-2.9,0.7-4.4,2.3-7.3l-3.3,2.2c-2.1,2.4-5.9,2-7.5-0.7c-10.1-17-9.3-55.5,22.1-110.8c5-8.8,9.6-16.5,13.9-23.3l-0.7-17.2
		v-43.2c-1.2-2.2-2.4-4.4-3.6-6.4c-9-14.8-23.8-38-27.7-58.1c-4-20.6-3.1-39.9,1.2-56.5c-1.3-12-2-24.7,0.2-28.9
		c0.8-1.6,1.6-2.9,2.4-3.8c0.5-2,1.3-4.1,2.5-6.1c13.5-23.9,14.2-38.6,23.2-43.2l7.7-1.6c0,0-5.3,19-9.6,39.6
		c-3.7,17.8-6.6,36.8-4.6,45.7c4.4,19.1-18,70.1,26,95.1c8.6,4.9,19.9,20.3,23.3,31.3c0.5,1.7,1.1,3.5,1.5,5.3
		c1.3,4.9,2.2,9.9,2.7,14.8C1220.2,998,1219.8,1005.9,1217.9,1013z"/>
	<path class="st21" d="M1298.6,1131.7c-0.4,10.6-1,20.1-2.1,27.7c-0.1,0.9-0.3,1.8-0.4,2.7c-2-0.8-4.1-2.1-6.1-3.7
		c-15.6-12.7-29-49.3-23.2-110.9c1.1-11.7,2.3-22,3.7-31l-3.8-20.7l-3.1-16.7c0.2,0,2.3,0,5.4,0.3c0.5,0.1,1,0.1,1.5,0.2
		c2.2,0.3,4.7,0.9,7.4,1.8c8.6,3,18,9.6,18.3,24.4l0,0c0.2,7.7,0.9,23.9,1.6,43.4C1298.7,1074.9,1299.3,1106.3,1298.6,1131.7z"/>
	<polygon class="st37" points="1150.8,509.8 1003.7,544.9 1003.7,572.7 1145.8,572.7 1205.1,509.8 	"/>
	<g>
		<polygon class="st39" points="1216.1,436.6 1216.1,447.4 1213.3,447.4 1213.2,449.4 1142.8,449.4 1142.4,447.4 1139.7,447.4 
			1139.7,436.6 		"/>
		<g>
			<path class="st40" d="M1213.3,447.4l-0.3,2l-0.7,5.7l-7.3,54.8l-7.5,2.2c-6.1,1.8-12.4,2.8-18.8,2.9c-6.9,0.1-13.8-0.9-20.4-2.9
				l-7.5-2.2l-7.3-54.8l-0.8-5.7l-0.3-2L1213.3,447.4L1213.3,447.4z"/>
			<rect x="1139.6" y="434.6" class="st39" width="76.5" height="12.8"/>
		</g>
		<polygon class="st41" points="1213.3,447.4 1213.2,449.4 1212.3,455 1143.4,455 1142.8,449.4 1142.4,447.4 		"/>
	</g>
	<path class="st37" d="M1178.8,447.4V515c-6.9,0.1-13.8-0.9-20.4-2.9l-7.5-2.2l-7.3-54.8l-0.8-5.7l-0.3-2L1178.8,447.4L1178.8,447.4
		z"/>
</g>
</svg>
