<?xml version="1.0" encoding="utf-8"?>
<!-- Generator: Adobe Illustrator 24.1.0, SVG Export Plug-In . SVG Version: 6.00 Build 0)  -->
<svg version="1.1" id="Layer_1" xmlns="http://www.w3.org/2000/svg" xmlns:xlink="http://www.w3.org/1999/xlink" x="0px" y="0px"
	 viewBox="0 0 1016.79 573.59" style="enable-background:new 0 0 1016.79 573.59;" xml:space="preserve">
<style type="text/css">
	.st0{fill:#FFFFFF;}
	.st1{fill:#D29229;}
	.st2{fill:#777777;stroke:#777777;}
	.st3{stroke:#000000;stroke-width:2;}
	.st4{fill:none;stroke:#000000;stroke-width:3;}
	.st5{font-family:'ProximaNova-Black';}
	.st6{font-size:125.867px;}
</style>
<path class="st0" d="M788.39,285.31c0,150.71-122.18,272.89-272.89,272.89c-147.45,0-267.59-116.95-272.72-263.15h40.82v-21.58
	h-31.02v-60.2h-0.36C283.82,97.52,389.73,12.43,515.5,12.43C666.21,12.43,788.39,134.6,788.39,285.31z"/>
<path class="st1" d="M0,213.27v81.78h24.77v-81.78H0z M129.23,252.88c7.98-1.72,13.98-8.58,13.98-18.76
	c0-9.57-7.36-20.85-24.28-20.85H69.28v81.79h51.37c16.43,0,24.16-10.79,24.16-22.19C144.81,262.32,138.06,254.23,129.23,252.88z
	 M94.04,233.38h19.13c2.57,0,4.9,2.21,4.9,5.03c0,2.94-2.33,5.27-4.9,5.27H94.04V233.38z M113.91,274.94H94.04v-11.16h19.87
	c3.56,0,5.76,2.7,5.76,5.65C119.67,272.49,117.47,274.94,113.91,274.94z M216.78,233.87v-20.6h-62.05v81.78h62.05v-20.6h-37.27
	v-10.42h36.41v-20.6h-36.41v-9.56H216.78z M252.22,213.27h-24.41v81.78h14.97c-0.11-3.23-0.17-6.48-0.17-9.74
	C242.61,260.37,245.96,236.22,252.22,213.27z"/>
<polygon class="st2" points="741.08,213.27 741.08,234.85 719.25,234.85 719.25,295.05 694.49,295.05 694.49,234.85 672.54,234.85 
	672.54,213.27 "/>
<path class="st2" d="M649.73,213.27h-31.14l-30.16,81.78h26.85l3.19-10.54h31.39l3.18,10.54h26.85L649.73,213.27z M624.84,263.91
	l9.32-28.81l9.32,28.81H624.84z"/>
<path class="st2" d="M554.96,247.11v32.87c-9.08,10.05-21.34,16.55-37.4,16.55c-24.76,0-44.99-16.18-44.99-42.3
	c-0.02-26.25,20.22-42.31,44.99-42.31c19,0,30.28,9.56,35.92,20.11l-20.84,10.66c-2.7-5.02-8.09-8.95-15.08-8.95
	c-11.9,0-19.87,9.07-19.87,20.47c0,11.4,7.97,20.48,19.87,20.48c5.27,0,10.18-1.35,13.36-3.68v-3.56h-15.81v-20.34H554.96z"/>
<polygon class="st2" points="463.72,213.27 463.72,295.05 439.94,295.05 409.78,251.16 409.78,295.05 385.01,295.05 385.01,213.27 
	410.51,213.27 438.96,254.47 438.96,213.27 "/>
<path class="st2" d="M331.43,211.92c-25.26,0-44.76,17.16-44.76,42.3c0,25.14,19.5,42.3,44.76,42.3s44.75-17.16,44.75-42.3
	C376.18,229.08,356.69,211.92,331.43,211.92z M331.43,274.7c-11.9,0-19.62-9.08-19.62-20.48c0-11.4,7.72-20.47,19.62-20.47
	c11.89,0,19.61,9.07,19.61,20.47C351.04,265.62,343.32,274.7,331.43,274.7z"/>
<path class="st2" d="M283.6,273.47v21.58h-40.82c-0.11-3.23-0.17-6.48-0.17-9.74c0-24.94,3.35-49.09,9.61-72.04h0.36v60.2H283.6z"/>
<path class="st3" d="M60.83,377.65l-10.7,47.02H23.76L0,341.7h28.11l10.7,50.75l12.56-50.75h18.91l12.56,50.75l10.57-50.75h28.24
	l-23.76,82.96H71.51L60.83,377.65z"/>
<path class="st3" d="M161.08,398.05h-9.08v26.62h-25.12V341.7h44.28c19.41,0,29.85,12.94,29.85,28.48c0,14.3-8.33,21.89-14.93,25.12
	l15.05,29.36h-28.61L161.08,398.05z M167.3,362.59H152v14.56h15.3c4.23,0,8.21-2.74,8.21-7.34
	C175.51,365.33,171.53,362.59,167.3,362.59z"/>
<path class="st3" d="M211.21,341.7h62.94v20.9h-37.81v9.7h36.94v20.9h-36.94v10.57h37.81v20.9h-62.94V341.7z"/>
<path class="st3" d="M280.87,383.25c0-25.62,19.65-42.91,45.02-42.91c22.38,0,33.33,12.69,38.31,24.13l-21.65,10.08
	c-2.11-6.47-8.58-12.06-16.67-12.06c-11.44,0-19.53,9.2-19.53,20.77s8.08,20.77,19.53,20.77c8.08,0,14.56-5.6,16.67-12.06
	l21.65,9.95c-4.85,11.07-15.92,24.25-38.31,24.25C300.52,426.16,280.87,408.74,280.87,383.25z"/>
<path class="st3" d="M401.77,395.44l-4.61,6.22v23.01h-25.12V341.7h25.12v31.1l21.77-31.1h30.72l-31.34,38.56l32.72,44.4h-30.6
	L401.77,395.44z"/>
<path class="st3" d="M455.51,341.7h25.12v82.96h-25.12V341.7z"/>
<path class="st3" d="M519.19,380.13v44.53h-25.12V341.7h25.87l28.86,41.79V341.7h25.12v82.96h-24.13L519.19,380.13z"/>
<path class="st3" d="M628.52,340.34c19.28,0,30.72,9.7,36.45,20.4l-21.15,10.82c-2.74-5.1-8.21-9.08-15.3-9.08
	c-12.06,0-20.15,9.2-20.15,20.77s8.08,20.77,20.15,20.77c5.35,0,10.32-1.37,13.55-3.73v-3.61h-16.05v-20.66h40.43v33.33
	c-9.2,10.2-21.65,16.79-37.93,16.79c-25.12,0-45.65-16.42-45.65-42.91C582.88,356.63,603.4,340.34,628.52,340.34z"/>
<path class="st3" d="M709.38,341.7h50.38c17.17,0,24.62,11.44,24.62,21.15c0,10.32-6.1,17.29-14.18,19.03
	c8.96,1.37,15.79,9.58,15.79,20.27c0,11.57-7.84,22.51-24.5,22.51h-52.11L709.38,341.7L709.38,341.7z M753.91,372.55
	c2.61,0,4.98-2.37,4.98-5.35c0-2.86-2.37-5.1-4.98-5.1H734.5v10.45C734.5,372.55,753.91,372.55,753.91,372.55z M754.65,404.27
	c3.61,0,5.84-2.49,5.84-5.6c0-2.99-2.24-5.73-5.84-5.73H734.5v11.32L754.65,404.27L754.65,404.27z"/>
<path class="st3" d="M849.44,413.97H817.6l-3.23,10.7h-27.24l30.6-82.96h31.6l30.6,82.96h-27.24L849.44,413.97z M824.06,393.07
	h18.91l-9.45-29.23L824.06,393.07z"/>
<path class="st3" d="M884.39,341.7h25.12v61.07h31.47v21.89h-56.59L884.39,341.7L884.39,341.7z"/>
<path class="st3" d="M951.06,341.7h25.12v61.07h31.47v21.89h-56.59V341.7z"/>
<text transform="matrix(1 0 0 1 1.51 175.6474)" class="st4 st5 st6">WHY</text>
</svg>
