<?xml version="1.0" encoding="utf-8"?>
<!-- Generator: Adobe Illustrator 24.1.0, SVG Export Plug-In . SVG Version: 6.00 Build 0)  -->
<svg version="1.1" id="Layer_1" xmlns="http://www.w3.org/2000/svg" xmlns:xlink="http://www.w3.org/1999/xlink" x="0px" y="0px"
	 viewBox="0 0 1031 125" style="enable-background:new 0 0 1031 125;" xml:space="preserve">
<style type="text/css">
	.st0{fill:#D29229;stroke:#D29229;stroke-width:2;}
</style>
<g id="Layer_2">
	<path class="st0" d="M4.34,5.99h34.11v112.63H4.34V5.99z M99.75,5.99h68.39c23.3,0,33.44,15.54,33.44,28.71
		c0,14.02-8.27,23.47-19.25,25.84c12.16,1.86,21.45,13,21.45,27.53c0,15.7-10.64,30.56-33.27,30.56H99.75V5.99z M160.2,47.87
		c3.55,0,6.75-3.21,6.75-7.26c0-3.88-3.21-6.92-6.75-6.92h-26.34v14.18H160.2z M161.22,90.93c4.9,0,7.94-3.38,7.94-7.6
		c0-4.05-3.04-7.77-7.94-7.77h-27.36v15.37H161.22z M217.45,5.99h85.45v28.37h-51.33v13.17h50.15V75.9h-50.15v14.35h51.33v28.37
		h-85.45V5.99z M318.1,5.99h34.11V88.9h42.72v29.72H318.1V5.99z M460.8,4.13c34.79,0,61.64,23.64,61.64,58.26
		s-26.85,58.26-61.64,58.26s-61.64-23.64-61.64-58.26S426.01,4.13,460.8,4.13z M460.8,34.19c-16.38,0-27.02,12.5-27.02,28.2
		s10.64,28.2,27.02,28.2s27.02-12.5,27.02-28.2S477.18,34.19,460.8,34.19z M568.71,58.17v60.45H534.6V5.99h35.12l39.18,56.74V5.99
		h34.11v112.63h-32.76L568.71,58.17z M717.15,4.13c26.17,0,41.71,13.17,49.48,27.69l-28.71,14.69
		c-3.72-6.92-11.14-12.33-20.77-12.33c-16.38,0-27.36,12.5-27.36,28.2s10.98,28.2,27.36,28.2c7.26,0,14.02-1.86,18.41-5.07v-4.9
		h-21.78V52.6h54.88v45.26c-12.5,13.85-29.38,22.8-51.5,22.8c-34.11,0-61.97-22.29-61.97-58.26
		C655.17,26.25,683.04,4.13,717.15,4.13z M899.36,104.1h-43.23l-4.39,14.52h-36.98L856.3,5.99h42.89l41.54,112.63h-36.98
		L899.36,104.1z M864.91,75.73h25.67l-12.83-39.68L864.91,75.73z M960.83,35.71H930.6V5.99h94.4v29.72h-30.06v82.91h-34.11V35.71z"
		/>
</g>
</svg>
