<?xml version="1.0" encoding="utf-8"?>
<!-- Generator: Adobe Illustrator 24.1.0, SVG Export Plug-In . SVG Version: 6.00 Build 0)  -->
<svg version="1.1" id="Layer_1" xmlns="http://www.w3.org/2000/svg" xmlns:xlink="http://www.w3.org/1999/xlink" x="0px" y="0px"
	 viewBox="0 0 1016.79 1042.41" style="enable-background:new 0 0 1016.79 1042.41;" xml:space="preserve">
<style type="text/css">
	.st0{fill:#D29229;}
	.st1{stroke:#000000;stroke-width:2;}
	.st2{fill:#FFFFFF;}
	.st3{fill:none;stroke:#000000;stroke-width:3;}
	.st4{fill:#777777;stroke:#777777;}
	.st5{fill:none;stroke:#D29229;stroke-miterlimit:10;}
	.st6{fill:#FFFFFF;stroke:#777777;}
</style>
<path class="st0" d="M297.43,414.22v-28.27h-85.14v112.21h85.14V469.9h-51.14v-14.3h49.96v-28.26h-49.96v-13.12H297.43z
	 M177.31,440.3c10.95-2.36,19.18-11.77,19.18-25.74c0-13.13-10.1-28.61-33.31-28.61H95.05v112.22h70.49
	c22.54,0,33.14-14.8,33.14-30.44C198.68,453.25,189.42,442.15,177.31,440.3z M129.03,413.55h26.24c3.53,0,6.73,3.03,6.73,6.9
	c0,4.03-3.2,7.23-6.73,7.23h-26.24V413.55z M156.29,470.57h-27.26v-15.31h27.26c4.88,0,7.9,3.7,7.9,7.75
	C164.19,467.21,161.17,470.57,156.29,470.57z M0,385.95v112.21h33.99V385.95H0z"/>
<path class="st0" d="M346.55,385.95v13.3c-15.42,30.56-26.25,63.83-31.57,98.91h-2.42V385.95H346.55z"/>
<path class="st0" d="M1016.79,385.95v29.61h-29.96v82.6h-16.47c-3.52-23.18-9.44-45.57-17.5-66.91v-15.69h-6.39
	c-4.44-10.14-9.37-20.02-14.77-29.61H1016.79z"/>
<path class="st1" d="M92.8,580.92l-16.32,71.73H36.25L0,526.08h42.89L59.2,603.5l19.17-77.43h28.85l19.17,77.43l16.12-77.43h43.08
	l-36.25,126.57h-40.23L92.8,580.92z"/>
<path class="st2" d="M454.73,414.05c-16.32,0-26.92,12.45-26.92,28.09s10.6,28.1,26.92,28.1s26.91-12.46,26.91-28.1
	S471.05,414.05,454.73,414.05z M454.73,414.05c-16.32,0-26.92,12.45-26.92,28.09s10.6,28.1,26.92,28.1s26.91-12.46,26.91-28.1
	S471.05,414.05,454.73,414.05z M454.73,414.05c-16.32,0-26.92,12.45-26.92,28.09s10.6,28.1,26.92,28.1s26.91-12.46,26.91-28.1
	S471.05,414.05,454.73,414.05z M454.73,414.05c-16.32,0-26.92,12.45-26.92,28.09s10.6,28.1,26.92,28.1s26.91-12.46,26.91-28.1
	S471.05,414.05,454.73,414.05z M952.86,498.16 M952.86,431.25c-2-5.29-4.13-10.52-6.39-15.69h-23.72v-29.61h8.95
	c-56.82-100.91-164.97-169.07-289.03-169.07c-129.43,0-241.54,74.19-296.12,182.37v69.3h42.56v29.61h-74.13
	c-2.49,16.37-3.78,33.13-3.78,50.19c0,183.07,148.41,331.47,331.47,331.47c183.07,0,331.47-148.4,331.47-331.47
	c0-17.06-1.29-33.82-3.78-50.19 M454.73,500.18c-34.65,0-61.41-23.55-61.41-58.04s26.76-58.04,61.41-58.04
	c34.66,0,61.4,23.55,61.4,58.04S489.39,500.18,454.73,500.18z M636.24,498.16h-32.63l-41.38-60.22v60.22h-33.98V385.95h34.98
	l39.04,56.53v-56.53h33.97V498.16z M761.42,477.48c-12.45,13.79-29.28,22.71-51.31,22.71c-33.97,0-61.73-22.2-61.73-58.04
	c-0.03-36.01,27.74-58.05,61.73-58.05c26.07,0,41.54,13.12,49.28,27.59l-28.59,14.63c-3.7-6.89-11.1-12.28-20.69-12.28
	c-16.33,0-27.26,12.44-27.26,28.09c0,15.64,10.93,28.09,27.26,28.09c7.23,0,13.97-1.85,18.33-5.04v-4.89h-21.69v-27.91h54.67V477.48
	z M895.99,498.16l-4.36-14.46h-43.07l-4.38,14.46h-36.83l41.38-112.21h42.72l41.38,112.21H895.99z M454.73,414.05
	c-16.32,0-26.92,12.45-26.92,28.09s10.6,28.1,26.92,28.1s26.91-12.46,26.91-28.1S471.05,414.05,454.73,414.05z M454.73,414.05
	c-16.32,0-26.92,12.45-26.92,28.09s10.6,28.1,26.92,28.1s26.91-12.46,26.91-28.1S471.05,414.05,454.73,414.05z M454.73,414.05
	c-16.32,0-26.92,12.45-26.92,28.09s10.6,28.1,26.92,28.1s26.91-12.46,26.91-28.1S471.05,414.05,454.73,414.05z M454.73,414.05
	c-16.32,0-26.92,12.45-26.92,28.09s10.6,28.1,26.92,28.1s26.91-12.46,26.91-28.1S471.05,414.05,454.73,414.05z M454.73,414.05
	c-16.32,0-26.92,12.45-26.92,28.09s10.6,28.1,26.92,28.1s26.91-12.46,26.91-28.1S471.05,414.05,454.73,414.05z"/>
<path class="st1" d="M245.76,612.04h-13.85v40.61h-38.33V526.08h67.55c29.61,0,45.54,19.73,45.54,43.46
	c0,21.82-12.71,33.4-22.78,38.33l22.96,44.79H263.2L245.76,612.04z M255.24,557.95H231.9v22.21h23.34c6.46,0,12.53-4.18,12.53-11.19
	C267.77,562.13,261.69,557.95,255.24,557.95z"/>
<path class="st1" d="M322.24,526.08h96.02v31.89h-57.69v14.8h56.36v31.89h-56.36v16.12h57.69v31.89h-96.02V526.08z"/>
<path class="st1" d="M428.51,589.46c0-39.09,29.98-65.47,68.69-65.47c34.15,0,50.86,19.36,58.44,36.82l-33.02,15.37
	c-3.22-9.87-13.1-18.4-25.43-18.4c-17.46,0-29.79,14.04-29.79,31.69c0,17.65,12.33,31.69,29.79,31.69c12.33,0,22.21-8.54,25.43-18.4
	l33.02,15.18c-7.4,16.89-24.29,37-58.44,37C458.49,654.93,428.51,628.36,428.51,589.46z"/>
<path class="st1" d="M612.97,608.06l-7.03,9.49v35.11h-38.33V526.08h38.33v47.44l33.21-47.44h46.87L638.2,584.9l49.91,67.75h-46.68
	L612.97,608.06z"/>
<path class="st1" d="M694.95,526.08h38.33v126.57h-38.33V526.08z"/>
<path class="st1" d="M792.11,584.71v67.94h-38.33V526.08h39.47l44.02,63.76v-63.76h38.33v126.57h-36.82L792.11,584.71z"/>
<path class="st1" d="M958.91,523.99c29.41,0,46.87,14.8,55.61,31.12l-32.26,16.51c-4.18-7.78-12.53-13.85-23.34-13.85
	c-18.4,0-30.75,14.04-30.75,31.69c0,17.65,12.33,31.69,30.75,31.69c8.16,0,15.75-2.08,20.68-5.69v-5.5h-24.48v-31.52h61.68v50.86
	c-14.04,15.56-33.02,25.62-57.87,25.62c-38.33,0-69.65-25.05-69.65-65.47C889.28,548.85,920.58,523.99,958.91,523.99z"/>
<path class="st1" d="M-0.29,680.84h77.18c26.3,0,37.73,17.53,37.73,32.4c0,15.82-9.34,26.48-21.73,29.16
	c13.72,2.09,24.2,14.67,24.2,31.06c0,17.73-12.01,34.49-37.54,34.49H-0.3V680.84H-0.29z M67.93,728.1c4,0,7.63-3.63,7.63-8.2
	c0-4.38-3.63-7.81-7.63-7.81H38.2v16.01C38.2,728.1,67.93,728.1,67.93,728.1z M69.08,776.69c5.52,0,8.95-3.81,8.95-8.58
	c0-4.57-3.43-8.77-8.95-8.77H38.2v17.34h30.88V776.69z"/>
<path class="st1" d="M214.3,791.56h-48.78l-4.95,16.39h-41.73l46.87-127.11h48.41l46.87,127.11h-41.73L214.3,791.56z M175.42,759.54
	h28.97l-14.48-44.78L175.42,759.54z"/>
<path class="st1" d="M267.85,680.84h38.49v93.57h48.21v33.54h-86.7L267.85,680.84L267.85,680.84z"/>
<path class="st1" d="M369.99,680.84h38.49v93.57h48.21v33.54h-86.7V680.84z"/>
<g>
	<path class="st3" d="M80.82,296.59L66.55,359.3H31.38L-0.3,248.65h37.49l14.27,67.68l16.76-67.68h25.22l16.76,67.68l14.1-67.68
		h37.66L130.26,359.3H95.09L80.82,296.59z"/>
	<path class="st3" d="M242.07,317h-39.65v42.3h-33.51V248.65h33.51v39.15h39.65v-39.15h33.51V359.3h-33.51V317z"/>
	<path class="st3" d="M323.02,315.34l-41.47-66.69h37.66l20.57,37.33l20.24-37.33h37.66l-41.14,66.69v43.96h-33.51V315.34z"/>
</g>
<path class="st4" d="M970.36,498.16h-17.5v-66.91C960.92,452.59,966.84,474.98,970.36,498.16z"/>
<path class="st5" d="M891.45,385.95h-42.72l-41.38,112.21h36.83l4.38-14.46h43.07l4.36,14.46h36.84L891.45,385.95z M857.3,455.43
	l12.79-39.52l12.79,39.52H857.3z"/>
<polygon class="st5" points="882.88,455.43 857.3,455.43 870.09,415.91 "/>
<path class="st4" d="M891.45,385.95h-42.72l-41.38,112.21h36.83l4.38-14.46h43.07l4.36,14.46h36.84L891.45,385.95z"/>
<polygon class="st6" points="882.88,455.43 857.3,455.43 870.09,415.91 "/>
<path class="st4" d="M946.47,415.56h-23.72v-29.61h8.95C937.1,395.54,942.03,405.42,946.47,415.56z"/>
<path class="st4" d="M389.11,468.55v29.61h-74.13c5.32-35.08,16.15-68.35,31.57-98.91v69.3H389.11z"/>
<path class="st4" d="M454.73,384.1c-34.65,0-61.41,23.55-61.41,58.04s26.76,58.04,61.41,58.04c34.66,0,61.4-23.55,61.4-58.04
	S489.39,384.1,454.73,384.1z M454.73,470.24c-16.32,0-26.92-12.46-26.92-28.1s10.6-28.09,26.92-28.09s26.91,12.45,26.91,28.09
	S471.05,470.24,454.73,470.24z"/>
<polygon class="st4" points="636.24,385.95 636.24,498.16 603.61,498.16 562.23,437.94 562.23,498.16 528.25,498.16 528.25,385.95 
	563.23,385.95 602.27,442.48 602.27,385.95 "/>
<path class="st4" d="M761.42,432.38v45.1c-12.45,13.79-29.28,22.71-51.31,22.71c-33.97,0-61.73-22.2-61.73-58.04
	c-0.03-36.01,27.74-58.05,61.73-58.05c26.07,0,41.54,13.12,49.28,27.59l-28.59,14.63c-3.7-6.89-11.1-12.28-20.69-12.28
	c-16.33,0-27.26,12.44-27.26,28.09c0,15.64,10.93,28.09,27.26,28.09c7.23,0,13.97-1.85,18.33-5.04v-4.89h-21.69v-27.91H761.42z"/>
</svg>
