<?xml version="1.0" encoding="utf-8"?>
<!-- Generator: Adobe Illustrator 24.1.0, SVG Export Plug-In . SVG Version: 6.00 Build 0)  -->
<svg version="1.1" id="Layer_1" xmlns="http://www.w3.org/2000/svg" xmlns:xlink="http://www.w3.org/1999/xlink" x="0px" y="0px"
	 viewBox="0 0 100 100" style="enable-background:new 0 0 100 100;" xml:space="preserve">
<style type="text/css">
	.st0{opacity:0.8;fill:#CECCCD;}
</style>
<path class="st0" d="M83.8,4.5H16.2C9.7,4.5,4.5,9.7,4.5,16.2v67.5c0,6.5,5.3,11.8,11.8,11.8h67.5c6.5,0,11.8-5.3,11.8-11.8V16.2
	C95.5,9.7,90.3,4.5,83.8,4.5z M53.3,28.5c-0.9-0.5-1.9-0.7-3.6-0.7c-7,0-11.4,5.8-11.4,13.4v30.6l10.4,0.5V82H15.9v-9.3l3.9-0.4
	c2.8-0.3,3.2-1.3,3.2-4.3V30.4c0-2.6-0.8-3.4-3-3.6l-4.4-0.3v-9.9H37v9.9h0.1c2.3-5.6,8-11.6,18.4-11.6c3.8,0,8.3,0.7,11.9,2.5v21.7
	l-13,0.9v-8.2C54.5,29.6,54.3,28.8,53.3,28.5z M73,82.7c-6.2,0-9.6-3.8-9.6-9.1c0-5.1,3.6-8.8,9.2-8.8c6,0,9.5,3.5,9.5,8.7
	C82.1,78.7,78.8,82.7,73,82.7z"/>
</svg>
