<?xml version="1.0" encoding="utf-8"?>
<!-- Generator: Adobe Illustrator 24.1.0, SVG Export Plug-In . SVG Version: 6.00 Build 0)  -->
<svg version="1.1" id="Layer_1" xmlns="http://www.w3.org/2000/svg" xmlns:xlink="http://www.w3.org/1999/xlink" x="0px" y="0px"
	 viewBox="0 0 1366 132" style="enable-background:new 0 0 1366 132;" xml:space="preserve">
<style type="text/css">
	.st0{stroke:#000000;stroke-width:2;}
</style>
<g id="Layer_16">
</g>
<g id="Layer_15">
</g>
<g id="Layer_14">
</g>
<g id="Layer_13">
	<path class="st0" d="M90.49,58.88l-14.33,62.99H40.83L9,10.72h37.66l14.33,67.99l16.83-67.99h25.33l16.83,67.99l14.16-67.99h37.83
		l-31.83,111.15h-35.33L90.49,58.88z"/>
</g>
<g id="Layer_12">
	<path class="st0" d="M224.81,86.21h-12.16v35.66h-33.66V10.72h59.32c26,0,39.99,17.33,39.99,38.16c0,19.16-11.16,29.33-20,33.66
		l20.16,39.33h-38.33L224.81,86.21z M233.14,38.71h-20.5v19.5h20.5c5.67,0,11-3.67,11-9.83C244.14,42.38,238.8,38.71,233.14,38.71z"
		/>
</g>
<g id="Layer_11">
	<path class="st0" d="M291.97,10.72h84.32v28h-50.66v13h49.49v28h-49.49v14.16h50.66v28h-84.32V10.72z"/>
</g>
<g id="Layer_10">
	<path class="st0" d="M385.29,66.38c0-34.33,26.33-57.49,60.32-57.49c29.99,0,44.66,17,51.32,32.33l-29,13.5
		c-2.83-8.67-11.5-16.16-22.33-16.16c-15.33,0-26.16,12.33-26.16,27.83s10.83,27.83,26.16,27.83c10.83,0,19.5-7.5,22.33-16.16
		l29,13.33c-6.5,14.83-21.33,32.49-51.32,32.49C411.62,123.87,385.29,100.54,385.29,66.38z"/>
</g>
<g id="Layer_9">
	<path class="st0" d="M547.27,82.71l-6.17,8.33v30.83h-33.66V10.72h33.66v41.66l29.16-41.66h41.16l-41.99,51.66l43.83,59.49h-40.99
		L547.27,82.71z"/>
</g>
<g id="Layer_8">
	<path class="st0" d="M619.26,10.72h33.66v111.15h-33.66V10.72z"/>
</g>
<g id="Layer_7">
	<path class="st0" d="M704.58,62.21v59.66h-33.66V10.72h34.66l38.66,55.99V10.72h33.66v111.15h-32.33L704.58,62.21z"/>
</g>
<g id="Layer_6">
	<path class="st0" d="M851.06,8.89c25.83,0,41.16,13,48.83,27.33l-28.33,14.5c-3.67-6.83-11-12.16-20.5-12.16
		c-16.16,0-27,12.33-27,27.83s10.83,27.83,27,27.83c7.17,0,13.83-1.83,18.16-5v-4.83h-21.5V56.71h54.16v44.66
		c-12.33,13.66-29,22.5-50.82,22.5c-33.66,0-61.16-22-61.16-57.49C789.91,30.72,817.4,8.89,851.06,8.89z"/>
</g>
<g id="Layer_5">
	<path class="st0" d="M959.38,10.72h67.49c23,0,32.99,15.33,32.99,28.33c0,13.83-8.17,23.16-19,25.5
		c12,1.83,21.16,12.83,21.16,27.16c0,15.5-10.5,30.16-32.83,30.16h-69.82V10.72z M1019.04,52.05c3.5,0,6.67-3.17,6.67-7.17
		c0-3.83-3.17-6.83-6.67-6.83h-26v14H1019.04z M1020.04,94.54c4.83,0,7.83-3.33,7.83-7.5c0-4-3-7.67-7.83-7.67h-27v15.16H1020.04z"
		/>
</g>
<g id="Layer_4">
	<path class="st0" d="M1147.03,107.54h-42.66l-4.33,14.33h-36.49l40.99-111.15h42.33l40.99,111.15h-36.49L1147.03,107.54z
		 M1113.03,79.54h25.33l-12.66-39.16L1113.03,79.54z"/>
</g>
<g id="Layer_3">
	<path class="st0" d="M1193.86,10.72h33.66v81.82h42.16v29.33h-75.82V10.72z"/>
</g>
<g id="Layer_2">
	<path class="st0" d="M1283.18,10.72h33.66v81.82H1359v29.33h-75.82V10.72z"/>
</g>
</svg>
